<?xml version="1.0" encoding="utf-8"?>
<!-- Generator: Adobe Illustrator 25.2.3, SVG Export Plug-In . SVG Version: 6.00 Build 0)  -->
<svg version="1.1" id="Layer_1" xmlns="http://www.w3.org/2000/svg" xmlns:xlink="http://www.w3.org/1999/xlink" x="0px" y="0px"
	 viewBox="0 0 425.11 150.45" style="enable-background:new 0 0 425.11 150.45;" xml:space="preserve">
<style type="text/css">
	.st0{fill:#F7A100;}
	.st1{fill:#53241B;}
	.st2{fill-rule:evenodd;clip-rule:evenodd;fill:#FFFFFF;}
</style>
<g>
	<path class="st0" d="M425.11,150.3l-26.02-92.43v0C388.49,21.4,353.78,0,321.73,0H0l25.64,92.59v0.14
		c10.65,36.78,45.39,57.36,75.64,57.71L425.11,150.3z M47.81,86.39c-0.07-0.2-12.17-44.1-17.51-63.35c27.39,0,291.4,0,291.4,0
		c21.69,0,47.47,14.6,55.23,41.16c0.08,0.29,15.51,56.02,17.52,63.21c-27.39,0-292.36,0-292.36,0
		C79.98,127.42,55.32,112.08,47.81,86.39z"/>
	<path class="st1" d="M47.81,86.39c-0.07-0.2-12.17-44.1-17.51-63.35c27.39,0,291.4,0,291.4,0c21.69,0,47.47,14.6,55.23,41.16
		c0.08,0.29,15.51,56.02,17.52,63.21c-27.39,0-292.36,0-292.36,0C79.98,127.42,55.32,112.08,47.81,86.39z"/>
	<g>
		<path class="st2" d="M94.54,107.14h10.21V64.18h11.88v-7.81h-11.88v-6.71c0-3.11,1.11-4.21,4.41-4.21h7.47v-9.62h-8.28
			c-7.91,0-13.81,4.31-13.81,13.82v6.71h-11.7l2.23,7.81h9.47V107.14z"/>
		<path class="st2" d="M129.51,90.11c0,11.52,9.02,17.62,17.03,17.62c5.31,0,9.92-2,13.12-6.01h0.2v5.41h10.21V56.36h-10.21v30.24
			c0,6.91-4.32,10.92-10.02,10.92c-5.8,0-10.11-4-10.11-10.92V56.36h-10.22V90.11z"/>
		<path class="st2" d="M188.15,107.14h10.22V76.9c0-6.91,4.3-10.92,10.12-10.92c5.71,0,10.01,4.01,10.01,10.92v30.24h10.21V73.39
			c0-11.52-9.01-17.63-16.92-17.63c-5.41,0-10.02,2-13.22,6.01h-0.2v-5.41h-10.22V107.14z"/>
		<path class="st2" d="M274,107.14h10.22V35.83H274v25.94c-3.8-3.61-7.9-6.01-13.11-6.01c-6.2,0-10.72,2.81-13.62,6.61
			c-2.8,3.6-3.6,6.91-3.6,19.33c0,12.52,0.81,15.82,3.6,19.43c2.91,3.81,7.42,6.6,13.62,6.6c5.21,0,9.91-2.4,13.11-5.91V107.14z
			 M263.98,65.98c9.52,0,10.02,8.42,10.02,15.73c0,7.41-0.5,15.82-10.02,15.82c-9.6,0-10.1-7.91-10.1-15.82
			C253.88,73.89,254.38,65.98,263.98,65.98z"/>
		<path class="st2" d="M328.7,107.14h10.21V72.49c0-12.52-8.6-16.73-21.12-16.73c-7.61,0-13.23,2-17.13,7.41l8.01,6.11
			c1.81-2.9,4.32-3.9,9.62-3.9c7.31,0,10.41,1.7,10.41,6.51v5.31h-14.12c-10.9,0-16.52,6.91-16.52,15.02
			c0,8.81,6.6,15.52,17.92,15.52c6.91,0,10.42-1.6,12.52-5.1h0.2V107.14z M328.7,89.31c0,7.91-2.9,8.81-11.42,8.81
			c-6.91,0-9.62-3-9.62-6.41c0-3.7,2.81-6.11,8.82-6.11h12.22V89.31z"/>
	</g>
</g>
</svg>
