<?xml version="1.0" encoding="UTF-8"?>
<svg width="48px" height="48px" viewBox="0 0 48 48" version="1.1" xmlns="http://www.w3.org/2000/svg" xmlns:xlink="http://www.w3.org/1999/xlink">
    <title>Accessibility</title>
    <g id="Accessibility" stroke="none" stroke-width="1" fill="none" fill-rule="evenodd">
        <path d="M5.5,8 C6.32842712,8 7,8.67157288 7,9.5 L7,38.5 C7,39.3284271 6.32842712,40 5.5,40 C4.67157288,40 4,39.3284271 4,38.5 L4,9.5 C4,8.67157288 4.67157288,8 5.5,8 Z M42.5,8 C43.3284271,8 44,8.67157288 44,9.5 L44,38.5 C44,39.3284271 43.3284271,40 42.5,40 C41.6715729,40 41,39.3284271 41,38.5 L41,9.5 C41,8.67157288 41.6715729,8 42.5,8 Z M17.4685778,16.0462454 C18.0000446,16.1806924 18.4150438,16.591777 18.5507711,17.1182305 C18.6864984,17.644684 18.5213064,18.2025416 18.12,18.5729555 L14.12,22.4974926 L21.5,22.4974926 C22.3284271,22.4974926 23,23.1627306 23,23.9833433 C23,24.803956 22.3284271,25.469194 21.5,25.469194 L14.13,25.469194 L18.13,29.3937312 C18.7375132,29.9763662 18.7531833,30.9365264 18.165,31.5383091 C17.5768167,32.1400917 16.6075132,32.1556139 16,31.5729789 L9.47,25.0432502 C9.39549193,24.9633287 9.27215859,24.7949323 9.1,24.5380609 C9.03567717,24.3737137 9.00180174,24.1992231 9,24.022966 C9.00277026,23.9099113 9.03610359,23.7184017 9.1,23.4484371 C9.15010306,23.3452993 9.25010306,23.1868086 9.4,22.9729648 L16,16.4729531 C16.3739412,16.0754322 16.9371111,15.9117985 17.4685778,16.0462454 Z M30.5314222,16.0462454 C31.0628889,15.9117985 31.6260588,16.0754322 32,16.4729531 L32,16.4729531 L38.6,22.9729648 C38.7498969,23.1868086 38.8498969,23.3452993 38.9,23.4484371 C38.9638964,23.7184017 38.9972297,23.9099113 39,24.022966 C38.9981983,24.1992231 38.9643228,24.3737137 38.9,24.5380609 C38.7278414,24.7949323 38.6045081,24.9633287 38.53,25.0432502 L38.53,25.0432502 L32,31.5729789 C31.3924868,32.1556139 30.4231833,32.1400917 29.835,31.5383091 C29.2468167,30.9365264 29.2624868,29.9763662 29.87,29.3937312 L29.87,29.3937312 L33.87,25.469194 L26.5,25.469194 C25.6715729,25.469194 25,24.803956 25,23.9833433 C25,23.1627306 25.6715729,22.4974926 26.5,22.4974926 L26.5,22.4974926 L33.88,22.4974926 L29.88,18.5729555 C29.4786936,18.2025416 29.3135016,17.644684 29.4492289,17.1182305 C29.5849562,16.591777 29.9999554,16.1806924 30.5314222,16.0462454 Z" id="accessibility" fill="#0071B3"></path>
    </g>
</svg>