<?xml version="1.0" encoding="UTF-8"?>
<svg width="48px" height="48px" viewBox="0 0 48 48" version="1.1" xmlns="http://www.w3.org/2000/svg" xmlns:xlink="http://www.w3.org/1999/xlink">
    <title>Current / Active</title>
    <g id="Current-/-Active" stroke="none" stroke-width="1" fill="none" fill-rule="evenodd">
        <path d="M24.0005,38 C16.2685,38 10.0005,31.732 10.0005,24 C10.0005,16.268 16.2685,10 24.0005,10 C31.7325,10 38.0005,16.268 38.0005,24 C38.0005,31.732 31.7325,38 24.0005,38 M44.5005,22.5 L40.9175,22.5 C40.6525,19.491 39.6035,16.513 37.6775,13.904 C34.6675,9.826 30.1795,7.5 25.5005,7.083 L25.5005,3.5 C25.5005,2.67 24.8305,2 24.0005,2 C23.1695,2 22.5005,2.67 22.5005,3.5 L22.5005,7.083 C19.4905,7.347 16.5135,8.397 13.9045,10.322 C9.8265,13.333 7.5005,17.82 7.0835,22.5 L3.5005,22.5 C2.6715,22.5 2.0005,23.172 2.0005,24 C2.0005,24.829 2.6715,25.5 3.5005,25.5 L7.0835,25.5 C7.3475,28.509 8.3965,31.487 10.3225,34.096 C13.3325,38.174 17.8205,40.5 22.5005,40.917 L22.5005,44.5 C22.5005,45.329 23.1715,46 24.0005,46 C24.8285,46 25.5005,45.329 25.5005,44.5 L25.5005,40.917 C28.5095,40.653 31.4865,39.603 34.0955,37.678 C38.1735,34.668 40.4995,30.18 40.9165,25.5 L44.5005,25.5 C45.3285,25.5 46.0005,24.829 46.0005,24 C46.0005,23.172 45.3285,22.5 44.5005,22.5 M34,24 C34,29.523 29.523,34 24,34 C18.477,34 14,29.523 14,24 C14,18.477 18.477,14 24,14 C29.523,14 34,18.477 34,24" id="current-location-active" fill="#0071B3"></path>
    </g>
</svg>