<?xml version="1.0" encoding="UTF-8"?>
<svg width="48px" height="48px" viewBox="0 0 48 48" version="1.1" xmlns="http://www.w3.org/2000/svg" xmlns:xlink="http://www.w3.org/1999/xlink">
    <title>Address</title>
    <g id="Address" stroke="none" stroke-width="1" fill="none" fill-rule="evenodd">
        <path d="M8,33 L8,27 L6.79965349,27 C5.80573231,27 5,26.1122704 5,25 C5,23.8954305 5.79868996,23 6.79965349,23 L8,23 L8,17 L6.79965349,17 C5.80573231,17 5,16.1122704 5,15 C5,13.8954305 5.79868996,13 6.79965349,13 L8,13 L8,8.50104195 C8,7.67203937 8.66836548,7 9.50050592,7 L30.4087497,7 L27.335976,10 L11,10 L11,13 L12.2003465,13 C13.1942677,13 14,13.8877296 14,15 C14,16.1045695 13.20131,17 12.2003465,17 L11,17 L11,23 L12.2003465,23 C13.1942677,23 14,23.8877296 14,25 C14,26.1045695 13.20131,27 12.2003465,27 L11,27 L11,33 L12.2003465,33 C13.1942677,33 14,33.8877296 14,35 C14,36.1045695 13.20131,37 12.2003465,37 L11,37 L11,40 L37,40 L37,22.7723193 L40,19.8433345 L40,41.4989581 C40,42.3279606 39.3316345,43 38.4994941,43 L9.50050592,43 C8.67179939,43 8,42.3287962 8,41.4989581 L8,37 L6.79965349,37 C5.80573231,37 5,36.1122704 5,35 C5,33.8954305 5.79868996,33 6.79965349,33 L8,33 Z M42.5664436,11.4252207 C43.1498736,12.0086508 43.1498736,12.9633726 42.5664436,13.5468027 L25.5618972,30.5513491 C25.5154107,30.5978356 25.4549283,30.6167301 25.4041431,30.6558187 C25.3537578,30.6944074 25.3009732,30.7286974 25.2457892,30.7606881 C25.1189262,30.8345666 24.9905636,30.8876511 24.8510042,30.9212413 C24.8138151,30.9303387 24.776226,30.9369368 24.7379372,30.943135 C24.6204714,30.9620295 24.5073044,30.9762253 24.3888389,30.967228 L19.500163,30.967228 C19.500063,30.967228 19.499963,30.967128 19.4998631,30.967128 C19.4997631,30.967128 19.4996631,30.967228 19.4995632,30.967228 C18.6714044,30.967228 18,30.2958235 18,29.4676648 L18,24.4691209 C18,23.9444737 18.2703213,23.4843078 18.6783024,23.2162859 L35.4572146,6.43757366 C35.7489296,6.14585864 36.1335175,6 36.5181055,6 C36.7993236,5.99960125 37.0680453,6.10507053 37.3136738,6.2620248 C37.4031477,6.31910817 37.5006193,6.35949641 37.5786965,6.43747369 L37.5786965,6.43757366 C37.5788965,6.43787358 37.5788965,6.43817349 37.5791964,6.43837343 C37.5794963,6.43857337 37.5797962,6.43867334 37.5799962,6.43887329 L42.5283547,11.3872318 C42.5351527,11.3939298 42.5370521,11.4032271 42.5436502,11.4101251 C42.5504482,11.4167232 42.5597455,11.4185227 42.5664436,11.4252207 Z M23.9020807,27.9681016 L35.3862352,16.484047 L32.5199702,13.617782 L20.9992263,25.1386259 L20.9992263,27.9681016 L23.9020807,27.9681016 Z M37.5068175,14.3632648 L39.3850703,12.485112 L36.5188053,9.61884693 L34.6406524,11.4969998 L37.5068175,14.3632648 Z" id="address" fill="#0071B3"></path>
    </g>
</svg>