<?xml version="1.0" encoding="UTF-8"?>
<svg width="48px" height="48px" viewBox="0 0 48 48" version="1.1" xmlns="http://www.w3.org/2000/svg" xmlns:xlink="http://www.w3.org/1999/xlink">
    <title>Alert</title>
    <g id="Alert" stroke="none" stroke-width="1" fill="none" fill-rule="evenodd">
        <path d="M21.1798202,39 C21.6025685,40.1957287 22.7315653,40.9964356 23.9998202,41 C25.2680751,40.9964356 26.3970719,40.1957287 26.8198202,39 L26.8198202,39 L29.9098202,39 C29.406949,41.8705634 26.9140978,43.964674 23.9998202,43.964674 C21.0855426,43.964674 18.5926915,41.8705634 18.0898202,39 L18.0898202,39 Z M23.9998202,4 C30.6272372,4 35.9998202,9.372583 35.9998202,16 L35.9998202,16 L35.9998202,21.62 C41.0155077,24.4975555 43.2483308,30.5556677 41.2998202,36 L41.2998202,36 L6.69982021,36 C4.75130966,30.5556677 6.98413267,24.4975555 11.9998202,21.62 L11.9998202,21.62 L11.9998202,16 C11.9998202,9.372583 17.3724032,4 23.9998202,4 Z M23.9998202,7 C19.0292575,7 14.9998202,11.0294373 14.9998202,16 L14.9998202,16 L14.9998202,21.61 C15.0005078,22.682484 14.4286189,23.6737581 13.4998202,24.21 C10.7165184,25.8169396 9.00133045,28.7861205 8.99982021,32 C9.00050712,32.3342119 9.02054063,32.6681037 9.05982021,33 L9.05982021,33 L38.9398202,33 C38.9790998,32.6681037 38.9991333,32.3342119 38.9998202,32 C38.9947425,28.7896943 37.2800323,25.8251509 34.4998202,24.22 C33.5710215,23.6837581 32.9991326,22.692484 32.9998202,21.62 L32.9998202,21.62 L32.9998202,16 C32.9998202,11.0294373 28.970383,7 23.9998202,7 Z" id="alert" fill="#0071B3"></path>
    </g>
</svg>