<?xml version="1.0" encoding="UTF-8"?>
<svg width="48px" height="48px" viewBox="0 0 48 48" version="1.1" xmlns="http://www.w3.org/2000/svg" xmlns:xlink="http://www.w3.org/1999/xlink">
    <title>Auction</title>
    <g id="Auction" stroke="none" stroke-width="1" fill="none" fill-rule="evenodd">
        <path d="M21.5002,37.0101 C22.3282,37.0101 23.0002,37.6811 23.0002,38.5101 C23.0002,39.3391 22.3282,40.0101 21.5002,40.0101 L21.5002,40.0101 L6.5002,40.0101 C5.6712,40.0101 5.0002,39.3391 5.0002,38.5101 C5.0002,37.6811 5.6712,37.0101 6.5002,37.0101 L6.5002,37.0101 Z M18.5002,32.119 C19.3282,32.119 20.0002,32.79 20.0002,33.619 C20.0002,34.448 19.3282,35.119 18.5002,35.119 L18.5002,35.119 L9.5002,35.119 C8.6712,35.119 8.0002,34.448 8.0002,33.619 C8.0002,32.79 8.6712,32.119 9.5002,32.119 L9.5002,32.119 Z M26.4766,6.439 C27.0626,5.853 28.0116,5.853 28.5976,6.439 L28.5976,6.439 L34.9616,12.804 C35.5476,13.389 35.5476,14.339 34.9616,14.925 C34.9396,14.947 34.9096,14.954 34.8866,14.974 C34.8656,14.998 34.8586,15.028 34.8366,15.05 L34.8366,15.05 L29.9496,19.937 L41.6166,31.604 C42.2026,32.19 42.2026,33.14 41.6166,33.725 C41.0306,34.311 40.0806,34.311 39.4946,33.725 L39.4946,33.725 L27.8276,22.058 L22.8156,27.071 C22.2296,27.657 21.2796,27.657 20.6936,27.071 L20.6936,27.071 L14.3306,20.707 C14.2316,20.608 14.1736,20.489 14.1086,20.373 C14.0766,20.317 14.0246,20.27 14.0006,20.211 C13.7806,19.669 13.8906,19.025 14.3306,18.586 C14.3306,18.585 14.3306,18.585 14.3306,18.585 L26.3506,6.565 C26.3736,6.543 26.4026,6.535 26.4266,6.515 C26.4466,6.492 26.4546,6.462 26.4766,6.439 Z M27.5376,9.621 L17.5116,19.646 L21.7546,23.889 L31.7796,13.864 L27.5376,9.621 Z" id="auction" fill="#0071B3"></path>
    </g>
</svg>