<?xml version="1.0" encoding="UTF-8"?>
<svg width="48px" height="48px" viewBox="0 0 48 48" version="1.1" xmlns="http://www.w3.org/2000/svg" xmlns:xlink="http://www.w3.org/1999/xlink">
    <title>Performance / Average</title>
    <g id="Performance-/-Average" stroke="none" stroke-width="1" fill="none" fill-rule="evenodd">
        <path d="M24,44 C35.045695,44 44,35.045695 44,24 C44,12.954305 35.045695,4 24,4 C12.954305,4 4,12.954305 4,24 C4,35.045695 12.954305,44 24,44 Z M17.5833475,27.3832933 C17.6929097,27.4327112 17.807835,27.4562436 17.9205714,27.4562436 C18.2334967,27.4562436 18.532248,27.2764127 18.6693375,26.9728456 L21.2428997,21.2714525 L23.788442,25.4224475 C23.9145863,25.6282187 24.124845,25.7679351 24.3635067,25.804547 L31.4779346,26.8990744 C31.9209992,26.9696167 32.3450739,26.6607411 32.4139744,26.2125868 C32.4828748,25.7644326 32.175641,25.3454475 31.7274868,25.276547 L24.9890291,24.2397013 L21.8320838,19.091756 C21.6731037,18.8325719 21.3820689,18.6826217 21.0804171,18.7016117 C20.7771236,18.7208754 20.5091286,18.9060147 20.3840241,19.183149 L17.172845,26.2973033 C16.9863923,26.7107062 17.1702181,27.1967858 17.5833475,27.3832933 L17.5833475,27.3832933 Z M32.980597,31.965393 L15.741791,31.965393 L15.741791,15.8208955 C15.741791,15.3675423 15.3742488,15 14.9208955,15 C14.4675423,15 14.1,15.3675423 14.1,15.8208955 L14.1,32.7860697 L14.1,32.7861791 L14.1,32.7862886 C14.1,33.2396418 14.4675423,33.6071841 14.9208955,33.6071841 L32.980597,33.6071841 C33.4339502,33.6071841 33.8014925,33.2396418 33.8014925,32.7862886 C33.8014925,32.3329353 33.4339502,31.965393 32.980597,31.965393 L32.980597,31.965393 Z" id="performance-average" fill="#0071B3"></path>
    </g>
</svg>