<?xml version="1.0" encoding="UTF-8"?>
<svg width="48px" height="48px" viewBox="0 0 48 48" version="1.1" xmlns="http://www.w3.org/2000/svg" xmlns:xlink="http://www.w3.org/1999/xlink">
    <title>Arrow Direction/Backward</title>
    <g id="Arrow-Direction/Backward" stroke="none" stroke-width="1" fill="none" fill-rule="evenodd">
        <path d="M36.4995,22.5989 L15.1245,22.5989 L23.1645,14.5589 C23.7485,13.9749 23.7485,13.0209 23.1645,12.4369 C22.5815,11.8539 21.6265,11.8539 21.0435,12.4369 L10.4725,23.0089 C10.4615,23.0189 10.4475,23.0219 10.4375,23.0319 C10.4195,23.0499 10.4135,23.0739 10.3965,23.0919 C10.2875,23.2119 10.1945,23.3479 10.1285,23.4979 C10.1165,23.5249 10.1085,23.5519 10.0985,23.5789 C10.0405,23.7359 10.0045,23.9029 10.0015,24.0789 C10.0015,24.0849 9.9995,24.0909 9.9995,24.0969 L9.9995,24.0989 L9.9995,24.0999 C9.9995,24.1069 10.0015,24.1129 10.0015,24.1189 C10.0045,24.2939 10.0405,24.4619 10.0985,24.6179 C10.1085,24.6459 10.1165,24.6729 10.1285,24.6999 C10.1945,24.8499 10.2875,24.9859 10.3965,25.1059 C10.4135,25.1239 10.4195,25.1479 10.4375,25.1649 C10.4475,25.1759 10.4615,25.1789 10.4725,25.1889 L21.0435,35.7599 C21.6265,36.3439 22.5815,36.3439 23.1645,35.7599 C23.7485,35.1769 23.7485,34.2219 23.1645,33.6389 L15.1245,25.5989 L36.4995,25.5989 C37.3245,25.5989 37.9995,24.9239 37.9995,24.0989 C37.9995,23.2739 37.3245,22.5989 36.4995,22.5989" id="arrow-backward" fill="#0071B3"></path>
    </g>
</svg>