<?xml version="1.0" encoding="UTF-8"?>
<svg width="48px" height="48px" viewBox="0 0 48 48" version="1.1" xmlns="http://www.w3.org/2000/svg" xmlns:xlink="http://www.w3.org/1999/xlink">
    <title>Transport / Bike</title>
    <g id="Transport-/-Bike" stroke="none" stroke-width="1" fill="none" fill-rule="evenodd">
        <path d="M37,21 C36.195483,21.0031297 35.3950178,21.1141186 34.62,21.33 L29.47,10.33 C29.2216662,9.74639113 28.6331102,9.382047 28,9.42 L24,9.42 C23.1715729,9.42000002 22.5,10.0915729 22.5,10.92 C22.5,11.7484271 23.1715729,12.42 24,12.42 L27.16,12.42 L28.32,14.91 L17.09,14.91 L16.88,14.91 L16.88,14.91 C16.4392401,15.0168946 16.0711624,15.3187182 15.88,15.73 L13.26,21.3 C9.6691128,20.3630864 5.87132501,21.7263371 3.69604553,24.7330691 C1.52076604,27.739801 1.4140662,31.773442 3.42734372,34.8909718 C5.44062124,38.0085015 9.16102554,39.5706271 12.7964237,38.8248667 C16.4318218,38.0791063 19.2367247,35.1783884 19.86,31.52 L23.69,31.52 L23.85,31.52 L23.96,31.52 L24.15,31.45 L24.15,31.45 L24.15,31.45 L24.34,31.33 L24.39,31.33 L24.56,31.17 L24.56,31.17 C24.61165,31.1104944 24.6584655,31.0469591 24.7,30.98 L24.7,30.98 L24.77,30.86 L30.14,19.35 L31.75,22.8 C28.2080222,25.4577938 27.1257206,30.2972562 29.1981117,34.2106524 C31.2705029,38.1240486 35.8817301,39.9484268 40.0706234,38.5122349 C44.2595167,37.0760429 46.7812543,32.8060766 46.016464,28.4443602 C45.2516736,24.0826437 41.4276295,20.925357 37,21 L37,21 Z M23.56,26.47 L19.56,17.91 L27.56,17.91 L23.56,26.47 Z M17.2,19.94 L21.2,28.51 L19.87,28.51 C19.462417,26.0619697 18.0620687,23.890887 16,22.51 L17.2,19.94 Z M16.8,28.51 L13.2,28.51 L14.7,25.29 C15.7379259,26.102434 16.4794446,27.2340406 16.81,28.51 L16.8,28.51 Z M11,36 C8.74206179,35.9910582 6.68032863,34.7152312 5.66482191,32.6985232 C4.64931519,30.6818153 4.85200564,28.2657452 6.18932704,26.4464221 C7.52664844,24.6270991 9.77213246,23.7126158 12,24.08 L9.49,29.38 C9.32007446,29.7418087 9.30158797,30.1564758 9.43864342,30.5319702 C9.57569887,30.9074645 9.85695862,31.2127242 10.22,31.38 C10.3564413,31.4415119 10.5014236,31.4819721 10.65,31.5 L10.65,31.5 L16.8,31.5 C16.1168873,34.1456983 13.7324612,35.9956841 11,36 Z M41.7938957,26.3907185 C43.1623431,28.2079784 43.3853694,30.642853 42.3698333,32.6784777 C41.3542971,34.7141025 39.2748806,36.0003302 37,36.0000001 C34.4690691,35.9974019 32.2119371,34.4069355 31.3579954,32.0244156 C30.5040536,29.6418957 31.2369627,26.97974 33.19,25.37 L35.62,30.59 C35.8468636,31.0758812 36.3157088,31.4038236 36.8499261,31.4502945 C37.3841434,31.4967655 37.9025725,31.2547048 38.2099261,30.8152945 C38.5172798,30.3758843 38.5668636,29.8058812 38.34,29.32 L35.91,24.1 C38.1469659,23.6863998 40.4254483,24.5734587 41.7938957,26.3907185 Z M17.88,9.42 C18.7084271,9.42 19.38,10.0915729 19.38,10.92 C19.38,11.7484271 18.7084271,12.42 17.88,12.42 L17.88,12.42 L13.88,12.42 C13.0515729,12.42 12.38,11.7484271 12.38,10.92 C12.38,10.0915729 13.0515729,9.42 13.88,9.42 L13.88,9.42 Z" id="bike" fill="#0071B3"></path>
    </g>
</svg>