<?xml version="1.0" encoding="UTF-8"?>
<svg width="48px" height="48px" viewBox="0 0 48 48" version="1.1" xmlns="http://www.w3.org/2000/svg" xmlns:xlink="http://www.w3.org/1999/xlink">
    <title>Bold</title>
    <g id="Bold" stroke="none" stroke-width="1" fill="none" fill-rule="evenodd">
        <path d="M32.72,23.09 C35.5329818,20.5147508 36.4793962,16.4782683 35.1042636,12.9210522 C33.729131,9.3638362 30.3137374,7.01352187 26.5,7 L11.5,7 C10.6715729,7 10,7.67157288 10,8.5 L10,39.5 C10,40.3284271 10.6715729,41 11.5,41 L29.5,41 C30.3452971,40.9965135 31.1862441,40.8787809 32,40.65 C35.8539829,39.5696129 38.5741635,36.1307097 38.7381395,32.1315182 C38.9021154,28.1323268 36.4725981,24.4822743 32.72,23.09 Z M26.5,10 C29.9517797,10 32.75,12.7982203 32.75,16.25 C32.75,19.7017797 29.9517797,22.5 26.5,22.5 L13,22.5 L13,10 L26.5,10 Z M29.5,38 L13,38 L13,25.5 L29.5,25.5 C32.9517797,25.5 35.75,28.2982203 35.75,31.75 C35.75,35.2017797 32.9517797,38 29.5,38 Z" id="Color" fill="#0071B3"></path>
    </g>
</svg>