<?xml version="1.0" encoding="UTF-8"?>
<svg width="48px" height="48px" viewBox="0 0 48 48" version="1.1" xmlns="http://www.w3.org/2000/svg" xmlns:xlink="http://www.w3.org/1999/xlink">
    <title>Brochure Sent</title>
    <g id="Brochure-Sent" stroke="none" stroke-width="1" fill="none" fill-rule="evenodd">
        <path d="M27.3786797,4 C27.7765044,4 28.1580353,4.15803526 28.4393398,4.43933983 L38.5606602,14.5606602 C38.8419647,14.8419647 39,15.2234956 39,15.6213203 L39,26.5 C39,27.3284271 38.3284271,28 37.5,28 C36.6715729,28 36,27.3284271 36,26.5 L36,16 L27,7 L12,7 L12,41 L19.1999969,41 C20.0284241,41 20.6999969,41.6715729 20.6999969,42.5 C20.6999969,43.3284271 20.0284241,44 19.1999969,44 L10.5,44 C9.67157288,44 9,43.3284271 9,42.5 L9,5.5 C9,4.67157288 9.67157288,4 10.5,4 L27.3786797,4 Z M36.4393398,31.4393398 C37.0251263,30.8535534 37.9748737,30.8535534 38.5606602,31.4393398 C39.1464466,32.0251263 39.1464466,32.9748737 38.5606602,33.5606602 L38.5606602,33.5606602 L28.5606602,43.5606602 C27.9748737,44.1464466 27.0251263,44.1464466 26.4393398,43.5606602 L26.4393398,43.5606602 L21.4393398,38.5606602 C20.8535534,37.9748737 20.8535534,37.0251263 21.4393398,36.4393398 C22.0251263,35.8535534 22.9748737,35.8535534 23.5606602,36.4393398 L23.5606602,36.4393398 L27.5,40.3786797 Z M31.5,26.5 C32.3284271,26.5 33,27.1715729 33,28 C33,28.8284271 32.3284271,29.5 31.5,29.5 L31.5,29.5 L16.5,29.5 C15.6715729,29.5 15,28.8284271 15,28 C15,27.1715729 15.6715729,26.5 16.5,26.5 L16.5,26.5 Z M31.5,19.5 C32.3284271,19.5 33,20.1715729 33,21 C33,21.8284271 32.3284271,22.5 31.5,22.5 L31.5,22.5 L16.5,22.5 C15.6715729,22.5 15,21.8284271 15,21 C15,20.1715729 15.6715729,19.5 16.5,19.5 L16.5,19.5 Z" id="brochure-sent" fill="#0071B3"></path>
    </g>
</svg>