<?xml version="1.0" encoding="UTF-8"?>
<svg width="48px" height="48px" viewBox="0 0 48 48" version="1.1" xmlns="http://www.w3.org/2000/svg" xmlns:xlink="http://www.w3.org/1999/xlink">
    <title>Brochure Send</title>
    <g id="Brochure-Send" stroke="none" stroke-width="1" fill="none" fill-rule="evenodd">
        <path d="M28.6812336,25.8877659 C29.26702,25.3019795 30.2167675,25.3019795 30.8025539,25.8877659 L30.8025539,25.8877659 L38.5807285,33.6659405 C38.8528641,33.9565203 38.9983213,34.3433643 38.9850582,34.7412569 C38.9717951,35.1391494 38.8008998,35.5154483 38.5100178,35.7872609 L38.5100178,35.7872609 L30.7318432,43.5654355 C30.1460568,44.1512219 29.1963093,44.1512219 28.6105229,43.5654355 C28.0247364,42.979649 28.0247364,42.0299015 28.6105229,41.4441151 L28.6105229,41.4441151 L33.8289709,36.2256671 L16.4963765,36.1903117 C15.6686784,36.1897967 14.9968915,35.5189434 14.9963765,34.6912453 C15.0169902,33.8876481 15.6927793,33.2410769 16.4963765,33.2204632 L16.4963765,33.2204632 L33.8996816,33.2275343 L28.6812336,28.0090863 C28.0954471,27.4232998 28.0954471,26.4735524 28.6812336,25.8877659 Z M27.3786797,4 C27.7765044,4 28.1580353,4.15803526 28.4393398,4.43933983 L38.5606602,14.5606602 C38.8419647,14.8419647 39,15.2234956 39,15.6213203 L39,26.6000004 C39,27.4284275 38.3284271,28.1000004 37.5,28.1000004 C36.6715729,28.1000004 36,27.4284275 36,26.6000004 L36,16 L27,7 L12,7 L12,41 L23.7000008,41 C24.5284279,41 25.2000008,41.6715729 25.2000008,42.5 C25.2000008,43.3284271 24.5284279,44 23.7000008,44 L10.5,44 C9.67157288,44 9,43.3284271 9,42.5 L9,5.5 C9,4.67157288 9.67157288,4 10.5,4 L27.3786797,4 Z" id="send-brochure" fill="#0071B3"></path>
    </g>
</svg>