<?xml version="1.0" encoding="UTF-8"?>
<svg width="48px" height="48px" viewBox="0 0 48 48" version="1.1" xmlns="http://www.w3.org/2000/svg" xmlns:xlink="http://www.w3.org/1999/xlink">
    <title>Building</title>
    <g id="Building" stroke="none" stroke-width="1" fill="none" fill-rule="evenodd">
        <path d="M42.0000916,28.5100038 L42.0000916,10.5100038 C42.002722,10.1104492 41.8458635,9.7263443 41.5642697,9.44287321 C41.2826759,9.15940212 40.8996217,9 40.5000583,9 L23.5000583,9 C22.8961169,8.99865165 22.3510953,9.36199941 22.1200583,9.92000376 C22.0391522,10.1025666 21.9982367,10.3003249 22.0000583,10.5 L22.0000583,18 L15.0000583,18 C14.3969318,18.0013431 13.8532662,18.3637868 13.6200583,18.9200038 C13.5391522,19.1025666 13.4982367,19.3003249 13.5000583,19.5 L13.5000583,27 L6.50005825,27 C5.8969318,27.0013431 5.35326624,27.3637868 5.12005825,27.9200038 C5.03915222,28.1025666 4.99823673,28.3003249 5,28.5 L5,37.5 C5,38.3284309 5.67163113,39 6.50005825,39 L40.5000583,39 C41.3284854,39 42.0000916,38.3284309 42.0000916,37.5 L42.0000916,28.5100038 Z M8.00005825,30.0000038 L22.0000583,30.0000038 L22.0000583,36.0000038 L8.00005825,36.0000038 L8.00005825,30.0000038 Z M39.0000583,21.0000038 L39.0000583,27.0000038 L33.5000583,27.0000038 L33.5000583,21.0000038 L39.0000583,21.0000038 Z M23.5000583,21.0000038 L30.5000583,21.0000038 L30.5000583,27.0000038 L16.5000583,27.0000038 L16.5000583,21.0000038 L23.5000583,21.0000038 Z M25.0200583,30.0000038 L39.0200583,30.0000038 L39.0200583,36.0000038 L25.0200583,36.0000038 L25.0200583,30.0000038 Z M25.0200583,12.0000038 L39.0200583,12.0000038 L39.0200583,18.0000038 L25.0200583,18.0000038 L25.0200583,12.0000038 Z" id="building" fill="#0071B3"></path>
    </g>
</svg>