<?xml version="1.0" encoding="UTF-8"?>
<svg width="48px" height="48px" viewBox="0 0 48 48" version="1.1" xmlns="http://www.w3.org/2000/svg" xmlns:xlink="http://www.w3.org/1999/xlink">
    <title>Bulb</title>
    <g id="Bulb" stroke="none" stroke-width="1" fill="none" fill-rule="evenodd">
        <path d="M34.1665704,20.2096853 C34.714406,18.8885241 35,17.4667521 35,16 C35,9.92486775 30.0751322,5 24,5 C17.9248678,5 13,9.92486775 13,16 C13,17.4667521 13.285594,18.8885241 13.8334296,20.2096853 C14.1792195,21.0435927 15.679565,25.0371831 20.0025189,31.5886135 C20.8008209,31.8562839 22.7982682,32 24,32 C25.2017878,32 27.1992717,31.8562705 27.9974718,31.5886275 C32.3204437,25.0371693 33.8207813,21.0435909 34.1665704,20.2096853 Z M27.5292737,42.3452375 C27.5531496,42.4685816 27.5430306,42.5960968 27.5,42.7141315 L27.1516764,43.6695978 C27.0303515,44.0023005 26.7952503,44.2813692 26.4879603,44.4573908 C25.8564531,44.8191303 25.027133,45 24,45 C22.9728588,45 22.1435337,44.8191274 21.5120246,44.4573822 C21.2047176,44.281371 20.969611,44.0022942 20.8483139,43.6695712 L20.5,42.7141315 C20.3689691,42.3547084 20.5541177,41.9571168 20.9135409,41.8260859 C21.0315756,41.7830553 21.1590909,41.7729363 21.2824356,41.7968089 C21.9822319,41.9322696 22.8880867,42 24,42 C25.1119133,42 26.0177681,41.9322696 26.7175644,41.7968089 C27.0931556,41.7241086 27.45657,41.9696469 27.5292737,42.3452375 Z M19.9587445,36.7321197 C21.2203148,36.9303077 22.5673991,37.0294018 23.9999972,37.0294018 C25.4330746,37.0294018 26.7805819,36.9309112 28.042519,36.7339302 C28.6201808,36.6437575 29.1615656,37.0389483 29.2517353,37.6166105 C29.2691874,37.7284154 29.2686006,37.8422954 29.2499972,37.9539145 L29.1633914,38.4735434 C29.0604682,39.0912471 28.5846254,39.5799947 27.9699015,39.6994337 C26.8377236,39.9194124 25.5144222,40.0294018 23.9999972,40.0294018 C22.4857025,40.0294018 21.1624985,39.9194313 20.0303852,39.6994905 C19.4155276,39.5800669 18.9396194,39.0911585 18.836779,38.4733109 L18.75,37.9519576 C18.6539888,37.3751389 19.0437603,36.8297025 19.620579,36.7336913 C19.7324887,36.715064 19.8466649,36.7145436 19.9587445,36.7321197 Z M24,2 C31.7319865,2 38,8.2680135 38,16 C38,17.8981923 37.6222294,19.7081516 36.9377693,21.3587967 C36.4724663,22.4809219 34.9047785,26.5762973 30.2347057,33.6449227 C30.0723855,33.8906105 29.8413406,34.0830871 29.5703737,34.1983576 C28.314129,34.7327922 25.7906684,35 24,35 C22.2093568,35 19.6859139,34.7327997 18.4296712,34.1983992 C18.1586975,34.0831281 17.9276466,33.890648 17.7653178,33.6449581 C13.0952301,26.576311 11.5275345,22.4809238 11.0622307,21.3587967 C10.3777706,19.7081516 10,17.8981923 10,16 C10,8.2680135 16.2680135,2 24,2 Z M24,8.5 C19.8578644,8.5 16.5,11.8578644 16.5,16 C16.5,16.8284271 17.1715729,17.5 18,17.5 C18.8284271,17.5 19.5,16.8284271 19.5,16 C19.5,13.5147186 21.5147186,11.5 24,11.5 C24.8284271,11.5 25.5,10.8284271 25.5,10 C25.5,9.17157288 24.8284271,8.5 24,8.5 Z" id="bulb" fill="#0071B3"></path>
    </g>
</svg>