<?xml version="1.0" encoding="UTF-8"?>
<svg width="48px" height="48px" viewBox="0 0 48 48" version="1.1" xmlns="http://www.w3.org/2000/svg" xmlns:xlink="http://www.w3.org/1999/xlink">
    <title>Transport / Bus</title>
    <g id="Transport-/-Bus" stroke="none" stroke-width="1" fill="none" fill-rule="evenodd">
        <path d="M36,3 L12,3 C9.23857625,3 7,5.23857625 7,8 L7,36 C7,37.5737865 7.74097079,39.0557281 9,40 L9,44.5 C9,45.3284271 9.67157288,46 10.5,46 L13.5,46 C14.3284271,46 15,45.3284271 15,44.5 L15,41 L33,41 L33,44.5 C33,45.3284271 33.6715729,46 34.5,46 L37.5,46 C38.3284271,46 39,45.3284271 39,44.5 L39,40 C40.2590292,39.0557281 41,37.5737865 41,36 L41,8 C41,6.67391755 40.4732158,5.40214799 39.5355339,4.46446609 C38.597852,3.5267842 37.3260824,3 36,3 Z M38,28 L38,36 C38,37.1045695 37.1045695,38 36,38 L12,38 C10.8954305,38 10,37.1045695 10,36 L10,28 L38,28 Z M14,31 C12.8954305,31 12,31.8954305 12,33 C12,34.1045695 12.8954305,35 14,35 C15.1045695,35 16,34.1045695 16,33 C16,31.8954305 15.1045695,31 14,31 Z M34,31 C32.8954305,31 32,31.8954305 32,33 C32,34.1045695 32.8954305,35 34,35 C35.1045695,35 36,34.1045695 36,33 C36,31.8954305 35.1045695,31 34,31 Z M27.5,31.5 L20.5,31.5 C19.6715729,31.5 19,32.1715729 19,33 C19,33.8284271 19.6715729,34.5 20.5,34.5 L27.5,34.5 C28.3284271,34.5 29,33.8284271 29,33 C29,32.1715729 28.3284271,31.5 27.5,31.5 Z M36,6 C37.1045695,6 38,6.8954305 38,8 L38,25 L10,25 L10,8 C10,6.8954305 10.8954305,6 12,6 L36,6 Z M4.5,7 C5.32842712,7 6,7.67157288 6,8.5 L6,8.5 L6,15.5 C6,16.3284271 5.32842712,17 4.5,17 C3.67157288,17 3,16.3284271 3,15.5 L3,15.5 L3,8.5 C3,7.67157288 3.67157288,7 4.5,7 Z M43.5,7 C44.3284271,7 45,7.67157288 45,8.5 L45,8.5 L45,15.5 C45,16.3284271 44.3284271,17 43.5,17 C42.6715729,17 42,16.3284271 42,15.5 L42,15.5 L42,8.5 C42,7.67157288 42.6715729,7 43.5,7 Z" id="bus" fill="#0071B3"></path>
    </g>
</svg>