<?xml version="1.0" encoding="UTF-8"?>
<svg width="48px" height="48px" viewBox="0 0 48 48" version="1.1" xmlns="http://www.w3.org/2000/svg" xmlns:xlink="http://www.w3.org/1999/xlink">
    <title>Cadastral</title>
    <g id="Cadastral" stroke="none" stroke-width="1" fill="none" fill-rule="evenodd">
        <path d="M43,5.5 C43,4.67157288 42.3284271,4 41.5,4 L6.5,4 C5.67157288,4 5,4.67157288 5,5.5 L5,42.5 L5,42.5 C5,43.3284271 5.67157288,44 6.5,44 L41.5,44 C42.3284271,44 43,43.3284271 43,42.5 L43,42.5 L43,5.5 Z M8,14.5 L21,14.5 L21,19.5 C21,20.3284271 21.6715729,21 22.5,21 L30,21 L30,41 L8,41 L8,14.5 Z M33,19.5 C33,18.6715729 32.3284271,18 31.5,18 L24,18 L24,13 C24,12.1715729 23.3284271,11.5 22.5,11.5 L8,11.5 L8,7 L40,7 L40,41 L33,41 L33,19.5 Z" id="cadastral" fill="#0071B3"></path>
    </g>
</svg>