<?xml version="1.0" encoding="UTF-8"?>
<svg width="48px" height="48px" viewBox="0 0 48 48" version="1.1" xmlns="http://www.w3.org/2000/svg" xmlns:xlink="http://www.w3.org/1999/xlink">
    <title>Calendar</title>
    <g id="Calendar" stroke="none" stroke-width="1" fill="none" fill-rule="evenodd">
        <path d="M32,8 C32.8284271,8 33.5,8.67157288 33.5,9.5 L33.5,9.5 L33.5,11 L40.5,11 C41.3284271,11 42,11.6715729 42,12.5 L42,12.5 L42,38.5 C42,39.3284271 41.3284271,40 40.5,40 L40.5,40 L7.5,40 C6.67157288,40 6,39.3284271 6,38.5 L6,38.5 L6,12.5 C6,11.6715729 6.67157288,11 7.5,11 L7.5,11 L14.5,11 L14.5,9.5 C14.5,8.67157288 15.1715729,8 16,8 C16.8284271,8 17.5,8.67157288 17.5,9.5 L17.5,9.5 L17.5,11 L30.5,11 L30.5,9.5 C30.5,8.67157288 31.1715729,8 32,8 Z M14.5,14 L9,14 L9,37 L39,37 L39,14 L33.5,14 L33.5,15.5 C33.5,16.3284271 32.8284271,17 32,17 C31.1715729,17 30.5,16.3284271 30.5,15.5 L30.5,15.5 L30.5,14 L17.5,14 L17.5,15.5 C17.5,16.3284271 16.8284271,17 16,17 C15.1715729,17 14.5,16.3284271 14.5,15.5 L14.5,15.5 L14.5,14 Z M16,29 C17.1045695,29 18,29.8954305 18,31 C18,32.1045695 17.1045695,33 16,33 C14.8954305,33 14,32.1045695 14,31 C14,29.8954305 14.8954305,29 16,29 Z M24.01,29 C25.1145695,29 26.01,29.8954305 26.01,31 C26.01,32.1045695 25.1145695,33 24.01,33 C22.9054305,33 22.01,32.1045695 22.01,31 C22.01,29.8954305 22.9054305,29 24.01,29 Z M32,29 C33.1045695,29 34,29.8954305 34,31 C34,32.1045695 33.1045695,33 32,33 C30.8954305,33 30,32.1045695 30,31 C30,29.8954305 30.8954305,29 32,29 Z M16,21 C17.1045695,21 18,21.8954305 18,23 C18,24.1045695 17.1045695,25 16,25 C14.8954305,25 14,24.1045695 14,23 C14,21.8954305 14.8954305,21 16,21 Z M24.01,21 C25.1145695,21 26.01,21.8954305 26.01,23 C26.01,24.1045695 25.1145695,25 24.01,25 C22.9054305,25 22.01,24.1045695 22.01,23 C22.01,21.8954305 22.9054305,21 24.01,21 Z M32,21 C33.1045695,21 34,21.8954305 34,23 C34,24.1045695 33.1045695,25 32,25 C30.8954305,25 30,24.1045695 30,23 C30,21.8954305 30.8954305,21 32,21 Z" id="calendar" fill="#0071B3"></path>
    </g>
</svg>