<?xml version="1.0" encoding="UTF-8"?>
<svg width="48px" height="48px" viewBox="0 0 48 48" version="1.1" xmlns="http://www.w3.org/2000/svg" xmlns:xlink="http://www.w3.org/1999/xlink">
    <title>Camera</title>
    <g id="Camera" stroke="none" stroke-width="1" fill="none" fill-rule="evenodd">
        <path d="M24.0002,31.0005 C20.6912,31.0005 18.0002,28.3085 18.0002,25.0005 C18.0002,21.6915 20.6912,19.0005 24.0002,19.0005 C27.3092,19.0005 30.0002,21.6915 30.0002,25.0005 C30.0002,28.3085 27.3092,31.0005 24.0002,31.0005 M28.4805,7 C28.8645,7 29.2485,7.146 29.5415,7.439 L29.5415,7.439 L29.6525,7.551 L32.1015,10 L37.0005,10 C37.8395,10 38.6185,10.227 39.3135,10.592 C40.2095,11.063 40.9365,11.791 41.4085,12.687 C41.7735,13.381 42.0005,14.161 42.0005,15 L42.0005,15 L42.0005,36 C42.0005,36.84 41.7735,37.619 41.4075,38.313 C40.9365,39.209 40.2095,39.937 39.3135,40.408 C38.6185,40.773 37.8395,41 37.0005,41 L37.0005,41 L11.0005,41 C10.1605,41 9.3815,40.773 8.6865,40.408 C7.7915,39.937 7.0635,39.209 6.5915,38.313 C6.2265,37.619 6.0005,36.84 6.0005,36 L6.0005,36 L6.0005,15 C6.0005,14.161 6.2265,13.381 6.5915,12.687 C7.0635,11.791 7.7915,11.063 8.6865,10.592 C9.3815,10.227 10.1605,10 11.0005,10 L11.0005,10 L15.8995,10 L18.4605,7.439 C18.7535,7.146 19.1365,7 19.5205,7 L19.5205,7 Z M27.8595,10 L20.1425,10 L17.6475,12.495 C17.6265,12.516 17.5975,12.523 17.5755,12.542 C17.3025,12.824 16.9225,13 16.5005,13 L16.5005,13 L11.0005,13 C9.8975,13 9.0005,13.897 9.0005,15 L9.0005,15 L9.0005,36 C9.0005,37.103 9.8975,38 11.0005,38 L11.0005,38 L37.0005,38 C38.1035,38 39.0005,37.103 39.0005,36 L39.0005,36 L39.0005,15 C39.0005,13.897 38.1035,13 37.0005,13 L37.0005,13 L31.5005,13 C31.0775,13 30.6965,12.823 30.4235,12.541 C30.4025,12.522 30.3745,12.516 30.3545,12.495 L30.3545,12.495 L27.8595,10 Z M24.0002,16.0005 C28.9712,16.0005 33.0002,20.0295 33.0002,25.0005 C33.0002,29.9705 28.9712,34.0005 24.0002,34.0005 C19.0292,34.0005 15.0002,29.9705 15.0002,25.0005 C15.0002,20.0295 19.0292,16.0005 24.0002,16.0005 Z" id="camera" fill="#0071B3"></path>
    </g>
</svg>