<?xml version="1.0" encoding="UTF-8"?>
<svg width="48px" height="48px" viewBox="0 0 48 48" version="1.1" xmlns="http://www.w3.org/2000/svg" xmlns:xlink="http://www.w3.org/1999/xlink">
    <title>Transport / Car</title>
    <g id="Transport-/-Car" stroke="none" stroke-width="1" fill="none" fill-rule="evenodd">
        <path d="M24,8 C26.5,8 28.9633333,8.02333333 31.39,8.07 L31.39,8.07 L34.08,8.14 L34.3072687,8.14862654 C35.588913,8.23375349 36.7576345,8.93089672 37.44,10.03 C37.77,10.44 38.08,10.87 38.38,11.29 C39.9454628,13.4639833 41.0513114,15.9342789 41.63,18.55 C41.6824217,18.8136295 41.7284805,19.0783757 41.7681518,19.3440075 C43.2474248,19.2654022 44.6925786,19.1769182 46.1,19.08 C46.9284271,19.09933 47.5843299,19.7865729 47.5654165,20.615 C47.54567,21.4434271 46.8584271,22.0993299 46.03,22.08 L46.03,22.08 L43.69,22.22 C43.7433333,22.6533333 43.7866667,23.09 43.82,23.53 C43.93,24.33 43.93,25.13 43.93,25.95 L43.93,25.95 L43.93,26.53 C43.8888469,28.8582992 43.5767456,31.1738894 43,33.43 L43,33.43 L43,39.5 C43,40.3284271 42.3284271,41.0000334 41.5,41.0000334 L41.5,41.0000334 L38.5,41.0000334 C37.6715729,41.0000334 37,40.3284271 37,39.5 L37,39.5 L37,36.79 L35.96,36.79 L32.69,36.89 C29.87,36.9633333 26.9733333,37 24,37 C21.0266667,37 18.13,36.9533333 15.31,36.86 L15.31,36.86 L12,36.76 L11,36.76 L11,39.5 C11,40.3284271 10.3284271,41.0000334 9.5,41.0000334 L9.5,41.0000334 L6.5,41.0000334 C6.10044546,41.0026638 5.71634054,40.8458052 5.43286945,40.5642114 C5.14939836,40.2826176 4.98999112,39.8995634 4.99,39.5 L4.99,39.5 L4.99,33.69 L4.93,33.48 C4.35325441,31.2238894 4.04115313,28.9082992 4,26.58 L4,26.58 L4,26 C4,25.18 4,24.38 4.11,23.59 C4.14333333,23.1633333 4.18666667,22.74 4.24,22.32 L4.24,22.32 L1.9,22.18 C1.07157288,22.1247715 0.444771525,21.4084271 0.5,20.58 C0.555228475,19.7515729 1.27157288,19.1247715 2.1,19.18 L2.1,19.18 L4.77,19.33 L6.20833772,19.4122579 C6.2541581,19.1135639 6.30805831,18.816035 6.37,18.52 C6.94868864,15.9042789 8.05453723,13.4339833 9.62,11.26 C9.91,10.84 10.23,10.42 10.56,10 C11.3047763,8.8235269 12.6077572,8.11900818 14,8.14 L14,8.14 L16.66,8.08 C19.0533333,8.02666667 21.5,8 24,8 Z M40.76,22.45 L38.96,22.52 C34.0466667,22.7466667 28.9566667,22.86 23.69,22.86 C18.6433333,22.8533333 13.76,22.75 9.04,22.55 L9.04,22.55 L7.24,22.48 C7.2,22.79 7.13,23.1 7.13,23.41 C7,24.26 7,25.13 7,26 L7,26 L7,26.41 C7.02313454,27.7776622 7.15016694,29.1415891 7.38,30.49 C7.41,30.66 7.48,30.83 7.48,31 L7.48,31 L7.62038106,31.6914422 C7.76984537,32.3809154 7.94651587,33.0643031 8.15,33.74 L8.15,33.74 L9,33.74 L11,33.82 L12.65,33.82 C16.18,33.93 20,34 24,34 C28,34 31.82,33.93 35.39,33.8 L35.39,33.8 L36,33.8 L37.05,33.76 L39.05,33.68 L39.9,33.68 C40.1544873,32.8112142 40.3647573,31.9300828 40.53,31.04 L40.53,31.04 L40.5582813,30.9125 C40.590625,30.785 40.63,30.6575 40.63,30.53 C40.8564815,29.1813328 40.9801708,27.8174077 41,26.45 L41,26.45 L41,26.04 C41,25.17 40.95,24.3 40.87,23.45 C40.84,23.09 40.76,22.77 40.76,22.45 L40.76,22.45 Z M12,24.5 C13.3807119,24.5 14.5,25.6192881 14.5,27 C14.5,28.3807119 13.3807119,29.5 12,29.5 C10.6192881,29.5 9.5,28.3807119 9.5,27 C9.5,25.6192881 10.6192881,24.5 12,24.5 Z M35.96,24.5 C37.3407119,24.5 38.46,25.6192881 38.46,27 C38.46,28.3807119 37.3407119,29.5 35.96,29.5 C34.5792881,29.5 33.46,28.3807119 33.46,27 C33.46,25.6192881 34.5792881,24.5 35.96,24.5 Z M28.5,25.5 C29.3284271,25.5 30,26.1715729 30,27 C30,27.8284271 29.3284271,28.5 28.5,28.5 L28.5,28.5 L19.5,28.5 C18.6715729,28.5 18,27.8284271 18,27 C18,26.1715729 18.6715729,25.5 19.5,25.5 L19.5,25.5 Z M25.29952,11.00048 L24.02,11 C21.87,11 19.81,11.06 17.81,11.06 L17.81,11.06 L13.98,11.14 L13.8446036,11.1533851 C13.6663255,11.1833695 13.4985976,11.2613052 13.36,11.38 L13.36,11.38 L13.15,11.63 C12.3379836,12.6080862 11.6182466,13.659237 11,14.77 C10.3039387,15.9947742 9.7726788,17.3061119 9.42,18.67 C9.34752015,18.9644917 9.28471526,19.2610863 9.23164919,19.559305 C10.4671599,19.6133262 11.7237538,19.6599385 13,19.7 L13,19.7 L14.3416,19.754 C16.1378667,19.818 17.964,19.85 19.82,19.85 L19.82,19.85 L20.33,19.85 L23.92,19.81 C29.0744909,19.81 34.0449438,19.6970676 38.7204498,19.4928435 C38.671511,19.2266052 38.6145981,18.9624674 38.55,18.7 C38.2093099,17.3272485 37.6881011,16.0057319 37,14.77 C36.3976458,13.6612258 35.6946911,12.6101412 34.9,11.63 L34.9,11.63 L34.69,11.38 C34.5167531,11.2316315 34.2979899,11.146949 34.07,11.14 L34.07,11.14 L30.24,11.06 C28.23,11 26.17,11 24.02,11 Z" id="car" fill="#0071B3"></path>
    </g>
</svg>