<?xml version="1.0" encoding="UTF-8"?>
<svg width="48px" height="48px" viewBox="0 0 48 48" version="1.1" xmlns="http://www.w3.org/2000/svg" xmlns:xlink="http://www.w3.org/1999/xlink">
    <title>Certificate</title>
    <g id="Certificate" stroke="none" stroke-width="1" fill="none" fill-rule="evenodd">
        <path d="M39.472,39.4804 L34.645,27.8284 C33.896,28.5444 33.071,29.1804 32.186,29.7304 L36.126,39.2434 L30.583,41.5394 L26.554,31.8114 C26.115,31.8774 25.671,31.9254 25.222,31.9534 C24.913,31.9724 24.606,32.0004 24.293,32.0004 C23.98,32.0004 23.674,31.9724 23.365,31.9534 C22.915,31.9254 22.472,31.8774 22.033,31.8114 L18.003,41.5394 L12.46,39.2434 L16.4,29.7314 C15.515,29.1804 14.691,28.5454 13.941,27.8284 L9.115,39.4804 C8.798,40.2464 9.161,41.1234 9.926,41.4404 L18.241,44.8844 C18.336,44.9234 18.433,44.9524 18.53,44.9714 C18.56,44.9774 18.59,44.9764 18.621,44.9804 C18.685,44.9884 18.75,44.9994 18.815,44.9994 C18.816,44.9994 18.818,44.9984 18.819,44.9984 C18.95,44.9984 19.077,44.9754 19.201,44.9424 C19.231,44.9344 19.261,44.9244 19.291,44.9154 C19.41,44.8754 19.525,44.8244 19.63,44.7564 C19.634,44.7544 19.637,44.7534 19.64,44.7514 C19.748,44.6804 19.843,44.5914 19.93,44.4944 C19.951,44.4694 19.972,44.4444 19.992,44.4194 C20.074,44.3144 20.148,44.2014 20.201,44.0724 L24.293,34.1934 L28.386,44.0724 C28.439,44.2014 28.513,44.3144 28.595,44.4194 C28.615,44.4444 28.636,44.4694 28.657,44.4934 C28.744,44.5914 28.839,44.6804 28.946,44.7514 C28.95,44.7534 28.953,44.7544 28.956,44.7564 C29.062,44.8244 29.177,44.8754 29.296,44.9154 C29.326,44.9244 29.355,44.9344 29.386,44.9424 C29.51,44.9754 29.637,44.9984 29.767,44.9984 C29.769,44.9984 29.77,44.9994 29.772,44.9994 C29.836,44.9994 29.901,44.9884 29.966,44.9804 C29.996,44.9764 30.027,44.9774 30.057,44.9714 C30.154,44.9524 30.25,44.9234 30.346,44.8844 L38.66,41.4404 C39.426,41.1234 39.789,40.2464 39.472,39.4804 M13.2933,17 C13.2933,10.935 18.2283,6 24.2933,6 C30.3583,6 35.2933,10.935 35.2933,17 C35.2933,19.546 34.4153,21.887 32.9573,23.753 C32.2943,24.603 31.5113,25.352 30.6303,25.976 C29.5493,26.741 28.3243,27.312 27.0043,27.648 C26.3443,27.816 25.6623,27.924 24.9613,27.966 C24.7393,27.979 24.5183,28 24.2933,28 C24.0673,28 23.8473,27.979 23.6253,27.966 C22.9243,27.924 22.2423,27.816 21.5823,27.648 C20.2623,27.312 19.0373,26.742 17.9563,25.976 C17.0753,25.352 16.2923,24.603 15.6293,23.753 C14.1703,21.887 13.2933,19.546 13.2933,17 M16.7843,28.803 C18.4583,29.87 20.3703,30.586 22.4263,30.861 C22.5983,30.884 22.7683,30.915 22.9423,30.932 C23.3873,30.975 23.8373,31 24.2933,31 C24.7493,31 25.1993,30.975 25.6443,30.932 C25.8183,30.915 25.9883,30.884 26.1603,30.861 C28.2163,30.586 30.1283,29.869 31.8023,28.803 C32.6853,28.24 33.5053,27.589 34.2393,26.848 C36.7443,24.318 38.2933,20.841 38.2933,17 C38.2933,9.268 32.0253,3 24.2933,3 C16.5613,3 10.2933,9.268 10.2933,17 C10.2933,20.841 11.8423,24.319 14.3473,26.848 C15.0803,27.589 15.9013,28.24 16.7843,28.803" id="certificate" fill="#0071B3"></path>
    </g>
</svg>