<?xml version="1.0" encoding="UTF-8"?>
<svg width="48px" height="48px" viewBox="0 0 48 48" version="1.1" xmlns="http://www.w3.org/2000/svg" xmlns:xlink="http://www.w3.org/1999/xlink">
    <title>Checklist</title>
    <g id="Checklist" stroke="none" stroke-width="1" fill="none" fill-rule="evenodd">
        <path d="M12.53,32.49 C13.1178798,31.9105425 14.0621202,31.9105425 14.65,32.49 C15.2216958,33.0538151 15.2438075,33.9692404 14.7,34.56 L14.7,34.56 L9.7,39.56 C9.41846825,39.8467552 9.03181532,40.0057526 8.63,40 C8.22862736,40.0034427 7.84284213,39.844802 7.56,39.56 L7.56,39.56 L5.44,37.44 C5.15662795,37.1600661 4.99713896,36.7783249 4.99713896,36.38 C4.99713896,35.9816751 5.15662795,35.5999339 5.44,35.32 L5.44,35.32 L5.54958097,35.219612 C5.81562831,34.9992477 6.15146574,34.877139 6.5,34.877139 C6.89832486,34.877139 7.28006612,35.0366279 7.56,35.32 L7.56,35.32 L8.63,36.39 Z M41.67,35.5 C42.4508439,35.5482565 43.0455649,36.2189944 43,37 L43,37 L43.0014867,37.1365756 C42.9749537,37.8577621 42.4049119,38.4545821 41.67,38.5 L41.67,38.5 L20.33,38.5 C19.5491561,38.4517435 18.9544351,37.7810056 19,37 L19,37 L18.9985133,36.8634244 C19.0250463,36.1422379 19.5950881,35.5454179 20.33,35.5 L20.33,35.5 Z M12.53,19.49 C13.1178798,18.9105425 14.0621202,18.9105425 14.65,19.49 C14.9400764,19.7631927 15.108641,20.1411915 15.1180363,20.539551 C15.1274316,20.9379106 14.9768746,21.3234358 14.7,21.61 L14.7,21.61 L9.7,26.56 C9.41846825,26.8467552 9.03181532,27.0057526 8.63,27 C8.22862736,27.0034427 7.84284213,26.844802 7.56,26.56 L7.56,26.56 L5.44,24.44 C5.15662795,24.1600661 4.99713896,23.7783249 4.99713896,23.38 C4.99713896,22.9816751 5.15662795,22.5999339 5.44,22.32 L5.44,22.32 L5.54958097,22.219612 C5.81562831,21.9992477 6.15146574,21.877139 6.5,21.877139 C6.89832486,21.877139 7.28006612,22.0366279 7.56,22.32 L7.56,22.32 L8.63,23.39 Z M41.67,22.5 C42.4508439,22.5482565 43.0455649,23.2189944 43,24 L43,24 L43.0014867,24.1365756 C42.9749537,24.8577621 42.4049119,25.4545821 41.67,25.5 L41.67,25.5 L20.33,25.5 C19.5491561,25.4517435 18.9544351,24.7810056 19,24 L19,24 L18.9985133,23.8634244 C19.0250463,23.1422379 19.5950881,22.5454179 20.33,22.5 L20.33,22.5 Z M12.53,6.49 C13.1178798,5.91054253 14.0621202,5.91054253 14.65,6.49 C15.2216958,7.05381511 15.2438075,7.96924037 14.7,8.56 L14.7,8.56 L9.7,13.56 C9.41846825,13.8467552 9.03181532,14.0057526 8.63,14 C8.22862736,14.0034427 7.84284213,13.844802 7.56,13.56 L7.56,13.56 L5.44,11.44 C5.15662795,11.1600661 4.99713896,10.7783249 4.99713896,10.38 C4.99713896,9.98167514 5.15662795,9.59993388 5.44,9.32 L5.44,9.32 L5.54958097,9.21961204 C5.81562831,8.99924772 6.15146574,8.87713896 6.5,8.87713896 C6.89832486,8.87713896 7.28006612,9.03662795 7.56,9.32 L7.56,9.32 L8.63,10.39 Z M41.67,9.5 C42.4508439,9.5482565 43.0455649,10.2189944 43,11 L43,11 L43.0014867,11.1365756 C42.9749537,11.8577621 42.4049119,12.4545821 41.67,12.5 L41.67,12.5 L20.33,12.5 C19.5491561,12.4517435 18.9544351,11.7810056 19,11 L19,11 L18.9985133,10.8634244 C19.0250463,10.1422379 19.5950881,9.54541788 20.33,9.5 L20.33,9.5 Z" id="Combined-Shape" fill="#0071B3"></path>
    </g>
</svg>