<?xml version="1.0" encoding="UTF-8"?>
<svg width="48px" height="48px" viewBox="0 0 48 48" version="1.1" xmlns="http://www.w3.org/2000/svg" xmlns:xlink="http://www.w3.org/1999/xlink">
    <title>Clock Alarm</title>
    <g id="Clock-Alarm" stroke="none" stroke-width="1" fill="none" fill-rule="evenodd">
        <path d="M6.33658605,14.7621409 C10.5888068,6.62063134 19.8426322,2.4379577 28.753249,4.62994359 C37.6638658,6.82192948 43.9286206,14.8221288 43.9291505,24.0097961 C43.9385126,29.7392952 41.4796427,35.1944855 37.1824821,38.9777346 L37.1824821,38.9777346 L39.5542704,41.4524338 C39.9344419,41.8386361 40.0762704,42.4005276 39.9250114,42.9212233 C39.7737525,43.441919 39.3530657,43.8399723 38.8253325,43.9617384 C38.2975993,44.0835044 37.7453669,43.9099367 37.381792,43.5080307 L37.381792,43.5080307 L34.7907627,40.7639086 C28.2243269,45.0230829 19.7719314,45.0230829 13.2054956,40.7639086 L13.2054956,40.7639086 L10.6144663,43.5080307 C10.0435468,44.0880069 9.1143174,44.1045266 8.52319692,43.545209 C7.93207644,42.9858914 7.89599224,42.0559929 8.44198792,41.4524338 L8.44198792,41.4524338 L10.8137763,38.9777346 C3.9325948,32.9000927 2.08436534,22.9036504 6.33658605,14.7621409 Z M23.9981292,7.04613245 C14.6416825,7.04613245 7.0567838,14.6410234 7.0567838,24.0097961 C7.0567838,33.3785689 14.6416825,40.9734598 23.9981292,40.9734598 C28.4912533,40.9734598 32.8003508,39.1862218 35.9774694,36.0049177 C39.1545879,32.8236137 40.9394746,28.5088394 40.9394746,24.0097961 C40.9394746,14.6410234 33.3545759,7.04613245 23.9981292,7.04613245 Z M24.0080947,10.0397202 C24.8336635,10.0397202 25.5029193,10.7098576 25.5029193,11.536514 L25.5029193,11.536514 L25.5029193,23.0718053 L32.7179393,27.2029563 C33.0610218,27.3993595 33.3117599,27.7246059 33.414634,28.106678 C33.5175081,28.4887502 33.4640302,28.8961236 33.2660416,29.238596 C32.8457784,29.9579492 31.9246095,30.2030267 31.2031837,29.7874204 L31.2031837,29.7874204 L23.2307859,25.2371671 C22.8590252,25.0237948 22.5974455,24.660011 22.5132701,24.2393045 L22.5132701,24.2393045 L22.5132701,24.1894114 C22.508281,24.1196503 22.508281,24.0496213 22.5132701,23.9798602 L22.5132701,23.9798602 L22.5132701,11.536514 C22.5132701,10.7098576 23.1825258,10.0397202 24.0080947,10.0397202 Z M37.2417343,4.57344004 C37.7404194,3.93644156 38.6544771,3.81178149 39.305133,4.29203176 C40.9445799,5.57729148 42.4175526,7.06226084 43.6899518,8.71256294 C44.0157219,9.13680027 44.0907158,9.70283699 43.8866839,10.1974525 C43.6826521,10.6920681 43.2305918,11.0401186 42.7007898,11.1104968 C42.1709877,11.180875 41.6439336,10.9628888 41.3181635,10.5386514 C40.1988159,9.08625799 38.9033119,7.77899142 37.461516,6.64698742 C36.8404096,6.12899204 36.7430492,5.21043853 37.2417343,4.57344004 Z M8.69112535,4.29203176 C9.3417812,3.81178149 10.255839,3.93644156 10.7545241,4.57344004 C11.2532091,5.21043853 11.1558488,6.12899204 10.5347423,6.64698742 C9.09294647,7.77899142 7.79744248,9.08625799 6.6780949,10.5386514 C6.17365626,11.1902384 5.23798236,11.3106978 4.58534047,10.8080743 C3.93138419,10.3059925 3.80657266,9.36867282 4.30630655,8.71256294 C5.57870574,7.06226084 7.0516784,5.57729148 8.69112535,4.29203176 Z" id="alarm-clock" fill="#0071B3"></path>
    </g>
</svg>