<?xml version="1.0" encoding="UTF-8"?>
<svg width="48px" height="48px" viewBox="0 0 48 48" version="1.1" xmlns="http://www.w3.org/2000/svg" xmlns:xlink="http://www.w3.org/1999/xlink">
    <title>Clock</title>
    <g id="Clock" stroke="none" stroke-width="1" fill="none" fill-rule="evenodd">
        <path d="M24,4 C29.3043298,4 34.3914081,6.10713681 38.1421356,9.85786438 C41.8928632,13.6085919 44,18.6956702 44,24 C44,35.045695 35.045695,44 24,44 C12.954305,44 4,35.045695 4,24 C4,12.954305 12.954305,4 24,4 Z M24,7 C14.6111593,7 7,14.6111593 7,24 C7,33.3888407 14.6111593,41 24,41 C28.5086803,41 32.8326968,39.2089337 36.0208153,36.0208153 C39.2089337,32.8326968 41,28.5086803 41,24 C41,14.6111593 33.3888407,7 24,7 Z M23.5,12.0000001 C24.3284271,12.0000001 25,12.6715729 25,13.5000001 L25,13.5000001 L25,25.0000001 L32.24,29.19 C32.5870031,29.3868332 32.8405799,29.714599 32.943957,30.099914 C33.0473342,30.4852289 32.9918764,30.8959065 32.79,31.24 L32.79,31.24 L32.7105045,31.3622448 C32.2602272,31.9874975 31.4013398,32.1819967 30.72,31.79 L30.72,31.79 L22.72,27.23 C22.3469522,27.0161706 22.0844668,26.6516077 22,26.23 L22,26.23 L22,26.17 C21.9949936,26.1000895 21.9949936,26.0299105 22,25.96 L22,25.96 L22,13.5000001 C22,12.6715729 22.6715729,12.0000001 23.5,12.0000001 Z" id="clock" fill="#0071B3"></path>
    </g>
</svg>