<?xml version="1.0" encoding="UTF-8"?>
<svg width="48px" height="48px" viewBox="0 0 48 48" version="1.1" xmlns="http://www.w3.org/2000/svg" xmlns:xlink="http://www.w3.org/1999/xlink">
    <title>CloseBold</title>
    <g id="CloseBold" stroke="none" stroke-width="1" fill="none" fill-rule="evenodd">
        <path d="M13.7358416,12.1125517 C12.9386415,12.3161426 12.3161426,12.9386415 12.1125517,13.7358416 L12.0757985,13.9072773 C11.9561378,14.5949654 12.1630011,15.3002006 12.6351734,15.8142891 L20.819,23.999 L12.7396699,32.0796699 C12.1567488,32.6222035 11.9089607,33.4669583 12.1125517,34.2641584 C12.3161426,35.0613585 12.9386415,35.6838574 13.7358416,35.8874483 L13.9072773,35.9242015 C14.5949654,36.0438622 15.3002006,35.8369989 15.8142891,35.3648266 L23.999,27.18 L32.0796699,35.2603301 C32.8980287,36.0776713 34.1993812,36.1397388 35.0898363,35.4142696 L35.2325865,35.2866927 L35.3557778,35.1539775 C36.1360306,34.2472495 36.096241,32.9166216 35.26066,32.08 L27.18,24 L35.2603301,15.9203301 C36.0776713,15.1019713 36.1397388,13.8006188 35.4142696,12.9101637 L35.2866927,12.7674135 L35.1539775,12.6442222 C34.2472495,11.8639694 32.9166216,11.903759 32.08,12.73934 L24,20.819 L15.9203301,12.7396699 C15.3777965,12.1567488 14.5330417,11.9089607 13.7358416,12.1125517 Z" id="Color" fill="#0071B3"></path>
    </g>
</svg>