<?xml version="1.0" encoding="UTF-8"?>
<svg width="48px" height="48px" viewBox="0 0 48 48" version="1.1" xmlns="http://www.w3.org/2000/svg" xmlns:xlink="http://www.w3.org/1999/xlink">
    <title>Close</title>
    <g id="Close" stroke="none" stroke-width="1" fill="none" fill-rule="evenodd">
        <path d="M26.2866,24.1655 L36.8936,13.5595 C37.4766,12.9755 37.4766,12.0205 36.8936,11.4375 C36.3096,10.8535 35.3556,10.8535 34.7716,11.4375 L24.1656,22.0445 L13.5586,11.4375 C12.9756,10.8535 12.0206,10.8535 11.4376,11.4375 C10.8536,12.0205 10.8536,12.9755 11.4376,13.5595 L22.0436,24.1655 L11.4376,34.7715 C10.8536,35.3555 10.8536,36.3105 11.4376,36.8935 C12.0206,37.4775 12.9756,37.4775 13.5586,36.8935 L24.1656,26.2865 L34.7716,36.8935 C35.3556,37.4775 36.3096,37.4775 36.8936,36.8935 C37.4766,36.3105 37.4766,35.3555 36.8936,34.7715 L26.2866,24.1655 Z" id="Color" fill="#0071B3"></path>
    </g>
</svg>