<?xml version="1.0" encoding="UTF-8"?>
<svg width="48px" height="48px" viewBox="0 0 48 48" version="1.1" xmlns="http://www.w3.org/2000/svg" xmlns:xlink="http://www.w3.org/1999/xlink">
    <title>Collapse</title>
    <g id="Collapse" stroke="none" stroke-width="1" fill="none" fill-rule="evenodd">
        <path d="M20.4989,25.9999 C20.6939,25.9999 20.8799,26.0399 21.0509,26.1079 C21.0569,26.1099 21.0619,26.1109 21.0669,26.1129 C21.0719,26.1149 21.0779,26.1159 21.0819,26.1179 C21.2619,26.1929 21.4239,26.3029 21.5599,26.4389 C21.6989,26.5789 21.8099,26.7459 21.8859,26.9309 L21.8859,26.9309 L21.8919,26.9519 C21.9589,27.1219 21.9989,27.3059 21.9989,27.4999 L21.9989,27.4999 L21.9989,36.4999 C21.9989,37.3279 21.3269,37.9999 20.4989,37.9999 C19.6699,37.9999 18.9989,37.3279 18.9989,36.4999 L18.9989,36.4999 L18.9989,31.1219 L8.5609,41.5599 C7.9749,42.1459 7.0249,42.1459 6.4389,41.5599 C5.8529,40.9739 5.8529,40.0239 6.4389,39.4379 L6.4389,39.4379 L16.8779,28.9999 L11.4989,28.9999 C10.6699,28.9999 9.9989,28.3279 9.9989,27.4999 C9.9989,26.6709 10.6699,25.9999 11.4989,25.9999 L11.4989,25.9999 Z M39.4385,6.4394 C40.0235,5.8534 40.9735,5.8534 41.5595,6.4394 C42.1455,7.0244 42.1455,7.9754 41.5595,8.5604 L41.5595,8.5604 L31.1215,18.9994 L36.4985,18.9994 C37.3275,18.9994 37.9985,19.6704 37.9985,20.4994 C37.9985,21.3274 37.3275,21.9994 36.4985,21.9994 L36.4985,21.9994 L27.4985,21.9994 C27.3025,21.9994 27.1165,21.9594 26.9455,21.8914 C26.9405,21.8894 26.9365,21.8884 26.9325,21.8874 C26.5595,21.7344 26.2635,21.4384 26.1105,21.0654 L26.1105,21.0654 C26.0385,20.8844 25.9985,20.6974 25.9985,20.4994 L25.9985,20.4994 L25.9985,11.4994 C25.9985,10.6704 26.6705,9.9994 27.4985,9.9994 C28.3275,9.9994 28.9985,10.6704 28.9985,11.4994 L28.9985,11.4994 L28.9985,16.8784 Z" id="collapse" fill="#0071B3"></path>
    </g>
</svg>