<?xml version="1.0" encoding="UTF-8"?>
<svg width="48px" height="48px" viewBox="0 0 48 48" version="1.1" xmlns="http://www.w3.org/2000/svg" xmlns:xlink="http://www.w3.org/1999/xlink">
    <title>Comment</title>
    <g id="Comment" stroke="none" stroke-width="1" fill="none" fill-rule="evenodd">
        <path d="M42.4999978,7.99992649 C42.6996789,7.99817847 42.8974371,8.03909397 43.08,8.12 C43.636217,8.35320798 43.9986607,8.89687355 43.9999978,9.5 L43.9999978,9.5 L43.9999978,34.15 C44.0153018,34.2661649 44.0153018,34.3838351 43.9999978,34.5 C44.0002891,35.3130543 43.3527652,35.9783186 42.54,36 L42.54,36 L20.07,36 L12.52,43.5 C12.3808604,43.6422409 12.2141141,43.7545394 12.03,43.83 L12.03,43.83 L11.8767055,43.8838776 C11.5657551,43.9736735 11.2317143,43.9557143 10.93,43.83 L10.93,43.83 L10.7961678,43.7652199 C10.6656991,43.6942544 10.5457349,43.6050116 10.44,43.5 C10.3010726,43.3581302 10.1892362,43.19207 10.11,43.01 L10.11,43.01 L10.0620331,42.8771267 C10.0207858,42.7421984 9.99979995,42.6016176 9.99999776,42.46 L9.99999776,42.46 L9.99999776,36 L5.49999776,36 C4.67157288,36 3.99999776,35.3284271 3.99999776,34.5 L3.99999776,34.5 L3.99999776,9.5 C3.99913775,9.00238911 4.24674249,8.53719231 4.66,8.26 C4.90604336,8.08787289 5.19974032,7.99696669 5.49999776,7.99992649 L5.49999776,7.99992649 Z M41,11 L7,11 L7,33 L13,33 L13,38.84 L15.83,36 L18.83,33 L41,33 L41,11 Z M16.05,20 C17.1545695,20 18.05,20.8954305 18.05,22 C18.05,23.1045695 17.1545695,24 16.05,24 C14.9454305,24 14.05,23.1045695 14.05,22 C14.05,20.8954305 14.9454305,20 16.05,20 Z M32.05,20 C33.1545695,20 34.05,20.8954305 34.05,22 C34.05,23.1045695 33.1545695,24 32.05,24 C30.9454305,24 30.05,23.1045695 30.05,22 C30.05,20.8954305 30.9454305,20 32.05,20 Z M24.05,20 C25.1545695,20 26.05,20.8954305 26.05,22 C26.05,23.1045695 25.1545695,24 24.05,24 C22.9454305,24 22.05,23.1045695 22.05,22 C22.05,20.8954305 22.9454305,20 24.05,20 Z" id="Combined-Shape" fill="#0071B3"></path>
    </g>
</svg>