<?xml version="1.0" encoding="UTF-8"?>
<svg width="48px" height="48px" viewBox="0 0 48 48" version="1.1" xmlns="http://www.w3.org/2000/svg" xmlns:xlink="http://www.w3.org/1999/xlink">
    <title>Complex</title>
    <g id="Complex" stroke="none" stroke-width="1" fill="none" fill-rule="evenodd">
        <path d="M40.5,3 C41.3284271,3 42,3.67157288 42,4.5 C42,5.32842712 41.3284271,6 40.5,6 L40.5,6 L40,6 L40,43.5 L39.9931334,43.64446 C39.9204487,44.4051119 39.2796961,45 38.5,45 L38.5,45 L9.5,45 C8.67157288,45 8,44.3284271 8,43.5 L8,43.5 L8,6 L7.5,6 C6.67157288,6 6,5.32842712 6,4.5 C6,3.67157288 6.67157288,3 7.5,3 L7.5,3 Z M25.5,36 L22.5,36 L22.5,42 L25.5,42 L25.5,36 Z M37,6 L11,6 L11,42 L19.5,42 L19.5,34.5 C19.5,33.6715729 20.1715729,33 21,33 L21,33 L27,33 C27.8284271,33 28.5,33.6715729 28.5,34.5 L28.5,34.5 L28.5,42 L37,42 L37,6 Z M23,27 L23,30 L14,30 L14,27 L23,27 Z M34,27 L34,30 L25,30 L25,27 L34,27 Z M23,21 L23,24 L14,24 L14,21 L23,21 Z M34,21 L34,24 L25,24 L25,21 L34,21 Z M23,15 L23,18 L14,18 L14,15 L23,15 Z M34,15 L34,18 L25,18 L25,15 L34,15 Z M23,9 L23,12 L14,12 L14,9 L23,9 Z M34,9 L34,12 L25,12 L25,9 L34,9 Z" fill="#0071B3"></path>
    </g>
</svg>