<?xml version="1.0" encoding="UTF-8"?>
<svg width="48px" height="48px" viewBox="0 0 48 48" version="1.1" xmlns="http://www.w3.org/2000/svg" xmlns:xlink="http://www.w3.org/1999/xlink">
    <title>Content Platform</title>
    <g id="Content-Platform" stroke="none" stroke-width="1" fill="none" fill-rule="evenodd">
        <path d="M28.5002,6 C28.6182,6 28.7312,6.017 28.8422,6.043 C37.0042,6.469 43.5322,12.997 43.9572,21.159 C43.9832,21.27 44.0002,21.383 44.0002,21.501 L44.0002,21.501 L44.0002,40.501 C44.0002,41.329 43.3282,42.001 42.5002,42.001 L42.5002,42.001 L20.3312,42.001 C20.2912,42.001 20.2532,41.992 20.2132,41.989 C20.1422,41.99 20.0722,42 20.0002,42 C11.4472,42 4.4832,35.285 4.0422,26.842 C4.0172,26.731 4.0002,26.618 4.0002,26.5 L4.0002,26.5 L4.0002,7.5 C4.0002,7.293 4.0422,7.096 4.1182,6.917 C4.3452,6.378 4.8782,6 5.5002,6 L5.5002,6 Z M28.0002,9 L7.0002,9 L7.0002,26 C7.0002,33.168 12.8322,39 20.0002,39 L20.0002,39 L29.3032,39 L29.3022,39.001 L41.0002,39.001 L41.0002,22 L40.9966425,21.6936311 C40.8332988,14.6665616 35.0658,9 28.0002,9 L28.0002,9 Z M32.1291,30 C33.1691,30 34.0111,30.671 34.0111,31.5 C34.0111,32.329 33.1691,33 32.1291,33 L15.8721,33 C14.8321,33 13.9901,32.329 13.9901,31.5 C13.9901,30.671 14.8321,30 15.8721,30 L32.1291,30 Z M32.7566,22.5004 C33.4486,22.5004 34.0096,23.1714 34.0096,24.0004 C34.0096,24.8294 33.4486,25.5004 32.7566,25.5004 L15.2436,25.5004 C14.5506,25.5004 13.9896,24.8294 13.9896,24.0004 C13.9896,23.1714 14.5506,22.5004 15.2436,22.5004 L32.7566,22.5004 Z M32.7576,15 C33.4496,15 34.0106,15.671 34.0106,16.5 C34.0106,17.329 33.4496,18 32.7576,18 L15.2446,18 C14.5516,18 13.9906,17.329 13.9906,16.5 C13.9906,15.671 14.5516,15 15.2446,15 L32.7576,15 Z" id="content-platform" fill="#0071B3"></path>
    </g>
</svg>