<?xml version="1.0" encoding="UTF-8"?>
<svg width="48px" height="48px" viewBox="0 0 48 48" version="1.1" xmlns="http://www.w3.org/2000/svg" xmlns:xlink="http://www.w3.org/1999/xlink">
    <title>Creditcard</title>
    <g id="Creditcard" stroke="none" stroke-width="1" fill="none" fill-rule="evenodd">
        <path d="M38,10 C41.3137085,10 44,12.6862915 44,16 L44,32 C44,35.3137085 41.3137085,38 38,38 L10,38 C6.6862915,38 4,35.3137085 4,32 L4,16 C4,12.6862915 6.6862915,10 10,10 L38,10 Z M41,22 L7,22 L7,32 C7,33.6568542 8.34314575,35 10,35 L38,35 C39.6568542,35 41,33.6568542 41,32 L41,22 Z M17.5,29 C18.3284271,29 19,29.6715729 19,30.5 C19,31.3284271 18.3284271,32 17.5,32 L11.5,32 C10.6715729,32 10,31.3284271 10,30.5 C10,29.6715729 10.6715729,29 11.5,29 L17.5,29 Z M38,13 L10,13 C8.34314575,13 7,14.3431458 7,16 L41,16 C41,14.3431458 39.6568542,13 38,13 Z" id="creditcard" fill="#0071B3"></path>
    </g>
</svg>