<?xml version="1.0" encoding="UTF-8"?>
<svg width="48px" height="48px" viewBox="0 0 48 48" version="1.1" xmlns="http://www.w3.org/2000/svg" xmlns:xlink="http://www.w3.org/1999/xlink">
    <title>Crop</title>
    <g id="Crop" stroke="none" stroke-width="1" fill="none" fill-rule="evenodd">
        <path d="M13.5,4 C14.3284271,4 15,4.67157288 15,5.5 L15,5.5 L15,12 L34.5,12 C35.3284271,12 36,12.6715729 36,13.5 L36,13.5 L36,42.5 C36,43.3284271 35.3284271,44 34.5,44 C33.6715729,44 33,43.3284271 33,42.5 L33,42.5 L33,36 L13.5,36 C12.6715729,36 12,35.3284271 12,34.5 L12,34.5 L12,18 L15,18 L15,33 L33,33 L33,15 L5.5,15 C4.67157288,15 4,14.3284271 4,13.5 C4,12.6715729 4.67157288,12 5.5,12 L5.5,12 L12,12 L12,5.5 C12,4.67157288 12.6715729,4 13.5,4 Z M42.5,33 C43.3284271,33 44,33.6715729 44,34.5 C44,35.3284271 43.3284271,36 42.5,36 L42.5,36 L39,36 L39,33 Z" id="Color" fill="#0071B3"></path>
    </g>
</svg>