<?xml version="1.0" encoding="UTF-8"?>
<svg width="48px" height="48px" viewBox="0 0 48 48" version="1.1" xmlns="http://www.w3.org/2000/svg" xmlns:xlink="http://www.w3.org/1999/xlink">
    <title>Performance / Crown</title>
    <g id="Performance-/-Crown" stroke="none" stroke-width="1" fill="none" fill-rule="evenodd">
        <path d="M24,44 C35.045695,44 44,35.045695 44,24 C44,12.954305 35.045695,4 24,4 C12.954305,4 4,12.954305 4,24 C4,35.045695 12.954305,44 24,44 Z M32.5226617,16.1890547 C30.8627015,16.1890547 29.5124378,17.5393184 29.5124378,19.1992786 C29.5124378,19.7314378 29.6525373,20.2309254 29.8958507,20.6651791 L28.2722836,22.2885821 L26.0542786,18.9614925 C26.5037463,18.4354627 26.7768856,17.7545572 26.7768856,17.0099502 C26.7768856,15.3502637 25.4266219,14 23.7666617,14 C22.1067015,14 20.7564925,15.3502637 20.7564925,17.0099502 C20.7564925,17.7545025 21.0296318,18.435408 21.4790448,18.9614378 L19.2608756,22.2885821 L17.6368706,20.6647413 C17.8800746,20.2305423 18.0201741,19.7311095 18.0201741,19.199005 C18.0201741,17.5390448 16.6699104,16.1887811 15.0102239,16.1887811 C13.3502637,16.1887811 12,17.5390448 12,19.199005 C12,20.6895323 13.0897662,21.9269502 14.5138557,22.1647363 L15.2889453,29.1403234 C15.3351891,29.5561343 15.6865323,29.8706468 16.1047512,29.8706468 L31.4281343,29.8706468 C31.8463532,29.8706468 32.1976965,29.5561343 32.2439403,29.1403234 L33.0190299,22.16501 C34.4428458,21.9272239 35.5326119,20.689806 35.5326119,19.1992786 C35.5326119,17.5393184 34.1823483,16.1890547 32.5226617,16.1890547 L32.5226617,16.1890547 Z M33.2183433,20.3710796 C33.0137214,20.4930647 32.7776318,20.5677114 32.5226617,20.5677114 C31.8326169,20.5677114 31.266199,20.0526269 31.1733284,19.3878109 C31.1646269,19.3256418 31.1542289,19.2638557 31.1542289,19.1992786 C31.1542289,18.4446567 31.7680398,17.8308458 32.5226617,17.8308458 C33.27701,17.8308458 33.8908209,18.4446567 33.8908209,19.1992786 C33.8908209,19.6988209 33.6190498,20.1321443 33.2183433,20.3710796 L33.2183433,20.3710796 Z M22.3982836,17.0099502 C22.3982836,16.255602 23.0120945,15.641791 23.7667164,15.641791 C24.5213383,15.641791 25.1351493,16.255602 25.1351493,17.0099502 C25.1351493,17.1683284 25.102806,17.3180597 25.0531144,17.4596915 C24.866005,17.9927811 24.3630149,18.3783831 23.7667164,18.3783831 C23.1704179,18.3783831 22.6674279,17.9927811 22.4803184,17.4596368 C22.4306269,17.3180597 22.3982836,17.1683284 22.3982836,17.0099502 L22.3982836,17.0099502 Z M13.641791,19.199005 C13.641791,18.4443831 14.255602,17.8305721 15.0102239,17.8305721 C15.7645721,17.8305721 16.3783831,18.4443831 16.3783831,19.199005 C16.3783831,19.2634726 16.3679851,19.3251493 16.3593383,19.3872637 C16.2665771,20.0522438 15.7001592,20.5674378 15.0102239,20.5674378 C14.7552537,20.5674378 14.5191642,20.492791 14.3145423,20.3709154 C13.9136716,20.1319801 13.641791,19.6986567 13.641791,19.199005 L13.641791,19.199005 Z M31.4283532,31.5124378 C31.8817612,31.5124378 32.2492488,31.8799801 32.2492488,32.3333333 C32.2492488,32.7866866 31.8817065,33.1542289 31.4283532,33.1542289 L31.4283532,33.1542289 L16.1049701,33.1542289 C15.6516169,33.1542289 15.2840746,32.7866866 15.2840746,32.3333333 C15.2840746,31.8799801 15.6516169,31.5124378 16.1049701,31.5124378 L16.1049701,31.5124378 Z M24.6895672,19.8741642 L27.4617861,24.0324925 C27.5980547,24.2371692 27.8190398,24.3697164 28.0638308,24.3940149 C28.3093881,24.4175473 28.5512239,24.3312438 28.725199,24.1575423 L31.0568159,21.8261443 C31.1631493,21.8857413 31.2733682,21.9389353 31.387199,21.9854527 L30.6932687,28.2288557 L16.8396169,28.2288557 L16.1456866,21.9851791 C16.2594627,21.938607 16.3696816,21.8854129 16.4760149,21.8258159 L18.8079055,24.1575423 C18.981607,24.3312438 19.2215821,24.417 19.4692736,24.3940149 C19.7140647,24.3697164 19.9347761,24.2371692 20.0713184,24.0324925 L22.8437562,19.8741642 C23.1348458,19.9681841 23.4446517,20.0202289 23.7667164,20.0202289 C24.0887264,20.0202289 24.3984776,19.9681841 24.6895672,19.8741642 Z" id="performance-crown" fill="#0071B3"></path>
    </g>
</svg>