<?xml version="1.0" encoding="UTF-8"?>
<svg width="48px" height="48px" viewBox="0 0 48 48" version="1.1" xmlns="http://www.w3.org/2000/svg" xmlns:xlink="http://www.w3.org/1999/xlink">
    <title>Profile / Customer Service</title>
    <g id="Profile-/-Customer-Service" stroke="none" stroke-width="1" fill="none" fill-rule="evenodd">
        <path d="M19.41,24.21 C19.7637441,24.1737172 20.1187261,24.2660125 20.41,24.47 C20.6668467,24.6392871 20.8602815,24.8889939 20.96,25.18 L20.96,25.18 L21.06,25.46 L21.63,27 L24,33.52 L26.37,27 L26.97,25.5 L27.07,25.22 C27.1735721,24.9310897 27.3661458,24.6824945 27.62,24.51 C27.9112739,24.3060125 28.2662559,24.2137172 28.62,24.25 L28.62,24.25 L28.81,24.25 C32.59,25.07 35.48,27.74 35.93,31.07 C35.9734609,31.209323 35.9970269,31.3540859 36,31.5 L36,31.5 L36,39.5 C36,40.3284271 35.3284271,41 34.5,41 C33.6715729,41 33,40.3284271 33,39.5 L33,39.5 L33,32 C33,30 31.52,28.34 29.41,27.52 L29.41,27.52 L25.41,38.42 L25.41,38.49 L25.35,38.62 L25.27,38.74 L25.18,38.86 L25.09,38.96 L24.96,39.08 L24.88,39.14 L24.72,39.24 L23.34,39.24 L23.1,39.08 L22.97,38.96 L22.88,38.86 L22.79,38.74 L22.71,38.62 L22.65,38.49 L22.65,38.42 L18.65,27.52 C16.51,28.34 15.03,30 15.03,32 L15.03,32 L15.03,39.46 C15.03,40.2884271 14.3584271,40.96 13.53,40.96 C12.7015729,40.96 12.03,40.2884271 12.03,39.46 L12.03,39.46 L12.03,31.46 C12.0329731,31.3140859 12.0565391,31.169323 12.1,31.03 C12.56,27.7 15.44,25 19.22,24.21 L19.22,24.21 Z M24.01,3.98887202 C27.9906281,3.98887202 31.5921784,6.34976407 33.18,10 L33.18,10 L33.3831404,10.0302092 C33.919762,10.1318165 34.4126979,10.4003303 34.79,10.8 L34.79,10.8 L34.9372248,10.9472974 C35.0319604,11.0487391 35.1197621,11.1565474 35.2,11.27 L35.2,11.27 L35.2,11.35 C35.3081837,11.5062371 35.4050958,11.6699852 35.49,11.84 L35.49,11.84 L35.57,12.04 C35.6402905,12.1891049 35.7004274,12.3427881 35.75,12.5 C35.84,12.62 35.76,12.75 35.84,12.87 C35.92,12.99 35.92,13.11 35.92,13.23 C35.9516697,13.4519597 35.9683741,13.6757982 35.97,13.9 L35.97,13.9 L35.97,14.15 C35.9682587,14.3708768 35.9515538,14.5913818 35.92,14.81 C35.9,14.94 35.87,15.06 35.84,15.18 C35.81,15.3 35.75,15.42 35.75,15.54 C35.7004274,15.6972119 35.6402905,15.8508951 35.57,16 L35.57,16 L35.49,16.2 C35.4018759,16.3735105 35.3016273,16.5405914 35.19,16.7 C35.1932828,16.7232179 35.1932828,16.7467821 35.19,16.77 C34.7406628,17.4582988 34.0069886,17.9095084 33.19,18 C31.6238694,21.5899237 28.1061337,23.9350808 24.19,24 L24.19,24 L24,24 C22.840202,24 21.9,23.059798 21.9,21.9 C21.9,20.740202 22.840202,19.8 24,19.8 L24,19.8 L24.1,19.8 C24.8031218,19.8037378 25.4586441,20.1558469 25.85,20.74 C28.8874078,19.9076665 30.9949999,17.149381 31,14 C31.0007307,13.1979348 30.8585069,12.4021589 30.58,11.65 C29.5752081,8.88160864 26.9450972,7.0382211 24,7.0382211 C21.0549028,7.0382211 18.4247919,8.88160864 17.42,11.65 C17.1414931,12.4021589 16.9992693,13.1979348 17,14 L17,14 L17,16.5 C16.9984959,16.7068237 16.9542357,16.9111015 16.87,17.1 C16.6342055,17.6468088 16.0954816,18.000715 15.5,18 L15.5,18 L15,18 L14.77,17.97 L14.5747401,17.9434958 C14.0585547,17.8529166 13.5812321,17.6044546 13.21,17.23 C13.0547392,17.084024 12.9140743,16.9232642 12.79,16.75 L12.79,16.75 L12.79,16.69 C12.6783277,16.5271413 12.5780871,16.3567323 12.49,16.18 C12.46,16.12 12.47,16.16 12.41,16 C12.35,15.84 12.23,15.69 12.23,15.52 C12.1927842,15.4094108 12.1660007,15.295581 12.15,15.18 C12.12,15.05 12.06,14.92 12.06,14.79 C12.0489765,14.5868161 12.0489765,14.3831839 12.06,14.18 L12.06,14.18 L12.06,13.78 C12.0663061,13.5825924 12.0829959,13.3856535 12.11,13.19 C12.13,13.06 12.2,12.93 12.2,12.8 C12.2171331,12.684633 12.2438932,12.5709026 12.28,12.46 C12.33,12.29 12.43,12.04 12.46,11.98 C12.49,11.92 12.54,11.86 12.54,11.81 C12.6258276,11.6288676 12.7261542,11.4549681 12.84,11.29 L12.84,11.29 L12.84,11.23 C13.2893372,10.5417012 14.0230114,10.0904916 14.84,10 C16.4278216,6.34976407 20.0293719,3.98887202 24.01,3.98887202 Z" id="Customer-Service" fill="#0071B3"></path>
    </g>
</svg>