<?xml version="1.0" encoding="UTF-8"?>
<svg width="48px" height="48px" viewBox="0 0 48 48" version="1.1" xmlns="http://www.w3.org/2000/svg" xmlns:xlink="http://www.w3.org/1999/xlink">
    <title>Facilities / Daycare</title>
    <g id="Facilities-/-Daycare" stroke="none" stroke-width="1" fill="none" fill-rule="evenodd">
        <path d="M20,34 C17.2385763,34 15,36.2385763 15,39 C15,41.7614237 17.2385763,44 20,44 C22.7614237,44 25,41.7614237 25,39 C25,36.2385763 22.7614237,34 20,34 L20,34 Z M20,41 C18.8954305,41 18,40.1045695 18,39 C18,37.8954305 18.8954305,37 20,37 C21.1045695,37 22,37.8954305 22,39 C22,40.1045695 21.1045695,41 20,41 Z M34,34 C31.2385763,34 29,36.2385763 29,39 C29,41.7614237 31.2385763,44 34,44 C36.7614237,44 39,41.7614237 39,39 C39,36.2385763 36.7614237,34 34,34 Z M34,41 C32.8954305,41 32,40.1045695 32,39 C32,37.8954305 32.8954305,37 34,37 C35.1045695,37 36,37.8954305 36,39 C36,40.1045695 35.1045695,41 34,41 Z M45,21.25 L45,21.08 C45,11.6911593 37.3888407,4.08 28,4.08 C27.1715729,4.08 26.5,4.75157288 26.5,5.58 L26.5,21 L12,21 L12,20 C12,16.6862915 9.3137085,14 6,14 L4.5,14 C3.67157288,14 3,14.6715729 3,15.5 C3,16.3284271 3.67157288,17 4.5,17 L6,17 C7.65685425,17 9,18.3431458 9,20 L9,27 C9,30.3137085 11.6862915,33 15,33 L39,33 C39.4209272,32.9963095 39.8401503,32.9460027 40.25,32.85 C40.4973472,32.8032351 40.7412396,32.7397563 40.98,32.66 C43.3862588,31.8188126 44.998349,29.5490537 45,27 L45,26.33 L45,22.73 L45,22.66 L45,21.25 Z M42,21 L29.5,21 L29.5,7.17 C36.5763745,7.93242569 41.9545296,13.8828165 42,21 L42,21 Z M39.24,30 L15,30 C14.3233073,29.9960748 13.6678178,29.7634818 13.14,29.34 C12.6894856,28.9940853 12.343399,28.5303292 12.14,28 C12.0358146,27.6772803 11.9884447,27.3389235 12,27 L12,24 L42,24 L42,27 C41.9986959,27.3412724 41.9377802,27.6796933 41.82,28 C41.4282646,29.1202799 40.4129324,29.9043202 39.23,30 L39.24,30 Z" id="daycare" fill="#0071B3"></path>
    </g>
</svg>