<?xml version="1.0" encoding="UTF-8"?>
<svg width="48px" height="48px" viewBox="0 0 48 48" version="1.1" xmlns="http://www.w3.org/2000/svg" xmlns:xlink="http://www.w3.org/1999/xlink">
    <title>Current / Default</title>
    <g id="Current-/-Default" stroke="none" stroke-width="1" fill="none" fill-rule="evenodd">
        <path d="M10.086,22.5 C10.783,15.968 15.967,10.779 22.5,10.083 L22.5,12.5 C22.5,13.329 23.171,14 24,14 C24.829,14 25.5,13.329 25.5,12.5 L25.5,10.083 C32.032,10.78 37.216,15.968 37.914,22.5 L35.5,22.5 C34.671,22.5 34,23.171 34,24 C34,24.829 34.671,25.5 35.5,25.5 L37.917,25.5 C37.221,32.033 32.032,37.217 25.5,37.914 L25.5,35.5 C25.5,34.671 24.829,34 24,34 C23.171,34 22.5,34.671 22.5,35.5 L22.5,37.917 C15.967,37.222 10.783,32.032 10.086,25.5 L12.5,25.5 C13.329,25.5 14,24.829 14,24 C14,23.171 13.329,22.5 12.5,22.5 L10.086,22.5 Z M24,2 C23.171,2 22.5,2.671 22.5,3.5 L22.5,7.076 C14.31,7.793 7.789,14.311 7.072,22.5 L3.5,22.5 C2.671,22.5 2,23.171 2,24 C2,24.829 2.671,25.5 3.5,25.5 L7.072,25.5 C7.789,33.689 14.31,40.207 22.5,40.924 L22.5,44.5 C22.5,45.329 23.171,46 24,46 C24.829,46 25.5,45.329 25.5,44.5 L25.5,40.928 C33.69,40.211 40.207,33.69 40.924,25.5 L44.5,25.5 C45.329,25.5 46,24.829 46,24 C46,23.171 45.329,22.5 44.5,22.5 L40.928,22.5 C40.211,14.311 33.69,7.793 25.5,7.076 L25.5,3.5 C25.5,2.671 24.829,2 24,2 L24,2 Z" id="current-location-default" fill="#0071B3"></path>
    </g>
</svg>