<?xml version="1.0" encoding="UTF-8"?>
<svg width="48px" height="48px" viewBox="0 0 48 48" version="1.1" xmlns="http://www.w3.org/2000/svg" xmlns:xlink="http://www.w3.org/1999/xlink">
    <title>Desktop</title>
    <g id="Desktop" stroke="none" stroke-width="1" fill="none" fill-rule="evenodd">
        <path d="M5,29.9994 L43,29.9994 L43,8.9994 L5,8.9994 L5,29.9994 Z M46,7.4994 C46,6.6714 45.328,5.9994 44.5,5.9994 L3.5,5.9994 C3.293,5.9994 3.095,6.0414 2.916,6.1184 C2.378,6.3454 2,6.8784 2,7.4994 L2,7.5004 L2,31.4994 C2,32.3284 2.672,32.9994 3.5,32.9994 L22.5,32.9994 L22.5,39.0834 L17.5,39.0834 C16.672,39.0834 16,39.7554 16,40.5834 C16,41.4114 16.672,42.0834 17.5,42.0834 L30.5,42.0834 C31.328,42.0834 32,41.4114 32,40.5834 C32,39.7554 31.328,39.0834 30.5,39.0834 L25.5,39.0834 L25.5,32.9994 L44.5,32.9994 C45.328,32.9994 46,32.3284 46,31.4994 L46,7.5004 L46,7.4994 Z" id="desktop" fill="#0071B3"></path>
    </g>
</svg>