<?xml version="1.0" encoding="UTF-8"?>
<svg width="48px" height="48px" viewBox="0 0 48 48" version="1.1" xmlns="http://www.w3.org/2000/svg" xmlns:xlink="http://www.w3.org/1999/xlink">
    <title>Dice</title>
    <g id="Dice" stroke="none" stroke-width="1" fill="none" fill-rule="evenodd">
        <path d="M23,19 C25.7614237,19 28,21.2385763 28,24 L28,37 C28,39.7614237 25.7614237,42 23,42 L10,42 C7.23857625,42 5,39.7614237 5,37 L5,24 C5,21.2385763 7.23857625,19 10,19 L23,19 Z M23,22 L10,22 C8.8954305,22 8,22.8954305 8,24 L8,37 C8,38.1045695 8.8954305,39 10,39 L23,39 C24.1045695,39 25,38.1045695 25,37 L25,24 C25,22.8954305 24.1045695,22 23,22 Z M12,33 C13.1045695,33 14,33.8954305 14,35 C14,36.1045695 13.1045695,37 12,37 C10.8954305,37 10,36.1045695 10,35 C10,33.8954305 10.8954305,33 12,33 Z M21,33 C22.1045695,33 23,33.8954305 23,35 C23,36.1045695 22.1045695,37 21,37 C19.8954305,37 19,36.1045695 19,35 C19,33.8954305 19.8954305,33 21,33 Z M12,24 C13.1045695,24 14,24.8954305 14,26 C14,27.1045695 13.1045695,28 12,28 C10.8954305,28 10,27.1045695 10,26 C10,24.8954305 10.8954305,24 12,24 Z M21,24 C22.1045695,24 23,24.8954305 23,26 C23,27.1045695 22.1045695,28 21,28 C19.8954305,28 19,27.1045695 19,26 C19,24.8954305 19.8954305,24 21,24 Z M37,6 C39.7614237,6 42,8.23857625 42,11 L42,11 L42,23 C42,25.7614237 39.7614237,28 37,28 L37,28 L31,28 L31,25 L37,25 C38.1045695,25 39,24.1045695 39,23 L39,23 L39,11 C39,9.8954305 38.1045695,9 37,9 L37,9 L25,9 C23.8954305,9 23,9.8954305 23,11 L23,11 L23,16 L20,16 L20,11 C20,8.23857625 22.2385763,6 25,6 L25,6 Z M35.5,19.5 C36.6045695,19.5 37.5,20.3954305 37.5,21.5 C37.5,22.6045695 36.6045695,23.5 35.5,23.5 C34.3954305,23.5 33.5,22.6045695 33.5,21.5 C33.5,20.3954305 34.3954305,19.5 35.5,19.5 Z M31,15 C32.1045695,15 33,15.8954305 33,17 C33,18.1045695 32.1045695,19 31,19 C29.8954305,19 29,18.1045695 29,17 C29,15.8954305 29.8954305,15 31,15 Z M26.5,10.5 C27.6045695,10.5 28.5,11.3954305 28.5,12.5 C28.5,13.6045695 27.6045695,14.5 26.5,14.5 C25.3954305,14.5 24.5,13.6045695 24.5,12.5 C24.5,11.3954305 25.3954305,10.5 26.5,10.5 Z" id="dice" fill="#0071B3"></path>
    </g>
</svg>