<?xml version="1.0" encoding="UTF-8"?>
<svg width="48px" height="48px" viewBox="0 0 48 48" version="1.1" xmlns="http://www.w3.org/2000/svg" xmlns:xlink="http://www.w3.org/1999/xlink">
    <title>Document</title>
    <g id="Document" stroke="none" stroke-width="1" fill="none" fill-rule="evenodd">
        <path d="M27.5,4 C28.0255505,4.00056473 28.5119341,4.27795542 28.78,4.73 L28.78,4.73 L38.53,14.48 C38.7204069,14.6830825 38.8487847,14.9363683 38.9,15.21 C38.9641133,15.3759724 38.9979814,15.5520863 39,15.73 L39,15.73 L39,42.5 C39,43.3284271 38.3284271,44 37.5,44 L37.5,44 L10.5,44 C9.67157288,44 9,43.3284271 9,42.5 L9,42.5 L9,5.5 C9,4.67157288 9.67157288,4 10.5,4 L10.5,4 Z M26.81,7 L12,7 L12,41 L36,41 L36,16.19 L26.81,7 Z M31.48,33.5 C32.3084271,33.5 32.98,34.1715729 32.98,35 C32.98,35.8284271 32.3084271,36.5 31.48,36.5 L31.48,36.5 L16.48,36.5 C15.6515729,36.5 14.98,35.8284271 14.98,35 C14.98,34.1715729 15.6515729,33.5 16.48,33.5 L16.48,33.5 Z M31.5,26.5 C32.3284271,26.5 33,27.1715729 33,28 C33,28.8284271 32.3284271,29.5 31.5,29.5 L31.5,29.5 L16.5,29.5 C15.6715729,29.5 15,28.8284271 15,28 C15,27.1715729 15.6715729,26.5 16.5,26.5 L16.5,26.5 Z M31.5,19.5 C32.3284271,19.5 33,20.1715729 33,21 C33,21.8284271 32.3284271,22.5 31.5,22.5 L31.5,22.5 L16.5,22.5 C15.6715729,22.5 15,21.8284271 15,21 C15,20.1715729 15.6715729,19.5 16.5,19.5 L16.5,19.5 Z" id="document" fill="#0071B3"></path>
    </g>
</svg>