<?xml version="1.0" encoding="UTF-8"?>
<svg width="48px" height="48px" viewBox="0 0 48 48" version="1.1" xmlns="http://www.w3.org/2000/svg" xmlns:xlink="http://www.w3.org/1999/xlink">
    <title>Door</title>
    <g id="Door" stroke="none" stroke-width="1" fill="none" fill-rule="evenodd">
        <path d="M34.5,6 C35.3284271,6 36,6.67157288 36,7.5 L36,7.5 L36,39 L40.5,39 C41.3284271,39 42,39.6715729 42,40.5 C42,41.3284271 41.3284271,42 40.5,42 L40.5,42 L7.5,42 C6.67157288,42 6,41.3284271 6,40.5 C6,39.6715729 6.67157288,39 7.5,39 L7.5,39 L12,39 L12,7.5 C12,6.67157288 12.6715729,6 13.5,6 L13.5,6 Z M33,9 L15,9 L15,39 L33,39 L33,9 Z M19.29,19 C20.1184271,19 20.79,19.6715729 20.79,20.5 L20.79,20.5 L20.79,27.5 C20.79,28.3284271 20.1184271,29 19.29,29 C18.4615729,29 17.79,28.3284271 17.79,27.5 L17.79,27.5 L17.79,20.5 C17.79,19.6715729 18.4615729,19 19.29,19 Z" id="door" fill="#0071B3"></path>
    </g>
</svg>