<?xml version="1.0" encoding="UTF-8"?>
<svg width="48px" height="48px" viewBox="0 0 48 48" version="1.1" xmlns="http://www.w3.org/2000/svg" xmlns:xlink="http://www.w3.org/1999/xlink">
    <title>Arrow Simple/Down</title>
    <g id="Arrow-Simple/Down" stroke="none" stroke-width="1" fill="none" fill-rule="evenodd">
        <path d="M35.7602,17.9334 C35.1772,17.3504 34.2222,17.3504 33.6382,17.9334 L24.0992,27.4734 L14.5592,17.9334 C13.9752,17.3504 13.0212,17.3504 12.4372,17.9334 C11.8542,18.5164 11.8542,19.4714 12.4372,20.0544 L23.0092,30.6254 C23.0192,30.6364 23.0222,30.6504 23.0322,30.6614 C23.3252,30.9544 23.7122,31.0994 24.0992,31.0974204 C24.4852,31.0994 24.8722,30.9544 25.1652,30.6614 C25.1762,30.6504 25.1782,30.6364 25.1892,30.6254 L35.7602,20.0544 C36.3432,19.4714 36.3432,18.5164 35.7602,17.9334" id="arrow-down" fill="#0071B3"></path>
    </g>
</svg>