<?xml version="1.0" encoding="UTF-8"?>
<svg width="48px" height="48px" viewBox="0 0 48 48" version="1.1" xmlns="http://www.w3.org/2000/svg" xmlns:xlink="http://www.w3.org/1999/xlink">
    <title>Download</title>
    <g id="Download" stroke="none" stroke-width="1" fill="none" fill-rule="evenodd">
        <path d="M41.9,15.21 C41.8487847,14.9363683 41.7204069,14.6830825 41.53,14.48 L31.78,4.73 C31.5119341,4.27795542 31.0255505,4.00056473 30.5,4 L15.5,4 C14.6715729,4 14,4.67157288 14,5.5 L14,28.88 L9.08,24 C8.4850881,23.6036515 7.69314265,23.6821903 7.18766649,24.1876665 C6.68219034,24.6931426 6.60365153,25.4850881 7,26.08 L14.48,33.56 C14.619843,33.7013941 14.7864061,33.8135693 14.97,33.89 L14.97,33.89 C15.1447166,33.961154 15.3313562,33.9984819 15.52,34 L15.52,34 C15.7086438,33.9984819 15.8952834,33.961154 16.07,33.89 L16.07,33.89 C16.2527593,33.8165398 16.4192611,33.7078039 16.56,33.57 L16.56,33.57 L24,26.08 C24.558766,25.4992458 24.558766,24.5807542 24,24 L24,24 C23.4143649,23.4150932 22.4656351,23.4150932 21.88,24 L17,28.88 L17,7 L29.81,7 L39,16.19 L39,41 L17,41 L17,39.5 C17,38.6715729 16.3284271,38 15.5,38 C14.6715729,38 14,38.6715729 14,39.5 L14,42.5 C14,43.3284271 14.6715729,44 15.5,44 L40.5,44 C41.3284271,44 42,43.3284271 42,42.5 L42,15.73 C41.9979814,15.5520863 41.9641133,15.3759724 41.9,15.21 Z" id="download" fill="#0071B3"></path>
    </g>
</svg>