<?xml version="1.0" encoding="UTF-8"?>
<svg width="48px" height="48px" viewBox="0 0 48 48" version="1.1" xmlns="http://www.w3.org/2000/svg" xmlns:xlink="http://www.w3.org/1999/xlink">
    <title>Error</title>
    <g id="Error" stroke="none" stroke-width="1" fill="none" fill-rule="evenodd">
        <path d="M31.6663556,5 C31.7769121,5.0062999 31.8864344,5.02483446 31.9928843,5.05532971 L32.15,5.11 L32.2843508,5.17392315 C32.3715872,5.22087069 32.4539604,5.27634651 32.5302591,5.33953491 L32.64,5.44 L43.64,16.44 L43.64,16.49 C43.7144023,16.5789439 43.7781671,16.6762693 43.83,16.78 C43.9794514,17.0391169 44.0451102,17.3367728 44.0200954,17.6324902 L44,17.78 L43.95,32.26 C44.0298214,32.6786712 43.9236799,33.108559 43.6643608,33.4403782 L43.56,33.56 L32.56,44.56 C32.2563802,44.8542756 31.8428683,45.001789 31.4261931,44.9702734 L31.27,44.95 L16.78,44.95 C16.3642015,45.0267771 15.9382253,44.9204918 15.6088001,44.6634109 L15.49,44.56 L4.49,33.56 C4.19289884,33.2544055 4.04487698,32.8370818 4.07871994,32.417314 L4.1,32.26 L4.1,17.74 C4.03231523,17.3982532 4.08906493,17.0435676 4.26,16.74 C4.29618474,16.6681819 4.33809442,16.5994704 4.3852921,16.5345208 L4.46,16.44 L15.46,5.44 C15.5648822,5.33395439 15.6847946,5.24434446 15.8156492,5.17392315 L15.95,5.11 L16.083118,5.0630079 C16.1731471,5.03594942 16.265537,5.01747144 16.3590479,5.00782192 L16.5,5 L31.6663556,5 Z M30.88,8 L17.12,8 L7,18.12 L7,31.92 L17.08,42 L30.92,42 L41,31.92 L41,18.12 L30.88,8 Z M24,33 C24.8284271,33 25.5,33.6715729 25.5,34.5 C25.5,35.3284271 24.8284271,36 24,36 C23.1715729,36 22.5,35.3284271 22.5,34.5 C22.5,33.6715729 23.1715729,33 24,33 Z M24,14 C24.8284271,14 25.5,14.6715729 25.5,15.5 L25.5,29.5 C25.5,30.3284271 24.8284271,31 24,31 C23.1715729,31 22.5,30.3284271 22.5,29.5 L22.5,15.5 C22.5,14.6715729 23.1715729,14 24,14 Z" id="Color" fill="#0071B3"></path>
    </g>
</svg>