<?xml version="1.0" encoding="UTF-8"?>
<svg width="48px" height="48px" viewBox="0 0 48 48" version="1.1" xmlns="http://www.w3.org/2000/svg" xmlns:xlink="http://www.w3.org/1999/xlink">
    <title>Euro</title>
    <g id="Euro" stroke="none" stroke-width="1" fill="none" fill-rule="evenodd">
        <path d="M27.5,11 C29.22824,11 30.9119083,11.3382016 32.4764244,11.9869473 C33.263865,12.3134691 34.0164147,12.7168129 34.7238025,13.1903729 C35.4122102,13.6512268 35.5966791,14.5828874 35.1358252,15.2712951 C34.6749713,15.9597029 33.7433107,16.1441717 33.054903,15.6833179 C32.5108033,15.3190709 31.9323054,15.0090136 31.327313,14.7581461 C30.1254927,14.2597966 28.8321475,14 27.5,14 C23.5956836,14 20.2139667,16.2375141 18.5671893,19.5002023 L30.6314848,19.5 C31.3872949,19.5 32,20.1715729 32,21 C32,21.8284271 31.3872949,22.5 30.6314848,22.5 L17.6117443,22.5000406 C17.5381477,22.989318 17.5,23.490204 17.5,24 C17.5,24.5101439 17.5381998,25.0113658 17.6118951,25.5009613 L28.6598039,25.5 C29.4053883,25.5 30.0098039,26.1715729 30.0098039,27 C30.0098039,27.8284271 29.4053883,28.5 28.6598039,28.5 L18.5676955,28.5008006 C20.2146597,31.7629444 23.5960837,34 27.5,34 C28.8321475,34 30.1254927,33.7402034 31.327313,33.2418539 C31.9323054,32.9909864 32.5108033,32.6809291 33.054903,32.3166821 C33.7433107,31.8558283 34.6749713,32.0402971 35.1358252,32.7287049 C35.5966791,33.4171126 35.4122102,34.3487732 34.7238025,34.8096271 C34.0164147,35.2831871 33.263865,35.6865309 32.4764244,36.0130527 C30.9119083,36.6617984 29.22824,37 27.5,37 C21.9025477,37 17.1313546,33.4623632 15.3002701,28.5009387 L13.3598039,28.5 C12.6142195,28.5 12.0098039,27.8284271 12.0098039,27 C12.0098039,26.1715729 12.6142195,25.5 13.3598039,25.5 L14.5856216,25.5001569 C14.5290653,25.0079426 14.5,24.5073656 14.5,24 C14.5,23.4929763 14.5290261,22.992732 14.5855073,22.5008382 L13.3685152,22.5 C12.6127051,22.5 12,21.8284271 12,21 C12,20.1715729 12.6127051,19.5 13.3685152,19.5 L15.2999001,19.500064 C17.1307118,14.5381135 21.9021706,11 27.5,11 Z" id="euro" fill="#0071B3"></path>
    </g>
</svg>