<?xml version="1.0" encoding="UTF-8"?>
<svg width="48px" height="48px" viewBox="0 0 48 48" version="1.1" xmlns="http://www.w3.org/2000/svg" xmlns:xlink="http://www.w3.org/1999/xlink">
    <title>Exit</title>
    <g id="Exit" stroke="none" stroke-width="1" fill="none" fill-rule="evenodd">
        <path d="M28.5,6 C29.3284271,6 30,6.67157288 30,7.5 L30,11.5 C30,12.3284271 29.3284271,13 28.5,13 C27.6715729,13 27,12.3284271 27,11.5 L27,9 L9,9 L9,39 L27,39 L27,36.5 C27,35.6715729 27.6715729,35 28.5,35 C29.3284271,35 30,35.6715729 30,36.5 L30,40.5 C30,41.3284271 29.3284271,42 28.5,42 L7.5,42 C6.67157288,42 6,41.3284271 6,40.5 L6,7.5 C6,6.67157288 6.67157288,6 7.5,6 L28.5,6 Z M35.5606602,15.6893398 L43.0606602,23.1893398 C43.6464466,23.7751263 43.6464466,24.7248737 43.0606602,25.3106602 C43.0464824,25.3248379 43.0320914,25.3386725 43.0174976,25.352164 L35.5234774,32.3465829 C34.9178514,32.9118338 33.968668,32.8791034 33.4034171,32.2734774 C32.8381662,31.6678514 32.8708966,30.718668 33.4765226,30.1534171 L38.4623267,25.5 L20.5,25.5 C19.6715729,25.5 19,24.8284271 19,24 C19,23.1715729 19.6715729,22.5 20.5,22.5 L38.1286797,22.5 L33.4393398,17.8106602 C32.8535534,17.2248737 32.8535534,16.2751263 33.4393398,15.6893398 C34.0251263,15.1035534 34.9748737,15.1035534 35.5606602,15.6893398 Z" id="exit" fill="#0071B3"></path>
    </g>
</svg>