<?xml version="1.0" encoding="UTF-8"?>
<svg width="48px" height="48px" viewBox="0 0 48 48" version="1.1" xmlns="http://www.w3.org/2000/svg" xmlns:xlink="http://www.w3.org/1999/xlink">
    <title>Expand</title>
    <g id="Expand" stroke="none" stroke-width="1" fill="none" fill-rule="evenodd">
        <path d="M42,7.5 C41.9924553,7.32823517 41.9552394,7.15907198 41.89,7 C41.7376497,6.62778964 41.4422104,6.33235032 41.07,6.18 C40.8941093,6.08211341 40.7002081,6.02088146 40.5,6 L31.5,6 C30.6715729,6 30,6.67157288 30,7.5 C30,8.32842712 30.6715729,9 31.5,9 L36.88,9 L26.44,19.44 C25.8892823,20.0310195 25.9055322,20.9520194 26.4767564,21.5232436 C27.0479806,22.0944678 27.9689805,22.1107177 28.56,21.56 L39,11.12 L39,16.5 C39,17.3284271 39.6715729,18 40.5,18 C41.3284271,18 42,17.3284271 42,16.5 L42,7.5 Z M19.44,26.44 L9,36.88 L9,31.5 C9,30.6715729 8.32842712,30 7.5,30 C6.67157288,30 6,30.6715729 6,31.5 L6,40.5 C6.00024159,40.6920106 6.03759328,40.8821647 6.11,41.06 C6.26040986,41.4334971 6.55650291,41.7295901 6.93,41.88 C7.11025475,41.9571111 7.30395552,41.9978902 7.5,42 L16.5,42 C17.3284271,42 18,41.3284271 18,40.5 C18,39.6715729 17.3284271,39 16.5,39 L11.12,39 L21.56,28.56 C22.1107177,27.9689805 22.0944678,27.0479806 21.5232436,26.4767564 C20.9520194,25.9055322 20.0310195,25.8892823 19.44,26.44 L19.44,26.44 Z" id="expand" fill="#0071B3"></path>
    </g>
</svg>