<?xml version="1.0" encoding="UTF-8"?>
<svg width="48px" height="48px" viewBox="0 0 48 48" version="1.1" xmlns="http://www.w3.org/2000/svg" xmlns:xlink="http://www.w3.org/1999/xlink">
    <title>External</title>
    <g id="External" stroke="none" stroke-width="1" fill="none" fill-rule="evenodd">
        <path d="M19.5005,10.9997 C20.3255,10.9997 21.0005,11.6747 21.0005,12.4997 C21.0005,13.3247 20.3255,13.9997 19.5005,13.9997 L19.5005,13.9997 L12.0015,13.9997 L12.0015,35.9997 L34.0005,35.9997 L34.0005,28.4997 C34.0005,27.6747 34.6755,26.9997 35.5005,26.9997 C36.3255,26.9997 37.0005,27.6747 37.0005,28.4997 L37.0005,28.4997 L37.0005,37.4997 C37.0005,38.3247 36.3255,38.9997 35.5005,38.9997 L35.5005,38.9997 L10.5005,38.9997 C9.6745,38.9997 9.0005,38.3247 9.0005,37.4997 L9.0005,37.4997 L9.0005,12.4997 C9.0005,11.7777 9.5175,11.1707 10.1985,11.0307 C10.2965,11.0107 10.3975,10.9997 10.5005,10.9997 L10.5005,10.9997 Z M37.5001,9.0002 C38.3251,9.0002 39.0001,9.6752 39.0001,10.5002 L39.0001,10.5002 L39.0001,21.4992 C39.0001,22.3242 38.3251,23.0002 37.5001,23.0002 C36.6741,23.0002 35.9991,22.3242 35.9991,21.4992 L35.9991,21.4992 L35.9991,14.1232 L23.1221,27.0002 C22.5391,27.5832 21.5831,27.5832 21.0001,27.0002 C20.4171,26.4162 20.4171,25.4612 21.0001,24.8772 L21.0001,24.8772 L33.8771,12.0002 L26.5001,12.0002 C25.6751,12.0002 25.0001,11.3252 25.0001,10.5002 C25.0001,9.6752 25.6751,9.0002 26.5001,9.0002 L26.5001,9.0002 Z" id="external" fill="#0071B3"></path>
    </g>
</svg>