<?xml version="1.0" encoding="UTF-8"?>
<svg width="48px" height="48px" viewBox="0 0 48 48" version="1.1" xmlns="http://www.w3.org/2000/svg" xmlns:xlink="http://www.w3.org/1999/xlink">
    <title>Transport / Ferry</title>
    <g id="Transport-/-Ferry" stroke="none" stroke-width="1" fill="none" fill-rule="evenodd">
        <path d="M7.76426139,34.5 L7.96426139,34.5 C8.8901864,34.3250415 9.8323896,34.2512747 10.7742614,34.28 L8.50426139,23.32 L22.5042614,20.38 L22.5042614,39.38 C23.5091371,39.5392174 24.5374791,39.4569501 25.5042614,39.14 L25.5042614,20.38 L39.5042614,23.32 L37.1342614,34.21 C38.0727149,34.2376038 39.0066442,34.351416 39.9242614,34.55 L40.1242614,34.6 L42.9542614,21 L37.9542614,20 L37.9542614,12 C37.949079,11.6621635 37.9020541,11.326271 37.8142614,11 C37.4486481,9.59940066 36.3548607,8.50561329 34.9542614,8.14 C34.6279904,8.05220731 34.2920979,8.00518236 33.9542614,8 L25.4542614,8 L25.4542614,5.5 C25.4542614,4.67157288 24.7826885,4 23.9542614,4 C23.1258343,4 22.4542614,4.67157288 22.4542614,5.5 L22.4542614,8 L13.9542614,8 C13.6164249,8.00518236 13.2805324,8.05220731 12.9542614,8.14 C11.5536621,8.50561329 10.4598747,9.59940066 10.0942614,11 C10.0064687,11.326271 9.95944375,11.6621635 9.95426139,12 L9.95426139,20 L4.95426139,21 L7.76426139,34.5 Z M36.6109382,35.6554401 L36.9642614,35.66 L37.1642614,35.66 C38.1027149,35.6876038 39.0366442,35.801416 39.9542614,36 L39.9542614,36 L40.1242614,36.08 C41.9232151,36.5153759 43.6506898,37.2056923 45.2542614,38.13 L45.2542614,38.13 L45.2242614,38.09 C45.9284244,38.5290664 46.1433278,39.4558369 45.7042614,40.16 C45.265195,40.8641631 44.3384244,41.0790664 43.6342614,40.64 C42.719472,40.120775 41.7545743,39.6952819 40.7542614,39.37 C40.2703882,39.2012327 39.776001,39.064274 39.2742614,38.96 C38.2911866,38.7335226 37.2822674,38.6393569 36.2742614,38.68 C35.2402337,38.72278 34.2230755,38.9567264 33.2742614,39.37 C32.5994551,39.6625386 31.9697898,40.049766 31.4042614,40.52 C30.5489429,41.2390388 29.6320818,41.8815108 28.6642614,42.44 C27.6604007,43.0264069 26.5753263,43.4611106 25.4442614,43.73 C24.788167,43.8804819 24.1173876,43.9576216 23.4442614,43.96 C23.1100305,43.96 22.7761021,43.9399006 22.4442614,43.9 C20.9552307,43.7089948 19.5218401,43.2119044 18.2342614,42.44 C17.2616453,41.8841209 16.3412377,41.241509 15.4842614,40.52 C14.935272,40.0571743 14.3264706,39.6703667 13.6742614,39.37 C13.0215385,39.0618359 12.3276975,38.8496418 11.6142614,38.74 C10.6003705,38.5877432 9.56741037,38.618224 8.56426139,38.83 C7.92561989,38.9519921 7.2996231,39.1327612 6.69426139,39.37 C5.85504703,39.6801461 5.05601838,40.0897322 4.31426139,40.59 C3.64087928,41.0251912 2.74431579,40.853894 2.27880282,40.2011057 C1.81328985,39.5483174 1.94343122,38.6448618 2.57426139,38.15 C4.13889505,37.0800407 5.89912578,36.3290543 7.75426139,35.94 L7.75426139,35.94 L7.95426139,35.94 C8.87363514,35.7664827 9.80905433,35.6927221 10.7442614,35.72 L10.7442614,35.72 L10.9542614,35.72 C13.3288226,35.8224536 15.6016842,36.7125991 17.4142614,38.25 C17.9542614,38.69 18.4542614,39.07 18.9542614,39.41 C20.0112315,40.1467093 21.2157011,40.6448752 22.4842614,40.87 C23.4891371,41.0292174 24.5174791,40.9469501 25.4842614,40.63 C26.3719736,40.341285 27.2138304,39.9270915 27.9842614,39.4 C28.5242614,39.06 28.9942614,38.68 29.5242614,38.24 C31.6056157,36.4996485 34.2522969,35.5818477 36.9642614,35.66 Z M33.9542614,11 C34.5065461,11 34.9542614,11.4477153 34.9542614,12 L34.9542614,19.32 L23.9542614,17 L12.9542614,19.32 L12.9542614,12 C12.9542614,11.4477153 13.4019766,11 13.9542614,11 L33.9542614,11 Z" id="ferry" fill="#0071B3"></path>
    </g>
</svg>