<?xml version="1.0" encoding="UTF-8"?>
<svg width="48px" height="48px" viewBox="0 0 48 48" version="1.1" xmlns="http://www.w3.org/2000/svg" xmlns:xlink="http://www.w3.org/1999/xlink">
    <title>Flower</title>
    <g id="Flower" stroke="none" stroke-width="1" fill="none" fill-rule="evenodd">
        <path d="M30.1066,5.4878 C34.6016,5.4878 38.2576,9.1438 38.2576,13.6378 C38.2576,14.4628 38.1336,15.2748 37.8926,16.0498 C41.5236,16.8718 44.2436,20.1238 44.2436,23.9998 C44.2436,27.8758 41.5236,31.1288 37.8926,31.9498 C38.1336,32.7258 38.2576,33.5368 38.2576,34.3618 C38.2576,38.8558 34.6016,42.5118 30.1066,42.5118 C27.7776,42.5118 25.6356,41.5408 24.1216,39.8778 C22.6076,41.5408 20.4656,42.5118 18.1366,42.5118 C13.6416,42.5118 9.9856,38.8558 9.9856,34.3618 C9.9856,33.5358 10.1096,32.7248 10.3506,31.9498 C6.7196,31.1288 3.9996,27.8758 3.9996,23.9998 C3.9996,20.1238 6.7196,16.8718 10.3506,16.0498 C10.1096,15.2748 9.9856,14.4628 9.9856,13.6378 C9.9856,9.1438 13.6416,5.4878 18.1366,5.4878 C20.4656,5.4878 22.6076,6.4598 24.1216,8.1228 C25.6356,6.4598 27.7776,5.4878 30.1066,5.4878 Z M30.1066,8.4878 C28.1176,8.4878 26.3436,9.6168 25.4756,11.4338 C25.2256,11.9548 24.6996,12.2868 24.1216,12.2868 C23.5436,12.2868 23.0176,11.9548 22.7676,11.4338 C21.8996,9.6168 20.1256,8.4878 18.1366,8.4878 C15.2956,8.4878 12.9856,10.7978 12.9856,13.6378 C12.9856,14.6798 13.2996,15.6868 13.8926,16.5498 C14.2206,17.0258 14.2456,17.6488 13.9566,18.1498 C13.6686,18.6498 13.1206,18.9418 12.5416,18.8958 C12.4446,18.8888 12.3506,18.8768 12.2556,18.8628 L12.1416,18.8498 C9.3106,18.8498 6.9996,21.1598 6.9996,23.9998 C6.9996,26.8398 9.3106,29.1508 12.1506,29.1508 L12.2556,29.1368 C12.3506,29.1238 12.4446,29.1108 12.5416,29.1038 C13.1196,29.0588 13.6686,29.3498 13.9566,29.8508 C14.2456,30.3518 14.2206,30.9738 13.8926,31.4498 C13.2996,32.3128 12.9856,33.3188 12.9856,34.3618 C12.9856,37.2018 15.2956,39.5118 18.1366,39.5118 C20.1256,39.5118 21.8996,38.3828 22.7676,36.5668 C23.0176,36.0448 23.5436,35.7128 24.1216,35.7128 C24.6996,35.7128 25.2256,36.0448 25.4756,36.5668 C26.3436,38.3828 28.1176,39.5118 30.1066,39.5118 C32.9476,39.5118 35.2576,37.2018 35.2576,34.3618 C35.2576,33.3198 34.9436,32.3128 34.3506,31.4498 C34.0226,30.9738 33.9976,30.3518 34.2866,29.8508 C34.5756,29.3498 35.1226,29.0598 35.7026,29.1038 C35.7976,29.1108 35.8926,29.1238 35.9866,29.1368 L36.1016,29.1508 C38.9326,29.1508 41.2436,26.8398 41.2436,23.9998 C41.2436,21.1598 38.9326,18.8498 36.0926,18.8498 L35.9866,18.8628 C35.8926,18.8768 35.7976,18.8888 35.7026,18.8958 C35.1216,18.9408 34.5746,18.6498 34.2866,18.1498 C33.9976,17.6488 34.0226,17.0258 34.3506,16.5498 C34.9436,15.6868 35.2576,14.6798 35.2576,13.6378 C35.2576,10.7978 32.9476,8.4878 30.1066,8.4878 Z M24,16 C28.411,16 32,19.5880295 32,24 C32,28.4109341 28.411,32 24,32 C19.589,32 16,28.4109341 16,24 C16,19.5880295 19.589,16 24,16 Z M24,19 C21.243,19 19,21.24306 19,24 C19,26.75694 21.243,29 24,29 C26.757,29 29,26.75694 29,24 C29,21.24306 26.757,19 24,19 Z" id="flower" fill="#0071B3"></path>
    </g>
</svg>