<?xml version="1.0" encoding="UTF-8"?>
<svg width="48px" height="48px" viewBox="0 0 48 48" version="1.1" xmlns="http://www.w3.org/2000/svg" xmlns:xlink="http://www.w3.org/1999/xlink">
    <title>For Sale</title>
    <g id="For-Sale" stroke="none" stroke-width="1" fill="none" fill-rule="evenodd">
        <path d="M26,36 L26,43 L28.5044548,43 C29.3304216,43 30,43.6657972 30,44.5 C30,45.3284271 29.3204455,46 28.5044548,46 L19.4955452,46 C18.6695784,46 18,45.3342028 18,44.5 C18,43.6715729 18.6795545,43 19.4955452,43 L22,43 L22,36 L12.9910904,36 C11.3391568,36 10,34.6568766 10,32.9920699 L10,9.00793008 C10,7.34669617 11.3417706,6 12.9910904,6 L22,6 L22,4.0048815 C22,2.89761602 22.8877296,2 24,2 C25.1045695,2 26,2.8938998 26,4.0048815 L26,6 L35.0089096,6 C36.6608432,6 38,7.34312337 38,9.00793008 L38,32.9920699 C38,34.6533038 36.6582294,36 35.0089096,36 L26,36 Z M35,9.00793008 C35,9.00227644 12.9910904,9 12.9910904,9 C13.0010965,9 13,32.9920699 13,32.9920699 C13,32.9977236 35.0089096,33 35.0089096,33 C35.0024381,33 35,9.00793008 35,9.00793008 Z M16,16.498576 C16,15.6709353 16.6671298,15 17.5052412,15 L30.4947588,15 C31.3260806,15 32,15.6650298 32,16.498576 L32,19.501424 C32,20.3290647 31.3328702,21 30.4947588,21 L17.5052412,21 C16.6739194,21 16,20.3349702 16,19.501424 L16,16.498576 Z" id="Shape" fill="#0071B3"></path>
    </g>
</svg>