<?xml version="1.0" encoding="UTF-8"?>
<svg width="48px" height="48px" viewBox="0 0 48 48" version="1.1" xmlns="http://www.w3.org/2000/svg" xmlns:xlink="http://www.w3.org/1999/xlink">
    <title>Arrow Direction/Forward</title>
    <g id="Arrow-Direction/Forward" stroke="none" stroke-width="1" fill="none" fill-rule="evenodd">
        <path d="M37.8999,24.6188 C37.9589,24.4618 37.9939,24.2948 37.9969,24.1188 C37.9969,24.1128 37.9989,24.1068 37.9989,24.0998 L37.9989,24.0988 L37.9989,24.0978 C37.9989,24.0908 37.9969,24.0848 37.9969,24.0788 C37.9939,23.9028 37.9589,23.7358 37.8999,23.5788 C37.8899,23.5518 37.8819,23.5258 37.8709,23.4988 C37.8039,23.3478 37.7109,23.2118 37.6009,23.0918 C37.5849,23.0738 37.5789,23.0498 37.5619,23.0328 C37.5509,23.0218 37.5369,23.0188 37.5259,23.0088 L26.9549,12.4378 C26.3719,11.8538 25.4179,11.8538 24.8339,12.4378 C24.2509,13.0208 24.2509,13.9758 24.8339,14.5588 L32.8739,22.5988 L11.4999,22.5988 C10.6749,22.5988 9.9999,23.2738 9.9999,24.0988 C9.9999,24.9238 10.6749,25.5988 11.4999,25.5988 L32.8739,25.5988 L24.8339,33.6388 C24.2509,34.2218 24.2509,35.1768 24.8339,35.7598 C25.4179,36.3438 26.3719,36.3438 26.9549,35.7598 L37.5259,25.1888 C37.5369,25.1788 37.5509,25.1758 37.5619,25.1648 C37.5789,25.1478 37.5849,25.1238 37.6009,25.1058 C37.7109,24.9858 37.8039,24.8498 37.8709,24.6988 C37.8819,24.6718 37.8899,24.6458 37.8999,24.6188" id="arrow-forward" fill="#0071B3"></path>
    </g>
</svg>