<?xml version="1.0" encoding="UTF-8"?>
<svg width="48px" height="48px" viewBox="0 0 48 48" version="1.1" xmlns="http://www.w3.org/2000/svg" xmlns:xlink="http://www.w3.org/1999/xlink">
    <title>Founded</title>
    <g id="Founded" stroke="none" stroke-width="1" fill="none" fill-rule="evenodd">
        <path d="M24,32 C24.829,32 25.5,32.671 25.5,33.5 L25.5,33.5 L25.5,42.5 C25.5,43.329 24.829,44 24,44 C23.171,44 22.5,43.329 22.5,42.5 L22.5,42.5 L22.5,33.5 C22.5,32.671 23.171,32 24,32 Z M14.8086,31.0703 C15.3936,30.4843 16.3436,30.4843 16.9296,31.0703 C17.5156,31.6563 17.5156,32.6063 16.9296,33.1913 L16.9296,33.1913 L11.9796,38.1413 C11.3936,38.7273 10.4446,38.7273 9.8586,38.1413 C9.2726,37.5553 9.2726,36.6063 9.8586,36.0203 L9.8586,36.0203 Z M31.0699,31.0703 C31.6559,30.4843 32.6059,30.4843 33.1919,31.0703 L33.1919,31.0703 L38.1419,36.0203 C38.7269,36.6063 38.7269,37.5553 38.1419,38.1413 C37.5559,38.7273 36.6059,38.7273 36.0199,38.1413 L36.0199,38.1413 L31.0699,33.1913 C30.4839,32.6063 30.4839,31.6563 31.0699,31.0703 Z M42.5,22.5 C43.329,22.5 44,23.171 44,24 C44,24.829 43.329,25.5 42.5,25.5 L42.5,25.5 L33.5,25.5 C32.671,25.5 32,24.829 32,24 C32,23.171 32.671,22.5 33.5,22.5 L33.5,22.5 Z M14.5,22.5 C15.329,22.5 16,23.171 16,24 C16,24.829 15.329,25.5 14.5,25.5 L14.5,25.5 L5.5,25.5 C4.671,25.5 4,24.829 4,24 C4,23.171 4.671,22.5 5.5,22.5 L5.5,22.5 Z M36.0199,9.8587 C36.6059,9.2727 37.5559,9.2727 38.1419,9.8587 C38.7269,10.4447 38.7269,11.3937 38.1419,11.9797 L38.1419,11.9797 L33.1919,16.9297 C32.6059,17.5157 31.6559,17.5157 31.0699,16.9297 C30.4839,16.3437 30.4839,15.3937 31.0699,14.8077 L31.0699,14.8077 Z M9.858,9.8584 C10.444,9.2734 11.394,9.2734 11.98,9.8584 L11.98,9.8584 L16.93,14.8084 C17.516,15.3944 17.516,16.3434 16.93,16.9294 C16.344,17.5154 15.394,17.5154 14.809,16.9294 L14.809,16.9294 L9.858,11.9804 C9.273,11.3944 9.273,10.4444 9.858,9.8584 Z M24,4 C24.829,4 25.5,4.671 25.5,5.5 L25.5,5.5 L25.5,14.5 C25.5,15.329 24.829,16 24,16 C23.171,16 22.5,15.329 22.5,14.5 L22.5,14.5 L22.5,5.5 C22.5,4.671 23.171,4 24,4 Z" fill="#0071B3"></path>
    </g>
</svg>