<?xml version="1.0" encoding="UTF-8"?>
<svg width="48px" height="48px" viewBox="0 0 48 48" version="1.1" xmlns="http://www.w3.org/2000/svg" xmlns:xlink="http://www.w3.org/1999/xlink">
    <title>Frequently Asked Question</title>
    <g id="Frequently-Asked-Question" stroke="none" stroke-width="1" fill="none" fill-rule="evenodd">
        <path d="M42.4999978,6.99992649 C42.6996789,6.99817847 42.8974371,7.03909397 43.08,7.12 C43.636217,7.35320798 43.9986607,7.89687355 43.9999978,8.5 L43.9999978,8.5 L43.9999978,33.15 C44.0153018,33.2661649 44.0153018,33.3838351 43.9999978,33.5 C44.0002891,34.3130543 43.3527652,34.9783186 42.54,35 L42.54,35 L20.07,35 L12.52,42.5 C12.3808604,42.6422409 12.2141141,42.7545394 12.03,42.83 L12.03,42.83 L11.8767055,42.8838776 C11.5657551,42.9736735 11.2317143,42.9557143 10.93,42.83 L10.93,42.83 L10.7961678,42.7652199 C10.6656991,42.6942544 10.5457349,42.6050116 10.44,42.5 C10.3010726,42.3581302 10.1892362,42.19207 10.11,42.01 L10.11,42.01 L10.0620331,41.8771267 C10.0207858,41.7421984 9.99979995,41.6016176 9.99999776,41.46 L9.99999776,41.46 L9.99999776,35 L5.49999776,35 C4.67157288,35 3.99999776,34.3284271 3.99999776,33.5 L3.99999776,33.5 L3.99999776,8.5 C3.99913775,8.00238911 4.24674249,7.53719231 4.66,7.26 C4.90604336,7.08787289 5.19974032,6.99696669 5.49999776,6.99992649 L5.49999776,6.99992649 Z M41,10 L7,10 L7,32 L13,32 L13,37.84 L15.83,35 L18.83,32 L41,32 L41,10 Z M23.99,27 C24.8184271,27 25.49,27.6715729 25.49,28.5 C25.49,29.3284271 24.8184271,30 23.99,30 C23.1615729,30 22.49,29.3284271 22.49,28.5 C22.49,27.6715729 23.1615729,27 23.99,27 Z M24.05,12 C26.792935,12.0026341 29.1146458,14.0258739 29.4923302,16.7426835 C29.8700145,19.459493 28.1882073,22.0392924 25.55,22.79 L25.55,22.79 L25.55,24.47 C25.55,25.2984271 24.8784271,25.97 24.05,25.97 C23.2215729,25.97 22.55,25.2984271 22.55,24.47 L22.55,24.47 L22.55,21.47 C22.544985,20.7587859 23.0433299,20.1431834 23.74,20 C23.8430737,19.9896407 23.9469263,19.9896407 24.05,20 C25.4307119,20 26.55,18.8807119 26.55,17.5 C26.55,16.1192881 25.4307119,15 24.05,15 C22.6692881,15 21.55,16.1192881 21.55,17.5 C21.55,18.3284271 20.8784271,19 20.05,19 C19.2215729,19 18.55,18.3284271 18.55,17.5 C18.55,14.4624339 21.0124339,12 24.05,12 Z" id="FAQ" fill="#0071B3"></path>
    </g>
</svg>