<?xml version="1.0" encoding="UTF-8"?>
<svg width="48px" height="48px" viewBox="0 0 48 48" version="1.1" xmlns="http://www.w3.org/2000/svg" xmlns:xlink="http://www.w3.org/1999/xlink">
    <title>Funnel</title>
    <g id="Funnel" stroke="none" stroke-width="1" fill="none" fill-rule="evenodd">
        <path d="M43.7621207,6.12 C43.7621207,6.12 43.7621207,6.03 43.8121207,5.98 C43.8142992,5.93336018 43.8142992,5.88663982 43.8121207,5.84 C43.8121207,5.84 43.8121207,5.75 43.8121207,5.71 C43.8150253,5.65670621 43.8150253,5.60329379 43.8121207,5.55 C43.8121207,5.55 43.8121207,5.55 43.8121207,5.55 C43.8121207,5.55 43.8121207,5.49 43.8121207,5.46 C43.8142992,5.41003088 43.8142992,5.35996912 43.8121207,5.31 C43.8142992,5.26335946 43.8142992,5.21664054 43.8121207,5.17 L43.8121207,5.04 L43.7521207,4.9 L43.6821207,4.78 L43.5921207,4.65 L43.5021207,4.55 L43.3821207,4.43 L43.3221207,4.37 L43.3221207,4.37 L43.1721207,4.28 L43.0621207,4.22 L42.9021207,4.08 L42.7721207,4.08 L42.6021207,4 L42.4521207,4 L5.35212069,4 L5.20212069,4 L5.06212069,4 L4.90212069,4.08 L4.75212069,4.14 L4.64212069,4.2 L4.49212069,4.29 L4.49212069,4.29 L4.43212069,4.35 L4.31212069,4.47 L4.22212069,4.57 L4.13212069,4.7 L4.06212069,4.82 L4.00212069,5 L4.00212069,5.13 C4.00212069,5.13 4.00212069,5.22 4.00212069,5.27 C3.9992931,5.32329586 3.9992931,5.37670414 4.00212069,5.43 C4.00212069,5.43 4.00212069,5.49 4.00212069,5.52 C4.00212069,5.55 4.00212069,5.52 4.00212069,5.52 C3.99933011,5.57329683 3.99933011,5.62670317 4.00212069,5.68 C4.00212069,5.68 4.00212069,5.77 4.00212069,5.81 C4,5.85664054 4,5.90335946 4.00212069,5.95 C4.00212069,5.95 4.00212069,6.04 4.05212069,6.09 L4.12212069,6.21 L4.20212069,6.34 L4.20212069,6.34 L18.4021207,24.9 L18.4021207,42.48 C18.4021207,42.48 18.4021207,42.53 18.4021207,42.56 C18.3972147,42.629914 18.3972147,42.700086 18.4021207,42.77 L18.4021207,42.77 C18.5159718,43.3459713 18.9574443,43.8013894 19.5295975,43.9330926 C20.1017507,44.0647958 20.6979067,43.848228 21.0521207,43.38 L29.0521207,32.96 C29.1996446,32.763384 29.2958743,32.5331201 29.3321207,32.29 L29.3321207,32.29 C29.3353131,32.2333783 29.3353131,32.1766217 29.3321207,32.12 C29.3321207,32.12 29.3321207,32.05 29.3321207,32.01 L29.3321207,24.91 L43.5921207,6.41 L43.5921207,6.41 L43.6721207,6.27 L43.7621207,6.12 Z M26.7121207,23.48 C26.6341837,23.5845318 26.5703047,23.6988415 26.5221207,23.82 L26.5221207,23.82 C26.4936127,23.8881675 26.4702148,23.9583612 26.4521207,24.03 C26.4521207,24.03 26.4521207,24.12 26.4521207,24.16 C26.4521207,24.2 26.4521207,24.25 26.4521207,24.29 C26.4521207,24.33 26.4521207,24.29 26.4521207,24.36 L26.4521207,31.51 L21.4521207,38.03 L21.4521207,24.42 C21.4491535,24.2773578 21.4255762,24.1358941 21.3821207,24 L21.3821207,24 C21.3259908,23.8179643 21.2416305,23.6458691 21.1321207,23.49 L8.44212069,7 L39.3621207,7 L26.7121207,23.48 Z" fill="#0071B3"></path>
    </g>
</svg>