<?xml version="1.0" encoding="UTF-8"?>
<svg width="48px" height="48px" viewBox="0 0 48 48" version="1.1" xmlns="http://www.w3.org/2000/svg" xmlns:xlink="http://www.w3.org/1999/xlink">
    <title>Gear</title>
    <g id="Gear" stroke="none" stroke-width="1" fill="none" fill-rule="evenodd">
        <path d="M42.9970206,28.6995597 C42.9824403,28.5604197 42.9627319,28.4913402 42.9380542,28.4239834 C42.9079588,28.3489847 42.8718039,28.2765698 42.8299492,28.2074592 C42.7832344,28.1374762 42.7306281,28.0716228 42.6727056,28.010619 C42.6095843,27.9452448 42.5404885,27.8859338 42.4663232,27.8334628 C42.3890683,27.7796836 42.306785,27.733538 42.22063,27.6956747 C40.702825,27.0998329 39.7097526,25.6276367 39.7243868,23.995079 C39.7297147,23.9230029 39.7297147,23.8506309 39.7243868,23.7785548 C39.8003279,22.2977758 40.700618,20.9853225 42.0535586,20.3830614 C42.1397136,20.3451981 42.2219969,20.2990525 42.2992519,20.2452732 C42.3733819,20.1927571 42.4424736,20.1334496 42.5056342,20.0681171 C42.5635932,20.0071451 42.616202,19.9412885 42.6628778,19.8712769 C42.7047325,19.8021663 42.7408874,19.7297514 42.7709828,19.6547527 C42.7956605,19.5873959 42.8153689,19.5183163 42.8299492,19.4480704 C42.8339217,19.3169071 42.8339217,19.2544474 42.8299492,19.1921782 C42.8299492,19.044548 42.8299492,19.015022 42.8299492,18.985496 C42.8306892,18.8559307 42.8141638,18.7268456 42.7808106,18.6016576 C42.363984,17.158935 41.3066512,14.9163429 41.0511303,14.4581715 C40.7956093,14 40.7215217,13.6806527 39.3607609,13.7692308 C38,13.8578089 36.2569898,13.9881695 35.1544928,12.8834499 C35.1544928,12.8834499 35.075871,12.8834499 35.0463878,12.8047138 C34.0137579,11.7004837 33.7043253,10.1013383 34.2503417,8.69075369 C34.2849233,8.6048795 34.3112497,8.51589873 34.3289636,8.42501943 C34.3370485,8.33662636 34.3370485,8.24767823 34.3289636,8.15928516 C34.3358463,8.07741323 34.3358463,7.99510684 34.3289636,7.91323491 C34.3088844,7.83578283 34.2825917,7.76008131 34.2503417,7.68686869 C34.2229979,7.53910827 34.1732864,7.39639504 34.1029258,7.26366226 L33.9849931,7.05698006 L33.8277494,7.00777001 L33.6999889,6.90934991 L33.5820562,6.83061383 C32.2737436,6.09632992 30.8854705,5.51511587 29.4445822,5.0984201 L29.2971663,5.0984201 L29.1497503,5.0984201 L28.9925067,5.0984201 L28.7369857,5.0984201 L28.4618093,5.15747216 L28.2062884,5.25589226 L27.9311119,5.39368039 C27.8658325,5.45689342 27.8066076,5.52608957 27.7542128,5.6003626 C27.7005116,5.67772984 27.654433,5.76013266 27.6166246,5.84641285 C27.0322276,7.23431834 25.7082801,8.16663129 24.2064026,8.24786325 L24.0000203,8.24786325 C22.4414239,8.24720765 21.0304064,7.32446662 20.4030715,5.8956229 C20.3658418,5.80594529 20.3197497,5.72022129 20.2654833,5.63973064 C20.2102505,5.54396746 20.1443074,5.45481497 20.0689287,5.37399637 L19.8723741,5.22636623 L19.6758195,5.12794613 L19.3809876,5 L18.9977062,5 L18.8502903,5 L18.7028743,5 C17.2595117,5.40988727 15.8679532,5.9844916 14.5555727,6.71250971 C14.4406188,6.77673239 14.3348367,6.85618423 14.2410853,6.94871795 L14.0936694,7.0963481 L13.926598,7.26366226 C13.8860503,7.38231889 13.8499185,7.44481898 13.818493,7.50971251 C13.7861623,7.58289325 13.7598672,7.65860144 13.7398712,7.73607874 C13.7324257,7.82121321 13.7324257,7.90683652 13.7398712,7.99197099 C13.7318408,8.08036654 13.7318408,8.16930971 13.7398712,8.25770526 C13.7569688,8.35192896 13.7833035,8.44423442 13.818493,8.53328153 C14.3645094,9.94386611 14.0550768,11.5430115 13.0224469,12.6472416 C13.0224469,12.6472416 12.9438251,12.6472416 12.9143419,12.7259777 C11.8118449,13.8306974 10.1614818,14.1782406 8.70807386,13.6117586 L8.43289745,13.5330225 L8.16754877,13.5330225 L7.93168327,13.5330225 L7.76461187,13.5330225 L7.55822956,13.6019166 L7.32236406,13.7003367 L7.11598175,13.8578089 L7.02753219,13.9463869 L6.9292549,14.1530692 L6.84080534,14.2810153 C6.10758688,15.5912289 5.52721617,16.9815194 5.11112502,18.4245014 C5.10712562,18.4867698 5.10712562,18.5492312 5.11112502,18.6114996 L5.11112502,18.7296037 C5.10832759,18.7820571 5.10832759,18.8346225 5.11112502,18.8870759 C5.10712562,19.0576064 5.10712562,19.1200678 5.11112502,19.1823362 C5.12573943,19.3214677 5.14544711,19.3905448 5.1700914,19.4579125 C5.20018685,19.5329112 5.23634177,19.6053261 5.27819642,19.6744367 C5.32487222,19.7444483 5.37748109,19.8103049 5.43544008,19.8712769 C5.49856138,19.9366511 5.56765714,19.9959621 5.64182239,20.048433 C5.71910996,20.1021601 5.80138804,20.1483028 5.88751562,20.1862212 C7.24045623,20.7884823 8.14074638,22.1009356 8.21668741,23.5817146 C8.21135954,23.6537907 8.21135954,23.7261627 8.21668741,23.7982388 C8.21603276,25.3591 7.29463063,26.7721678 5.86786016,27.4004144 C5.78170517,27.4382777 5.69942191,27.4844233 5.62216693,27.5382025 C5.54803687,27.5907187 5.47894517,27.6500262 5.41578462,27.7153587 C5.26891707,27.7794576 5.21629601,27.8486231 5.1700914,27.9220409 C5.12819823,27.9911302 5.0920417,28.0635483 5.06198638,28.1385651 C5.03683675,28.2091254 5.01712357,28.2815121 5.00302,28.3550894 C4.99899333,28.4862509 4.99899333,28.5487141 5.00302,28.6109816 C5,28.7716966 5,28.824263 5.00302,28.8767159 C5.00302,28.8767159 5.00302,28.965294 5.00302,29.014504 C5.41231253,30.459964 5.98608311,31.8535446 6.71304486,33.1678322 C6.78390013,33.2952293 6.87333365,33.4113301 6.97839355,33.5123025 L7.0963263,33.6304066 C7.16033216,33.6889095 7.2293973,33.741607 7.30270861,33.7878788 L7.42064136,33.8567729 L7.61719594,33.9355089 L7.74495641,33.9355089 C7.84623707,33.9460462 7.94833536,33.9460462 8.04961602,33.9355089 L8.18720422,33.9355089 L8.32479243,33.9355089 L8.51151928,33.8862989 C9.97902347,33.339489 11.5758485,33.6493713 12.6784764,34.6835017 C12.6784764,34.6835017 12.6784764,34.7622378 12.7570982,34.8016058 C13.8602149,35.9057048 14.2072539,37.5584661 13.6415939,39.013986 C13.6070123,39.0998602 13.5806859,39.188841 13.562972,39.2797203 C13.5548871,39.3681133 13.5548871,39.4570615 13.562972,39.5454545 C13.5560893,39.6273265 13.5560893,39.7096329 13.562972,39.7915048 C13.5830512,39.8689569 13.6093439,39.9446584 13.6415939,40.017871 C13.6730194,40.0827645 13.7091511,40.1452646 13.7496989,40.2048692 L13.8676316,40.4115514 L14.0641862,40.5887076 L14.182119,40.6674437 L14.3000517,40.7264957 L15.0469591,41.1103341 L15.1550641,41.1693862 C16.2124188,41.6876372 17.3143172,42.1092729 18.4473534,42.4291634 C18.5616066,42.4427883 18.6770707,42.4427883 18.7913239,42.4291634 L18.9190844,42.4291634 C19.022077,42.4234795 19.1241896,42.4069858 19.223744,42.3799534 C19.2950259,42.3526572 19.3640359,42.3197475 19.4301263,42.2815333 L19.6168531,42.1831132 C19.6833917,42.1359552 19.7458539,42.083279 19.80358,42.025641 L19.9411682,41.8878529 C19.9938494,41.8167716 20.0399053,41.7409985 20.0787564,41.6614867 C20.0787564,41.6614867 20.0787564,41.6024346 20.1377228,41.5630666 C20.9708379,40.2705126 22.4794526,39.5823843 24.0000203,39.8013468 L24.2064026,39.8013468 C25.685033,39.8773982 26.995582,40.7789966 27.5969692,42.1339031 C27.5969692,42.1339031 27.5969692,42.1929552 27.6559355,42.2323232 C27.6947866,42.311835 27.7408425,42.3876082 27.7935237,42.4586895 L27.9311119,42.5964776 C27.988838,42.6541156 28.0513002,42.7067918 28.1178388,42.7539498 L28.3045656,42.8523699 C28.370656,42.8905841 28.4396661,42.9234938 28.510948,42.95079 C28.6105023,42.9778223 28.7126149,42.994316 28.8156076,43 L28.943368,43 L29.0809562,43 C29.2206433,43 29.3596213,42.9801171 29.4937209,42.9409479 C30.934754,42.5246643 32.3230734,41.9434309 33.6311948,41.2087542 L33.7491276,41.1300181 L33.876888,41.031598 L34.0734426,40.8052318 C34.1144175,40.6834113 34.1505571,40.6176074 34.1815476,40.5493395 C34.2138377,40.4761428 34.2401316,40.4004379 34.2601695,40.3229733 C34.2676149,40.2378389 34.2676149,40.1522155 34.2601695,40.0670811 C34.2681999,39.9786855 34.2681999,39.8897424 34.2601695,39.8013468 C34.242398,39.7104817 34.2160731,39.6215063 34.1815476,39.5356125 C33.6158876,38.0800926 33.9629265,36.4273313 35.0660433,35.3232323 C35.0660433,35.3232323 35.0660433,35.2444962 35.1446651,35.2051282 C36.247293,34.1709978 37.844118,33.8611156 39.2526558,34.4079254 L39.5081768,34.4669775 L39.6359373,34.4669775 L39.7833532,34.4669775 C39.8813802,34.4769108 39.9801581,34.4769108 40.0781851,34.4669775 L40.225601,34.4669775 L40.4025001,34.3980834 L40.5302606,34.3291893 L40.7268152,34.1815592 C40.8790564,34.0365745 40.9516682,33.94072 41.0118193,33.8370888 C41.807732,32.4342988 42.3815102,31.0406997 42.7906383,29.5951826 C42.793147,29.5460046 42.9541267,29.1562756 42.9970206,28.99482 C43.0009931,28.8242886 43.0009931,28.761829 42.9970206,28.6995597 Z M33.0513588,33.0595701 C32.9905636,33.1359024 32.9378653,33.2183633 32.8941151,33.3056203 C31.4652683,34.8646528 30.8311349,36.9948082 31.1742625,39.0828801 C30.661734,39.3294961 30.1368973,39.5495908 29.6018259,39.7422947 C28.3244826,37.9050873 26.2354051,36.8039752 24.0000203,36.7896918 C23.8598354,36.7926121 23.7208088,36.8158169 23.5872557,36.8585859 C21.5147429,36.9877605 19.6113822,38.0475234 18.4080425,39.7422947 C18.1132106,39.6438746 17.8183787,39.5552966 17.5333746,39.4371924 L17.2975091,39.3289303 L16.8159504,39.0927221 C17.1743662,36.9933705 16.543073,34.8460346 15.1059255,33.2760943 C15.0621754,33.1888372 15.009477,33.1063764 14.9486818,33.030044 C13.3665935,31.4565734 11.1211368,30.7485752 8.9242839,31.1305361 C8.68197462,30.6234994 8.46548677,30.1044876 8.27565378,29.5754986 C9.9553819,28.3706269 11.0054104,26.4734929 11.1355229,24.4084434 C11.1849213,24.2756958 11.2147183,24.1364414 11.2239725,23.995079 C11.2097099,21.7564459 10.1101954,19.6643328 8.27565378,18.3851334 C8.46258043,17.8596668 8.67578398,17.3439499 8.91445618,16.8399378 C11.0240462,17.2057924 13.1826315,16.5569113 14.7422995,15.0880601 C14.8150411,15.0483565 14.884108,15.002245 14.9486818,14.950272 C16.5198694,13.3658846 17.2268402,11.1171651 16.8454335,8.91711992 C17.3577666,8.66716559 17.8826064,8.44378455 18.4178702,8.24786325 C19.6209936,9.93003219 21.5153748,10.9815864 23.577428,11.1118881 C23.7131075,11.1623035 23.8555404,11.1921583 24.0000203,11.2004662 C26.2354051,11.1861828 28.3244826,10.0850706 29.6018259,8.24786325 C30.1259714,8.43158076 30.6370133,8.64482431 31.1349516,8.88759389 C30.759419,11.0860647 31.4698814,13.3305741 33.0415311,14.9109039 C33.1061355,14.9628351 33.1751985,15.0089441 33.2479134,15.048692 C34.8005002,16.5164231 36.9512354,17.1687768 39.0561013,16.8104118 C39.3051852,17.3170111 39.5282383,17.8360346 39.7243868,18.3654494 C37.8841849,19.6486429 36.7839461,21.7494799 36.7760681,23.995079 C36.7780277,24.1387739 36.8012101,24.2813875 36.8448622,24.4182854 C36.97963,26.4867537 38.0372248,28.3845151 39.7243868,29.5853406 C39.5352082,30.1210103 39.3187136,30.6466082 39.0757567,31.1600622 C36.8789038,30.7781012 34.6334471,31.4860994 33.0513588,33.0595701 L33.0513588,33.0595701 Z M24,28 C26.209139,28 28,26.209139 28,24 C28,21.790861 26.209139,20 24,20 C21.790861,20 20,21.790861 20,24 C20,26.209139 21.790861,28 24,28 Z M24,31 C20.1340068,31 17,27.8659932 17,24 C17,20.1340068 20.1340068,17 24,17 C27.8659932,17 31,20.1340068 31,24 C31,27.8659932 27.8659932,31 24,31 Z" id="gear" fill="#0071B3"></path>
    </g>
</svg>