<?xml version="1.0" encoding="UTF-8"?>
<svg width="48px" height="48px" viewBox="0 0 48 48" version="1.1" xmlns="http://www.w3.org/2000/svg" xmlns:xlink="http://www.w3.org/1999/xlink">
    <title>Performance / Good</title>
    <g id="Performance-/-Good" stroke="none" stroke-width="1" fill="none" fill-rule="evenodd">
        <path d="M24,44 C35.045695,44 44,35.045695 44,24 C44,12.954305 35.045695,4 24,4 C12.954305,4 4,12.954305 4,24 C4,35.045695 12.954305,44 24,44 Z M18.0206349,28.5865994 C18.2458886,28.5865994 18.4706498,28.4943855 18.6325851,28.3132412 L22.7747145,23.6842113 L24.4247692,26.5351815 C24.5888389,26.8184452 24.9038986,26.9771516 25.2301772,26.9392263 C25.5551423,26.9015745 25.8265851,26.6744054 25.921207,26.3612064 L28.2967692,18.491883 L31.079605,21.733271 C31.375401,22.0779924 31.8940976,22.1164651 32.2371772,21.8214352 C32.5810777,21.5261317 32.6206448,21.0077636 32.3253413,20.6638631 L28.5666797,16.2859725 C28.3713612,16.0585845 28.0669732,15.9562462 27.7741324,16.0174302 C27.4807443,16.0794352 27.2444906,16.2964253 27.1579135,16.5834103 L24.897003,24.0732611 L23.6285005,21.8817984 C23.4967742,21.6541367 23.2637493,21.5034203 23.0021573,21.4764402 C22.7370627,21.4483656 22.4816,21.5499377 22.3063115,21.7455297 L17.4092866,27.2181666 C17.106814,27.5562113 17.1356548,28.0751268 17.4734259,28.3773805 C17.630217,28.5176442 17.8258637,28.5865994 18.0206349,28.5865994 L18.0206349,28.5865994 Z M32.980597,31.965393 L15.741791,31.965393 L15.741791,15.8208955 C15.741791,15.3675423 15.3742488,15 14.9208955,15 C14.4675423,15 14.1,15.3675423 14.1,15.8208955 L14.1,32.7860697 L14.1,32.7861791 L14.1,32.7862886 C14.1,33.2396418 14.4675423,33.6071841 14.9208955,33.6071841 L32.980597,33.6071841 C33.4339502,33.6071841 33.8014925,33.2396418 33.8014925,32.7862886 C33.8014925,32.3329353 33.4339502,31.965393 32.980597,31.965393 L32.980597,31.965393 Z" id="performance-good" fill="#0071B3"></path>
    </g>
</svg>