<?xml version="1.0" encoding="UTF-8"?>
<svg width="48px" height="48px" viewBox="0 0 48 48" version="1.1" xmlns="http://www.w3.org/2000/svg" xmlns:xlink="http://www.w3.org/1999/xlink">
    <title>Social Media / Google Plus</title>
    <g id="Social-Media-/-Google-Plus" stroke="none" stroke-width="1" fill="none" fill-rule="evenodd">
        <path d="M15.9999998,11 C19.479205,10.9472205 22.8427016,12.2488721 25.38,14.63 L25.38,14.63 L21.58,18.29 C20.0769195,16.8634352 18.071838,16.0872746 15.9999998,16.13 C11.1205643,16.1300001 7.16500013,20.0855643 7.16500013,24.965 C7.16500013,29.8444357 11.1205643,33.7999999 15.9999998,33.8 C21.53,33.8 23.61,29.86 23.93,27.8 L23.93,27.8 L15.9999998,27.8 L15.9999998,23 L29.22,23 C29.3605905,23.7686808 29.4308808,24.5485686 29.4300082,25.33 C29.4300082,33.32 24.07,39 15.9999998,39 C10.9982817,39 6.37650335,36.3316152 3.87564417,32.0000001 C1.374785,27.668385 1.374785,22.331615 3.87564417,17.9999999 C6.37650335,13.6683848 10.9982817,10.9999999 15.9999998,11 Z M41.99,19 L41.99,23 L45.98,23 L45.98,27 L41.99,27 L41.99,31 L37.99,31 L37.99,27 L33.99,27 L33.99,23 L37.99,23 L37.99,19 L41.99,19 Z" id="google-plus" fill="#0071B3"></path>
    </g>
</svg>