<?xml version="1.0" encoding="UTF-8"?>
<svg width="48px" height="48px" viewBox="0 0 48 48" version="1.1" xmlns="http://www.w3.org/2000/svg" xmlns:xlink="http://www.w3.org/1999/xlink">
    <title>Grip</title>
    <g id="Grip" stroke="none" stroke-width="1" fill="none" fill-rule="evenodd">
        <path d="M32.4995,38 C33.3275,38 33.9995,38.671 33.9995,39.5 C33.9995,40.329 33.3275,41 32.4995,41 L15.4995,41 C14.6715,41 13.9995,40.329 13.9995,39.5 C13.9995,38.671 14.6715,38 15.4995,38 L32.4995,38 Z M32.5,30.0005 C33.329,30.0005 34,30.6715 34,31.5005 C34,32.3295 33.329,33.0005 32.5,33.0005 L15.5,33.0005 C14.672,33.0005 14,32.3295 14,31.5005 C14,30.6715 14.672,30.0005 15.5,30.0005 L32.5,30.0005 Z M32.4995,22 C33.3285,22 33.9995,22.671 33.9995,23.5 C33.9995,24.329 33.3285,25 32.4995,25 L15.4995,25 C14.6715,25 13.9995,24.329 13.9995,23.5 C13.9995,22.671 14.6715,22 15.4995,22 L32.4995,22 Z M32.5,14 C33.329,14 34,14.671 34,15.5 C34,16.329 33.329,17 32.5,17 L15.5,17 C14.672,17 14,16.329 14,15.5 C14,14.671 14.672,14 15.5,14 L32.5,14 Z M32.4995,6 C33.3275,6 33.9995,6.671 33.9995,7.5 C33.9995,8.329 33.3275,9 32.4995,9 L15.4995,9 C14.6715,9 13.9995,8.329 13.9995,7.5 C13.9995,6.671 14.6715,6 15.4995,6 L32.4995,6 Z" id="Color" fill="#0071B3"></path>
    </g>
</svg>