<?xml version="1.0" encoding="UTF-8"?>
<svg width="48px" height="48px" viewBox="0 0 48 48" version="1.1" xmlns="http://www.w3.org/2000/svg" xmlns:xlink="http://www.w3.org/1999/xlink">
    <title>Handshake</title>
    <g id="Handshake" stroke="none" stroke-width="1" fill="none" fill-rule="evenodd">
        <path d="M20.1193,41.7753 L20.1113,41.7833 C19.5253,42.3643 18.5773,42.3633 17.9943,41.7793 C17.4113,41.1963 17.4103,40.2483 17.9903,39.6633 L17.9903,39.6623 L17.9943,39.6583 L19.7633,37.8893 L21.8843,40.0103 L20.1193,41.7753 Z M16.9353,36.4753 L15.8723,37.5373 C15.8713,37.5383 15.8693,37.5393 15.8683,37.5413 C15.2833,38.1213 14.3353,38.1203 13.7513,37.5373 C13.1683,36.9533 13.1673,36.0053 13.7473,35.4203 C13.7493,35.4193 13.7503,35.4173 13.7513,35.4163 L14.8133,34.3533 L15.5203,33.6473 L15.5203,33.6463 C15.5213,33.6463 15.5213,33.6463 15.5213,33.6463 C16.1063,33.0613 17.0573,33.0623 17.6423,33.6463 C18.2273,34.2313 18.2273,35.1833 17.6423,35.7683 L16.9353,36.4753 Z M15.5203,29.4043 L13.9493,30.9753 L13.4003,31.5253 C13.4003,31.5253 13.3993,31.5253 13.3993,31.5253 C13.3993,31.5253 13.3993,31.5253 13.3993,31.5253 L12.6923,32.2323 L11.6303,33.2943 C11.6283,33.2963 11.6273,33.2963 11.6253,33.2983 C11.0403,33.8793 10.0923,33.8783 9.5093,33.2943 C8.9253,32.7113 8.9243,31.7633 9.5053,31.1773 L9.5043,31.1773 L11.2783,29.4033 L11.2783,29.4043 L11.8273,28.8553 L13.3993,27.2823 L14.8133,25.8683 L14.8143,25.8683 C15.3993,25.2833 16.3503,25.2833 16.9353,25.8683 C17.5193,26.4533 17.5193,27.4043 16.9353,27.9893 C16.9343,27.9893 16.9343,27.9903 16.9343,27.9903 L15.5203,29.4043 Z M34.2593,37.5353 C34.6333,37.1613 34.9103,36.7323 35.1243,36.2803 C35.3803,35.7423 35.5243,35.1703 35.5543,34.5883 C36.1373,34.5583 36.7093,34.4143 37.2463,34.1583 C37.6983,33.9433 38.1283,33.6673 38.5013,33.2933 C38.8753,32.9193 39.1523,32.4893 39.3673,32.0383 C40.0933,30.5113 39.9143,28.6733 38.8263,27.3113 L44.8643,21.2743 C44.8643,21.2733 44.8653,21.2733 44.8663,21.2723 C44.8663,21.2713 44.8663,21.2713 44.8673,21.2703 C45.4513,20.6843 45.4513,19.7353 44.8663,19.1503 C44.2803,18.5653 43.3303,18.5653 42.7443,19.1503 L36.7333,25.1613 L32.8483,21.2763 L26.1273,14.5543 L24.7133,13.1403 L25.0663,12.7873 C25.6523,12.2013 25.6523,11.2513 25.0663,10.6653 C24.4803,10.0803 23.5313,10.0803 22.9453,10.6653 L22.5913,11.0193 L21.8843,11.7263 L21.1773,12.4333 L20.9823,12.6283 L20.4703,13.1403 L20.0633,13.5473 L19.7953,13.8163 L17.9963,15.6133 L17.9943,15.6163 C17.4093,16.2003 16.4583,16.1993 15.8743,15.6153 C15.2903,15.0303 15.2893,14.0803 15.8733,13.4953 L15.8733,13.4953 L17.6743,11.6943 L18.1193,11.2493 L18.2143,11.1543 L18.2493,11.1193 L18.3483,11.0193 L18.8613,10.5063 L20.4703,8.8983 L21.1793,8.1893 L21.8833,7.4853 L21.8863,7.4823 L22.9453,6.4223 C23.0693,6.2983 23.2123,6.2073 23.3623,6.1353 C23.9193,5.8703 24.6053,5.9623 25.0663,6.4223 L27.5413,8.8983 L28.6023,9.9583 C29.1883,10.5443 30.1383,10.5443 30.7233,9.9583 L31.7843,8.8983 L32.1393,8.5423 C32.7143,7.9673 32.7213,7.0443 32.1673,6.4563 C32.1573,6.4443 32.1503,6.4323 32.1393,6.4213 C32.1283,6.4103 32.1163,6.4033 32.1043,6.3933 C31.5163,5.8393 30.5933,5.8463 30.0173,6.4213 L29.6623,6.7763 L27.1883,4.3013 C27.1883,4.3013 26.8133,3.9273 27.1883,4.3013 C26.8133,3.9273 26.3863,3.6463 25.9333,3.4353 C25.3963,3.1843 24.8223,3.0363 24.2413,3.0063 C24.0833,2.9983 23.9283,2.9983 23.7713,3.0063 C23.1893,3.0363 22.6163,3.1843 22.0793,3.4353 C21.6263,3.6463 21.1983,3.9273 20.8243,4.3013 L19.7663,5.3583 C19.7653,5.3603 19.7643,5.3613 19.7633,5.3623 C19.7633,5.3623 19.7623,5.3623 19.7623,5.3633 L18.3483,6.7763 L17.2913,5.7193 C17.2903,5.7183 17.2893,5.7163 17.2883,5.7153 C17.2873,5.7143 17.2863,5.7143 17.2853,5.7133 C16.6993,5.1303 15.7523,5.1313 15.1673,5.7153 C14.5813,6.3013 14.5813,7.2513 15.1673,7.8373 L16.2273,8.8983 L13.7513,11.3743 L13.7523,11.3743 C12.3693,12.7573 12.0933,14.8103 12.8873,16.4813 C13.1023,16.9323 13.3793,17.3623 13.7533,17.7363 C14.1273,18.1103 14.5573,18.3873 15.0083,18.6023 C16.6793,19.3973 18.7323,19.1203 20.1153,17.7373 C20.1163,17.7373 20.1173,17.7373 20.1173,17.7363 L20.1183,17.7353 L22.5913,15.2623 L24.0053,16.6763 L30.7273,23.3983 L33.3923,26.0633 L34.6123,27.2823 L36.3753,29.0463 L36.3843,29.0543 C36.5073,29.1783 36.5983,29.3203 36.6683,29.4693 C36.9323,30.0253 36.8413,30.7113 36.3803,31.1713 C35.9203,31.6313 35.2353,31.7233 34.6783,31.4593 C34.5293,31.3883 34.3873,31.2973 34.2643,31.1753 L34.2633,31.1753 L34.2593,31.1713 L32.4913,29.4033 L31.2723,28.1843 L29.3093,26.2223 C28.7233,25.6363 27.7743,25.6363 27.1883,26.2223 C26.6023,26.8073 26.6023,27.7573 27.1883,28.3433 L29.1503,30.3053 L30.3693,31.5253 L32.1383,33.2933 C32.1393,33.2943 32.1403,33.2963 32.1413,33.2973 C32.2643,33.4213 32.3543,33.5633 32.4253,33.7123 C32.6903,34.2693 32.5983,34.9543 32.1383,35.4143 C31.6773,35.8743 30.9923,35.9663 30.4353,35.7023 C30.2863,35.6313 30.1443,35.5403 30.0213,35.4183 C30.0193,35.4163 30.0173,35.4153 30.0163,35.4143 L28.2483,33.6463 L27.0293,32.4273 L25.0663,30.4643 C24.4813,29.8793 23.5313,29.8793 22.9453,30.4643 C22.3593,31.0503 22.3593,32.0003 22.9453,32.5863 L24.9083,34.5483 L26.1273,35.7673 L27.8953,37.5353 C27.8963,37.5373 27.8973,37.5393 27.8993,37.5403 C28.0213,37.6633 28.1123,37.8053 28.1823,37.9543 C28.4473,38.5113 28.3553,39.1963 27.8953,39.6563 C27.4343,40.1173 26.7493,40.2093 26.1923,39.9443 C26.0433,39.8743 25.9023,39.7833 25.7783,39.6603 L25.7783,39.6613 L24.0053,37.8893 L22.7863,36.6703 L21.8853,35.7683 L21.0583,34.9423 C21.0973,34.2053 20.9383,33.4693 20.6213,32.7893 C20.4093,32.3353 20.1393,31.9003 19.7633,31.5253 C19.3903,31.1513 18.9593,30.8743 18.5083,30.6593 L19.0563,30.1113 C19.0563,30.1113 19.0563,30.1113 19.0563,30.1103 C19.2993,29.8673 19.5013,29.6003 19.6773,29.3203 C20.3963,28.1793 20.5443,26.7893 20.1403,25.5383 C19.9293,24.8843 19.5763,24.2663 19.0563,23.7473 C18.5403,23.2313 17.9283,22.8863 17.2803,22.6783 C16.7483,22.5063 16.1933,22.4223 15.6393,22.4513 C14.5673,22.5073 13.5113,22.9283 12.6923,23.7473 C12.6923,23.7473 12.6923,23.7473 12.6923,23.7473 L11.2783,25.1613 L4.5613,18.4453 C4.5613,18.4443 4.5613,18.4443 4.5603,18.4433 C4.5603,18.4433 4.5593,18.4423 4.5593,18.4423 C3.9733,17.8583 3.0243,17.8583 2.4393,18.4433 C1.8533,19.0293 1.8533,19.9793 2.4393,20.5653 L9.1563,27.2823 L7.3833,29.0563 L7.3833,29.0563 C6.0043,30.4403 5.7273,32.4903 6.5213,34.1603 C6.7363,34.6123 7.0143,35.0423 7.3883,35.4163 C7.7613,35.7903 8.1913,36.0673 8.6433,36.2813 C9.1803,36.5373 9.7523,36.6813 10.3343,36.7113 C10.3653,37.2933 10.5093,37.8653 10.7643,38.4023 C10.9793,38.8553 11.2563,39.2843 11.6303,39.6583 C12.0043,40.0323 12.4343,40.3093 12.8863,40.5243 C13.4233,40.7793 13.9953,40.9233 14.5773,40.9543 C14.6083,41.5363 14.7513,42.1083 15.0073,42.6453 C15.2223,43.0973 15.4993,43.5273 15.8733,43.9013 C16.2463,44.2753 16.6763,44.5523 17.1283,44.7673 C18.7973,45.5613 20.8483,45.2853 22.2323,43.9053 C22.2333,43.9033 22.2353,43.9023 22.2373,43.9013 C22.2383,43.9003 22.2393,43.8983 22.2413,43.8963 L24.0343,42.1033 C25.3963,43.1903 27.2353,43.3693 28.7613,42.6443 C29.2123,42.4293 29.6423,42.1523 30.0163,41.7783 C30.3903,41.4043 30.6673,40.9743 30.8823,40.5233 C31.1383,39.9853 31.2813,39.4133 31.3113,38.8313 C31.8943,38.8003 32.4663,38.6563 33.0033,38.4013 C33.4553,38.1863 33.8853,37.9093 34.2593,37.5353 L34.2593,37.5353 Z" id="handshake" fill="#0071B3"></path>
    </g>
</svg>