<?xml version="1.0" encoding="UTF-8"?>
<svg width="48px" height="48px" viewBox="0 0 48 48" version="1.1" xmlns="http://www.w3.org/2000/svg" xmlns:xlink="http://www.w3.org/1999/xlink">
    <title>Emo / Happy</title>
    <g id="Emo-/-Happy" stroke="none" stroke-width="1" fill="none" fill-rule="evenodd">
        <path d="M24,7 C33.384,7.00971429 40.9902857,14.616 41,24 C41,33.3888571 33.3888571,41 24,41 C14.6111429,41 7,33.3888571 7,24 C7,14.6111429 14.6111429,7 24,7 Z M24,38 C31.728,37.9903448 37.9903448,31.728 38,24 C38,16.2681379 31.7318621,10 24,10 C16.2681379,10 10,16.2681379 10,24 C10,31.7318621 16.2681379,38 24,38 Z M19.5,24 C18.672,24 18,23.328 18,22.5 L18,19.5 C18,18.672 18.672,18 19.5,18 C20.328,18 21,18.672 21,19.5 L21,22.5 C21,23.328 20.328,24 19.5,24 Z M30.9561965,27.0635845 C31.7299482,27.3005845 32.169447,28.1365845 31.9384909,28.9295845 C30.8987011,32.5005845 27.6896779,34.9945845 24.0012015,35.0005845 C20.3117505,35.0005845 17.0978548,32.5035845 16.0609885,28.9285845 C15.8310069,28.1345845 16.2714802,27.2985845 17.0452319,27.0625845 C17.8189836,26.8265845 18.6336643,27.2785845 18.8636459,28.0725845 C19.5341008,30.3845845 21.6136804,32.0005845 23.9992525,32.0005845 C26.3867735,31.9975845 28.4644041,30.3805845 29.136808,28.0705845 C29.3687386,27.2775845 30.1824448,26.8265845 30.9561965,27.0635845 Z M28.5,18 C29.328,18 30,18.672 30,19.5 L30,22.5 C30,23.328 29.328,24 28.5,24 C27.672,24 27,23.328 27,22.5 L27,19.5 C27,18.672 27.672,18 28.5,18 Z" id="Color" fill="#0071B3"></path>
    </g>
</svg>