<?xml version="1.0" encoding="UTF-8"?>
<svg width="48px" height="48px" viewBox="0 0 48 48" version="1.1" xmlns="http://www.w3.org/2000/svg" xmlns:xlink="http://www.w3.org/1999/xlink">
    <title>Facilities / Healthcare</title>
    <g id="Facilities-/-Healthcare" stroke="none" stroke-width="1" fill="none" fill-rule="evenodd">
        <path d="M18,12 L30,12 L30,9 L18,9 L18,12 Z M7,39 L41,39 L41,15 L7,15 L7,39 Z M31.5,6 C32.328,6 33,6.671 33,7.5 L33,7.5 L33,12 L42.501,12 C43.329,12 44.001,12.671 44.001,13.5 L44.001,13.5 L44.001,40.5 C44.001,41.329 43.329,42 42.501,42 L42.501,42 L5.5,42 C4.672,42 4,41.329 4,40.5 L4,40.5 L4,13.5 C4,12.982 4.262,12.526 4.661,12.256 C4.901,12.094 5.189,12 5.5,12 L5.5,12 L15,12 L15,7.5 C15,6.671 15.672,6 16.5,6 L16.5,6 Z M24.0002,17.9996 C23.1712,17.9996 22.5002,18.6706 22.5002,19.4996 L22.5002,25.4996 L16.5002,25.4996 C15.6712,25.4996 15.0002,26.1706 15.0002,26.9996 C15.0002,27.8286 15.6712,28.4996 16.5002,28.4996 L22.5002,28.4996 L22.5002,34.4996 C22.5002,35.3286 23.1712,35.9996 24.0002,35.9996 C24.8282,35.9996 25.5002,35.3286 25.5002,34.4996 L25.5002,28.4996 L31.5002,28.4996 C32.3282,28.4996 33.0002,27.8286 33.0002,26.9996 C33.0002,26.1706 32.3282,25.4996 31.5002,25.4996 L25.5002,25.4996 L25.5002,19.4996 C25.5002,18.6706 24.8282,17.9996 24.0002,17.9996 Z" id="healthcare" fill="#0071B3"></path>
    </g>
</svg>