<?xml version="1.0" encoding="UTF-8"?>
<svg width="48px" height="48px" viewBox="0 0 48 48" version="1.1" xmlns="http://www.w3.org/2000/svg" xmlns:xlink="http://www.w3.org/1999/xlink">
    <title>Heart</title>
    <g id="Heart" stroke="none" stroke-width="1" fill="none" fill-rule="evenodd">
        <path d="M24,44.25 C23.8113811,44.2482411 23.6247862,44.2109222 23.45,44.14 L22.8,43.89 L22.8,43.89 C19.8925323,42.5798603 17.1963118,40.8441684 14.8,38.74 C11.0934814,35.6813056 7.99907205,31.9490137 5.68,27.74 C4.72291233,25.9144475 3.96842363,23.989663 3.43,22 C2.85314427,19.8848874 2.56057189,17.7023648 2.55999964,15.51 C2.55895476,11.3018409 4.80654335,7.41385014 8.45375315,5.31469205 C12.1009629,3.21553395 16.5918463,3.22518516 20.23,5.34 C21.7226317,6.22346439 23.0082526,7.41701161 24,8.84 C24.9888858,7.41452671 26.2751025,6.22042634 27.77,5.34 C31.4120888,3.2300831 35.9036594,3.2256534 39.5499029,5.32838237 C43.1961463,7.43111134 45.4419872,11.320896 45.4400013,15.53 C45.4363622,17.7155806 45.1438284,19.891091 44.57,22 C44.0298453,23.9809534 43.2718888,25.8959676 42.31,27.71 C39.9929326,31.9203787 36.8982313,35.6530227 33.19,38.71 C30.7964073,40.8177704 28.0996208,42.5538267 25.19,43.86 L24.53,44.12 C24.3617145,44.1922743 24.1826285,44.236201 24,44.25 L24,44.25 Z M23.89,41.09 L24,41.09 L24.11,41.09 C26.7048428,39.8924386 29.1130523,38.3262604 31.26,36.44 C34.6697606,33.6298075 37.5165712,30.1993838 39.65,26.33 C40.4998687,24.7076623 41.1704906,22.9975766 41.65,21.23 C42.1540295,19.3719176 42.4095877,17.4552314 42.4100132,15.53 C42.4154277,12.4001856 40.7487394,9.50581349 38.0390761,7.93945065 C35.3294129,6.37308781 31.9894668,6.37329728 29.28,7.94 C27.9989625,8.6845363 26.9233156,9.73612718 26.15,11 C26.059997,11.15 25.97,11.3 25.89,11.46 L25.38,12.62 C25.1451543,13.1689698 24.6070822,13.5263754 24.01,13.53 L24.01,13.53 C23.4124412,13.529484 22.8713978,13.1766295 22.63,12.63 L22.12,11.47 C22.03,11.31 21.95,11.16 21.85,11 C21.0835857,9.71677065 20.0029493,8.64990033 18.71,7.9 C17.3823302,7.11963247 15.8700256,6.70875519 14.33,6.70999718 C9.48713009,6.72101595 5.56549701,10.6471207 5.55999704,15.49 C5.55899303,17.4153255 5.81457612,19.3321986 6.32,21.19 C6.79644223,22.9585892 7.46719339,24.6690047 8.32,26.29 C10.4563914,30.1602476 13.3066448,33.5907312 16.72,36.4 C18.8679602,38.2849245 21.2759677,39.8509713 23.87,41.05 L23.89,41.09 Z" fill="#0071B3"></path>
    </g>
</svg>