<?xml version="1.0" encoding="UTF-8"?>
<svg width="48px" height="48px" viewBox="0 0 48 48" version="1.1" xmlns="http://www.w3.org/2000/svg" xmlns:xlink="http://www.w3.org/1999/xlink">
    <title>Heart Semi Filled</title>
    <g id="Heart-Semi-Filled" stroke="none" stroke-width="1" fill="none" fill-rule="evenodd">
        <g id="Heart-semifilled-40" transform="translate(2.000000, 3.000000)">
            <path d="M22,41.26 C21.8113811,41.2582411 21.6247862,41.2209222 21.45,41.15 L20.8,40.9 C17.8925323,39.5898603 15.1963118,37.8541684 12.8,35.75 C9.09586436,32.688918 6.00185984,28.9571143 3.68,24.75 C2.72223586,22.9212663 1.9677335,20.9930936 1.43,19 C0.853144268,16.8848874 0.560571894,14.7023648 0.56,12.51 C0.562531689,8.30362766 2.8115322,4.41891429 6.45808585,2.32219753 C10.1046395,0.225480777 14.5933909,0.236082142 18.23,2.35 C19.7226317,3.23346439 21.0082526,4.42701161 22,5.85 C22.9917474,4.42701161 24.2773683,3.23346439 25.77,2.35 C29.4120888,0.2400831 33.9036594,0.235653402 37.5499029,2.33838237 C41.1961463,4.44111134 43.4419872,8.330896 43.4400013,12.54 C43.4340403,14.7214726 43.1449588,16.8929452 42.58,19 C42.0319211,20.9797793 41.270807,22.8942999 40.31,24.71 C37.9909279,28.9190137 34.8965186,32.6513056 31.19,35.71 C28.7964073,37.8177704 26.0996208,39.5538267 23.19,40.86 L22.54,41.11 C22.3710222,41.1934814 22.1878252,41.2443694 22,41.26 L22,41.26 Z" id="Path" fill="#000000" fill-rule="nonzero" opacity="0.2"></path>
            <path d="M22,41.26 C21.8113811,41.2582411 21.6247862,41.2209222 21.45,41.15 L20.8,40.9 C17.8925323,39.5898603 15.1963118,37.8541684 12.8,35.75 C9.09586436,32.688918 6.00185984,28.9571143 3.68,24.75 C2.72223586,22.9212663 1.9677335,20.9930936 1.43,19 C0.853144268,16.8848874 0.560571894,14.7023648 0.56,12.51 C0.562531689,8.30362766 2.8115322,4.41891429 6.45808585,2.32219753 C10.1046395,0.225480777 14.5933909,0.236082142 18.23,2.35 C19.7226317,3.23346439 21.0082526,4.42701161 22,5.85 C22.9917474,4.42701161 24.2773683,3.23346439 25.77,2.35 C29.4120888,0.2400831 33.9036594,0.235653402 37.5499029,2.33838237 C41.1961463,4.44111134 43.4419872,8.330896 43.4400013,12.54 C43.4340403,14.7214726 43.1449588,16.8929452 42.58,19 C42.0319211,20.9797793 41.270807,22.8942999 40.31,24.71 C37.9909279,28.9190137 34.8965186,32.6513056 31.19,35.71 C28.7964073,37.8177704 26.0996208,39.5538267 23.19,40.86 L22.54,41.11 C22.3710222,41.1934814 22.1878252,41.2443694 22,41.26 L22,41.26 Z M12.33,3.76 C7.48713009,3.77101595 3.56549701,7.69712068 3.55999963,12.54 C3.55999963,14.4685716 3.81520981,16.388663 4.32,18.25 C4.80094379,20.013898 5.47152089,21.7205167 6.32,23.34 C8.45639144,27.2102476 11.3066448,30.6407312 14.72,33.45 C16.8669477,35.3362604 19.2751572,36.9024386 21.87,38.1 L21.87,38.1 L21.98,38.1 L22.09,38.1 C24.6848428,36.9024386 27.0930523,35.3362604 29.24,33.45 C32.6526824,30.6427406 35.4999926,27.2117148 37.63,23.34 C38.4798687,21.7176623 39.1504906,20.0075766 39.63,18.24 C40.1340295,16.3819176 40.3895877,14.4652314 40.39,12.54 C40.3715033,9.42838779 38.7018959,6.56069577 36.0050394,5.00845931 C33.308183,3.45622286 29.9898647,3.45300191 27.29,5 C25.9991851,5.75269137 24.9191777,6.81894067 24.15,8.1 C24.0599996,8.25 23.97,8.4 23.89,8.56 L23.38,9.72 C23.1451543,10.2689698 22.6070822,10.6263754 22.01,10.63 L22.01,10.63 C21.4124412,10.629484 20.8713978,10.2766295 20.63,9.73 L20.12,8.57 L19.85,8.1 C19.0808223,6.81894067 18.0008149,5.75269137 16.71,5 C15.3872891,4.20211667 13.8746647,3.7738851 12.33,3.76 Z" id="Border" fill="#0071B3"></path>
        </g>
    </g>
</svg>