<?xml version="1.0" encoding="UTF-8"?>
<svg width="48px" height="48px" viewBox="0 0 48 48" version="1.1" xmlns="http://www.w3.org/2000/svg" xmlns:xlink="http://www.w3.org/1999/xlink">
    <title>Hide</title>
    <g id="Hide" stroke="none" stroke-width="1" fill="none" fill-rule="evenodd">
        <path d="M37.4393398,6.43933983 C38.0251263,5.85355339 38.9748737,5.85355339 39.5606602,6.43933983 C40.109835,6.98851461 40.1441584,7.85757702 39.6636304,8.44673776 L39.5606602,8.56066017 L7.56066017,40.5606602 C6.97487373,41.1464466 6.02512627,41.1464466 5.43933983,40.5606602 C4.89016504,40.0114854 4.85584162,39.142423 5.33636956,38.5532622 L5.43933983,38.4393398 L37.4393398,6.43933983 Z M30.6198984,19.50218 C31.4929082,20.7838958 32.00325,22.3323938 32.00325,24 C32.00325,28.418 28.42125,32 24.00325,32 C22.3356438,32 20.7871458,31.4896582 19.50543,30.6166484 L21.6896195,28.433713 C22.3813968,28.7954315 23.1683855,29 24.00325,29 C26.76425,29 29.00325,26.761 29.00325,24 C29.00325,23.1652415 28.7985853,22.3781985 28.4367078,21.6863229 L30.6198984,19.50218 Z M24.00325,16 C25.6699901,16 27.2177457,16.5098119 28.4990727,17.3819916 L26.3144424,19.5652435 C25.6231674,19.2041751 24.8370094,19 24.00325,19 C21.24125,19 19.00325,21.239 19.00325,24 C19.00325,24.8337594 19.2073339,25.6199174 19.5683026,26.3111924 L17.3852416,28.4958227 C16.5130619,27.2144957 16.00325,25.6667401 16.00325,24 C16.00325,19.582 19.58525,16 24.00325,16 Z M36.4910317,13.6308299 C39.5469025,15.4176006 42.0129062,17.5435489 43.7181615,19.2273666 L44.0892204,19.5987254 L44.5432131,20.067195 L44.9496892,20.5008709 L45.4680616,21.0758671 L45.75125,21.402 C47.03825,22.908 47.03825,25.092 45.75125,26.598 L45.4680616,26.9241329 L44.9496892,27.4991291 L44.5432131,27.932805 L44.0892204,28.4012746 L43.7181615,28.7726334 L43.3140698,29.16596 L42.8837924,29.5726804 L42.1902781,30.2033012 L42.1902781,30.2033012 L41.6965366,30.6343599 C41.5278331,30.7791751 41.3550321,30.9250031 41.1782096,31.0714955 L40.6357544,31.5126175 C36.6627914,34.6832815 30.8661733,38 24.00325,38 C20.4505579,38 17.1835088,37.1111971 14.3072613,35.813954 L16.5921769,33.5303813 C18.8526504,34.4217373 21.3439202,35 24.00325,35 C30.3917731,35 35.8104093,31.6628043 39.3893918,28.6646883 L39.8880665,28.2390897 L39.8880665,28.2390897 L40.3611483,27.8204862 L40.3611483,27.8204862 L40.8080739,27.4112595 L40.8080739,27.4112595 L41.2282796,27.0137915 L41.2282796,27.0137915 L41.621202,26.630464 L41.621202,26.630464 L41.9862776,26.2636587 C42.0447717,26.2040336 42.102082,26.1451963 42.1581967,26.0871962 L42.6306343,25.5891419 L42.6306343,25.5891419 L43.0366129,25.1443396 L43.0366129,25.1443396 L43.47125,24.648 L43.47125,24.648 C43.79225,24.272 43.79225,23.728 43.47125,23.352 L43.1091493,22.9369419 L43.1091493,22.9369419 L42.658533,22.4409037 L42.658533,22.4409037 L42.3103192,22.0710234 C42.2491539,22.0070058 42.1864352,21.9418511 42.1221803,21.8756319 L41.7183528,21.4661215 L41.7183528,21.4661215 L41.2784788,21.0345417 C41.0496674,20.8138144 40.8076473,20.5861163 40.5528818,20.3534051 L40.026494,19.8818783 C38.48769,18.5302345 36.5495299,17.0595224 34.296295,15.8259772 L36.4910317,13.6308299 Z M24.00325,10 C27.5543002,10 30.8198696,10.8879815 33.6950428,12.1842476 L31.4108408,14.4682458 C29.1512911,13.577669 26.6612143,13 24.00325,13 C17.7668346,13 12.4546708,16.1801735 8.87586671,19.1206335 L8.36460697,19.5488365 C8.28149062,19.6197862 8.19942889,19.690494 8.11843353,19.7609103 L7.64535168,20.1795138 L7.64535168,20.1795138 L7.19842614,20.5887405 L7.19842614,20.5887405 L6.77822041,20.9862085 L6.77822041,20.9862085 L6.385298,21.369536 L6.385298,21.369536 L6.0202224,21.7363413 L6.0202224,21.7363413 L5.68355712,22.0842426 L5.68355712,22.0842426 L5.37586567,22.4108581 L5.37586567,22.4108581 L4.96988707,22.8556604 L4.96988707,22.8556604 L4.53525,23.352 L4.53525,23.352 C4.21425,23.728 4.21425,24.272 4.53525,24.648 L4.76661864,24.9150597 L4.76661864,24.9150597 L5.18791445,25.3852767 L5.18791445,25.3852767 L5.51707356,25.740101 L5.51707356,25.740101 L5.88390888,26.1239447 L5.88390888,26.1239447 L6.28759757,26.53333 L6.28759757,26.53333 L6.72731678,26.9647788 C6.80356014,27.0383323 6.88127049,27.1126603 6.96043069,27.1876901 L7.45265285,27.6457131 L7.45265285,27.6457131 L7.97884842,28.1171048 C9.51708775,29.4683689 11.4545152,30.938734 13.7069092,32.1722181 L11.5117894,34.3672024 C8.45735825,32.5808388 5.99246362,30.455833 4.28795729,28.7726334 L3.91692946,28.4012746 L3.46298944,27.932805 L3.05657954,27.4991291 L2.69872848,27.1049461 L2.25525,26.598 C0.96825,25.092 0.96825,22.908 2.25525,21.402 L2.53833399,21.0758671 L2.87151987,20.7031927 L3.25377893,20.2886758 L3.46298944,20.067195 L3.46298944,20.067195 L3.91692946,19.5987254 L4.28795729,19.2273666 L4.90390828,18.6322234 L5.34709196,18.2195901 L5.81578146,17.7966988 L6.30951912,17.3656401 C6.47822219,17.2208249 6.65102367,17.0749969 6.8278473,16.9285045 L7.37030834,16.4873825 C11.3433286,13.3167185 17.1403267,10 24.00325,10 Z" id="Color" fill="#0071B3" fill-rule="nonzero"></path>
    </g>
</svg>