<?xml version="1.0" encoding="UTF-8"?>
<svg width="48px" height="48px" viewBox="0 0 48 48" version="1.1" xmlns="http://www.w3.org/2000/svg" xmlns:xlink="http://www.w3.org/1999/xlink">
    <title>Performance / Hourglass</title>
    <g id="Performance-/-Hourglass" stroke="none" stroke-width="1" fill="none" fill-rule="evenodd">
        <path d="M24,4 C35.045695,4 44,12.954305 44,24 C44,35.045695 35.045695,44 24,44 C12.954305,44 4,35.045695 4,24 C4,12.954305 12.954305,4 24,4 Z M31.9545455,11.5 L16.0454545,11.5 C15.6061515,11.5 15.25,11.8279297 15.25,12.2324219 L15.25,13.6972656 C15.25,14.6520996 15.915053,15.4662109 16.8409091,15.7685547 L16.8409091,16.6269531 C16.8409091,19.0327148 18.2694394,21.2679199 20.6442424,22.4273926 C20.7918788,22.5233398 20.9737727,22.654541 21.166803,22.8011719 C21.4474924,23.1034668 21.6136364,23.5143555 21.6136364,23.9511719 C21.6136364,24.5943848 21.2541439,25.1820312 20.697803,25.4482422 C18.3548182,26.5692871 16.8409091,28.8949219 16.8409091,31.3730469 L16.8409091,32.2314453 C15.915053,32.5337891 15.25,33.3479004 15.25,34.3027344 L15.25,35.7675781 C15.25,36.1720703 15.6061515,36.5 16.0454545,36.5 L31.9545455,36.5 C32.3938485,36.5 32.75,36.1720703 32.75,35.7675781 L32.75,34.3027344 C32.75,33.3479004 32.084947,32.5337891 31.1590909,32.2314453 L31.1590909,31.3730469 C31.1590909,28.8949219 29.6451818,26.5692871 27.302197,25.4482422 C26.7458561,25.1820313 26.3863636,24.5944336 26.3863636,23.9511719 C26.3863636,23.5143555 26.5525076,23.1034668 26.8331439,22.8012207 C27.0262273,22.654541 27.2081212,22.5233398 27.3557045,22.4274414 C29.7099848,21.2779785 31.1590909,19.0543945 31.1590909,16.6269531 L31.1590909,15.7685547 C32.084947,15.4662109 32.75,14.6520996 32.75,13.6972656 L32.75,12.2324219 C32.75,11.8279297 32.3938485,11.5 31.9545455,11.5 Z M30.3636364,33.5703125 C30.80225,33.5703125 31.1590909,33.898877 31.1590909,34.3027344 L31.1590909,35.0351562 L16.8409091,35.0351562 L16.8409091,34.3027344 C16.8409091,33.898877 17.19775,33.5703125 17.6363636,33.5703125 L30.3636364,33.5703125 Z M24.8430227,24.4959473 C25.0148409,25.4702637 25.6434091,26.3053711 26.5686288,26.7480957 C28.39075,27.6199219 29.5681818,29.4353516 29.5681818,31.3730469 L29.5681818,32.1054688 L18.4318182,32.1054688 L18.4318182,31.3730469 C18.4318182,29.4353516 19.60925,27.6199219 21.4314242,26.7480469 C22.3565909,26.3053711 22.9852121,25.4702148 23.1570303,24.4958496 C23.3595212,24.600459 23.5847855,24.6673496 23.820985,24.6899465 L24.0001061,24.6984863 L24.0001061,24.6984863 C24.3012121,24.6984863 24.5899091,24.626709 24.8430227,24.4959473 Z M29.0272727,18.8193359 C28.5165379,19.8006836 27.6658258,20.6293457 26.5686288,21.1542969 L26.5561136,21.1605469 C26.5539924,21.1615723 26.5519242,21.1625977 26.549803,21.1636719 C26.2273788,21.3205078 25.9415455,21.5252441 25.6989318,21.7669434 C25.062197,22.2565918 24.316803,22.8854492 24.1110455,23.1780273 C24.0851667,23.2148926 24.0478333,23.2335937 24.0001061,23.2335937 C23.9524318,23.2335937 23.9150985,23.2148926 23.8891667,23.1780273 C23.6836742,22.8856934 22.9380152,22.2566895 22.3010682,21.7669434 C22.0584545,21.5252441 21.7726742,21.3205566 21.450303,21.1637207 L21.4471212,21.1621338 L21.4313712,21.154248 L21.4313712,21.154248 C20.3341742,20.6293457 19.4834621,19.8006836 18.9727273,18.8193359 L29.0272727,18.8193359 Z M29.5681818,15.8945312 L29.5681818,16.6269531 C29.5681818,16.8745117 29.5484015,17.1190918 29.5106439,17.359375 L18.4893561,17.359375 C18.4515985,17.1190918 18.4318182,16.8745117 18.4318182,16.6269531 L18.4318182,15.8945312 L29.5681818,15.8945312 Z M31.1590909,12.9648438 L31.1590909,13.6972656 C31.1590909,14.101123 30.80225,14.4296875 30.3636364,14.4296875 L17.6363636,14.4296875 C17.19775,14.4296875 16.8409091,14.101123 16.8409091,13.6972656 L16.8409091,12.9648438 L31.1590909,12.9648438 Z" id="performance-hourglass" fill="#0071B3"></path>
    </g>
</svg>