<?xml version="1.0" encoding="UTF-8"?>
<svg width="48px" height="48px" viewBox="0 0 48 48" version="1.1" xmlns="http://www.w3.org/2000/svg" xmlns:xlink="http://www.w3.org/1999/xlink">
    <title>Houses</title>
    <g id="Houses" stroke="none" stroke-width="1" fill="none" fill-rule="evenodd">
        <path d="M15.454,22.2021 C15.471,22.2951 15.482,22.3891 15.482,22.4871 L15.482,22.4871 L15.482,36.9961 L32.519,36.9961 L32.519,22.4871 C32.519,22.4001 32.531,22.3151 32.545,22.2311 L32.545,22.2311 L35.519,25.5341 L35.519,38.4961 C35.519,39.3251 34.848,39.9961 34.019,39.9961 C34.014,39.9961 34.008,39.9951 34.003,39.9951 L33.9945,39.9956 L33.986,39.9961 L13.982,39.9961 L13.8376068,39.989239 C13.0772664,39.9166121 12.482,39.2763353 12.482,38.4961 L12.482,38.4961 L12.482,25.5031 Z M40.7973,25.3966 L43.7973,28.7276 L43.7973,36.4866 C43.7973,37.3156 43.1263,37.9866 42.2973,37.9866 L42.2973,37.9866 L37.0003,37.9866 L37.0003,34.9866 L40.7973,34.9866 L40.7973,25.3966 Z M7.2026,25.3958 L7.2026,34.9868 L10.9996,34.9868 L10.9996,37.9868 L5.7026,37.9868 C4.8736,37.9868 4.2026,37.3148 4.2026,36.4868 L4.2026,36.4868 L4.2026,28.7278 L7.2026,25.3958 Z M34.7977,13.9993 C34.8877,13.9993 34.9767,14.0203 35.0667,14.0373 C35.1667,14.0563 35.2677,14.0723 35.3637,14.1113 C35.4407,14.1433 35.5087,14.1953 35.5807,14.2403 C35.6787,14.3013 35.7767,14.3613 35.8607,14.4473 L35.8607,14.4473 L35.9087,14.4833 L42.7287,22.0573 L43.7697,23.2143 L46.6147,26.3733 C47.1687,26.9893 47.1187,27.9373 46.5037,28.4923 C45.8877,29.0463 44.9397,28.9963 44.3857,28.3803 L44.3857,28.3803 L43.7977,27.7273 L40.7977,24.3963 L36.2857,19.3853 L32.8437,15.4183 L33.6857,14.4833 C33.6997,14.4673 33.7197,14.4623 33.7347,14.4473 C33.8187,14.3613 33.9157,14.3013 34.0137,14.2403 C34.0857,14.1953 34.1547,14.1433 34.2317,14.1113 C34.3267,14.0723 34.4277,14.0563 34.5287,14.0373 C34.6177,14.0203 34.7067,13.9993 34.7977,13.9993 Z M13.2026,13.9998 C13.2936,13.9998 13.3816,14.0208 13.4716,14.0378 C13.5726,14.0558 13.6736,14.0718 13.7686,14.1118 C13.8456,14.1428 13.9136,14.1948 13.9866,14.2398 C14.0836,14.3018 14.1816,14.3618 14.2656,14.4478 C14.2806,14.4618 14.2996,14.4678 14.3136,14.4828 L14.3136,14.4828 L15.1516,15.4138 L11.6626,19.4428 L7.2026,24.3958 L4.2026,27.7278 L3.6146,28.3808 C3.0606,28.9968 2.1116,29.0458 1.4956,28.4918 C0.8806,27.9378 0.8306,26.9888 1.3856,26.3738 L1.3856,26.3738 L4.2296,23.2138 L5.2716,22.0568 L12.0916,14.4828 C12.1056,14.4678 12.1246,14.4618 12.1396,14.4478 C12.2236,14.3618 12.3216,14.3018 12.4186,14.2398 C12.4916,14.1948 12.5596,14.1428 12.6366,14.1118 C12.7316,14.0718 12.8326,14.0558 12.9336,14.0378 C13.0236,14.0208 13.1116,13.9998 13.2026,13.9998 Z M23.9868,7.9998 C24.0838,7.9998 24.1798,8.0218 24.2758,8.0408 C24.3648,8.0588 24.4538,8.0728 24.5388,8.1058 C24.6378,8.1458 24.7288,8.2098 24.8198,8.2728 C24.8918,8.3218 24.9658,8.3658 25.0298,8.4288 C25.0518,8.4508 25.0818,8.4588 25.1028,8.4828 L25.1028,8.4828 L32.0958,16.2498 L34.1138,18.4908 L36.9998,21.6958 L38.5368,23.4028 C39.0918,24.0188 39.0418,24.9668 38.4258,25.5208 C38.0238,25.8838 37.4838,25.9618 36.9998,25.8188 C36.7438,25.7428 36.4988,25.6228 36.3078,25.4098 L36.3078,25.4098 L35.5188,24.5348 L32.5448,21.2308 L32.0958,20.7328 L30.0778,18.4908 L23.9868,11.7258 L17.9088,18.4758 L15.8908,20.7178 L15.4538,21.2028 L12.4818,24.5028 L11.6938,25.3788 C11.5008,25.5918 11.2568,25.7118 10.9998,25.7878 C10.5158,25.9308 9.9768,25.8528 9.5748,25.4898 C8.9588,24.9358 8.9088,23.9868 9.4638,23.3718 L9.4638,23.3718 L10.9998,21.6658 L13.8718,18.4758 L15.8908,16.2338 L22.8698,8.4828 C22.8908,8.4588 22.9208,8.4508 22.9428,8.4288 C23.0068,8.3658 23.0808,8.3218 23.1528,8.2728 C23.2438,8.2098 23.3348,8.1458 23.4338,8.1058 C23.5188,8.0728 23.6078,8.0588 23.6968,8.0408 C23.7938,8.0218 23.8888,7.9998 23.9868,7.9998 Z" id="houses" fill="#0071B3"></path>
    </g>
</svg>