<?xml version="1.0" encoding="UTF-8"?>
<svg width="48px" height="48px" viewBox="0 0 48 48" version="1.1" xmlns="http://www.w3.org/2000/svg" xmlns:xlink="http://www.w3.org/1999/xlink">
    <title>House New</title>
    <g id="House-New" stroke="none" stroke-width="1" fill="none" fill-rule="evenodd">
        <path d="M24,41.5 C24,40.6657972 24.6742777,40 25.5060414,40 L34.9971,40 L34.9971,23 L37.9971,26.3318 L37.9971,41.5 C37.9971,42.3274 37.3272,42.998 36.4971,43 L25.5074423,43 C24.6718984,43 24,42.3284271 24,41.5 Z M22.9393398,28.9393398 C23.5251263,28.3535534 24.4748737,28.3535534 25.0606602,28.9393398 C25.6464466,29.5251263 25.6464466,30.4748737 25.0606602,31.0606602 L25.0606602,31.0606602 L15.0606602,41.0606602 C14.4748737,41.6464466 13.5251263,41.6464466 12.9393398,41.0606602 L12.9393398,41.0606602 L7.93933983,36.0606602 C7.35355339,35.4748737 7.35355339,34.5251263 7.93933983,33.9393398 C8.52512627,33.3535534 9.47487373,33.3535534 10.0606602,33.9393398 L10.0606602,33.9393398 L14,37.8786797 Z M23.7342804,5 C23.8167804,5.00122034 23.8973804,5.01972034 23.9788804,5.03452034 C24.0790804,5.05202034 24.1787804,5.07042034 24.2742804,5.10822034 C24.3735804,5.14882034 24.4642804,5.21122034 24.5550804,5.27422034 C24.6238804,5.32112034 24.6941804,5.36372034 24.7556804,5.42312034 C24.7811804,5.44772034 24.8147804,5.45802034 24.8387804,5.48472034 L42.0506804,24.6006203 C42.6049804,25.2162203 42.5551804,26.1647203 41.9395804,26.7190203 C41.3238804,27.2733203 40.3754804,27.2237203 39.8211804,26.6080203 L37.7152804,24.2691203 L34.7152804,20.9373203 L23.7159804,8.72122034 L12.7151804,20.9389203 L9.71518041,24.2707203 L7.61468041,26.6035203 C7.06038041,27.2191203 6.11188041,27.2688203 5.49628041,26.7145203 C4.88068041,26.1602203 4.83098041,25.2118203 5.38528041,24.5961203 L22.5972804,5.48012034 C22.6257804,5.44852034 22.6650804,5.43582034 22.6955804,5.40722034 C22.7342804,5.37092034 22.7787804,5.34612034 22.8201804,5.31472034 C22.9362804,5.22562034 23.0576804,5.14732034 23.1886804,5.09692034 C23.2486804,5.07452034 23.3109804,5.06552034 23.3729804,5.05092034 C23.4923804,5.02212034 23.6124804,4.99922034 23.7342804,5 Z" id="new-house" fill="#0071B3"></path>
    </g>
</svg>