<?xml version="1.0" encoding="UTF-8"?>
<svg width="48px" height="48px" viewBox="0 0 48 48" version="1.1" xmlns="http://www.w3.org/2000/svg" xmlns:xlink="http://www.w3.org/1999/xlink">
    <title>House Open Add</title>
    <g id="House-Open-Add" stroke="none" stroke-width="1" fill="none" fill-rule="evenodd">
        <path d="M28.599995,26.67 L31.5999951,30 L31.5999951,42.5 C31.5999951,42.9030775 31.4379289,43.2892262 31.1501022,43.5714093 C30.8622754,43.8535924 30.472992,44.0080616 30.069995,44 L30.069995,44 L24.599995,44 L16.109995,35.51 L18.229995,33.39 L25.839995,41 L28.599995,41 L28.599995,26.67 Z M10.599995,26.77 L10.599995,41 L14.599995,41 L14.599995,44 L9.06999503,44 C8.25330698,43.983663 7.59983165,43.3168514 7.599995,42.5 L7.599995,42.5 L7.599995,30.1 L10.599995,26.77 Z M19.379995,12.09 C19.5534462,12.0423312 19.7365439,12.0423312 19.909995,12.09 C20.0122104,12.102539 20.1127857,12.1260065 20.209995,12.16 C20.2835179,12.1973657 20.3537657,12.2408525 20.419995,12.29 C20.500535,12.3260916 20.5775349,12.3696133 20.649995,12.42 C20.709995,12.45 20.709995,12.5 20.709995,12.5 L20.709995,12.5 L29.519995,22.24 L31.599995,24.56 L34.829995,28.06 C35.0968102,28.3555893 35.2351435,28.7451398 35.2145099,29.142805 C35.1938764,29.5404702 35.0159694,29.9136121 34.719995,30.18 L34.719995,30.18 L34.6049123,30.2739736 C34.3268913,30.4789146 33.9851471,30.5825693 33.63719,30.5645149 C33.2395248,30.5438813 32.866383,30.3659744 32.599995,30.07 L32.599995,30.07 L31.599995,29 L28.569995,25.77 L19.569995,15.77 L10.569995,25.77 L7.56999503,29.1 L6.66999503,30.1 C6.32231593,30.5333218 5.76360943,30.7389896 5.21795978,30.6345148 C4.67231013,30.5300401 4.22909223,30.1325352 4.06607053,29.6014303 C3.90304884,29.0703254 4.04692554,28.4926129 4.43999503,28.1 L4.43999503,28.1 L7.59999503,24.62 L9.77999503,22.27 L18.579995,12.5 L18.6146825,12.4748438 C18.639995,12.448125 18.639995,12.42 18.639995,12.42 C18.7124552,12.3696133 18.789455,12.3260916 18.869995,12.29 C18.9362243,12.2408525 19.0064722,12.1973657 19.079995,12.16 C19.1772043,12.1260065 19.2777797,12.102539 19.379995,12.09 Z M35.5999951,4 C36.4284222,4 37.0999951,4.67157288 37.0999951,5.5 L37.0999951,5.5 L37.0999951,10.5 L42.0999951,10.5 C42.9284221,10.5 43.5999951,11.1715729 43.5999951,12 C43.5999951,12.8284271 42.9284221,13.5 42.0999951,13.5 L42.0999951,13.5 L37.0999951,13.5 L37.0999951,18.5 C37.0999951,19.3284271 36.4284222,20 35.5999951,20 C34.7715679,20 34.0999951,19.3284271 34.0999951,18.5 L34.0999951,18.5 L34.0999951,13.5 L29.0999951,13.5 C28.2715679,13.5 27.5999951,12.8284271 27.5999951,12 C27.5999951,11.1715729 28.2715679,10.5 29.0999951,10.5 L29.0999951,10.5 L34.0999951,10.5 L34.0999951,5.5 C34.0999951,4.67157288 34.7715679,4 35.5999951,4 Z" id="open-house" fill="#0071B3"></path>
    </g>
</svg>