<?xml version="1.0" encoding="UTF-8"?>
<svg width="48px" height="48px" viewBox="0 0 48 48" version="1.1" xmlns="http://www.w3.org/2000/svg" xmlns:xlink="http://www.w3.org/1999/xlink">
    <title>House Image</title>
    <g id="House-Image" stroke="none" stroke-width="1" fill="none" fill-rule="evenodd">
        <path d="M3.5002,37 C4.3282,37 5.0002,37.672 5.0002,38.5 L5.0002,38.5 L5.0002,42 L8.5002,42 C9.3282,42 10.0002,42.671 10.0002,43.5 C10.0002,44.329 9.3282,45 8.5002,45 L8.5002,45 L3.5002,45 C2.6712,45 2.0002,44.329 2.0002,43.5 L2.0002,43.5 L2.0002,38.5 C2.0002,37.672 2.6712,37 3.5002,37 Z M44.5002,37 C45.3282,37 46.0002,37.672 46.0002,38.5 L46.0002,38.5 L46.0002,43.5 C46.0002,44.329 45.3282,45 44.5002,45 L44.5002,45 L39.5002,45 C38.6712,45 38.0002,44.329 38.0002,43.5 C38.0002,42.671 38.6712,42 39.5002,42 L39.5002,42 L43.0002,42 L43.0002,38.5 C43.0002,37.672 43.6712,37 44.5002,37 Z M32.9724,21.7105 L35.9724,25.0425 L35.9724,37.5005 C35.9724,38.3295 35.3014,39.0005 34.4724,39.0005 L34.4724,39.0005 L13.4724,39.0005 C12.6434,39.0005 11.9724,38.3295 11.9724,37.5005 L11.9724,37.5005 L11.9724,25.1045 L14.9724,21.7725 L14.9724,36.0005 L32.9724,36.0005 L32.9724,21.7105 Z M24.0009,7.0127 C24.0919,7.0127 24.1779,7.0337 24.2679,7.0507 C24.3709,7.0687 24.4699,7.0847 24.5679,7.1247 C24.6439,7.1567 24.7089,7.2057 24.7809,7.2507 C24.8559,7.2977 24.9399,7.3237 25.0089,7.3857 C25.0329,7.4077 25.0419,7.4387 25.0649,7.4617 C25.0789,7.4767 25.0979,7.4817 25.1119,7.4957 L25.1119,7.4957 L33.8879,17.2437 L35.9719,19.5587 L39.1629,23.1027 C39.7179,23.7177 39.6679,24.6667 39.0519,25.2207 C38.4369,25.7757 37.4879,25.7257 36.9339,25.1097 L36.9339,25.1097 L35.9719,24.0417 L32.9719,20.7107 L24.0009,10.7457 L14.9719,20.7727 L11.9719,24.1047 L11.0679,25.1097 C10.5129,25.7257 9.5649,25.7747 8.9489,25.2207 C8.3339,24.6667 8.2839,23.7177 8.8379,23.1027 L8.8379,23.1027 L11.9719,19.6217 L14.0949,17.2637 L22.8899,7.4957 L22.8899,7.4957 L22.9359,7.4617 C22.9589,7.4387 22.9689,7.4077 22.9929,7.3857 C23.0609,7.3237 23.1449,7.2977 23.2209,7.2507 C23.2919,7.2057 23.3569,7.1567 23.4329,7.1247 C23.5309,7.0847 23.6309,7.0687 23.7329,7.0507 C23.8229,7.0337 23.9089,7.0127 24.0009,7.0127 Z M8.5002,3 C9.3282,3 10.0002,3.671 10.0002,4.5 C10.0002,5.329 9.3282,6 8.5002,6 L8.5002,6 L5.0002,6 L5.0002,9.5 C5.0002,10.329 4.3282,11 3.5002,11 C2.6712,11 2.0002,10.329 2.0002,9.5 L2.0002,9.5 L2.0002,4.5 C2.0002,3.982 2.2622,3.526 2.6612,3.256 C2.9002,3.094 3.1892,3 3.5002,3 L3.5002,3 Z M44.5002,3 C45.3282,3 46.0002,3.671 46.0002,4.5 L46.0002,4.5 L46.0002,9.5 C46.0002,10.329 45.3282,11 44.5002,11 C43.6712,11 43.0002,10.329 43.0002,9.5 L43.0002,9.5 L43.0002,6 L39.5002,6 C38.6712,6 38.0002,5.329 38.0002,4.5 C38.0002,3.671 38.6712,3 39.5002,3 L39.5002,3 Z" id="house-image" fill="#0071B3"></path>
    </g>
</svg>