<?xml version="1.0" encoding="UTF-8"?>
<svg width="48px" height="48px" viewBox="0 0 48 48" version="1.1" xmlns="http://www.w3.org/2000/svg" xmlns:xlink="http://www.w3.org/1999/xlink">
    <title>House Add</title>
    <g id="House-Add" stroke="none" stroke-width="1" fill="none" fill-rule="evenodd">
        <path d="M23.7181804,43.0965203 L23.7181804,40.0965203 L34.7152804,40.0965203 L34.7152804,22.9373203 L37.7152804,26.2691203 L37.7152804,41.5965203 C37.7152804,42.4239203 37.0453804,43.0945203 36.2183804,43.0962203 C36.2172804,43.0962203 36.2162804,43.0965203 36.2152804,43.0965203 L23.7181804,43.0965203 Z M42.0506804,24.6006203 C42.6049804,25.2162203 42.5551804,26.1647203 41.9395804,26.7190203 C41.3238804,27.2733203 40.3754804,27.2237203 39.8211804,26.6080203 L37.7152804,24.2691203 L34.7152804,20.9373203 L23.7159804,8.72122034 L12.7151804,20.9389203 L9.71518041,24.2707203 L7.61468041,26.6035203 C7.06038041,27.2191203 6.11188041,27.2688203 5.49628041,26.7145203 C4.88068041,26.1602203 4.83098041,25.2118203 5.38528041,24.5961203 L22.5972804,5.48012034 C22.6257804,5.44852034 22.6650804,5.43582034 22.6955804,5.40722034 C22.7342804,5.37092034 22.7787804,5.34612034 22.8201804,5.31472034 C22.9362804,5.22562034 23.0576804,5.14732034 23.1886804,5.09692034 C23.2486804,5.07452034 23.3109804,5.06552034 23.3729804,5.05092034 C23.4923804,5.02212034 23.6124804,4.99922034 23.7342804,5 C23.8167804,5.00122034 23.8973804,5.01972034 23.9788804,5.03452034 C24.0790804,5.05202034 24.1787804,5.07042034 24.2742804,5.10822034 C24.3735804,5.14882034 24.4642804,5.21122034 24.5550804,5.27422034 C24.6238804,5.32112034 24.6941804,5.36372034 24.7556804,5.42312034 C24.7811804,5.44772034 24.8147804,5.45802034 24.8387804,5.48472034 L42.0506804,24.6006203 Z M20.2181804,33.5965203 C21.0465804,33.5965203 21.7181804,34.2681203 21.7181804,35.0965203 C21.7181804,35.9249203 21.0465804,36.5965203 20.2181804,36.5965203 L16.2181804,36.5965203 L16.2181804,40.5965203 C16.2181804,41.4249203 15.5465804,42.0965203 14.7181804,42.0965203 C13.8897804,42.0965203 13.2181804,41.4249203 13.2181804,40.5965203 L13.2181804,36.5965203 L9.21818041,36.5965203 C8.38978041,36.5965203 7.71818041,35.9249203 7.71818041,35.0965203 C7.71818041,34.2681203 8.38978041,33.5965203 9.21818041,33.5965203 L13.2181804,33.5965203 L13.2181804,29.5965203 C13.2181804,28.7681203 13.8897804,28.0965203 14.7181804,28.0965203 C15.5465804,28.0965203 16.2181804,28.7681203 16.2181804,29.5965203 L16.2181804,33.5965203 L20.2181804,33.5965203 Z" id="add-house" fill="#0071B3"></path>
    </g>
</svg>