<?xml version="1.0" encoding="UTF-8"?>
<svg width="48px" height="48px" viewBox="0 0 48 48" version="1.1" xmlns="http://www.w3.org/2000/svg" xmlns:xlink="http://www.w3.org/1999/xlink">
    <title>Info</title>
    <g id="Info" stroke="none" stroke-width="1" fill="none" fill-rule="evenodd">
        <path d="M24,4 C29.3043298,4 34.3914081,6.10713681 38.1421356,9.85786438 C41.8928632,13.6085919 44,18.6956702 44,24 C44,35.045695 35.045695,44 24,44 C12.954305,44 4,35.045695 4,24 C4,12.954305 12.954305,4 24,4 Z M24,7 C14.6111593,7 7,14.6111593 7,24 C7,33.3888407 14.6111593,41 24,41 C28.5086803,41 32.8326968,39.2089337 36.0208153,36.0208153 C39.2089337,32.8326968 41,28.5086803 41,24 C41,14.6111593 33.3888407,7 24,7 Z M24,18 C24.8284271,18 25.5,18.6715729 25.5,19.5 L25.5,33.5 C25.5,34.3284271 24.8284271,35 24,35 C23.1715729,35 22.5,34.3284271 22.5,33.5 L22.5,19.5 C22.5,18.6715729 23.1715729,18 24,18 Z M24,13 L24.14446,13.0068666 C24.9051119,13.0795513 25.5,13.7203039 25.5,14.5 C25.5,15.3284271 24.8284271,16 24,16 L24,16 L23.85554,15.9931334 C23.0948881,15.9204487 22.5,15.2796961 22.5,14.5 C22.5,13.6715729 23.1715729,13 24,13 L24,13 Z" id="Color" fill="#0071B3"></path>
    </g>
</svg>