<?xml version="1.0" encoding="UTF-8"?>
<svg width="48px" height="48px" viewBox="0 0 48 48" version="1.1" xmlns="http://www.w3.org/2000/svg" xmlns:xlink="http://www.w3.org/1999/xlink">
    <title>Infospot</title>
    <g id="Infospot" stroke="none" stroke-width="1" fill="none" fill-rule="evenodd">
        <path d="M24,18 C24.8284271,18 25.5,18.6715729 25.5,19.5 L25.5,33.5 C25.5,34.3284271 24.8284271,35 24,35 C23.1715729,35 22.5,34.3284271 22.5,33.5 L22.5,19.5 C22.5,18.6715729 23.1715729,18 24,18 Z M24,13 L24.14446,13.0068666 C24.9051119,13.0795513 25.5,13.7203039 25.5,14.5 C25.5,15.3284271 24.8284271,16 24,16 L24,16 L23.85554,15.9931334 C23.0948881,15.9204487 22.5,15.2796961 22.5,14.5 C22.5,13.6715729 23.1715729,13 24,13 L24,13 Z" id="Color" fill="#0071B3"></path>
    </g>
</svg>