<?xml version="1.0" encoding="UTF-8"?>
<svg width="48px" height="48px" viewBox="0 0 48 48" version="1.1" xmlns="http://www.w3.org/2000/svg" xmlns:xlink="http://www.w3.org/1999/xlink">
    <title>International</title>
    <g id="International" stroke="none" stroke-width="1" fill="none" fill-rule="evenodd">
        <path d="M31.5449,40.3203 C33.0129,38.2383 34.1909,35.5613 34.9669,32.5003 L39.8589,32.5003 C38.0159,35.9263 35.0869,38.6753 31.5449,40.3203 L31.5449,40.3203 Z M8.1409,32.5003 L13.0329,32.5003 C13.8089,35.5613 14.9869,38.2383 16.4549,40.3203 C12.9129,38.6753 9.9839,35.9263 8.1409,32.5003 L8.1409,32.5003 Z M16.4549,7.6793 C14.9869,9.7613 13.8089,12.4383 13.0329,15.5003 L8.1409,15.5003 C9.9839,12.0733 12.9129,9.3243 16.4549,7.6793 L16.4549,7.6793 Z M39.8589,15.5003 L34.9669,15.5003 C34.1909,12.4383 33.0129,9.7613 31.5449,7.6793 C35.0869,9.3243 38.0159,12.0733 39.8589,15.5003 L39.8589,15.5003 Z M35.5699,18.5003 L41.1329,18.5003 C41.6909,20.2353 41.9999,22.0813 41.9999,24.0003 C41.9999,25.9183 41.6909,27.7643 41.1329,29.5003 L35.5699,29.5003 C35.8419,27.7443 35.9999,25.9063 35.9999,24.0003 C35.9999,22.0933 35.8419,20.2563 35.5699,18.5003 L35.5699,18.5003 Z M23.9999,6.0003 C26.9889,6.0003 30.2119,9.6553 31.8699,15.5003 L16.1299,15.5003 C17.7879,9.6553 21.0109,6.0003 23.9999,6.0003 L23.9999,6.0003 Z M5.9999,24.0003 C5.9999,22.0813 6.3089,20.2353 6.8669,18.5003 L12.4299,18.5003 C12.1579,20.2563 11.9999,22.0933 11.9999,24.0003 C11.9999,25.9063 12.1579,27.7443 12.4299,29.5003 L6.8669,29.5003 C6.3089,27.7643 5.9999,25.9183 5.9999,24.0003 L5.9999,24.0003 Z M15.4519,29.5003 C15.1629,27.7923 14.9999,25.9513 14.9999,24.0003 C14.9999,22.0483 15.1629,20.2083 15.4519,18.5003 L32.5479,18.5003 C32.8369,20.2083 32.9999,22.0483 32.9999,24.0003 C32.9999,25.9513 32.8369,27.7923 32.5479,29.5003 L15.4519,29.5003 Z M23.9999,42.0003 C21.0109,42.0003 17.7879,38.3443 16.1299,32.5003 L31.8699,32.5003 C30.2119,38.3443 26.9889,42.0003 23.9999,42.0003 L23.9999,42.0003 Z M23.9999,3.0003 C12.4019,3.0003 2.9999,12.4023 2.9999,24.0003 C2.9999,35.5983 12.4019,45.0003 23.9999,45.0003 C35.5979,45.0003 44.9999,35.5983 44.9999,24.0003 C44.9999,12.4023 35.5979,3.0003 23.9999,3.0003 L23.9999,3.0003 Z" id="Fill-1" fill="#0071B3"></path>
    </g>
</svg>