<?xml version="1.0" encoding="UTF-8"?>
<svg width="48px" height="48px" viewBox="0 0 48 48" version="1.1" xmlns="http://www.w3.org/2000/svg" xmlns:xlink="http://www.w3.org/1999/xlink">
    <title>Investor</title>
    <g id="Investor" stroke="none" stroke-width="1" fill="none" fill-rule="evenodd">
        <path d="M39.5,7 C40.3284271,7 41,7.67157288 41,8.5 L41,8.5 L41,12.3 C40.0125425,12.099968 39.0075142,11.9994651 38,12 L38,12 L38,10 L8,10 L8,30 L14,30 L14,35.88 L19.88,30 L23.26,30 C23.4857527,31.0327017 23.8209812,32.038387 24.26,33 L24.26,33 L21.12,33 L13.51,40.51 C13.370329,40.6516016 13.2037215,40.7638066 13.02,40.84 L13.02,40.84 L12.8678605,40.8916907 C12.5595302,40.9778418 12.2297508,40.9606116 11.93,40.84 L11.93,40.84 L11.7939263,40.7765933 C11.4854658,40.6134668 11.2424645,40.3462433 11.11,40.02 L11.11,40.02 L11.0631396,39.8868491 C11.0226409,39.7517898 11.0013192,39.6114642 11,39.47 L11,39.47 L11,32.97 L6.43,32.97 C6.29455926,32.9682744 6.15998631,32.9480885 6.03,32.91 L6.03,32.91 L5.94,32.91 C5.71229436,32.8335469 5.50644717,32.703177 5.34,32.53 L5.34,32.53 L5.28,32.45 C5.22838301,32.390468 5.18156953,32.3269354 5.14,32.26 L5.14,32.26 L5.09,32.16 C5.0541501,32.0891983 5.02405306,32.0156277 5,31.94 L5,31.94 L5,31.84 C4.98702699,31.7270379 4.98702699,31.6129621 5,31.5 L5,31.5 L5,8.5 L5.00686658,8.35553999 C5.07955132,7.59488808 5.72030388,7 6.5,7 L6.5,7 Z M36.1587745,17.4170539 C38.9849979,16.5784406 42.0372514,17.029605 44.5,18.65 L44.5,18.65 L43.58,21.72 C42.0814515,20.4219447 40.1027531,19.8202224 38.1352562,20.0642531 C36.1677593,20.3082837 34.3960209,21.3751764 33.26,23 L33.26,23 L39.5,23 C40.3284271,23 41,23.6715729 41,24.5 C41,25.3284271 40.3284271,26 39.5,26 L39.5,26 L32.08,26 C31.9735048,26.6624137 31.9735048,27.3375863 32.08,28 L32.08,28 L39.5,28 C40.3284271,28 41,28.6715729 41,29.5 C41,30.3284271 40.3284271,31 39.5,31 L39.5,31 L33.26,31 C34.5678393,32.8782422 36.7112809,33.9985079 39,34 C40.6851352,33.9934162 42.3113371,33.3791521 43.58,32.27 L43.58,32.27 L44.5,35.34 C42.0385541,36.9609725 38.9873997,37.4135859 36.16139,36.5769637 C33.3353803,35.7403415 31.0223405,33.6996923 29.84,31 L29.84,31 L28.5,31 C27.6715729,31 27,30.3284271 27,29.5 C27,28.6715729 27.6715729,28 28.5,28 L28.5,28 L29,28 C28.95,27.67 28.95,27.34 28.95,27 C28.95,26.66 29,26.33 29,26 L29,26 L28.5,26 C27.6715729,26 27,25.3284271 27,24.5 C27,23.6715729 27.6715729,23 28.5,23 L28.5,23 L29.84,23 C31.0203607,20.2986005 33.3325512,18.2556672 36.1587745,17.4170539 Z" id="investor" fill="#0071B3"></path>
    </g>
</svg>