<?xml version="1.0" encoding="UTF-8"?>
<svg width="48px" height="48px" viewBox="0 0 48 48" version="1.1" xmlns="http://www.w3.org/2000/svg" xmlns:xlink="http://www.w3.org/1999/xlink">
    <title>Italic</title>
    <g id="Italic" stroke="none" stroke-width="1" fill="none" fill-rule="evenodd">
        <path d="M36.5,7 L21.5,7 C20.6715729,7 20,7.67157288 20,8.5 C20,9.32842712 20.6715729,10 21.5,10 L27.5,10 L17.32,38 L11.5,38 C10.6715729,38 10,38.6715729 10,39.5 C10,40.3284271 10.6715729,41 11.5,41 L26.5,41 C27.3284271,41 28,40.3284271 28,39.5 C28,38.6715729 27.3284271,38 26.5,38 L20.5,38 L30.7,10 L36.5,10 C37.3284271,10 38,9.32842712 38,8.5 C38,7.67157288 37.3284271,7 36.5,7 Z" id="Color" fill="#0071B3"></path>
    </g>
</svg>