<?xml version="1.0" encoding="UTF-8"?>
<svg width="48px" height="48px" viewBox="0 0 48 48" version="1.1" xmlns="http://www.w3.org/2000/svg" xmlns:xlink="http://www.w3.org/1999/xlink">
    <title>Key</title>
    <g id="Key" stroke="none" stroke-width="1" fill="none" fill-rule="evenodd">
        <path d="M30.9253,24 C27.0653,24 23.9253,20.86 23.9253,17 C23.9253,13.14 27.0653,10 30.9253,10 C34.7853,10 37.9253,13.14 37.9253,17 C37.9253,20.86 34.7853,24 30.9253,24 M30.9253,7 C25.4023,7 20.9253,11.477 20.9253,17 C20.9253,19.22 21.6573,21.263 22.8813,22.922 L7.4393,38.364 C6.8533,38.95 6.8533,39.899 7.4393,40.485 C8.0253,41.071 8.9743,41.071 9.5603,40.485 L12.0733,37.973 L15.3033,41.203 C15.8893,41.789 16.8393,41.789 17.4253,41.203 C18.0103,40.617 18.0103,39.667 17.4253,39.082 L14.1943,35.852 L15.6093,34.437 L17.4253,36.253 C18.0103,36.839 18.9603,36.839 19.5463,36.253 C20.1323,35.667 20.1323,34.718 19.5463,34.132 L17.7303,32.316 L25.0023,25.044 C26.6613,26.268 28.7053,27 30.9253,27 C36.4483,27 40.9253,22.523 40.9253,17 C40.9253,11.477 36.4483,7 30.9253,7" id="Color" fill="#0071B3"></path>
    </g>
</svg>