<?xml version="1.0" encoding="UTF-8"?>
<svg width="48px" height="48px" viewBox="0 0 48 48" version="1.1" xmlns="http://www.w3.org/2000/svg" xmlns:xlink="http://www.w3.org/1999/xlink">
    <title>Label</title>
    <g id="Label" stroke="none" stroke-width="1" fill="none" fill-rule="evenodd">
        <path d="M43.41,26.47 C43.3361881,26.279143 43.223854,26.1055357 43.08,25.96 L22.57,5.45 L22.57,5.45 C22.2888283,5.16152565 21.9028329,4.99919111 21.5,4.99999699 L6.5,4.99999699 C5.67157288,4.99999699 5,5.67157288 5,6.49999699 L5,21.499997 C5,21.499997 5,21.58 5,21.63 C5.00910073,21.7629933 5.03600752,21.8941639 5.08,22.02 C5.09388757,22.0708839 5.11057974,22.1209604 5.13,22.17 C5.19353184,22.3086387 5.27783421,22.4367783 5.38,22.55 L5.38,22.61 L26,43.09 C26.5856351,43.6749068 27.5343649,43.6749068 28.12,43.09 L28.12,43.02 C28.12,43.02 28.2,43.02 28.23,42.95 L43.09,28.1 C43.5152373,27.6707141 43.6413766,27.0281917 43.41,26.47 Z M27,39.92 L8,20.92 L8,8 L20.88,8 L39.88,27 L27,39.92 Z M16,11 C13.2385763,11 11,13.2385763 11,16 C11,18.7614237 13.2385763,21 16,21 C18.7614237,21 21,18.7614237 21,16 C21,14.6739176 20.4732158,13.402148 19.5355339,12.4644661 C18.597852,11.5267842 17.3260824,11 16,11 Z M16,18 C14.8954305,18 14,17.1045695 14,16 C14,14.8954305 14.8954305,14 16,14 C17.1045695,14 18,14.8954305 18,16 C18,17.1045695 17.1045695,18 16,18 Z" id="promolabel" fill="#0071B3"></path>
    </g>
</svg>