<?xml version="1.0" encoding="UTF-8"?>
<svg width="48px" height="48px" viewBox="0 0 48 48" version="1.1" xmlns="http://www.w3.org/2000/svg" xmlns:xlink="http://www.w3.org/1999/xlink">
    <title>Arrow Simple/Left</title>
    <g id="Arrow-Simple/Left" stroke="none" stroke-width="1" fill="none" fill-rule="evenodd">
        <path d="M20.7245,24.0985 L30.2645,14.5585 C30.8475,13.9755 30.8475,13.0205 30.2645,12.4375 C29.6815,11.8545 28.7265,11.8545 28.1425,12.4375 L17.5715,23.0085 C17.5605,23.0185 17.5465,23.0215 17.5365,23.0325 C17.2435,23.3255 17.0985,23.7125 17.0994949,24.0985 C17.0985,24.4855 17.2435,24.8715 17.5365,25.1655 C17.5465,25.1755 17.5605,25.1785 17.5715,25.1885 L28.1425,35.7605 C28.7265,36.3435 29.6815,36.3435 30.2645,35.7605 C30.8475,35.1765 30.8475,34.2225 30.2645,33.6385 L20.7245,24.0985 Z" id="arrow-left" fill="#0071B3"></path>
    </g>
</svg>