<?xml version="1.0" encoding="UTF-8"?>
<svg width="48px" height="48px" viewBox="0 0 48 48" version="1.1" xmlns="http://www.w3.org/2000/svg" xmlns:xlink="http://www.w3.org/1999/xlink">
    <title>Social Media / Linkedin</title>
    <g id="Social-Media-/-Linkedin" stroke="none" stroke-width="1" fill="none" fill-rule="evenodd">
        <path d="M13.05,17.33 L13.05,44 L4.8,44 L4.8,17.33 L13.05,17.33 Z M34.29,16.52 C39.94,16.52 44,20 44,27.12 L44,27.12 L44,44 L35.75,44 L35.75,30 C35.75,26.14 34.26,24 31.26,24 C27.99,24 26.26,26.25 26.26,30 L26.26,30 L26.26,44 L18.34,44 L18.34,17.33 L26.29,17.33 L26.29,20.92 C28.0036793,18.1551991 31.0373533,16.4866784 34.29,16.52 Z M8.89,4 C11.5851496,4 13.77,6.20275903 13.77,8.92 C13.77,11.637241 11.5851496,13.84 8.89,13.84 C6.19485042,13.84 4.01,11.637241 4.01,8.92 C4.01,6.20275903 6.19485042,4 8.89,4 Z" id="linkedin" fill="#0071B3"></path>
    </g>
</svg>