<?xml version="1.0" encoding="UTF-8"?>
<svg width="48px" height="48px" viewBox="0 0 48 48" version="1.1" xmlns="http://www.w3.org/2000/svg" xmlns:xlink="http://www.w3.org/1999/xlink">
    <title>List</title>
    <g id="List" stroke="none" stroke-width="1" fill="none" fill-rule="evenodd">
        <path d="M14,32 C14.5522847,32 15,32.4477153 15,33 L15,33 L15,41 C15,41.5522847 14.5522847,42 14,42 L14,42 L6,42 C5.44771525,42 5,41.5522847 5,41 L5,41 L5,33 C5,32.4477153 5.44771525,32 6,32 L6,32 Z M12,35 L8,35 L8,39 L12,39 L12,35 Z M41.5,35.5 C42.3284271,35.5 43,36.1715729 43,37 C43,37.8284271 42.3284271,38.5 41.5,38.5 L20.5,38.5 C19.6715729,38.5 19,37.8284271 19,37 C19,36.1715729 19.6715729,35.5 20.5,35.5 L41.5,35.5 Z M14,19 C14.5522847,19 15,19.4477153 15,20 L15,20 L15,28 C15,28.5522847 14.5522847,29 14,29 L14,29 L6,29 C5.44771525,29 5,28.5522847 5,28 L5,28 L5,20 C5,19.4477153 5.44771525,19 6,19 L6,19 Z M12,22 L8,22 L8,26 L12,26 L12,22 Z M41.5,22.5 C42.3284271,22.5 43,23.1715729 43,24 C43,24.8284271 42.3284271,25.5 41.5,25.5 L20.5,25.5 C19.6715729,25.5 19,24.8284271 19,24 C19,23.1715729 19.6715729,22.5 20.5,22.5 L41.5,22.5 Z M14,6 C14.5522847,6 15,6.44771525 15,7 L15,7 L15,15 C15,15.5522847 14.5522847,16 14,16 L14,16 L6,16 C5.44771525,16 5,15.5522847 5,15 L5,15 L5,7 C5,6.44771525 5.44771525,6 6,6 L6,6 Z M12,9 L8,9 L8,13 L12,13 L12,9 Z M41.5,9.5 C42.3284271,9.5 43,10.1715729 43,11 C43,11.8284271 42.3284271,12.5 41.5,12.5 L20.5,12.5 C19.6715729,12.5 19,11.8284271 19,11 C19,10.1715729 19.6715729,9.5 20.5,9.5 L41.5,9.5 Z" id="list" fill="#0071B3"></path>
    </g>
</svg>