<?xml version="1.0" encoding="UTF-8"?>
<svg width="48px" height="48px" viewBox="0 0 48 48" version="1.1" xmlns="http://www.w3.org/2000/svg" xmlns:xlink="http://www.w3.org/1999/xlink">
    <title>Live</title>
    <g id="Live" stroke="none" stroke-width="1" fill="none" fill-rule="evenodd">
        <path d="M24.0005,17.2885 C20.6865,17.2885 18.0005,19.9755 18.0005,23.2885 C18.0005,26.6015 20.6865,29.2885 24.0005,29.2885 C27.3135,29.2885 30.0005,26.6015 30.0005,23.2885 C30.0005,19.9755 27.3135,17.2885 24.0005,17.2885 M11.2724,8.4391 C11.8574,9.0251 11.8574,9.9751 11.2724,10.5601 C7.8724,13.9601 6.0004,18.4801 6.0004,23.2881 C6.0004,28.0971 7.8724,32.6171 11.2724,36.0161 C11.8574,36.6021 11.8574,37.5521 11.2724,38.1381 C10.9794,38.4311 10.5954,38.5771 10.2114,38.5771 C9.8274,38.5771 9.4434,38.4311 9.1504,38.1381 C5.1844,34.1711 3.0004,28.8981 3.0004,23.2881 C3.0004,17.6791 5.1844,12.4061 9.1504,8.4391 C9.7364,7.8531 10.6864,7.8531 11.2724,8.4391 Z M38.8496,8.4391 C42.8156,12.4061 44.9996,17.6791 44.9996,23.2881 C44.9996,28.8981 42.8156,34.1711 38.8496,38.1381 C38.5566,38.4311 38.1726,38.5771 37.7886,38.5771 C37.4046,38.5771 37.0206,38.4311 36.7276,38.1381 C36.1426,37.5521 36.1426,36.6021 36.7276,36.0161 C40.1276,32.6171 41.9996,28.0971 41.9996,23.2881 C41.9996,18.4801 40.1276,13.9601 36.7276,10.5601 C36.1426,9.9751 36.1426,9.0251 36.7276,8.4391 C37.3136,7.8531 38.2636,7.8531 38.8496,8.4391 Z M16.5761,13.7434 C17.1611,14.3284 17.1611,15.2784 16.5761,15.8644 C14.5931,17.8474 13.5001,20.4844 13.5001,23.2894 C13.5001,26.0934 14.5931,28.7304 16.5761,30.7134 C17.1611,31.2994 17.1611,32.2494 16.5761,32.8354 C16.2831,33.1284 15.8991,33.2744 15.5151,33.2744 C15.1311,33.2744 14.7471,33.1284 14.4541,32.8354 C11.9051,30.2844 10.5001,26.8944 10.5001,23.2894 C10.5001,19.6834 11.9051,16.2934 14.4541,13.7434 C15.0401,13.1574 15.9901,13.1574 16.5761,13.7434 Z M33.5458,13.7424 C36.0958,16.2924 37.5008,19.6834 37.5008,23.2894 C37.5008,26.8944 36.0958,30.2844 33.5468,32.8354 C33.2538,33.1284 32.8698,33.2744 32.4858,33.2744 C32.1018,33.2744 31.7178,33.1284 31.4248,32.8354 C30.8398,32.2494 30.8398,31.2994 31.4248,30.7134 C33.4078,28.7304 34.5008,26.0934 34.5008,23.2894 C34.5008,20.4844 33.4078,17.8474 31.4248,15.8634 C30.8388,15.2784 30.8388,14.3284 31.4248,13.7424 C32.0108,13.1564 32.9598,13.1564 33.5458,13.7424 Z M24.0005,20.2885 C25.6545,20.2885 27.0005,21.6345 27.0005,23.2885 C27.0005,24.9425 25.6545,26.2885 24.0005,26.2885 C22.3465,26.2885 21.0005,24.9425 21.0005,23.2885 C21.0005,21.6345 22.3465,20.2885 24.0005,20.2885 Z" fill="#0071B3"></path>
    </g>
</svg>