<?xml version="1.0" encoding="UTF-8"?>
<svg width="48px" height="48px" viewBox="0 0 48 48" version="1.1" xmlns="http://www.w3.org/2000/svg" xmlns:xlink="http://www.w3.org/1999/xlink">
    <title>Lock</title>
    <g id="Lock" stroke="none" stroke-width="1" fill="none" fill-rule="evenodd">
        <path d="M40.0000334,19.51 L40.0000334,19.51 C40.0026638,19.1104455 39.8458052,18.7263405 39.5642114,18.4428694 C39.2826176,18.1593984 38.8995634,18 38.5,18 L34,18 L34,14 L34,14 C34,8.4771525 29.5228475,4 24,4 C18.4771525,4 14,8.4771525 14,14 L14,14 L14,18 L9.5,18 C8.67157288,18 8,18.6715729 8,19.5 L8,42.5 C8,43.3284271 8.67157288,44 9.5,44 L38.5,44 C39.3284271,44 40.0000334,43.3284271 40.0000334,42.5 L40.0000334,42.5 L40.0000334,19.51 Z M17,13.93 C17.01933,10.0640068 20.1690068,6.94567003 24.035,6.96491062 C27.9009932,6.98432997 31.01933,10.1340068 31.0000894,14 L31.0000894,18 L17,18 L17,13.93 Z M34,21 L37,21 L37,41 L11,41 L11,21 L34,21 Z" id="Color" fill="#0071B3"></path>
    </g>
</svg>