<?xml version="1.0" encoding="UTF-8"?>
<svg width="48px" height="48px" viewBox="0 0 48 48" version="1.1" xmlns="http://www.w3.org/2000/svg" xmlns:xlink="http://www.w3.org/1999/xlink">
    <title>Loupe</title>
    <g id="Loupe" stroke="none" stroke-width="1" fill="none" fill-rule="evenodd">
        <path d="M39.9107493,37.7907493 L30.4307493,28.3107493 C34.761964,22.8557444 34.0839946,14.9687701 28.8853667,10.3329566 C23.6867387,5.69714313 15.7739122,5.92337931 10.8486458,10.8486458 C5.92337931,15.7739122 5.69714313,23.6867387 10.3329566,28.8853667 C14.9687701,34.0839946 22.8557444,34.761964 28.3107493,30.4307493 L37.7907493,39.9107493 C38.1646905,40.3120557 38.7278604,40.4772477 39.2593271,40.3415204 C39.7907939,40.2057931 40.2057931,39.7907939 40.3415204,39.2593271 C40.4772477,38.7278604 40.3120557,38.1646905 39.9107493,37.7907493 L39.9107493,37.7907493 Z M20.1607493,30.2907493 C14.5797578,30.2852263 10.0589138,25.7584132 10.0607542,20.1774193 C10.0625958,14.5964254 14.5864254,10.0725958 20.1674193,10.0707542 C25.7484132,10.0689138 30.2752263,14.5897578 30.2807493,20.1707493 C30.2807493,22.8547402 29.2145381,25.4288018 27.3166699,27.3266699 C25.4188018,29.2245381 22.8447402,30.2907493 20.1607493,30.2907493 Z" id="search" fill="#0071B3"></path>
    </g>
</svg>