<?xml version="1.0" encoding="UTF-8"?>
<svg width="48px" height="48px" viewBox="0 0 48 48" version="1.1" xmlns="http://www.w3.org/2000/svg" xmlns:xlink="http://www.w3.org/1999/xlink">
    <title>Magazine</title>
    <g id="Magazine" stroke="none" stroke-width="1" fill="none" fill-rule="evenodd">
        <path d="M38.45,5 C39.8583261,5 41,6.58735407 41,8.54545455 L41,40.4545455 C41,42.4126459 39.8583261,44 38.45,44 L9.55,44 C8.14167389,44 7,42.4126459 7,40.4545455 L7,8.54545455 C7,6.58735407 8.14167389,5 9.55,5 L38.45,5 Z M19.046807,29.65951 L11.67,41 L35.483,41 L28.0619278,31.3111959 L25.862,33.787 L27.0227432,35.3446278 C27.488531,35.969902 27.3942462,36.839135 26.8276661,37.3518351 L26.7159191,37.4436416 C26.0515653,37.9385411 25.1118048,37.8011713 24.6169053,37.1368175 L24.6169053,37.1368175 L19.046807,29.65951 Z M38,8 L10,8 L10,38.065 L17.7059437,26.2187845 C18.2481569,25.3851241 19.4233899,25.3088658 20.0729511,26.0268648 L20.1662979,26.1405262 L24.032,31.33 L27.02594,27.959967 C27.6171176,27.2943448 28.6429173,27.2934276 29.237929,27.9257858 L29.3382831,28.0439458 L38,39.353 L38,8 Z M33,20 C34.6568542,20 36,21.3431458 36,23 C36,24.6568542 34.6568542,26 33,26 C31.3431458,26 30,24.6568542 30,23 C30,21.3431458 31.3431458,20 33,20 Z M19.5,19 C20.3284271,19 21,19.6715729 21,20.5 C21,21.3284271 20.3284271,22 19.5,22 L14.5,22 C13.6715729,22 13,21.3284271 13,20.5 C13,19.6715729 13.6715729,19 14.5,19 L19.5,19 Z M33.5,13 C34.3284271,13 35,13.6715729 35,14.5 C35,15.3284271 34.3284271,16 33.5,16 L14.5,16 C13.6715729,16 13,15.3284271 13,14.5 C13,13.6715729 13.6715729,13 14.5,13 L33.5,13 Z" id="magazine" fill="#0071B3"></path>
    </g>
</svg>