<?xml version="1.0" encoding="UTF-8"?>
<svg width="48px" height="48px" viewBox="0 0 48 48" version="1.1" xmlns="http://www.w3.org/2000/svg" xmlns:xlink="http://www.w3.org/1999/xlink">
    <title>Map</title>
    <g id="Map" stroke="none" stroke-width="1" fill="none" fill-rule="evenodd">
        <path d="M24.0002,7 C29.1422,7 33.3262,11.184 33.3262,16.326 C33.3262,22.571 27.7162,29.851 23.9972,33.789 C20.2782,29.859 14.6742,22.592 14.6742,16.326 C14.6742,11.184 18.8572,7 24.0002,7 M38.5002,41 C39.3282,41 40.0002,41.671 40.0002,42.5 C40.0002,43.329 39.3282,44 38.5002,44 L38.5002,44 L9.5002,44 C8.6712,44 8.0002,43.329 8.0002,42.5 C8.0002,41.671 8.6712,41 9.5002,41 L9.5002,41 Z M24.0002,4 C30.8072,4 36.3262,9.519 36.3262,16.326 C36.3262,26.34 25.3242,37.021 24.5332,37.776 L24.5332,37.776 L24.5252,37.784 C24.5002,37.808 24.4842,37.823 24.4842,37.823 L24.4842,37.823 L24.4672,37.823 C24.3382,37.928 24.1802,38 24.0002,38 C23.8202,38 23.6612,37.928 23.5322,37.822 L23.5322,37.822 L23.5152,37.822 C23.5152,37.822 23.4992,37.807 23.4722,37.782 L23.4722,37.782 C22.6892,37.047 11.6742,26.518 11.6742,16.326 C11.6742,9.519 17.1922,4 24.0002,4 Z M24.0002,10 C20.6862,10 18.0002,12.687 18.0002,16 C18.0002,19.314 20.6862,22 24.0002,22 C27.3132,22 30.0002,19.314 30.0002,16 C30.0002,12.687 27.3132,10 24.0002,10 Z M24.0002,13 C25.6542,13 27.0002,14.346 27.0002,16 C27.0002,17.654 25.6542,19 24.0002,19 C22.3462,19 21.0002,17.654 21.0002,16 C21.0002,14.346 22.3462,13 24.0002,13 Z" id="map" fill="#0071B3"></path>
    </g>
</svg>