<?xml version="1.0" encoding="UTF-8"?>
<svg width="48px" height="48px" viewBox="0 0 48 48" version="1.1" xmlns="http://www.w3.org/2000/svg" xmlns:xlink="http://www.w3.org/1999/xlink">
    <title>Media 360</title>
    <g id="Media-360" stroke="none" stroke-width="1" fill="none" fill-rule="evenodd">
        <path d="M41.0361291,9.50003547 C41.0361291,8.67160835 40.3645562,8.00003547 39.5361291,8.00003547 L29.5361291,8.00003547 C28.7077019,8.00003547 28.0361291,8.67160835 28.0361291,9.50003547 L28.0361291,9.50003547 L28.0361291,19.5000355 C28.0361291,20.3284626 28.7077019,21.0000355 29.5361291,21.0000355 C30.3645562,21.0000355 31.0361291,20.3284626 31.0361291,19.5000355 L31.0361291,12.5000355 C36.7150201,16.4428541 38.6655998,23.9406386 35.628116,30.1510584 C32.5906321,36.3614781 25.4746448,39.424852 18.8759069,37.3627464 C12.277169,35.3006408 8.17164146,28.7305436 9.21081719,21.8956525 C10.2499929,15.0607615 16.1226956,10.0077527 23.0361291,10.0000355 L23.0361291,7 C14.7862408,6.98329657 7.71514144,12.892165 6.26596901,21.0137927 C4.81679657,29.1354203 9.40790451,37.1252201 17.1544619,39.9627869 C24.9010192,42.8003537 33.5667159,39.6665263 37.7064457,32.5304508 C41.8461755,25.3943753 40.2648632,16.3161253 33.9561291,11.0000355 L39.5361291,11.0000355 C40.3645562,11.0000355 41.0361291,10.3284626 41.0361291,9.50003547 Z" id="360" fill="#0071B3"></path>
    </g>
</svg>