<?xml version="1.0" encoding="UTF-8"?>
<svg width="48px" height="48px" viewBox="0 0 48 48" version="1.1" xmlns="http://www.w3.org/2000/svg" xmlns:xlink="http://www.w3.org/1999/xlink">
    <title>Megafono</title>
    <g id="Megafono" stroke="none" stroke-width="1" fill="none" fill-rule="evenodd">
        <path d="M31.5,8 C32.329,8 33,8.671 33,9.5 L33,9.5 L33,38.992 C33,39.82 32.329,40.492 31.5,40.492 C31.246,40.492 31.01,40.422 30.799,40.311 C30.793,40.308 30.788,40.307 30.782,40.304 L30.782,40.304 L21.369,35.915 C20.386,37.888 18.354,39.247 16,39.247 C12.686,39.247 10,36.561 10,33.247 C10,32.394 10.181,31.583 10.502,30.848 L10.502,30.848 L9.214,30.247 L4.5,30.247 C3.672,30.247 3,29.576 3,28.747 L3,28.747 L3,19.747 C3,18.918 3.672,18.247 4.5,18.247 L4.5,18.247 L9.214,18.247 L30.689,8.233 C30.703,8.227 30.717,8.225 30.73,8.219 C30.956,8.083 31.217,8 31.5,8 Z M30,11.864 L10.181,21.106 C9.975,21.202 9.758,21.243 9.544,21.243 C9.53,21.243 9.516,21.247 9.5,21.247 L9.5,21.247 L6,21.247 L6,27.247 L9.5,27.247 C9.516,27.247 9.53,27.251 9.544,27.251 C9.758,27.251 9.975,27.292 10.181,27.388 L10.181,27.388 L12.427,28.436 L16.399,30.287 L18.019,31.043 L21.982,32.891 L30,36.63 L30,11.864 Z M13.225,32.118 C13.082,32.467 13,32.847 13,33.247 C13,34.901 14.346,36.247 16,36.247 C17.148,36.247 18.135,35.592 18.64,34.643 L18.64,34.643 Z M41.3662,31.7549 C42.1952,31.7549 42.8662,32.4269 42.8662,33.2549 C42.8662,34.0839 42.1952,34.7549 41.3662,34.7549 L41.3662,34.7549 L37.5002,34.7549 C36.6722,34.7549 36.0002,34.0839 36.0002,33.2549 C36.0002,32.4269 36.6722,31.7549 37.5002,31.7549 L37.5002,31.7549 Z M43.5005,22.7545 C44.3285,22.7545 45.0005,23.4265 45.0005,24.2545 C45.0005,25.0835 44.3285,25.7545 43.5005,25.7545 L43.5005,25.7545 L37.5005,25.7545 C36.6715,25.7545 36.0005,25.0835 36.0005,24.2545 C36.0005,23.4265 36.6715,22.7545 37.5005,22.7545 L37.5005,22.7545 Z M41.3665,13.7545 C42.1945,13.7545 42.8665,14.4265 42.8665,15.2545 C42.8665,16.0835 42.1945,16.7545 41.3665,16.7545 L41.3665,16.7545 L37.5005,16.7545 C36.6715,16.7545 36.0005,16.0835 36.0005,15.2545 C36.0005,14.4265 36.6715,13.7545 37.5005,13.7545 L37.5005,13.7545 Z" id="megafono" fill="#0071B3"></path>
    </g>
</svg>