<?xml version="1.0" encoding="UTF-8"?>
<svg width="48px" height="48px" viewBox="0 0 48 48" version="1.1" xmlns="http://www.w3.org/2000/svg" xmlns:xlink="http://www.w3.org/1999/xlink">
    <title>Members</title>
    <g id="Members" stroke="none" stroke-width="1" fill="none" fill-rule="evenodd">
        <path d="M21.4994,24 C21.5523,24 21.6023,24.0103 21.6538,24.0156 C21.7697,24.0117 21.8832,24 22.0001,24 C26.6282,24 30.4363,27.1064 30.9397,31.1008 C30.9751,31.2285 31.0001,31.3606 31,31.4996 L31,31.4996 L31,40.4996 C31,41.328 30.3284,41.9996 29.5,41.9996 C28.6716,41.9996 28,41.328 28,40.4996 L28,40.4996 L28,32 C28,29.5543 25.8806,27.5169 23.0928,27.0871 C22.7386,27.0325 22.3752,27.0003 21.9994,26.9996 L21.9994,26.9996 L21.4994,27 L16.4952,26.9996 L15.9955,27.0004 C15.6234,27.0006 15.2607,27.0326 14.9072,27.0871 C12.1196,27.5169 10,29.5543 10,32 L10,32 L10,40.4996 C10,41.328 9.3284,41.9996 8.5,41.9996 C7.6716,41.9996 7,41.328 7,40.4996 L7,40.4996 L7,31.4996 C7,31.3606 7.025,31.2285 7.0604,31.1008 C7.5638,27.1063 11.3719,24 16,24 C16.1167,24 16.23,24.0116 16.3455,24.0155 C16.3968,24.0102 16.4467,24 16.4994,24 L16.4994,24 Z M31.4994,25 C31.5523,25 31.6023,25.0103 31.6538,25.0156 C31.7697,25.0117 31.8832,25 32.0001,25 C36.6282,25 40.4363,28.1064 40.9397,32.1008 C40.9751,32.2285 41.0001,32.3606 41,32.4996 L41,32.4996 L41,38.4996 C41,39.328 40.3284,39.9996 39.5,39.9996 C38.6716,39.9996 38,39.328 38,38.4996 L38,38.4996 L38,33 C38,30.5543 35.8806,28.5169 33.0928,28.0871 L33.2279438,28.1106396 C32.7582748,26.9654844 32.0887587,25.9179746 31.2613072,24.9995094 Z M30.9995,8 C34.8655125,8 37.9995,11.1339875 37.9995,15 C37.9995,18.8660125 34.8655125,22 30.9995,22 C29.7053758,22 28.4932776,21.6488257 27.4533011,21.036573 C28.0948371,20.2691408 28.6322646,19.4122711 29.0458519,18.4878857 C29.6222372,18.8140912 30.2895674,19 30.9995,19 C33.2051,19 34.9995,17.2056 34.9995,15 C34.9995,12.7944 33.2051,11 30.9995,11 C30.5256037,11 30.0706906,11.0828385 29.6484804,11.2347955 C29.3941977,10.2485255 29.0053342,9.31571159 28.5034234,8.45703629 C29.2789247,8.16209292 30.1202818,8 30.9995,8 Z M18.9995,6 C23.4178,6 26.9995,9.5817 26.9995,14 C26.9995,18.4183 23.4178,22 18.9995,22 C14.5812,22 10.9995,18.4183 10.9995,14 C10.9995,9.5817 14.5812,6 18.9995,6 Z M18.9995,9 C16.2425,9 13.9995,11.243 13.9995,14 C13.9995,16.757 16.2425,19 18.9995,19 C21.7565,19 23.9995,16.757 23.9995,14 C23.9995,11.243 21.7565,9 18.9995,9 Z" id="members" fill="#0071B3"></path>
    </g>
</svg>