<?xml version="1.0" encoding="UTF-8"?>
<svg width="48px" height="48px" viewBox="0 0 48 48" version="1.1" xmlns="http://www.w3.org/2000/svg" xmlns:xlink="http://www.w3.org/1999/xlink">
    <title>Menu</title>
    <g id="Menu" stroke="none" stroke-width="1" fill="none" fill-rule="evenodd">
        <path d="M29.5,32.5 C30.3284271,32.5 31,33.1715729 31,34 C31,34.8284271 30.3284271,35.5 29.5,35.5 L7.5,35.5 C6.67157288,35.5 6,34.8284271 6,34 C6,33.1715729 6.67157288,32.5 7.5,32.5 L29.5,32.5 Z M40.5,22.5 C41.3284271,22.5 42,23.1715729 42,24 C42,24.8284271 41.3284271,25.5 40.5,25.5 L7.5,25.5 C6.67157288,25.5 6,24.8284271 6,24 C6,23.1715729 6.67157288,22.5 7.5,22.5 L40.5,22.5 Z M37.5,12.5 C38.3284271,12.5 39,13.1715729 39,14 C39,14.8284271 38.3284271,15.5 37.5,15.5 L7.5,15.5 C6.67157288,15.5 6,14.8284271 6,14 C6,13.1715729 6.67157288,12.5 7.5,12.5 L37.5,12.5 Z" id="menu" fill="#0071B3"></path>
    </g>
</svg>