<?xml version="1.0" encoding="UTF-8"?>
<svg width="48px" height="48px" viewBox="0 0 48 48" version="1.1" xmlns="http://www.w3.org/2000/svg" xmlns:xlink="http://www.w3.org/1999/xlink">
    <title>Transport / Metro</title>
    <g id="Transport-/-Metro" stroke="none" stroke-width="1" fill="none" fill-rule="evenodd">
        <path d="M34.08,40 L36.42,45 L33.11,45 L30.77,40 L34.08,40 Z M17.23,40 L14.89,45 L11.58,45 L13.91,40 L17.23,40 Z M36,4 C38.0844944,4.0009619 40.0191147,5.08374353 41.11,6.86 C41.6911028,7.80432464 41.9991673,8.89120389 42,10 L42,10 L42,33 C42,36.3137085 39.3137085,39 36,39 L36,39 L12,39 C9.9075113,38.990529 7.9711088,37.8915921 6.89,36.1 C6.33319584,35.1963275 6.02608414,34.1611195 6,33.1 L6,33.1 L6,10 L6.00413847,9.77506174 C6.12242824,6.56557489 8.76160306,4 12,4 L12,4 Z M36,7 L12,7 C10.3431458,7 9,8.34314575 9,10 L9,10 L9,33 C9,34.6568542 10.3431458,36 12,36 L12,36 L36,36 C37.6568542,36 39,34.6568542 39,33 L39,33 L39,10 C39,8.34314575 37.6568542,7 36,7 L36,7 Z M14,30 C15.1045695,30 16,30.8954305 16,32 C16,33.1045695 15.1045695,34 14,34 C12.8954305,34 12,33.1045695 12,32 C12,30.8954305 12.8954305,30 14,30 Z M34,30 C35.1045695,30 36,30.8954305 36,32 C36,33.1045695 35.1045695,34 34,34 C32.8954305,34 32,33.1045695 32,32 C32,30.8954305 32.8954305,30 34,30 Z M35,9 C36.1045695,9 37,9.8954305 37,11 L37,11 L37,26 C37,27.1045695 36.1045695,28 35,28 L35,28 L13,28 C11.8954305,28 11,27.1045695 11,26 L11,26 L11,11 C11,9.8954305 11.8954305,9 13,9 L13,9 Z M34,12 L14,12 L14,25 L34,25 L34,12 Z" id="metro" fill="#0071B3"></path>
    </g>
</svg>