<?xml version="1.0" encoding="UTF-8"?>
<svg width="48px" height="48px" viewBox="0 0 48 48" version="1.1" xmlns="http://www.w3.org/2000/svg" xmlns:xlink="http://www.w3.org/1999/xlink">
    <title>Minus Circle</title>
    <g id="Minus-Circle" stroke="none" stroke-width="1" fill="none" fill-rule="evenodd">
        <path d="M24,4 C29.3043298,4 34.3914081,6.10713681 38.1421356,9.85786438 C41.8928632,13.6085919 44,18.6956702 44,24 C44,35.045695 35.045695,44 24,44 C12.954305,44 4,35.045695 4,24 C4,12.954305 12.954305,4 24,4 Z M24,7 C14.6111593,7 7,14.6111593 7,24 C7,33.3888407 14.6111593,41 24,41 C33.3888407,41 41,33.3888407 41,24 C41,14.6111593 33.3888407,7 24,7 Z M34.71,22.5 C35.4448183,22.6203946 35.9842359,23.2553841 35.9842359,24 C35.9842359,24.7446159 35.4448183,25.3796054 34.71,25.5 L34.71,25.5 L13.29,25.5 C12.5551817,25.3796054 12.0157641,24.7446159 12.0157641,24 C12.0157641,23.2553841 12.5551817,22.6203946 13.29,22.5 L13.29,22.5 Z" id="Color" fill="#0071B3"></path>
    </g>
</svg>