<?xml version="1.0" encoding="UTF-8"?>
<svg width="48px" height="48px" viewBox="0 0 48 48" version="1.1" xmlns="http://www.w3.org/2000/svg" xmlns:xlink="http://www.w3.org/1999/xlink">
    <title>Mortgage</title>
    <g id="Mortgage" stroke="none" stroke-width="1" fill="none" fill-rule="evenodd">
        <path d="M42.0520532,24.6 L42.0520532,24.6 C42.6060532,25.217 42.5560532,26.165 41.9390532,26.72 C41.3240532,27.274 40.3750532,27.224 39.8210532,26.61 L37.7150532,24.27 L34.7150532,20.937 L23.7150532,8.721 L12.7150532,20.938 L9.71505319,24.27 L7.61505319,26.604 C7.06005319,27.219 6.11205319,27.268 5.49505319,26.714 C4.88105319,26.16 4.83105319,25.211 5.38505319,24.596 L22.5990532,5.481 C22.6270532,5.449 22.6670532,5.437 22.6970532,5.407 C22.7360532,5.37 22.7820532,5.346 22.8220532,5.314 C22.9380532,5.226 23.0600532,5.146 23.1900532,5.096 C23.2500532,5.074 23.3130532,5.065 23.3760532,5.05 C23.4940532,5.022 23.6140532,5 23.7360532,5 C23.8200532,5.001 23.9000532,5.019 23.9800532,5.034 C24.0800532,5.052 24.1800532,5.07 24.2760532,5.108 C24.3740532,5.148 24.4660532,5.211 24.5560532,5.274 C24.6260532,5.321 24.6960532,5.364 24.7560532,5.424 C24.7820532,5.447 24.8160532,5.458 24.8390532,5.484 L42.0520532,24.6 Z M34.7160532,22.937 L37.7160532,26.269 L37.7160532,41.596 C37.7160532,42.423 37.0460532,43.094 36.2190532,43.096 L11.2160532,43.096 C10.3880532,43.096 9.71605319,42.424 9.71605319,41.596 L9.71605319,26.27 L12.7160532,22.938 L12.7160532,40.096 L34.7160532,40.096 L34.7160532,22.937 Z M24.9462143,20.096 C26.3400325,20.096 27.6358103,20.50775 28.7183676,21.21245 L28.7183676,21.21245 L28.0876186,23.282 C27.2443346,22.5611 26.1473798,22.121 24.9455287,22.121 C23.3192932,22.121 21.8815968,22.92425 21.0129457,24.146 L21.0129457,24.146 L25.2890126,24.146 C25.8539444,24.146 26.3174078,24.601625 26.3174078,25.1585 C26.3174078,25.715375 25.8539444,26.171 25.2890126,26.171 L25.2890126,26.171 L20.2018847,26.171 C20.1689761,26.391725 20.147037,26.6165 20.147037,26.846 C20.147037,27.0755 20.1689761,27.2996 20.2018847,27.521 L20.2018847,27.521 L25.2890126,27.521 C25.8539444,27.521 26.3174078,27.976625 26.3174078,28.5335 C26.3174078,29.090375 25.8539444,29.546 25.2890126,29.546 L25.2890126,29.546 L21.0129457,29.546 C21.8815968,30.76775 23.3192932,31.571 24.9462143,31.571 C26.1480654,31.571 27.2450202,31.1309 28.0883042,30.40865 L28.0883042,30.40865 L28.7190532,32.478875 C27.6364959,33.18425 26.3407181,33.596 24.9462143,33.596 C22.1352676,33.596 19.721967,31.92875 18.6640912,29.546 L18.6640912,29.546 L17.7474483,29.546 C17.1811454,29.546 16.7190532,29.090375 16.7190532,28.5335 C16.7190532,27.976625 17.1811454,27.521 17.7474483,27.521 L17.7474483,27.521 L18.1245265,27.521 C18.1019018,27.29825 18.0902467,27.07415 18.0902467,26.846 C18.0902467,26.61785 18.1019018,26.39375 18.1245265,26.171 L18.1245265,26.171 L17.7474483,26.171 C17.1811454,26.171 16.7190532,25.715375 16.7190532,25.1585 C16.7190532,24.601625 17.1811454,24.146 17.7474483,24.146 L17.7474483,24.146 L18.6640912,24.146 C19.721967,21.76325 22.1352676,20.096 24.9462143,20.096 Z" id="mortgage" fill="#0071B3"></path>
    </g>
</svg>