<?xml version="1.0" encoding="UTF-8"?>
<svg width="48px" height="48px" viewBox="0 0 48 48" version="1.1" xmlns="http://www.w3.org/2000/svg" xmlns:xlink="http://www.w3.org/1999/xlink">
    <title>Move</title>
    <g id="Move" stroke="none" stroke-width="1" fill="none" fill-rule="evenodd">
        <path d="M45.8999,24.6188 C45.9589,24.4618 45.9939,24.2948 45.9969,24.1188 C45.9969,24.1128 45.9989,24.1068 45.9989,24.0998 L45.9989,24.0988 L45.9989,24.0978 C45.9989,24.0908 45.9969,24.0848 45.9969,24.0788 C45.9939,23.9028 45.9589,23.7358 45.8999,23.5788 C45.8899,23.5518 45.8819,23.5258 45.8709,23.4988 C45.8039,23.3478 45.7109,23.2118 45.6009,23.0918 C45.5849,23.0738 45.5789,23.0498 45.5619,23.0328 C45.5509,23.0218 45.5369,23.0188 45.5259,23.0088 L34.9549,12.4378 C34.3719,11.8538 33.4179,11.8538 32.8339,12.4378 C32.2509,13.0208 32.2509,13.9758 32.8339,14.5588 L40.8739,22.5988 L19.4999,22.5988 C19.4989,22.5988 19.4979,22.5988 19.4969,22.5988 L7.1249,22.5988 L15.1649,14.5588 C15.7479,13.9758 15.7479,13.0208 15.1649,12.4378 C14.5819,11.8548 13.6269,11.8548 13.0439,12.4378 L2.4719,23.0088 C2.4619,23.0188 2.4469,23.0218 2.4369,23.0328 C2.4199,23.0498 2.4139,23.0738 2.3969,23.0918 C2.2879,23.2118 2.1949,23.3478 2.1289,23.4978 C2.1169,23.5258 2.1089,23.5518 2.0989,23.5798 C2.0399,23.7358 2.0039,23.9038 2.0019,24.0788 C2.0019,24.0848 1.9999,24.0908 1.9999,24.0978 L1.9999,24.0988 L1.9999,24.1008 C1.9999,24.1068 2.0019,24.1128 2.0019,24.1188 C2.0039,24.2948 2.0399,24.4618 2.0989,24.6188 C2.1089,24.6458 2.1169,24.6728 2.1289,24.7008 C2.1949,24.8508 2.2879,24.9858 2.3969,25.1058 C2.4139,25.1238 2.4199,25.1478 2.4369,25.1658 C2.4469,25.1758 2.4619,25.1788 2.4719,25.1888 L13.0439,35.7608 C13.6269,36.3438 14.5819,36.3438 15.1649,35.7608 C15.7479,35.1768 15.7479,34.2228 15.1649,33.6388 L7.1249,25.5988 L28.4999,25.5988 L28.5019,25.5988 L40.8739,25.5988 L32.8339,33.6388 C32.2509,34.2218 32.2509,35.1768 32.8339,35.7598 C33.4179,36.3438 34.3719,36.3438 34.9549,35.7598 L45.5259,25.1888 C45.5369,25.1788 45.5509,25.1758 45.5619,25.1648 C45.5789,25.1478 45.5849,25.1238 45.6009,25.1058 C45.7109,24.9858 45.8039,24.8498 45.8709,24.6988 C45.8819,24.6718 45.8899,24.6458 45.8999,24.6188" id="move" fill="#0071B3"></path>
    </g>
</svg>