<?xml version="1.0" encoding="UTF-8"?>
<svg width="48px" height="48px" viewBox="0 0 48 48" version="1.1" xmlns="http://www.w3.org/2000/svg" xmlns:xlink="http://www.w3.org/1999/xlink">
    <title>Navigate</title>
    <g id="Navigate" stroke="none" stroke-width="1" fill="none" fill-rule="evenodd">
        <path d="M37.9,15.52 C37.9643228,15.3540878 37.9981983,15.1779355 38,15 L38,15 L38,15 L38,15 C37.9958446,14.8288031 37.9620092,14.6596261 37.9,14.5 L37.9,14.42 C37.8250186,14.2637177 37.7235163,14.1216145 37.6,14 L37.6,13.94 L37.6,13.94 L27,3.34 C26.4089805,2.78928228 25.4879806,2.80553225 24.9167564,3.3767564 C24.3455322,3.94798056 24.3292823,4.86898049 24.88,5.46 L32.88,13.46 L24.5,13.46 C20.6490554,13.4653007 16.9579416,15.0001679 14.2386634,17.7269476 C11.5193851,20.4537274 9.99469202,24.1490555 9.99998619,28 L9.99998619,28 C9.99998619,28 9.99998619,28 9.99998619,28.07 L9.99998619,45.5 C9.99998619,46.3284271 10.6715729,47 11.5,47 C12.3284271,47 13,46.3284271 13,45.5 L13,28.07 C13,28.07 13,28.07 13,28 L13,28 C13.0055137,21.6510106 18.1510106,16.5055137 24.5,16.5 L32.88,16.5 L24.88,24.5 C24.2835325,25.0854218 24.2745782,26.0435325 24.86,26.64 C25.4454219,27.2364675 26.4035325,27.2454218 27,26.66 L37.53,16.09 L37.53,16.09 L37.53,16.03 C37.6417621,15.9089762 37.7329672,15.7704796 37.8,15.62 L37.9,15.52 Z" id="navigate" fill="#0071B3"></path>
    </g>
</svg>