<?xml version="1.0" encoding="UTF-8"?>
<svg width="48px" height="48px" viewBox="0 0 48 48" version="1.1" xmlns="http://www.w3.org/2000/svg" xmlns:xlink="http://www.w3.org/1999/xlink">
    <title>Emo / Neutral</title>
    <g id="Emo-/-Neutral" stroke="none" stroke-width="1" fill="none" fill-rule="evenodd">
        <path d="M24,7 C33.384,7.00971429 40.9902857,14.616 41,24 C41,33.3888571 33.3888571,41 24,41 C14.6111429,41 7,33.3888571 7,24 C7,14.6111429 14.6111429,7 24,7 Z M24,38 C31.728,37.9903448 37.9903448,31.728 38,24 C38,16.2681379 31.7318621,10 24,10 C16.2681379,10 10,16.2681379 10,24 C10,31.7318621 16.2681379,38 24,38 Z M19.5,24 C18.672,24 18,23.328 18,22.5 L18,19.5 C18,18.672 18.672,18 19.5,18 C20.328,18 21,18.672 21,19.5 L21,22.5 C21,23.328 20.328,24 19.5,24 Z M28.5,24 C27.672,24 27,23.328 27,22.5 L27,19.5 C27,18.672 27.672,18 28.5,18 C29.328,18 30,18.672 30,19.5 L30,22.5 C30,23.328 29.328,24 28.5,24 Z M28.9169191,29.1762323 L28.9354731,29.186172 C29.3844798,28.9197881 29.9346058,28.9406615 30.3641307,29.2398463 C30.7964388,29.5380372 31.0385685,30.067823 30.9949666,30.6155002 C30.9522924,31.1641715 30.6313083,31.6422708 30.1600368,31.8599502 C28.2396983,32.91157 26.1189767,33.4731628 23.9630024,33.5 C21.8079559,33.4761447 19.6890897,32.910576 17.7752451,31.8500105 C17.0859642,31.4852236 16.8039435,30.590651 17.1444093,29.8521316 C17.4848751,29.1136122 18.3198048,28.8114454 19.0090858,29.1762323 C22.1020367,30.9594137 25.8239682,30.9594137 28.9169191,29.1762323 L28.9169191,29.1762323 Z" id="Color" fill="#0071B3"></path>
    </g>
</svg>