<?xml version="1.0" encoding="UTF-8"?>
<svg width="48px" height="48px" viewBox="0 0 48 48" version="1.1" xmlns="http://www.w3.org/2000/svg" xmlns:xlink="http://www.w3.org/1999/xlink">
    <title>Newspaper</title>
    <g id="Newspaper" stroke="none" stroke-width="1" fill="none" fill-rule="evenodd">
        <path d="M41,7 C42.6568542,7 44,8.34314575 44,10 L44,37 C44,38.6568542 42.6568542,40 41,40 L7,40 C5.34314575,40 4,38.6568542 4,37 L4,10 C4,8.34314575 5.34314575,7 7,7 L41,7 Z M41,10 L7,10 L7,37 L41,37 L41,10 Z M36.5,31 C37.3284271,31 38,31.6715729 38,32.5 C38,33.3284271 37.3284271,34 36.5,34 L11.5,34 C10.6715729,34 10,33.3284271 10,32.5 C10,31.6715729 10.6715729,31 11.5,31 L36.5,31 Z M36.5,25 C37.3284271,25 38,25.6715729 38,26.5 C38,27.3284271 37.3284271,28 36.5,28 L11.5,28 C10.6715729,28 10,27.3284271 10,26.5 C10,25.6715729 10.6715729,25 11.5,25 L36.5,25 Z M23.5,13 C24.3284271,13 25,13.6715729 25,14.5 L25,20.5 C25,21.3284271 24.3284271,22 23.5,22 L11.5,22 C10.6715729,22 10,21.3284271 10,20.5 L10,14.5 C10,13.6715729 10.6715729,13 11.5,13 L23.5,13 Z M36.5,19 C37.3284271,19 38,19.6715729 38,20.5 C38,21.3284271 37.3284271,22 36.5,22 L29.5,22 C28.6715729,22 28,21.3284271 28,20.5 C28,19.6715729 28.6715729,19 29.5,19 L36.5,19 Z M36.5,13 C37.3284271,13 38,13.6715729 38,14.5 C38,15.3284271 37.3284271,16 36.5,16 L29.5,16 C28.6715729,16 28,15.3284271 28,14.5 C28,13.6715729 28.6715729,13 29.5,13 L36.5,13 Z" id="newspaper" fill="#0071B3"></path>
    </g>
</svg>