<?xml version="1.0" encoding="UTF-8"?>
<svg width="48px" height="48px" viewBox="0 0 48 48" version="1.1" xmlns="http://www.w3.org/2000/svg" xmlns:xlink="http://www.w3.org/1999/xlink">
    <title>Not Found House</title>
    <g id="Not-Found-House" stroke="none" stroke-width="1" fill="none" fill-rule="evenodd">
        <path d="M34.769995,22.94 L37.769995,26.27 L37.769995,41.6 C37.769995,42.4284271 37.0984222,43.1 36.269995,43.1 L36.269995,43.1 L11.269995,43.1 C10.4415679,43.1 9.76999503,42.4284271 9.76999503,41.6 L9.76999503,41.6 L9.76999503,26.27 L12.769995,22.94 L12.769995,40.1 L34.769995,40.1 L34.769995,22.94 Z M17.109995,32.76 C21.2763417,30.5554402 26.2636484,30.5554402 30.429995,32.76 C30.9105173,32.9975816 31.2277898,33.4734716 31.2622992,34.0084069 C31.2968086,34.5433422 31.043312,35.0560533 30.5972992,35.3534069 C30.1512864,35.6507605 29.5805173,35.6875816 29.099995,35.45 C25.7659817,33.6561075 21.7540083,33.6561075 18.419995,35.45 C17.6770302,35.8093778 16.7833138,35.5010457 16.419995,34.76 C16.0606172,34.0170351 16.3689494,33.1233187 17.109995,32.76 Z M19.269995,22.04 C20.0984222,22.04 20.769995,22.7115729 20.769995,23.54 L20.769995,23.54 L20.769995,26.54 C20.769995,27.3684271 20.0984222,28.04 19.269995,28.04 C18.4415679,28.04 17.769995,27.3684271 17.769995,26.54 L17.769995,26.54 L17.769995,23.54 C17.769995,22.7115729 18.4415679,22.04 19.269995,22.04 Z M28.269995,22.04 C29.0984222,22.04 29.769995,22.7115729 29.769995,23.54 L29.769995,23.54 L29.769995,26.54 C29.769995,27.3684271 29.0984222,28.04 28.269995,28.04 C27.4415679,28.04 26.769995,27.3684271 26.769995,26.54 L26.769995,26.54 L26.769995,23.54 C26.769995,22.7115729 27.4415679,22.04 28.269995,22.04 Z M23.769995,5 C23.9597186,5.01306618 24.147475,5.0465941 24.329995,5.1 C24.4158091,5.15182914 24.4962111,5.21213065 24.569995,5.28 C24.6408558,5.32414891 24.7077711,5.3743354 24.769995,5.43 L24.769995,5.43 L24.889995,5.49 L42.099995,24.6 L42.109995,24.61 C42.6084238,25.2312052 42.5344662,26.1336405 41.9415476,26.6654061 C41.348629,27.1971717 40.443495,27.1728454 39.879995,26.61 L39.879995,26.61 L37.769995,24.27 L34.769995,20.94 L23.769995,8.72 L12.769995,20.94 L9.76999503,24.27 L7.66999503,26.6 C7.32231593,27.0333218 6.76360943,27.2389896 6.21795978,27.1345148 C5.67231013,27.0300401 5.22909223,26.6325352 5.06607053,26.1014303 C4.90304884,25.5703254 5.04692554,24.9926129 5.43999503,24.6 L5.43999503,24.6 L22.669995,5.48 C22.699995,5.41 22.769995,5.41 22.769995,5.41 L22.769995,5.41 L22.859995,5.27 C22.9721097,5.17925914 23.0967259,5.10516301 23.229995,5.05 L23.229995,5.05 L23.409995,5.05 C23.5275248,5.01880298 23.648412,5.00201309 23.769995,5 Z" id="not-found-page" fill="#0071B3"></path>
    </g>
</svg>