<?xml version="1.0" encoding="UTF-8"?>
<svg width="48px" height="48px" viewBox="0 0 48 48" version="1.1" xmlns="http://www.w3.org/2000/svg" xmlns:xlink="http://www.w3.org/1999/xlink">
    <title>Not Found Error</title>
    <g id="Not-Found-Error" stroke="none" stroke-width="1" fill="none" fill-rule="evenodd">
        <path d="M42.5012036,6 L5.50120361,6 C4.68435218,6 4.01754062,6.65331198 4.00120361,7.47000003 C4.00120361,7.47000003 4.00120361,7.56000003 4.00120361,7.61000003 L4.00120361,34.44 C4.00120361,34.44 4.00120361,34.44 4.00120361,34.44 C4.00120361,34.44 4.00120361,34.44 4.00120361,34.44 C3.98478472,34.8498574 4.13692595,35.2485589 4.42220962,35.5432891 C4.70749328,35.8380192 5.10102896,36.0030633 5.51120361,36 L15.8512036,36 L12.4412036,39.41 C12.4087957,39.4516159 12.3787484,39.4950174 12.3512036,39.54 C12.281553,39.6231786 12.2211951,39.7137154 12.1712036,39.81 C12.1404877,39.8681173 12.1137593,39.928256 12.0912036,39.99 C12.0381454,40.1344524 12.0077854,40.2862524 12.0012036,40.44 C12.0012036,40.44 12.0012036,40.44 12.0012036,40.44 L12.0012036,40.44 C11.9848658,40.8481153 12.1356587,41.245245 12.4187535,41.5396636 C12.7018483,41.8340822 13.0927616,42 13.5012036,42 L34.5012036,42 C34.6858448,42.0004132 34.8689545,41.966504 35.0412036,41.9 L35.0412036,41.9 C35.2239629,41.8265398 35.3904647,41.7178039 35.5312036,41.58 L35.5312036,41.58 C35.6690075,41.4392611 35.7777434,41.2727593 35.8512036,41.09 L35.8512036,41.09 C35.941275,40.9057523 35.9923406,40.704894 36.0012036,40.5 L36.0012036,40.5 C35.9996855,40.3113562 35.9623576,40.1247167 35.8912036,39.95 L35.8912036,39.95 C35.8147729,39.7664061 35.7025978,39.599843 35.5612036,39.46 L32.1212036,36 L42.5012036,36 C43.3296307,36 44.0012036,35.3284272 44.0012036,34.5 L44.0012036,7.5 C44.0012036,6.67157291 43.3296307,6 42.5012036,6 Z M7.00120361,33 L7.00120361,9.00000003 L41.0012036,9.00000003 L41.0012036,33 L7.00120361,33 Z M27.8612036,36 L30.8712036,39 L17.1012036,39 L19.8712036,36.23 C19.9215415,36.1575092 19.9650605,36.080514 20.0012036,36 L27.8612036,36 Z M17.3512036,25.66 C21.5175502,23.4554402 26.504857,23.4554402 30.6712036,25.66 L30.6712036,25.66 L30.6812036,25.66 C31.1617258,25.8975816 31.4789984,26.3734717 31.5135078,26.9084069 C31.5480172,27.4433422 31.2945206,27.9560533 30.8485078,28.253407 C30.402495,28.5507606 29.8317258,28.5875817 29.3512036,28.35 C26.0171903,26.5561075 22.0052169,26.5561075 18.6712036,28.35 C18.1868986,28.617781 17.5944943,28.5971472 17.1299943,28.2963187 C16.6654944,27.9954903 16.4043663,27.463343 16.4506391,26.9118751 C16.4969119,26.3604073 16.8430676,25.8792161 17.3512036,25.66 Z M19.5012036,14.94 C20.3296307,14.94 21.0012036,15.6115729 21.0012036,16.44 L21.0012036,16.44 L21.0012036,19.44 C21.0012036,20.2684272 20.3296307,20.94 19.5012036,20.94 C18.6727765,20.94 18.0012036,20.2684272 18.0012036,19.44 L18.0012036,19.44 L18.0012036,16.44 C18.0012036,15.6115729 18.6727765,14.94 19.5012036,14.94 Z M28.5012036,14.94 C29.3296307,14.94 30.0012036,15.6115729 30.0012036,16.44 L30.0012036,16.44 L30.0012036,19.44 C30.0012036,20.2684272 29.3296307,20.94 28.5012036,20.94 C27.6727765,20.94 27.0012036,20.2684272 27.0012036,19.44 L27.0012036,19.44 L27.0012036,16.44 C27.0012036,15.6115729 27.6727765,14.94 28.5012036,14.94 Z" id="Shape" fill="#0071B3"></path>
    </g>
</svg>