<?xml version="1.0" encoding="UTF-8"?>
<svg width="48px" height="48px" viewBox="0 0 48 48" version="1.1" xmlns="http://www.w3.org/2000/svg" xmlns:xlink="http://www.w3.org/1999/xlink">
    <title>Not Found</title>
    <g id="Not-Found" stroke="none" stroke-width="1" fill="none" fill-rule="evenodd">
        <path d="M39.15,11 L41.63,8.52 L41.63,8.52 L43.12,7 C43.5754514,6.6402007 43.7824507,6.04993346 43.6514735,5.48448102 C43.5204962,4.91902857 43.0750526,4.47988839 42.507791,4.35698276 C41.9405294,4.23407713 41.3532721,4.44946735 41,4.91 L37.91,8 L5.5,8 C4.67157288,8 4,8.67157288 4,9.5 L4,9.5 L4,37.67 L7,34.67 L7,11 L34.91,11 L8.91,37 L6.91,39 L6.01,39.9 L5.91,40 L4.91,41 C4.35928228,41.5910195 4.37553225,42.5120194 4.9467564,43.0832436 C5.51798056,43.6544678 6.43898049,43.6707177 7.03,43.12 L10.15,40 L40.5,40 C41.3284271,40 42,39.3284271 42,38.5 L42,38.5 L42,12.4 L39,15.4 L39,37 L13.15,37 L39,11.15 L39.15,11 Z" id="not-found" fill="#0071B3"></path>
    </g>
</svg>