<?xml version="1.0" encoding="UTF-8"?>
<svg width="48px" height="48px" viewBox="0 0 48 48" version="1.1" xmlns="http://www.w3.org/2000/svg" xmlns:xlink="http://www.w3.org/1999/xlink">
    <title>Not Found Page</title>
    <g id="Not-Found-Page" stroke="none" stroke-width="1" fill="none" fill-rule="evenodd">
        <path d="M27.52,3.99986648 C28.047589,4.00265183 28.5344384,4.28411158 28.8,4.74 L28.8,4.74 L38.3,14.24 C38.7330612,14.5130275 38.9969712,14.9880656 39,15.5 L39,15.5 L39,42.5 L38.9931334,42.64446 C38.9204487,43.4051119 38.2796961,44 37.5,44 L37.5,44 L10.5,44 C9.67157288,44 8.99999999,43.3284271 8.99999999,42.5 L8.99999999,42.5 L8.99999999,5.5 L9.00746478,5.35045886 C9.04213712,5.00414212 9.1964477,4.67885645 9.44638717,4.43220566 C9.73203227,4.15031904 10.1187213,3.99464914 10.52,3.99986648 L10.52,3.99986648 Z M26.82,7 L12,7 L12,41 L36,41 L36,16.18 L26.82,7 Z M17.35,30.66 C21.5163466,28.4554402 26.5036534,28.4554402 30.67,30.66 L30.67,30.66 L30.68,30.66 C31.1605222,30.8975816 31.4777948,31.3734716 31.5123042,31.9084069 C31.5468136,32.4433422 31.293317,32.9560533 30.8473042,33.2534069 C30.4012914,33.5507606 29.8305222,33.5875816 29.35,33.35 C26.0159867,31.5561075 22.0040133,31.5561075 18.67,33.35 C18.185695,33.617781 17.5932907,33.5971471 17.1287907,33.2963187 C16.6642908,32.9954903 16.4031627,32.4633429 16.4494355,31.9118751 C16.4957083,31.3604073 16.841864,30.8792161 17.35,30.66 Z M19.5,19.94 C20.3284271,19.94 21,20.6115729 21,21.44 L21,21.44 L21,24.44 C21,25.2684271 20.3284271,25.94 19.5,25.94 C18.6715729,25.94 18,25.2684271 18,24.44 L18,24.44 L18,21.44 C18,20.6115729 18.6715729,19.94 19.5,19.94 Z M28.5,19.94 C29.3284271,19.94 30,20.6115729 30,21.44 L30,21.44 L30,24.44 C30,25.2684271 29.3284271,25.94 28.5,25.94 C27.6715729,25.94 27,25.2684271 27,24.44 L27,24.44 L27,21.44 C27,20.6115729 27.6715729,19.94 28.5,19.94 Z" id="not-found-page" fill="#0071B3"></path>
    </g>
</svg>