<?xml version="1.0" encoding="UTF-8"?>
<svg width="48px" height="48px" viewBox="0 0 48 48" version="1.1" xmlns="http://www.w3.org/2000/svg" xmlns:xlink="http://www.w3.org/1999/xlink">
    <title>Not Allowed</title>
    <g id="Not-Allowed" stroke="none" stroke-width="1" fill="none" fill-rule="evenodd">
        <path d="M28.988,25 C30.544,25 32.011,25.366 33.325,26 C35.36,26.982 37.006,28.629 37.988,30.664 C38.622,31.977 38.988,33.444 38.988,35 C38.988,36.556 38.622,38.023 37.988,39.336 C37.291,40.782 36.259,42.03 34.988,42.986 C33.316,44.245 31.243,45 28.988,45 C23.466,45 18.988,40.523 18.988,35 C18.988,32.746 19.743,30.672 21.002,29 C21.958,27.729 23.206,26.698 24.652,26 C25.965,25.366 27.432,25 28.988,25 Z M26.5052,4 C27.0532,4 27.5262,4.296 27.7892,4.734 L27.7892,4.734 L37.2922,14.237 C37.7092,14.503 37.9882,14.968 37.9882,15.5 L37.9882,15.5 L37.9882,25.633 C37.0992,24.779 36.0912,24.05 34.9882,23.475 L34.9882,23.475 L34.9882,16.176 L25.8122,7 L11.0002,7 L11.0002,41 L17.4622,41 C18.0382,42.104 18.7672,43.111 19.6212,44 L19.6212,44 L9.5002,44 C8.6712,44 8.0002,43.329 8.0002,42.5 L8.0002,42.5 L8.0002,5.5 L8.00706098,5.35545044 C8.07968789,4.59438062 8.71996471,4 9.5002,4 L9.5002,4 Z M23.099,31.231 C22.399,32.321 21.988,33.612 21.988,35 C21.988,38.86 25.129,42 28.988,42 C30.376,42 31.667,41.589 32.757,40.89 L32.757,40.89 Z M28.988,28 C27.676,28 26.452,28.37 25.402,29 C25.341,29.037 25.28,29.072 25.22,29.11 L25.22,29.11 L34.878,38.768 C34.916,38.708 34.952,38.647 34.988,38.587 C35.619,37.536 35.988,36.312 35.988,35 C35.988,33.688 35.619,32.464 34.988,31.414 C34.394,30.424 33.565,29.594 32.575,29 C31.524,28.37 30.3,28 28.988,28 Z" id="Combined-Shape" fill="#0071B3"></path>
    </g>
</svg>