<?xml version="1.0" encoding="UTF-8"?>
<svg width="48px" height="48px" viewBox="0 0 48 48" version="1.1" xmlns="http://www.w3.org/2000/svg" xmlns:xlink="http://www.w3.org/1999/xlink">
    <title>Notes</title>
    <g id="Notes" stroke="none" stroke-width="1" fill="none" fill-rule="evenodd">
        <path d="M16.5,31 L21.39,31 C21.5062504,31.0139385 21.6237496,31.0139385 21.74,31 L21.85,31 C21.9870999,30.9659491 22.118488,30.9120463 22.24,30.84 L22.4,30.74 C22.4555214,30.7103026 22.5089761,30.6768934 22.56,30.64 L39.56,13.64 C40.1394575,13.0521202 40.1394575,12.1078798 39.56,11.52 L39.56,11.52 L39.56,11.52 L34.59,6.46 L34.59,6.46 C34.5071738,6.3898799 34.4165825,6.32948566 34.32,6.28 C33.7411144,5.8705813 32.9496363,5.94717596 32.46,6.46 L15.68,23.25 C15.2575431,23.5257964 15.0020293,23.9954909 15,24.5 L15,29.5 C15,30.3284271 15.6715729,31 16.5,31 L16.5,31 Z M29.5,13.65 L32.37,16.52 L20.9,28 L18,28 L18,25.17 L29.5,13.65 Z M40.5,38 C41.3284271,38 42,38.6715729 42,39.5 C42,40.3284271 41.3284271,41 40.5,41 L40.5,41 L7.5,41 C6.67157288,41 6,40.3284271 6,39.5 C6,38.6715729 6.67157288,38 7.5,38 L7.5,38 Z M33.5,9.65 L36.37,12.52 L34.49,14.4 L31.62,11.53 L33.5,9.65 Z" id="notes" fill="#0071B3"></path>
    </g>
</svg>