<?xml version="1.0" encoding="UTF-8"?>
<svg width="48px" height="48px" viewBox="0 0 48 48" version="1.1" xmlns="http://www.w3.org/2000/svg" xmlns:xlink="http://www.w3.org/1999/xlink">
    <title>Object Score</title>
    <g id="Object-Score" stroke="none" stroke-width="1" fill="none" fill-rule="evenodd">
        <path d="M24,4 C35.0320187,4.03294801 43.967052,12.9679813 44,24 C44,35.045695 35.045695,44 24,44 C12.954305,44 4,35.045695 4,24 C4,12.954305 12.954305,4 24,4 Z M24.3169733,11.75 L23.7715177,11.75 L23.6774736,11.7940443 L23.5081943,11.8758409 C23.4652745,11.9100378 23.4254153,11.9479343 23.3890718,11.9890976 C23.3145559,12.0784229 23.2571623,12.1808211 23.2197924,12.2911157 L20.4235486,20.4456029 L12.1100524,20.4456029 L12.0473563,20.5085233 L11.9658515,20.5462755 L11.8843466,20.5903198 L11.8153809,20.6406562 L11.7401457,20.7035766 L11.6774496,20.7790811 L11.5834056,20.9175061 L11.5019007,21.0118867 L11.5019007,21.0873912 L11.5019007,21.0873912 C11.5,21.1209235 11.5,21.1545316 11.5019007,21.1880639 C11.4993664,21.2907933 11.4993664,21.3307241 11.5019007,21.3705331 C11.4996566,21.4648802 11.4996566,21.5026996 11.5019007,21.5404183 L11.5019007,21.6159228 L11.5019007,21.6159228 C11.5003427,21.6473636 11.5003427,21.6788626 11.5019007,21.7103034 L11.5395183,21.7858079 L11.5896752,21.8738965 L11.639832,21.943109 L11.7025281,22.0186135 L11.7714937,22.0815339 L11.8279202,22.1318703 L18.3169613,26.9075306 L15.7652321,34.8543804 L15.7652321,34.9361769 L15.7652321,34.9361769 C15.6949572,35.2048159 15.7478346,35.4909139 15.909433,35.7163902 C16.0562611,35.9195844 16.2776916,36.0557135 16.5247645,36.0946782 C16.7718373,36.1336429 17.0241989,36.0722333 17.2260501,35.9240276 L23.9596058,31.0099424 L30.7245096,35.9429038 C30.9263607,36.0911094 31.1787224,36.152519 31.4257952,36.1135543 C31.672868,36.0745896 31.8942986,35.9384605 32.0411267,35.7352664 C32.2027251,35.50979 32.2556024,35.2236921 32.1853276,34.9550531 L32.1853276,34.8732565 L32.1853276,34.8732565 L29.6022503,26.9075306 L36.1289091,22.1507464 L36.2543012,22.0374896 L36.3044581,21.9745692 L36.3671541,21.8927727 L36.4047717,21.8235602 L36.448659,21.7291795 L36.448659,21.653675 L36.448659,21.653675 C36.4504201,21.6201407 36.4504201,21.5865366 36.448659,21.5530024 L36.448659,21.3894092 L36.448659,21.3894092 C36.4988158,21.3705331 36.4988158,21.3076127 36.4988158,21.2824445 C36.5003947,21.2510043 36.5003947,21.2195041 36.4988158,21.1880639 C36.488469,21.0824577 36.4759062,21.0467357 36.4611982,21.0118867 C36.4429092,20.9224014 36.4219612,20.88456 36.3985021,20.8482936 L36.2856492,20.7224527 L36.2229532,20.6721164 L36.1414483,20.609196 L36.0662131,20.5714437 L35.8718553,20.5085233 L27.4455062,20.5085233 L24.8686985,12.347744 C24.8313286,12.1808211 24.773935,12.0784229 24.6994192,11.9890976 C24.6630756,11.9479343 24.6232165,11.9100378 24.5802967,11.8758409 L24.4549046,11.7940443 L24.3169733,11.75 Z" id="object-score" fill="#0071B3"></path>
    </g>
</svg>