<?xml version="1.0" encoding="UTF-8"?>
<svg width="48px" height="48px" viewBox="0 0 48 48" version="1.1" xmlns="http://www.w3.org/2000/svg" xmlns:xlink="http://www.w3.org/1999/xlink">
    <title>Office</title>
    <g id="Office" stroke="none" stroke-width="1" fill="none" fill-rule="evenodd">
        <path d="M42.5001737,16.022748 L29.0001737,16.022748 L29.0001737,8.52274803 C29.0069537,8.07548607 28.8137676,7.64853561 28.4733241,7.35838489 C28.1328806,7.06823417 27.6807071,6.94516233 27.2401737,7.02274803 L5.24017373,10.902748 C4.51455143,11.0303688 3.98903637,11.6660725 4,12.402748 L4,41.022748 L44.0001737,41.022748 L44.0001737,17.522748 C44.0001737,16.6943209 43.3286009,16.022748 42.5001737,16.022748 Z M19.0001737,38.022748 L14.0001737,38.022748 L14.0001737,30.022748 L19.0001737,30.022748 L19.0001737,38.022748 Z M26.0001737,38.022748 L22.0001737,38.022748 L22.0001737,28.522748 C22.0001737,27.6943209 21.3286009,27.022748 20.5001737,27.022748 L12.5001737,27.022748 C11.6717466,27.022748 11.0001737,27.6943209 11.0001737,28.522748 L11.0001737,38.022748 L7.00017373,38.022748 L7.00017373,13.662748 L26.0001737,10.312748 L26.0001737,38.022748 Z M41.0001737,38.022748 L29.0001737,38.022748 L29.0001737,19.022748 L41.0001737,19.022748 L41.0001737,38.022748 Z" id="office" fill="#0071B3"></path>
    </g>
</svg>