<?xml version="1.0" encoding="UTF-8"?>
<svg width="48px" height="48px" viewBox="0 0 48 48" version="1.1" xmlns="http://www.w3.org/2000/svg" xmlns:xlink="http://www.w3.org/1999/xlink">
    <title>Ordered</title>
    <g id="Ordered" stroke="none" stroke-width="1" fill="none" fill-rule="evenodd">
        <path d="M17.5,32 C18.3284271,32 19,32.6715729 19,33.5 L19,33.5 L19,40.5 C19,41.3284271 18.3284271,42 17.5,42 C16.6715729,42 16,41.3284271 16,40.5 L16,40.5 L16,33.5 C16,32.6715729 16.6715729,32 17.5,32 Z M11.5,32 C12.3284271,32 13,32.6715729 13,33.5 L13,33.5 L13,40.5 C13,41.3284271 12.3284271,42 11.5,42 C10.6715729,42 10,41.3284271 10,40.5 L10,40.5 L10,33.5 C10,32.6715729 10.6715729,32 11.5,32 Z M5.5,32 C6.32842712,32 7,32.6715729 7,33.5 L7,33.5 L7,40.5 C7,41.3284271 6.32842711,42 5.5,42 C4.67157289,42 4,41.3284271 4,40.5 L4,40.5 L4,33.5 C4,32.6715729 4.67157288,32 5.5,32 Z M42.63,35.5 C43.3917501,35.5881058 43.9665065,36.2331716 43.9665065,37 C43.9665065,37.7668284 43.3917501,38.4118942 42.63,38.5 L42.63,38.5 L24.37,38.5 C23.6082499,38.4118942 23.0334935,37.7668284 23.0334935,37 C23.0334935,36.2331716 23.6082499,35.5881058 24.37,35.5 L24.37,35.5 Z M11.5,19 C12.3284271,19 13,19.6715729 13,20.5 L13,20.5 L13,27.5 C13,28.3284271 12.3284271,29 11.5,29 C10.6715729,29 10,28.3284271 10,27.5 L10,27.5 L10,20.5 C10,19.6715729 10.6715729,19 11.5,19 Z M5.5,19 C6.32842712,19 7,19.6715729 7,20.5 L7,20.5 L7,27.5 C7,28.3284271 6.32842711,29 5.5,29 C4.67157289,29 4,28.3284271 4,27.5 L4,27.5 L4,20.5 C4,19.6715729 4.67157288,19 5.5,19 Z M42.55,22.5 C43.3784271,22.5 44.05,23.1715729 44.05,24 C44.05,24.8284271 43.3784271,25.5 42.55,25.5 L42.55,25.5 L18.45,25.5 C17.6215729,25.5 16.95,24.8284271 16.95,24 C16.95,23.1715729 17.6215729,22.5 18.45,22.5 L18.45,22.5 Z M5.5,6 C6.32842712,6 7,6.67157288 7,7.5 L7,7.5 L7,14.5 C7,15.3284271 6.32842711,16 5.5,16 C4.67157289,16 4,15.3284271 4,14.5 L4,14.5 L4,7.5 C4,6.67157288 4.67157288,6 5.5,6 Z M42.5,9.5 C43.3284271,9.5 44,10.1715729 44,11 C44,11.8284271 43.3284271,12.5 42.5,12.5 L42.5,12.5 L12.5,12.5 C11.6715729,12.5 11,11.8284271 11,11 C11,10.1715729 11.6715729,9.5 12.5,9.5 L12.5,9.5 Z" id="Color" fill="#0071B3"></path>
    </g>
</svg>