<?xml version="1.0" encoding="UTF-8"?>
<svg width="48px" height="48px" viewBox="0 0 48 48" version="1.1" xmlns="http://www.w3.org/2000/svg" xmlns:xlink="http://www.w3.org/1999/xlink">
    <title>Overview</title>
    <g id="Overview" stroke="none" stroke-width="1" fill="none" fill-rule="evenodd">
        <path d="M42.5,26 C43.3284271,26 44,26.6715729 44,27.5 L44,40.5 L43.9998676,40.5198667 C43.9999558,40.5265673 44,40.5332785 44,40.54 C44,41.3684271 43.3284271,42.04 42.5,42.04 L27.5,42.04 C26.6715729,42.04 26,41.3684271 26,40.54 L26,27.51 L26,27.51 C26,26.6815729 26.6715729,26.01 27.5,26.01 L42.3353493,26.0089333 C42.3894212,26.0030298 42.4443568,26 42.5,26 Z M20.5,25.97 C21.3284271,25.97 22,26.6415729 22,27.47 L22,40.47 L21.9998789,40.4907392 C21.9999595,40.4971499 22,40.5035702 22,40.51 C22,41.3384271 21.3284271,42.01 20.5,42.01 L5.5,42.01 C4.67157288,42.01 4,41.3384271 4,40.51 L4,27.48 L4,27.48 C4,26.6515729 4.67157288,25.98 5.5,25.98 L20.3283013,25.9797196 C20.3846456,25.9732989 20.4419375,25.97 20.5,25.97 Z M41,29.009 L29,29.009 L29,39.04 L41,39.04 L41,29.009 Z M19,28.98 L7,28.98 L7,39.009 L19,39.009 L19,28.98 Z M42.5,5.96 C43.3284271,5.96 44,6.63157288 44,7.46 L44,20.46 L43.9997181,20.4706252 C43.9999058,20.4803942 44,20.4901861 44,20.5 C44,21.3284271 43.3284271,22 42.5,22 L27.5,22 C26.6715729,22 26,21.3284271 26,20.5 L26,7.47 L26,7.47 C26,6.64157288 26.6715729,5.97 27.5,5.97 L42.3283013,5.96971964 C42.3846456,5.96329895 42.4419375,5.96 42.5,5.96 Z M20.5,5.93 C21.3284271,5.93 22,6.60157288 22,7.43 L22,20.43 L21.9998676,20.4498667 C21.9999558,20.4565673 22,20.4632785 22,20.47 C22,21.2984271 21.3284271,21.97 20.5,21.97 L5.5,21.97 C4.67157288,21.97 4,21.2984271 4,20.47 L4,7.44 L4,7.44 C4,6.61157288 4.67157288,5.94 5.5,5.94 L20.3353493,5.93893332 C20.3894212,5.93302976 20.4443568,5.93 20.5,5.93 Z M41,18.999 L41,8.97 L29,8.97 L29,18.999 L41,18.999 Z M19,8.939 L7,8.939 L7,18.97 L19,18.97 L19,8.939 Z" id="overview" fill="#0071B3"></path>
    </g>
</svg>