<?xml version="1.0" encoding="UTF-8"?>
<svg width="48px" height="48px" viewBox="0 0 48 48" version="1.1" xmlns="http://www.w3.org/2000/svg" xmlns:xlink="http://www.w3.org/1999/xlink">
    <title>Pause</title>
    <g id="Pause" stroke="none" stroke-width="1" fill="none" fill-rule="evenodd">
        <path d="M18.5,5.9999 C18.618,5.9999 18.732,6.0179 18.842,6.0429 C19.472,6.1909 19.943,6.7339 19.989,7.3959 C19.992,7.4309 20,7.4639 20,7.4999 L20,7.4999 L20,40.5009 C20,41.3299 19.328,42.0009 18.5,42.0009 L18.5,42.0009 L11.5,42.0009 L11.475625,41.998775 L11.475625,41.998775 L11.452,41.9959 C10.663,41.9709 10.03,41.3379 10.005,40.5489 C10.004,40.5329 10,40.5179 10,40.5009 L10,40.5009 L10,7.4999 C10,7.4859 10.004,7.4739 10.004,7.4589 C10.026,6.6669 10.66,6.0309 11.452,6.0049 C11.468,6.0049 11.483,6.0009 11.5,6.0009 L11.5,6.0009 Z M36.5,5.9999 C36.618,5.9999 36.732,6.0169 36.842,6.0429 C37.473,6.1909 37.946,6.7369 37.99,7.4019 L37.99,7.4019 L38,7.4999 L38,40.5009 C38,41.3289 37.328,42.0009 36.5,42.0009 L36.5,42.0009 L29.5,42.0009 L29.4805,41.999275 L29.4805,41.999275 L29.461,41.9969 C28.665,41.9759 28.026,41.3379 28.004,40.5419 C28.004,40.5279 28,40.5149 28,40.5009 L28,40.5009 L28,7.4999 C28,7.4859 28.004,7.4729 28.004,7.4589 C28.026,6.6669 28.659,6.0319 29.45,6.0049 L29.45,6.0049 L29.5,5.9999 Z M17,9.0009 L12.999,9.0009 L12.999,39.0009 L17,39.0009 L17,9.0009 Z M35,8.9999 L30.999,8.9999 L30.999,38.9999 L35,38.9999 L35,8.9999 Z" id="pause" fill="#0071B3"></path>
    </g>
</svg>