<?xml version="1.0" encoding="UTF-8"?>
<svg width="48px" height="48px" viewBox="0 0 48 48" version="1.1" xmlns="http://www.w3.org/2000/svg" xmlns:xlink="http://www.w3.org/1999/xlink">
    <title>Pencil</title>
    <g id="Pencil" stroke="none" stroke-width="1" fill="none" fill-rule="evenodd">
        <path d="M14.9427374,41.5493566 L41.4580291,14.5605775 C42.0349793,13.9733247 42.0308089,13.0308089 41.4486847,12.4486847 L36.0700881,7.07008808 C35.4843016,6.48430164 34.5345542,6.48430164 33.9487677,7.07008808 C33.945639,7.07321679 33.9425242,7.07635933 33.9394233,7.07951561 L7.42999535,34.0623262 C7.1544133,34.3428293 7,34.7203318 7,35.1135588 L7,40.4825174 L7,40.4825174 C7,41.3109445 7.67157288,41.9825174 8.5,41.9825174 C8.60267659,41.9825174 10.3920897,41.9877147 13.8682393,41.9981093 C14.2722229,41.9993287 14.6596156,41.8375341 14.9427374,41.5493566 Z M31,14 L34.5006419,17.5 L13,39 L10,38.9825174 L10,36 L31,14 Z M35,10 L38.5,13.5025174 L36.5,15.5 L33,12 L35,10 Z" id="Color" fill="#0071B3"></path>
    </g>
</svg>