<?xml version="1.0" encoding="UTF-8"?>
<svg width="48px" height="48px" viewBox="0 0 48 48" version="1.1" xmlns="http://www.w3.org/2000/svg" xmlns:xlink="http://www.w3.org/1999/xlink">
    <title>Percentage</title>
    <g id="Percentage" stroke="none" stroke-width="1" fill="none" fill-rule="evenodd">
        <path d="M33,5.55 C33.4086736,4.85655099 34.2942107,4.61302829 35,5 C35.689009,5.41206088 35.931424,6.29357006 35.55,7 L35.55,7 L15.05,42.5 C14.7820508,42.9644453 14.2866769,43.2508331 13.7504809,43.2508331 C13.2142849,43.2508331 12.7187277,42.9651065 12.4504809,42.500833 C12.1822341,42.0365596 12.1820508,41.4644453 12.45,41 L12.45,41 Z M32,26.5 C36.1421356,26.5 39.5,29.8578644 39.5,34 C39.5,38.1421356 36.1421356,41.5 32,41.5 C27.8578644,41.5 24.5,38.1421356 24.5,34 C24.5,29.8578644 27.8578644,26.5 32,26.5 Z M32,29.5 C29.5147186,29.5 27.5,31.5147186 27.5,34 C27.5,36.4852814 29.5147186,38.5 32,38.5 C34.4829999,38.4945005 36.4945005,36.4829999 36.5,34 C36.5,31.5147186 34.4852814,29.5 32,29.5 Z M16,6.5 C20.1421356,6.5 23.5,9.85786438 23.5,14 C23.5,18.1421356 20.1421356,21.5 16,21.5 C11.8578644,21.5 8.5,18.1421356 8.5,14 C8.5,9.85786438 11.8578644,6.5 16,6.5 Z M16,9.5 C13.5147186,9.5 11.5,11.5147186 11.5,14 C11.5054995,16.4829999 13.5170001,18.4945005 16,18.5 C18.4852814,18.5 20.5,16.4852814 20.5,14 C20.5,11.5147186 18.4852814,9.5 16,9.5 Z" fill="#0071B3"></path>
    </g>
</svg>