<?xml version="1.0" encoding="UTF-8"?>
<svg width="48px" height="48px" viewBox="0 0 48 48" version="1.1" xmlns="http://www.w3.org/2000/svg" xmlns:xlink="http://www.w3.org/1999/xlink">
    <title>Phone</title>
    <g id="Phone" stroke="none" stroke-width="1" fill="none" fill-rule="evenodd">
        <path d="M42,40.88 L42,31.2 L32,29.2 L28.37,31.3 C22.59,28.3 19.83,25.53 16.77,19.76 L19,16 L17,6 L7.11,6 C6.55771525,6 6.11,6.44771525 6.11,7 L6.11,7 C6,7.86 6,8.72 6,9.58 C6,27.4850716 20.5149284,42 38.42,42 C39.29,42 40.14,42 40.99,41.88 L40.99,41.88 C41.5422847,41.88 41.99,41.4322847 41.99,40.88 L41.99,40.88 L42,40.88 Z M39,38 L39,39 L38.42,39 C22.1786371,38.9834637 9.01653627,25.8213629 9,9.58 C9,9.39 9,9.2 9,9 L14.53,9 L15.82,15.46 L14.18,18.22 C13.6449897,19.1205716 13.6184561,20.2349866 14.11,21.16 C17.44,27.42 20.68,30.65 27,34 C27.912742,34.4797052 29.0078805,34.4570472 29.9,33.94 L32.55,32.41 L39,33.66 L39,38 Z" id="phone" fill="#0071B3"></path>
    </g>
</svg>