<?xml version="1.0" encoding="UTF-8"?>
<svg width="48px" height="48px" viewBox="0 0 48 48" version="1.1" xmlns="http://www.w3.org/2000/svg" xmlns:xlink="http://www.w3.org/1999/xlink">
    <title>Piggy</title>
    <g id="Piggy" stroke="none" stroke-width="1" fill="none" fill-rule="evenodd">
        <path d="M40.2880099,6.42324857 L38.4157307,13.4106896 C39.7987928,14.5937536 40.946819,15.9564482 41.799868,17.4505873 L42.25,17.4505873 C44.3210678,17.4505873 46,19.1295195 46,21.2005873 L46,28.7735438 C46,30.8446116 44.3210678,32.5235438 42.25,32.5235438 L39.981102,32.5235438 C39.1097834,33.4972339 38.0975558,34.3839779 36.9684187,35.1644827 L37.5419526,37.3049401 C38.0779844,39.305438 36.8908,41.3617016 34.8903021,41.8977334 L31.2680803,42.8683048 C29.2675824,43.4043366 27.2113188,42.2171523 26.675287,40.2166544 L26.2834395,38.7542595 C25.7776983,38.7871678 25.266286,38.8039424 24.75,38.8039424 C22.3582435,38.8039424 20.0710821,38.4439398 17.9677912,37.7876633 L16.7359638,39.9212508 C15.7004299,41.7148481 13.4069659,42.32938 11.6133686,41.2938461 L8.3657733,39.4188461 C6.57217596,38.3833122 5.95764413,36.0898481 6.99317804,34.2962508 L8.63884241,31.4458765 C7.04590969,29.3007454 6.09709911,26.8107395 6.00705106,24.148406 C3.66564614,22.8378966 2.17114258,20.3548329 2.17114258,17.6044922 C2.17114258,14.5131576 4.05905259,11.7730214 6.88017321,10.6414175 C7.64905156,10.3330061 8.52236745,10.7062883 8.83077884,11.4751666 C9.13919023,12.244045 8.76590801,13.1173609 7.99702966,13.4257723 C6.30407739,14.1048469 5.17114258,15.7492026 5.17114258,17.6044922 C5.17114258,18.7747792 5.62151651,19.8638737 6.38454877,20.6794534 C8.14020344,13.8173191 15.6956116,8.65802931 24.75,8.65802931 C26.1800847,8.65802931 27.5727755,8.78673425 28.9111261,9.03052123 C31.9408518,6.42689888 36.1515498,5.31488741 40.2880099,6.42324857 Z M36.4878355,9.01458273 C34.4352474,9.13952534 32.4615477,9.93499758 30.8664055,11.3057976 L29.7812048,12.2383746 L28.3735081,11.9819559 C27.1961813,11.7675002 25.9831221,11.6580293 24.75,11.6580293 C15.9250812,11.6580293 9,17.2250398 9,23.7309858 C9,25.8245345 9.70401729,27.8482702 11.0473927,29.6573337 L12.2221757,31.2393612 L9.59125425,35.7962508 C9.38414747,36.1549703 9.50705383,36.6136631 9.8657733,36.8207698 L13.1133686,38.6957698 C13.472088,38.9028766 13.9307808,38.7799703 14.1378876,38.4212508 L16.5699197,34.2088476 L18.8613732,34.9238352 C20.7151061,35.5022437 22.7032287,35.8039424 24.75,35.8039424 C25.1989373,35.8039424 25.6453884,35.7894328 26.0886436,35.7605905 L28.5443018,35.6008026 L29.5730645,39.4401972 C29.6802709,39.8402968 30.0915236,40.0777337 30.4916232,39.9705273 L34.113845,38.9999559 C34.5139446,38.8927495 34.7513814,38.4814968 34.6441751,38.0813972 L33.5234566,33.8988189 L35.2625702,32.6966738 C36.2010707,32.0479446 37.0348459,31.3171721 37.7455174,30.5230035 L38.6398961,29.5235438 L42.25,29.5235438 C42.6642136,29.5235438 43,29.1877574 43,28.7735438 L43,21.2005873 C43,20.7863737 42.6642136,20.4505873 42.25,20.4505873 L40.0581468,20.4505873 L39.1945795,18.9380251 C38.5215903,17.7592661 37.6001821,16.660896 36.465655,15.6904275 L35.0284573,14.4610562 L36.4878355,9.01458273 Z M34,18 C35.1045695,18 36,18.8954305 36,20 C36,21.1045695 35.1045695,22 34,22 C32.8954305,22 32,21.1045695 32,20 C32,18.8954305 32.8954305,18 34,18 Z" id="piggy" fill="#0071B3"></path>
    </g>
</svg>