<?xml version="1.0" encoding="UTF-8"?>
<svg width="48px" height="48px" viewBox="0 0 48 48" version="1.1" xmlns="http://www.w3.org/2000/svg" xmlns:xlink="http://www.w3.org/1999/xlink">
    <title>Pills</title>
    <g id="Pills" stroke="none" stroke-width="1" fill="none" fill-rule="evenodd">
        <path d="M36.3480762,24.2631397 L34.0980762,28.160254 L38.4282032,30.660254 L40.6782032,26.7631397 C41.3685592,25.5674082 40.9588713,24.0384321 39.7631397,23.3480762 C38.5674082,22.6577203 37.0384321,23.0674082 36.3480762,24.2631397 Z M30.3480762,34.6554446 C29.6577203,35.8511761 30.0674082,37.3801521 31.2631397,38.0705081 C32.4588713,38.760864 33.9878473,38.3511761 34.6782032,37.1554446 L36.9282032,33.2583302 L32.5980762,30.7583302 L30.3480762,34.6554446 Z M25.3212822,9.38314441 L26.4859679,13.7298106 L31.3155971,12.4357154 L30.1509114,8.08904918 C29.7935568,6.75538392 28.4227144,5.9639277 27.0890492,6.32128223 C25.7553839,6.67863676 24.9639277,8.04947915 25.3212822,9.38314441 Z M28.4271108,20.9742543 C28.7844653,22.3079196 30.1553077,23.0993758 31.4889729,22.7420213 C32.8226382,22.3846667 33.6140944,21.0138244 33.2567399,19.6801591 L32.0920542,15.3334929 L27.2624251,16.6275881 L28.4271108,20.9742543 Z M3.65091554,22.2746205 C5.16969861,19.6440111 8.53344583,18.7426977 11.1640553,20.2614808 L21.5563601,26.2614808 C24.1869695,27.7802638 25.0882829,31.1440111 23.5694998,33.7746205 C22.0507168,36.4052299 18.6869695,37.3065433 16.0563601,35.7877602 L5.66405526,29.7877602 C3.03344583,28.2689772 2.13213248,24.9052299 3.65091554,22.2746205 Z M7.16405526,27.189684 L11.0611696,29.439684 L13.5611696,25.109557 L9.66405526,22.859557 C8.46832371,22.1692011 6.93934769,22.5788889 6.24899175,23.7746205 C5.55863582,24.9703521 5.96832371,26.4993281 7.16405526,27.189684 Z M33.0486888,7.31259204 L36.1545174,18.903702 C36.2939422,19.4240425 36.353878,19.9469555 36.3417682,20.4595482 C37.8809355,19.7996264 39.7012601,19.8482484 41.2631397,20.75 C43.8937491,22.2687831 44.7950625,25.6325303 43.2762794,28.2631397 L37.2762794,38.6554446 C35.7574964,41.286054 32.3937491,42.1873673 29.7631397,40.6685843 C27.1325303,39.1498012 26.2312169,35.786054 27.75,33.1554446 L32.0597332,25.6907677 C29.1917006,26.3439895 26.2971505,24.6162442 25.5293333,21.7507115 L22.4235047,10.1596015 C21.6373248,7.22553797 23.3785285,4.20968471 26.312592,3.42350475 C29.2466556,2.63732478 32.2625089,4.37852848 33.0486888,7.31259204 Z M16.1592458,26.609557 L20.0563601,28.859557 C21.2520917,29.5499129 21.6617796,31.0788889 20.9714236,32.2746205 C20.2810677,33.4703521 18.7520917,33.8800399 17.5563601,33.189684 L17.5563601,33.189684 L13.6592458,30.939684 L16.1592458,26.609557 Z" id="pills" fill="#0071B3"></path>
    </g>
</svg>