<?xml version="1.0" encoding="UTF-8"?>
<svg width="48px" height="48px" viewBox="0 0 48 48" version="1.1" xmlns="http://www.w3.org/2000/svg" xmlns:xlink="http://www.w3.org/1999/xlink">
    <title>Pin</title>
    <g id="Pin" stroke="none" stroke-width="1" fill="none" fill-rule="evenodd">
        <path d="M23.8262,12.5 C20.5122,12.5 17.8262,15.187 17.8262,18.5 C17.8262,21.814 20.5122,24.5 23.8262,24.5 C27.1392,24.5 29.8262,21.814 29.8262,18.5 C29.8262,15.187 27.1402,12.5 23.8262,12.5 M23.8262,5 C31.4502,5 37.6522,11.202 37.6522,18.826 C37.6522,29.852 25.4462,43.145 24.9262,43.706 C24.6422,44.012 24.2432,44.186 23.8262,44.186 C23.4092,44.186 23.0102,44.012 22.7262,43.706 C22.2062,43.145 10.0002,29.852 10.0002,18.826 C10.0002,11.202 16.2022,5 23.8262,5 Z M23.8262,8 C17.8562,8 13.0002,12.856 13.0002,18.826 C13.0002,26.868 20.8732,36.92 23.8262,40.407 C26.7792,36.92 34.6522,26.868 34.6522,18.826 C34.6522,12.856 29.7952,8 23.8262,8 Z M23.8262,15.5 C25.4802,15.5 26.8262,16.846 26.8262,18.5 C26.8262,20.154 25.4802,21.5 23.8262,21.5 C22.1722,21.5 20.8262,20.154 20.8262,18.5 C20.8262,16.846 22.1722,15.5 23.8262,15.5 Z" id="Fill-4" fill="#0071B3"></path>
    </g>
</svg>