<?xml version="1.0" encoding="UTF-8"?>
<svg width="48px" height="48px" viewBox="0 0 48 48" version="1.1" xmlns="http://www.w3.org/2000/svg" xmlns:xlink="http://www.w3.org/1999/xlink">
    <title>Social Media / Pinterest</title>
    <g id="Social-Media-/-Pinterest" stroke="none" stroke-width="1" fill="none" fill-rule="evenodd">
        <path d="M25.4202,4 C14.5042,4 9.0002,11.826 9.0002,18.353 C9.0002,22.304 10.4962,25.82 13.7052,27.13 C14.2312,27.345 14.7022,27.138 14.8552,26.555 C14.9612,26.152 15.2122,25.135 15.3242,24.711 C15.4782,24.135 15.4192,23.933 14.9942,23.431 C14.0692,22.339 13.4782,20.926 13.4782,18.925 C13.4782,13.119 17.8222,7.921 24.7902,7.921 C30.9592,7.921 34.3492,11.691 34.3492,16.726 C34.3492,23.351 31.4182,28.942 27.0652,28.942 C24.6612,28.942 22.8622,26.954 23.4392,24.516 C24.1292,21.605 25.4672,18.464 25.4672,16.363 C25.4672,14.482 24.4582,12.914 22.3692,12.914 C19.9122,12.914 17.9382,15.456 17.9382,18.861 C17.9382,21.029 18.6702,22.497 18.6702,22.497 C18.6702,22.497 16.1562,33.15 15.7152,35.016 C14.8372,38.732 15.5832,43.287 15.6472,43.747 C15.6832,44.02 16.0342,44.085 16.1922,43.879 C16.4192,43.583 19.3462,39.97 20.3402,36.36 C20.6222,35.338 21.9572,30.045 21.9572,30.045 C22.7552,31.567 25.0882,32.909 27.5692,32.909 C34.9552,32.909 39.9662,26.175 39.9662,17.162 C39.9652,10.347 34.1932,4 25.4202,4" id="pinterest" fill="#0071B3"></path>
    </g>
</svg>