<?xml version="1.0" encoding="UTF-8"?>
<svg width="48px" height="48px" viewBox="0 0 48 48" version="1.1" xmlns="http://www.w3.org/2000/svg" xmlns:xlink="http://www.w3.org/1999/xlink">
    <title>Plus Circle</title>
    <g id="Plus-Circle" stroke="none" stroke-width="1" fill="none" fill-rule="evenodd">
        <path d="M24,4 C29.3043298,4 34.3914081,6.10713681 38.1421356,9.85786438 C41.8928632,13.6085919 44,18.6956702 44,24 C44,35.045695 35.045695,44 24,44 C12.954305,44 4,35.045695 4,24 C4,12.954305 12.954305,4 24,4 Z M24,7 C14.6111593,7 7,14.6111593 7,24 C7,33.3888407 14.6111593,41 24,41 C33.3888407,41 41,33.3888407 41,24 C41,14.6111593 33.3888407,7 24,7 Z M35.5,22.5 L25.5,22.5 L25.5,12.5 C25.5,11.6715729 24.8284271,11 24,11 C23.1715729,11 22.5,11.6715729 22.5,12.5 L22.5,22.5 L12.5,22.5 C11.6715729,22.5 11,23.1715729 11,24 C11,24.8284271 11.6715729,25.5 12.5,25.5 L22.5,25.5 L22.5,35.5 C22.5,36.3284271 23.1715729,37 24,37 C24.8284271,37 25.5,36.3284271 25.5,35.5 L25.5,25.5 L35.5,25.5 C36.3284271,25.5 37,24.8284271 37,24 C37,23.1715729 36.3284271,22.5 35.5,22.5 Z" id="Color" fill="#0071B3"></path>
    </g>
</svg>