<?xml version="1.0" encoding="UTF-8"?>
<svg width="48px" height="48px" viewBox="0 0 48 48" version="1.1" xmlns="http://www.w3.org/2000/svg" xmlns:xlink="http://www.w3.org/1999/xlink">
    <title>Performance / Poor</title>
    <g id="Performance-/-Poor" stroke="none" stroke-width="1" fill="none" fill-rule="evenodd">
        <path d="M24,44 C35.045695,44 44,35.045695 44,24 C44,12.954305 35.045695,4 24,4 C12.954305,4 4,12.954305 4,24 C4,35.045695 12.954305,44 24,44 Z M18.5437448,21.7331926 L21.326307,18.4918046 L23.7021428,26.3611279 C23.7967647,26.674327 24.0682075,26.9014414 24.3931727,26.9391478 C24.717317,26.9776205 25.0350583,26.8183668 25.1985807,26.5351031 L26.8483618,23.6841329 L30.9907647,28.3131628 C31.1529737,28.4943618 31.3774065,28.586521 31.602715,28.586521 C31.7975409,28.586521 31.9931329,28.5175658 32.1499787,28.3773021 C32.4877498,28.0751031 32.5165906,27.5561329 32.214118,27.2180881 L27.3168195,21.7454513 C27.1415309,21.5498593 26.8844812,21.4480135 26.6209737,21.4763618 C26.3593817,21.5033419 26.1263568,21.6540583 25.9946304,21.88172 L24.7264016,24.0731827 L22.4652175,16.5833319 C22.3786404,16.2963469 22.1421677,16.0793568 21.8489986,16.0173518 C21.5542424,15.9564414 21.2517697,16.0582324 21.0564513,16.2858941 L17.2980085,20.6637299 C17.002705,21.0076304 17.0422722,21.5260533 17.3861727,21.8213021 C17.7303468,22.116113 18.2479488,22.0775857 18.5437448,21.7331926 L18.5437448,21.7331926 Z M32.980597,31.965393 L15.741791,31.965393 L15.741791,15.8208955 C15.741791,15.3675423 15.3742488,15 14.9208955,15 C14.4675423,15 14.1,15.3675423 14.1,15.8208955 L14.1,32.7860697 L14.1,32.7861791 L14.1,32.7862886 C14.1,33.2396418 14.4675423,33.6071841 14.9208955,33.6071841 L32.980597,33.6071841 C33.4339502,33.6071841 33.8014925,33.2396418 33.8014925,32.7862886 C33.8014925,32.3329353 33.4339502,31.965393 32.980597,31.965393 L32.980597,31.965393 Z" id="performance-poor" fill="#0071B3"></path>
    </g>
</svg>