<?xml version="1.0" encoding="UTF-8"?>
<svg width="48px" height="48px" viewBox="0 0 48 48" version="1.1" xmlns="http://www.w3.org/2000/svg" xmlns:xlink="http://www.w3.org/1999/xlink">
    <title>Present</title>
    <g id="Present" stroke="none" stroke-width="1" fill="none" fill-rule="evenodd">
        <path d="M42.5,7.0002 C43.328,7.0002 44,7.6712 44,8.5002 C44,9.3282 43.328,10.0002 42.5,10.0002 L42.5,10.0002 L40,10.0002 L40.0005,29.496325 L40.0005,29.496325 C40.001,30.3282 39.329,31.0002 38.501,31.0002 L38.501,31.0002 L25.5,31.0002 L25.5,38.0002 L30.5,38.0002 C31.328,38.0002 32,38.6712 32,39.5002 C32,40.3292 31.328,41.0002 30.5,41.0002 L30.5,41.0002 L17.5,41.0002 C16.672,41.0002 16,40.3292 16,39.5002 C16,38.6712 16.672,38.0002 17.5,38.0002 L17.5,38.0002 L22.5,38.0002 L22.5,31.0002 L9.5,31.0002 C8.672,31.0002 8,30.3282 8,29.5002 L8,29.5002 L8,10.0002 L5.5,10.0002 C4.672,10.0002 4,9.3282 4,8.5002 C4,7.6712 4.672,7.0002 5.5,7.0002 L5.5,7.0002 Z M37,10.0002 L11,10.0002 L11,28.0002 L37,28.0002 L37,10.0002 Z M32.5002,12.9998 C33.3282,12.9998 34.0002,13.6708 34.0002,14.4998 C34.0002,15.3288 33.3282,15.9998 32.5002,15.9998 L32.5002,15.9998 L15.5002,15.9998 C14.6712,15.9998 14.0002,15.3288 14.0002,14.4998 C14.0002,13.6708 14.6712,12.9998 15.5002,12.9998 L15.5002,12.9998 Z" id="present" fill="#0071B3"></path>
    </g>
</svg>