<?xml version="1.0" encoding="UTF-8"?>
<svg width="48px" height="48px" viewBox="0 0 48 48" version="1.1" xmlns="http://www.w3.org/2000/svg" xmlns:xlink="http://www.w3.org/1999/xlink">
    <title>Price m2</title>
    <g id="Price-m2" stroke="none" stroke-width="1" fill="none" fill-rule="evenodd">
        <path d="M20.85,28 L27.09,28 C27.9184271,28 28.59,27.3284271 28.59,26.5 C28.59,25.6715729 27.9184271,25 27.09,25 L19.67,25 C19.5633333,24.3376 19.5633333,23.6624 19.67,23 L27.09,23 C27.9184271,23 28.59,22.3284271 28.59,21.5 C28.59,20.6715729 27.9184271,20 27.09,20 L20.85,20 C21.9860209,18.3751764 23.7577593,17.3082837 25.7252562,17.0642531 C27.6927531,16.8202224 29.6714515,17.4219447 31.17,18.72 L32.09,15.65 C29.6272514,14.029605 26.5749979,13.5784406 23.7487745,14.4170539 C20.9225512,15.2556672 18.6103607,17.2986005 17.43,20 L16.09,20 C15.2615729,20 14.59,20.6715729 14.59,21.5 C14.59,22.3284271 15.2615729,23 16.09,23 L16.64,23 C16.64,23.33 16.59,23.66 16.59,24 C16.59,24.34 16.59,24.67 16.64,25 L16.09,25 C15.2615729,25 14.59,25.6715729 14.59,26.5 C14.59,27.3284271 15.2615729,28 16.09,28 L17.43,28 C18.6103607,30.7013995 20.9225512,32.7443328 23.7487745,33.5829461 C26.5749979,34.4215594 29.6272514,33.970395 32.09,32.35 L31.17,29.28 C29.8998979,30.3855326 28.2738489,30.9961885 26.59,31 C24.3012809,30.9985079 22.1578393,29.8782422 20.85,28 Z M40.5,34.26 L40.5,13.75 C42.7747401,13.0495713 44.240424,10.8427358 44.0038307,8.47438892 C43.7672374,6.10604207 41.8939579,4.23276259 39.5256111,3.9961693 C37.1572642,3.75957601 34.9504287,5.22525986 34.25,7.5 L13.75,7.5 C13.0495713,5.22525986 10.8427358,3.75957601 8.47438892,3.9961693 C6.10604207,4.23276259 4.23276259,6.10604207 3.9961693,8.47438892 C3.75957601,10.8427358 5.22525986,13.0495713 7.5,13.75 L7.5,34.26 C5.22295685,34.9593721 3.755445,37.1679754 3.99293162,39.538133 C4.23041823,41.9082905 6.10695478,43.7818246 8.47748961,44.0155157 C10.8480244,44.2492067 13.054275,42.7781601 13.75,40.5 L34.25,40.5 C34.945725,42.7781601 37.1519756,44.2492067 39.5225104,44.0155157 C41.8930452,43.7818246 43.7695818,41.9082905 44.0070684,39.538133 C44.244555,37.1679754 42.7770432,34.9593721 40.5,34.26 L40.5,34.26 Z M34.26,37.5 L13.75,37.5 C13.2644912,35.9518076 12.0496813,34.7407355 10.5,34.26 L10.5,13.75 C12.0465646,13.258288 13.258288,12.0465646 13.75,10.5 L34.25,10.5 C34.741712,12.0465646 35.9534354,13.258288 37.5,13.75 L37.5,34.26 C35.9513854,34.7389592 34.7389592,35.9513854 34.26,37.5 Z M39,7 C40.1045695,6.93924868 41.0492487,7.7854305 41.11,8.89 C41.1707513,9.9945695 40.3245695,10.9392487 39.22,11 L38.78,11 C37.8408474,10.9012968 37.0987032,10.1591526 37,9.22 L37,8.78 C37.1126302,7.76213013 37.9759365,6.99378753 39,7 Z M9,7 C10.0309561,6.9948335 10.896916,7.77419741 11,8.8 L11,9.24 C10.8925217,10.1713548 10.1525097,10.903052 9.22,11 L8.78,11 C7.67543052,10.9392487 6.82924872,9.99456949 6.89000004,8.89 C6.95075136,7.78543052 7.89543052,6.9392487 9,7 L9,7 Z M9,41 C7.8954305,41.0607513 6.95075132,40.2145695 6.89,39.11 C6.82924868,38.0054305 7.6754305,37.0607513 8.78,37 L9.22,37 C10.1591526,37.0987032 10.9012968,37.8408474 11,38.78 L11,39.22 C10.8873698,40.2378699 10.0240635,41.0062125 9,41 Z M39,41 C37.9690439,41.0051665 37.103084,40.2258026 37,39.2 L37,38.76 C37.1083535,37.8252998 37.8536021,37.0925414 38.79,37 L39.22,37 C40.3245695,37.0607513 41.1707513,38.0054305 41.11,39.11 C41.0492487,40.2145695 40.1045695,41.0607513 39,41 Z" id="Price_m2" fill="#0071B3"></path>
    </g>
</svg>