<?xml version="1.0" encoding="UTF-8"?>
<svg width="48px" height="48px" viewBox="0 0 48 48" version="1.1" xmlns="http://www.w3.org/2000/svg" xmlns:xlink="http://www.w3.org/1999/xlink">
    <title>Printer</title>
    <g id="Printer" stroke="none" stroke-width="1" fill="none" fill-rule="evenodd">
        <path d="M34.5,6 C35.3284271,6 36,6.67157288 36,7.5 L36,7.5 L36,16 L42.5,16 C43.3284271,16 44,16.6715729 44,17.5 L44,17.5 L44,32.5 C44,33.3284271 43.3284271,34 42.5,34 L42.5,34 L36,34 L36,40.5 C36,41.3284271 35.3284271,42 34.5,42 L34.5,42 L13.5,42 C12.6715729,42 12,41.3284271 12,40.5 L12,40.5 L12,34 L5.5,34 C4.67157288,34 4,33.3284271 4,32.5 L4,32.5 L4,17.5 C4,16.6715729 4.67157288,16 5.5,16 L5.5,16 L12,16 L12,7.5 C12,6.67157288 12.6715729,6 13.5,6 L13.5,6 Z M33,28 L15,28 L15,39 L33,39 L33,28 Z M41,19 L7,19 L7,31 L12,31 L12,26.5 C12,25.6715729 12.6715729,25 13.5,25 L13.5,25 L34.5,25 C34.7997798,25.0001916 35.0925308,25.090805 35.34,25.26 C35.7519021,25.5384143 35.9990916,26.002831 36,26.5 L36,26.5 L36,31 L41,31 L41,19 Z M38.5,20 C39.3284271,20 40,20.6715729 40,21.5 C40,22.3284271 39.3284271,23 38.5,23 C37.6715729,23 37,22.3284271 37,21.5 C37,20.6715729 37.6715729,20 38.5,20 Z M33,9 L15,9 L15,16 L33,16 L33,9 Z" id="printer" fill="#0071B3"></path>
    </g>
</svg>