<?xml version="1.0" encoding="UTF-8"?>
<svg width="48px" height="48px" viewBox="0 0 48 48" version="1.1" xmlns="http://www.w3.org/2000/svg" xmlns:xlink="http://www.w3.org/1999/xlink">
    <title>Question</title>
    <g id="Question" stroke="none" stroke-width="1" fill="none" fill-rule="evenodd">
        <path d="M24,4 C29.3043298,4 34.3914081,6.10713681 38.1421356,9.85786438 C41.8928632,13.6085919 44,18.6956702 44,24 C44,35.045695 35.045695,44 24,44 C12.954305,44 4,35.045695 4,24 C4,12.954305 12.954305,4 24,4 Z M24,7 C14.6111593,7 7,14.6111593 7,24 C7,33.3888407 14.6111593,41 24,41 C28.5086803,41 32.8326968,39.2089337 36.0208153,36.0208153 C39.2089337,32.8326968 41,28.5086803 41,24 C41,14.6111593 33.3888407,7 24,7 Z M24,13 C20.4124325,13.0055066 17.5055066,15.9124325 17.5,19.5 C17.5,20.3284271 18.1715729,21 19,21 C19.8284271,21 20.5,20.3284271 20.5,19.5 C20.5,17.5670034 22.0670034,16 24,16 C25.9329966,16 27.5,17.5670034 27.5,19.5 C27.5,21.4329966 25.9329966,23 24,23 C23.1715729,23 22.5,23.6715729 22.5,24.5 L22.5,28.5 C22.5,29.3284271 23.1715729,30 24,30 C24.8284271,30 25.5,29.3284271 25.5,28.5 L25.5,25.82 C28.6992925,25.0510779 30.8193786,22.0126979 30.4369953,18.7445949 C30.054612,15.476492 27.2903832,13.0095996 24,13 Z M24,35 C24.8284271,35 25.5,34.3284271 25.5,33.5 C25.5,32.6715729 24.8284271,32 24,32 C23.1715729,32 22.5,32.6715729 22.5,33.5 C22.5,34.3284271 23.1715729,35 24,35 Z" id="Color" fill="#0071B3"></path>
    </g>
</svg>