<?xml version="1.0" encoding="UTF-8"?>
<svg width="48px" height="48px" viewBox="0 0 48 48" version="1.1" xmlns="http://www.w3.org/2000/svg" xmlns:xlink="http://www.w3.org/1999/xlink">
    <title>Refresh</title>
    <g id="Refresh" stroke="none" stroke-width="1" fill="none" fill-rule="evenodd">
        <path d="M38.002144,24 C38.0439935,30.9616116 32.9952856,36.9102625 26.119488,38.0007648 C19.2436904,39.0912671 12.6021261,34.9966947 10.4878799,28.3637654 C8.37363372,21.7308362 11.420544,14.5480625 17.6590981,11.4583652 C23.8976523,8.36866784 31.4575691,10.2983196 35.452144,16 L28.502144,16 C27.6737168,16 27.002144,16.6715729 27.002144,17.5 C27.002144,18.3284271 27.6737168,19 28.502144,19 L38.502144,19 C39.3305711,19 40.002144,18.3284271 40.002144,17.5 L40.002144,17.5 L40.002144,7.5 C40.002144,6.67157288 39.3305711,6 38.502144,6 C37.6737168,6 37.002144,6.67157288 37.002144,7.5 L37.002144,13.08 C31.6860542,6.77126592 22.6078041,5.18995354 15.4717286,9.32968335 C8.33565312,13.4694132 5.20182573,22.1351098 8.03939253,29.8816672 C10.8769593,37.6282246 18.8667591,42.2193325 26.9883868,40.7701601 C35.1100144,39.3209876 41.0188829,32.2498883 41.0021794,24 L38.002144,24 Z" id="refresh" fill="#0071B3"></path>
    </g>
</svg>