<?xml version="1.0" encoding="UTF-8"?>
<svg width="48px" height="48px" viewBox="0 0 48 48" version="1.1" xmlns="http://www.w3.org/2000/svg" xmlns:xlink="http://www.w3.org/1999/xlink">
    <title>RemoveBold</title>
    <g id="RemoveBold" stroke="none" stroke-width="1" fill="none" fill-rule="evenodd">
        <path d="M24,4 C35.045695,4 44,12.954305 44,24 C44,35.045695 35.045695,44 24,44 C12.954305,44 4,35.045695 4,24 C4,12.954305 12.954305,4 24,4 Z M16.7358416,15.1125517 C15.9386415,15.3161426 15.3161426,15.9386415 15.1125517,16.7358416 L15.0757985,16.9072773 C14.9561378,17.5949654 15.1630011,18.3002006 15.6351734,18.8142891 L20.819,23.999 L15.7396699,29.0796699 C15.1567488,29.6222035 14.9089607,30.4669583 15.1125517,31.2641584 C15.3161426,32.0613585 15.9386415,32.6838574 16.7358416,32.8874483 L16.9072773,32.9242015 C17.5949654,33.0438622 18.3002006,32.8369989 18.8142891,32.3648266 L23.999,27.18 L29.0796699,32.2603301 C29.8980287,33.0776713 31.1993812,33.1397388 32.0898363,32.4142696 L32.2325865,32.2866927 L32.3557778,32.1539775 C33.1360306,31.2472495 33.096241,29.9166216 32.26066,29.08 L27.18,24 L32.2603301,18.9203301 C33.0776713,18.1019713 33.1397388,16.8006188 32.4142696,15.9101637 L32.2866927,15.7674135 L32.1539775,15.6442222 C31.2472495,14.8639694 29.9166216,14.903759 29.08,15.73934 L24,20.819 L18.9203301,15.7396699 C18.3777965,15.1567488 17.5330417,14.9089607 16.7358416,15.1125517 Z" id="Color" fill="#0071B3"></path>
    </g>
</svg>