<?xml version="1.0" encoding="UTF-8"?>
<svg width="48px" height="48px" viewBox="0 0 48 48" version="1.1" xmlns="http://www.w3.org/2000/svg" xmlns:xlink="http://www.w3.org/1999/xlink">
    <title>Result List</title>
    <g id="Result-List" stroke="none" stroke-width="1" fill="none" fill-rule="evenodd">
        <path d="M17.5,26 L5.5,26 C4.67157288,26 4,26.6715729 4,27.5 L4,27.5 L4,37.5 L4,37.5 C4,38.3284271 4.67157288,39 5.5,39 L17.5,39 C18.3284271,39 19,38.3284271 19,37.5 L19,37.5 L19,27.5 L19,27.5 C19,26.6715729 18.3284271,26 17.5,26 Z M16,36 L7,36 L7,29 L16,29 L16,36 Z M17.5,9 L5.5,9 C4.67157288,9 4,9.67157288 4,10.5 L4,10.5 L4,20.5 L4,20.5 C4,21.3284271 4.67157288,22 5.5,22 L17.5,22 C18.3284271,22 19,21.3284271 19,20.5 L19,20.5 L19,10.5 L19,10.5 C19,9.67157288 18.3284271,9 17.5,9 Z M31.02,35 C31.8484271,35 32.52,35.6715729 32.52,36.5 C32.52,37.3284271 31.8484271,38 31.02,38 L23.5,38 C22.6715729,38 22,37.3284271 22,36.5 C22,35.6715729 22.6715729,35 23.5,35 L31.02,35 Z M42.5,27 C43.3284271,27 44,27.6715729 44,28.5 C44,29.3284271 43.3284271,30 42.5,30 L23.5,30 C22.6715729,30 22,29.3284271 22,28.5 C22,27.6715729 22.6715729,27 23.5,27 L42.5,27 Z M31.02,18 C31.8484271,18 32.52,18.6715729 32.52,19.5 C32.52,20.3284271 31.8484271,21 31.02,21 L23.5,21 C22.6715729,21 22,20.3284271 22,19.5 C22,18.6715729 22.6715729,18 23.5,18 L31.02,18 Z M16,12 L16,19 L7,19 L7,12 L16,12 Z M42.5,10 C43.3284271,10 44,10.6715729 44,11.5 C44,12.3284271 43.3284271,13 42.5,13 L23.5,13 C22.6715729,13 22,12.3284271 22,11.5 C22,10.6715729 22.6715729,10 23.5,10 L42.5,10 Z" id="result-list" fill="#0071B3"></path>
    </g>
</svg>