<?xml version="1.0" encoding="UTF-8"?>
<svg width="48px" height="48px" viewBox="0 0 48 48" version="1.1" xmlns="http://www.w3.org/2000/svg" xmlns:xlink="http://www.w3.org/1999/xlink">
    <title>Arrow Simple/Right</title>
    <g id="Arrow-Simple/Right" stroke="none" stroke-width="1" fill="none" fill-rule="evenodd">
        <path d="M30.6255,23.009 L20.0545,12.437 C19.4715,11.854 18.5165,11.854 17.9335,12.437 C17.3495,13.021 17.3495,13.975 17.9335,14.559 L27.4735,24.098 L17.9335,33.638 C17.3495,34.222 17.3495,35.177 17.9335,35.76 C18.5165,36.344 19.4715,36.344 20.0545,35.76 L30.6255,25.189 C30.6365,25.178 30.6505,25.176 30.6615,25.165 C30.9545,24.872 31.0985,24.485 31.0975103,24.098 C31.0985,23.712 30.9545,23.325 30.6615,23.032 C30.6505,23.022 30.6365,23.019 30.6255,23.009 Z" id="arrow-right" fill="#0071B3"></path>
    </g>
</svg>