<?xml version="1.0" encoding="UTF-8"?>
<svg width="48px" height="48px" viewBox="0 0 48 48" version="1.1" xmlns="http://www.w3.org/2000/svg" xmlns:xlink="http://www.w3.org/1999/xlink">
    <title>Robot</title>
    <g id="Robot" stroke="none" stroke-width="1" fill="none" fill-rule="evenodd">
        <path d="M24,7 C33.384,7.00971429 40.9902857,14.616 41,24 C41,33.3888571 33.3888571,41 24,41 C14.6111429,41 7,33.3888571 7,24 C7,14.6111429 14.6111429,7 24,7 Z M24,38 C31.728,37.9903448 37.9903448,31.728 38,24 C38,16.2681379 31.7318621,10 24,10 C16.2681379,10 10,16.2681379 10,24 C10,31.7318621 16.2681379,38 24,38 Z M19.5,25 C18.672,25 18,24.328 18,23.5 L18,20.5 C18,19.672 18.672,19 19.5,19 C20.328,19 21,19.672 21,20.5 L21,23.5 C21,24.328 20.328,25 19.5,25 Z M28.5,25 C27.672,25 27,24.328 27,23.5 L27,20.5 C27,19.672 27.672,19 28.5,19 C29.328,19 30,19.672 30,20.5 L30,23.5 C30,24.328 29.328,25 28.5,25 Z M30.3641307,29.2398463 C30.7964388,29.5380372 31.0385685,30.067823 30.9949666,30.6155002 C30.9522924,31.1641715 30.6313083,31.6422708 30.1600368,31.8599502 C28.2396983,32.91157 26.1189767,33.4731628 23.9630024,33.5 C21.8079559,33.4761447 19.6890897,32.910576 17.7752451,31.8500105 C17.0859642,31.4852236 16.8039435,30.590651 17.1444093,29.8521316 C17.4848751,29.1136122 18.3198048,28.8114454 19.0090858,29.1762323 C22.1020367,30.9594137 25.8239682,30.9594137 28.9169191,29.1762323 L28.9354731,29.186172 C29.3844798,28.9197881 29.9346058,28.9406615 30.3641307,29.2398463 Z M7.07,17 C6.72076249,17.8077865 6.43021128,18.6394524 6.20050506,19.4885218 L6.07,20 L5,20 L5,29 L6.1,29 C6.30536171,29.8557489 6.57193173,30.6954029 6.89755609,31.5125001 L7.1,32 L3.5,32 C2.72030388,32 2.07955132,31.4051119 2.00686658,30.64446 L2,30.5 L2,18.5 C2,17.7203039 2.59488808,17.0795513 3.35553999,17.0068666 L3.5,17 L7.07,17 Z M40.9,17 L44.5,17 C45.2796961,17 45.9204487,17.5948881 45.9931335,18.35554 L46.0000001,18.5 L46.0000001,30.5 C46.0001538,31.2688013 45.4213058,31.9046954 44.6723273,31.9904665 L44.53,32 L40.93,32 C41.2792375,31.1922135 41.5697887,30.3605476 41.7994949,29.5114782 L41.93,29 L43,29 L43,20 L41.9,20 C41.6946383,19.1442511 41.4280683,18.3045971 41.1024439,17.4874999 L40.9,17 L44.5,17 L40.9,17 Z M24,2.5 C24.8284271,2.5 25.5,3.17157288 25.5,4 L25.5,6.08 C25,6.04 24.5,6 24,6 C23.5,6 23,6.08 22.5,6.08 L22.5,4 C22.5,3.17157288 23.1715729,2.5 24,2.5 Z" id="Color" fill="#0071B3"></path>
    </g>
</svg>