<?xml version="1.0" encoding="UTF-8"?>
<svg width="48px" height="48px" viewBox="0 0 48 48" version="1.1" xmlns="http://www.w3.org/2000/svg" xmlns:xlink="http://www.w3.org/1999/xlink">
    <title>Emo / Sad</title>
    <g id="Emo-/-Sad" stroke="none" stroke-width="1" fill="none" fill-rule="evenodd">
        <path d="M24,7 C33.384,7.00971429 40.9902857,14.616 41,24 C41,33.3888571 33.3888571,41 24,41 C14.6111429,41 7,33.3888571 7,24 C7,14.6111429 14.6111429,7 24,7 Z M24,38 C31.728,37.9903448 37.9903448,31.728 38,24 C38,16.2681379 31.7318621,10 24,10 C16.2681379,10 10,16.2681379 10,24 C10,31.7318621 16.2681379,38 24,38 Z M19.5,24 C18.672,24 18,23.328 18,22.5 L18,19.5 C18,18.672 18.672,18 19.5,18 C20.328,18 21,18.672 21,19.5 L21,22.5 C21,23.328 20.328,24 19.5,24 Z M28.5,24 C27.672,24 27,23.328 27,22.5 L27,19.5 C27,18.672 27.672,18 28.5,18 C29.328,18 30,18.672 30,19.5 L30,22.5 C30,23.328 29.328,24 28.5,24 Z M28.9169191,33.3237677 C25.8239682,31.5405863 22.1020367,31.5405863 19.0090858,33.3237677 C18.3198048,33.6885546 17.4848751,33.3863878 17.1444093,32.6478684 C16.8039435,31.909349 17.0859642,31.0147764 17.7752451,30.6499895 C19.6890897,29.589424 21.8079559,29.0238553 23.9630024,29 C26.1189767,29.0268372 28.2396983,29.58843 30.1600368,30.6400498 C30.6313083,30.8577292 30.9522924,31.3358285 30.9949666,31.8844998 C31.0385685,32.432177 30.7964388,32.9619628 30.3641307,33.2601537 C29.9346058,33.5593385 29.3844798,33.5802119 28.9354731,33.313828 L28.9169191,33.3237677 L28.9169191,33.3237677 Z" id="Color" fill="#0071B3"></path>
    </g>
</svg>