<?xml version="1.0" encoding="UTF-8"?>
<svg width="48px" height="48px" viewBox="0 0 48 48" version="1.1" xmlns="http://www.w3.org/2000/svg" xmlns:xlink="http://www.w3.org/1999/xlink">
    <title>Save</title>
    <g id="Save" stroke="none" stroke-width="1" fill="none" fill-rule="evenodd">
        <path d="M41.5605341,11.4800001 L41.5605341,11.4800001 L36.5605341,6.48000009 L36.4905341,6.41000009 C36.2192023,6.15463637 35.8630358,6.00860811 35.4905341,6 L7.50053411,6 C7.09568095,6 6.70796067,6.16337038 6.42547746,6.45338648 C6.14299425,6.74340258 5.989738,7.13529088 6.00053411,7.54000009 L6.00053411,40.5400001 C6.00053411,41.3684272 6.67210698,42.0400001 7.50053411,42.0400001 L40.5005341,42.0400001 C41.3289612,42.0400001 42.0005341,41.3684272 42.0005341,40.5400001 L42.0005341,12.5400001 C41.9990949,12.1425277 41.8409955,11.7616519 41.5605341,11.4800001 Z M33.0005341,9.04000009 L33.0005341,19.0400001 L15.0005341,19.0400001 L15.0005341,9.04000009 L33.0005341,9.04000009 Z M12.0005341,9.04000009 L12.0005341,20.5400001 C12.0005341,21.3684272 12.672107,22.0400001 13.5005341,22.0400001 L34.5005341,22.0400001 C34.8007938,22.0430334 35.0944907,21.9521272 35.3405341,21.7800001 C35.7124659,21.530527 35.9502189,21.1287703 35.9934216,20.6881553 L36.0005341,20.5400001 L36.0005341,10.1600001 L39.0005341,13.1600001 L39.0005341,39.0400001 L9.00053411,39.0400001 L9.00053411,9.04000009 L12.0005341,9.04000009 Z M29.5005341,11.0400001 C30.3289612,11.0400001 31.0005341,11.711573 31.0005341,12.5400001 L31.0005341,12.5400001 L31.0005341,15.5400001 C31.0005341,16.3684272 30.3289612,17.0400001 29.5005341,17.0400001 C28.672107,17.0400001 28.0005341,16.3684272 28.0005341,15.5400001 L28.0005341,15.5400001 L28.0005341,12.5400001 C28.0005341,11.711573 28.672107,11.0400001 29.5005341,11.0400001 Z" id="Color" fill="#0071B3"></path>
    </g>
</svg>