<?xml version="1.0" encoding="UTF-8"?>
<svg width="48px" height="48px" viewBox="0 0 48 48" version="1.1" xmlns="http://www.w3.org/2000/svg" xmlns:xlink="http://www.w3.org/1999/xlink">
    <title>Facilities / School</title>
    <g id="Facilities-/-School" stroke="none" stroke-width="1" fill="none" fill-rule="evenodd">
        <path d="M38,41 L40,41 L40,30 L38,30 L38,41 Z M35,21.74 L35,25 L13.005,25 L13.005,21.743 L13.005,16.043 L13.005,15.957 C13.028,13.772 14.808,12.001 16.998,12 L17,12 L17.002,12 L20,12 L22.74,12 L25.26,12 L28.005,12 L30.998,12 L31.002,12 C31.003,12 31.004,12 31.005,12 C33.208,12.003 35,13.795 35,16 L35,21.74 Z M35,43 L13.005,43 L13.005,28 L15.5,28 L15.5,29.5 C15.5,30.328 16.172,31 17,31 C17.828,31 18.5,30.328 18.5,29.5 L18.5,28 L35,28 L35,43 Z M20,7 C20,6.448 20.449,6 21,6 L23.141,6 L24.859,6 L27,6 C27.551,6 28,6.448 28,7 L28.005,7 L28.005,9 L20,9 L20,7 Z M8.001,41 L10.005,41 L10.005,30 L8.001,30 L8.001,41 Z M41.5,27 L38.005,27 L38.005,25 L38,25 L38,16 C38,14.501 37.526,13.115 36.722,11.977 C36.257,11.318 35.683,10.741 35.023,10.276 C33.885,9.475 32.501,9.001 31.005,9 L31.005,9 L31.005,7 L31,7 C31,6.643 30.939,6.304 30.851,5.975 C30.534,4.784 29.695,3.807 28.58,3.327 C28.095,3.118 27.562,3 27,3 L21,3 C20.44,3 19.907,3.117 19.423,3.325 C18.313,3.802 17.477,4.773 17.155,5.956 C17.065,6.291 17,6.636 17,7 L17,9 L16.998,9 C15.502,9 14.119,9.474 12.982,10.273 C12.32,10.739 11.743,11.316 11.278,11.977 C10.491,13.093 10.022,14.448 10.005,15.914 C10.004,15.942 10,15.971 10,16 C10,16.028 10.004,16.057 10.005,16.086 L10.005,25 L10.005,27 L6.5,27 C5.672,27 5,27.671 5,28.5 L5,42.5 C5,43.329 5.672,44 6.5,44 C6.502,44 6.503,44 6.504,44 L10.005,44 L10.005,44.462 C10.004,44.475 10.001,44.487 10.001,44.5 C10.001,45.329 10.672,46 11.501,46 L36.501,46 C37.329,46 38.001,45.329 38.001,44.5 C38.001,44.499 38,44.497 38,44.495 L38,44 L41.496,44 C41.497,44 41.499,44 41.5,44 C42.328,44 43,43.329 43,42.5 L43,28.5 C43,27.671 42.328,27 41.5,27 L41.5,27 Z" id="school" fill="#0071B3"></path>
    </g>
</svg>