<?xml version="1.0" encoding="UTF-8"?>
<svg width="48px" height="48px" viewBox="0 0 48 48" version="1.1" xmlns="http://www.w3.org/2000/svg" xmlns:xlink="http://www.w3.org/1999/xlink">
    <title>Share</title>
    <g id="Share" stroke="none" stroke-width="1" fill="none" fill-rule="evenodd">
        <path d="M36.0006976,31.7907508 C34.1051053,31.7923105 32.3217341,32.6895575 31.1906976,34.2107508 L17.6806976,26.4107508 C18.0762907,25.2542889 18.1042362,24.0037297 17.7606976,22.8307508 L31.4606976,14.9207508 C33.4345116,17.2082023 36.8012891,17.6711834 39.3192778,16.0014203 C41.8372666,14.3316572 42.7209036,11.0500832 41.3818236,8.3417183 C40.0427435,5.63335336 36.898713,4.34315404 34.0431693,5.33019322 C31.1876256,6.31723241 29.5114422,9.27357333 30.1306976,12.2307508 L16.2406976,20.2307508 C13.9223986,17.9145843 10.1745627,17.8869534 7.82236569,20.1686866 C5.47016865,22.4504198 5.38383355,26.1973631 7.62844111,28.5850135 C9.87304867,30.9726639 13.6181798,31.1176819 16.0406976,28.9107508 L30.0406976,37.0007508 C29.7118078,39.4769412 30.9514642,41.897845 33.1528312,43.0783833 C35.3541982,44.2589216 38.0566738,43.9520851 39.9373444,42.3080761 C41.8180149,40.6640671 42.4833792,38.0268691 41.6077287,35.6874411 C40.7320781,33.3480131 38.498629,31.7958441 36.0006976,31.7907508 L36.0006976,31.7907508 Z M36.0006976,8.01075083 C37.6575519,8.01075083 39.0006976,9.35389658 39.0006976,11.0107508 C39.0006976,12.6676051 37.6575519,14.0107508 36.0006976,14.0107508 C34.3438434,14.0107508 33.0006976,12.6676051 33.0006976,11.0107508 C33.0006976,9.35389658 34.3438434,8.01075083 36.0006976,8.01075083 Z M12.0006976,27.4907508 C10.3438434,27.4907508 9.00069761,26.1476051 9.00069761,24.4907508 C9.00069761,22.8338966 10.3438434,21.4907508 12.0006976,21.4907508 C13.6575519,21.4907508 15.0006976,22.8338966 15.0006976,24.4907508 C15.0006976,26.1476051 13.6575519,27.4907508 12.0006976,27.4907508 Z M36.0006976,40.7907508 C34.3438434,40.7907508 33.0006976,39.4476051 33.0006976,37.7907508 C33.0006976,36.1338966 34.3438434,34.7907508 36.0006976,34.7907508 C37.6575519,34.7907508 39.0006976,36.1338966 39.0006976,37.7907508 C39.0006976,39.4476051 37.6575519,40.7907508 36.0006976,40.7907508 Z" id="share" fill="#0071B3"></path>
    </g>
</svg>