<?xml version="1.0" encoding="UTF-8"?>
<svg width="48px" height="48px" viewBox="0 0 48 48" version="1.1" xmlns="http://www.w3.org/2000/svg" xmlns:xlink="http://www.w3.org/1999/xlink">
    <title>Share Alt</title>
    <defs>
        <path d="M17,18 C17.8284271,18 18.5,18.6715729 18.5,19.5 C18.5,20.3284271 17.8284271,21 17,21 L13,21 L13,36 L35,36 L35,21 L31,21 C30.1715729,21 29.5,20.3284271 29.5,19.5 C29.5,18.6715729 30.1715729,18 31,18 L35,18 C36.6568542,18 38,19.3431458 38,21 L38,36 C38,37.6568542 36.6568542,39 35,39 L13,39 C11.3431458,39 10,37.6568542 10,36 L10,21 C10,19.3431458 11.3431458,18 13,18 L17,18 Z M24.0715524,3.62158437 C24.4694449,3.63484745 24.8457439,3.80574278 25.1175564,4.09662475 L32.895731,11.8747993 C33.4815174,12.4605858 33.4815174,13.4103333 32.895731,13.9961197 C32.3099446,14.5819061 31.3601971,14.5819061 30.7744107,13.9961197 L25.5559626,8.77767164 L25.5206073,27.957387 C25.5200923,28.7850851 24.849239,29.4559384 24.0215409,29.4564534 C23.2179437,29.4358397 22.5713724,28.7892685 22.5507588,27.9856713 L22.5578299,8.70696096 L17.3393818,13.925409 C16.7535954,14.5111954 15.8038479,14.5111954 15.2180615,13.925409 C14.632275,13.3396226 14.632275,12.3898751 15.2180615,11.8040887 L22.9962361,4.02591407 C23.2868158,3.75377851 23.6736599,3.60832128 24.0715524,3.62158437 Z" id="path-1"></path>
    </defs>
    <g id="Share-Alt" stroke="none" stroke-width="1" fill="none" fill-rule="evenodd">
        <mask id="mask-2" fill="white">
            <use xlink:href="#path-1"></use>
        </mask>
        <use id="share-alt" fill="#0071B3" xlink:href="#path-1"></use>
    </g>
</svg>