<?xml version="1.0" encoding="UTF-8"?>
<svg width="48px" height="48px" viewBox="0 0 48 48" version="1.1" xmlns="http://www.w3.org/2000/svg" xmlns:xlink="http://www.w3.org/1999/xlink">
    <title>Shield</title>
    <g id="Shield" stroke="none" stroke-width="1" fill="none" fill-rule="evenodd">
        <path d="M37.95,11.2307692 C33.67665,11.2307692 31.2,10.78 31.2,6.53846154 C31.2,5.68923077 30.5056,5 29.65,5 L18.35,5 C17.4944,5 16.8,5.68923077 16.8,6.53846154 C16.8,10.78 14.32335,11.2307692 10.05,11.2307692 C9.1944,11.2307692 8.5,11.92 8.5,12.7692308 L8.5,23 C8.5,32.1792308 22.498825,42.2853846 23.0948,42.7107692 C23.365275,42.9030769 23.68225,43 24,43 C24.31775,43 24.634725,42.9030769 24.9052,42.71 C25.50195,42.2846154 39.5,32.1792308 39.5,23 L39.5,12.7692308 C39.5,11.92 38.8056,11.2307692 37.95,11.2307692 Z M36.4,23 C36.4,28.8492308 28.154775,36.3638462 24,39.5415385 C19.843675,36.3669231 11.6,28.8576923 11.6,23 L11.6,14.1976923 C16.34455,13.5215385 19.10795,12.7861538 19.789175,8.07692308 L28.21005,8.07692308 C28.891275,12.7869231 31.65545,13.5223077 36.4,14.1984615 L36.4,23 Z" id="shield" fill="#0071B3"></path>
    </g>
</svg>