<?xml version="1.0" encoding="UTF-8"?>
<svg width="48px" height="48px" viewBox="0 0 48 48" version="1.1" xmlns="http://www.w3.org/2000/svg" xmlns:xlink="http://www.w3.org/1999/xlink">
    <title>Show</title>
    <g id="Show" stroke="none" stroke-width="1" fill="none" fill-rule="evenodd">
        <path d="M24.00325,16 C28.42125,16 32.00325,19.582 32.00325,24 C32.00325,28.418 28.42125,32 24.00325,32 C19.58525,32 16.00325,28.418 16.00325,24 C16.00325,19.582 19.58525,16 24.00325,16 Z M24.00325,19 C21.24125,19 19.00325,21.239 19.00325,24 C19.00325,26.761 21.24125,29 24.00325,29 C26.76425,29 29.00325,26.761 29.00325,24 C29.00325,21.239 26.76425,19 24.00325,19 Z M24.00325,10 C12.87025,10 4.54225,18.728 2.25525,21.402 C0.96825,22.908 0.96825,25.092 2.25525,26.598 C4.54225,29.272 12.87025,38 24.00325,38 C35.13625,38 43.46325,29.272 45.75125,26.598 C47.03825,25.092 47.03825,22.908 45.75125,21.402 C43.46325,18.728 35.13625,10 24.00325,10 M24.00325,13 C33.89025,13 41.45425,20.993 43.47125,23.352 C43.79225,23.728 43.79225,24.272 43.47125,24.648 C41.45425,27.007 33.89025,35 24.00325,35 C14.11625,35 6.55225,27.007 4.53525,24.648 C4.21425,24.272 4.21425,23.728 4.53525,23.352 C6.55225,20.993 14.11625,13 24.00325,13" id="Color" fill="#0071B3"></path>
    </g>
</svg>