<?xml version="1.0" encoding="UTF-8"?>
<svg width="48px" height="48px" viewBox="0 0 48 48" version="1.1" xmlns="http://www.w3.org/2000/svg" xmlns:xlink="http://www.w3.org/1999/xlink">
    <title>Smartphone</title>
    <g id="Smartphone" stroke="none" stroke-width="1" fill="none" fill-rule="evenodd">
        <path d="M36.95,6.49 C36.689437,3.94849567 34.554797,2.01222631 32,2 L16,2 C13.445203,2.01222631 11.310563,3.94849567 11.05,6.49 C11.0244493,6.65901153 11.0077598,6.82924426 11,7 L11,41 L11,41 C11,41.16 11,41.3 11,41.45 L11.15,42.32 C11.7474651,44.5029687 13.7367803,46.0123873 16,46.0000757 L32,46.0000757 C34.594826,46.0105286 36.7664851,44.0343188 37,41.45 C37,41.3 37,41.15 37,41 L37,7 C36.9922402,6.82924426 36.9755507,6.65901153 36.95,6.49 Z M32,5 C33.0543618,5 33.9181651,5.81587779 33.9945143,6.85073766 L34,7 L34,40.93 L33.86,41.72 C33.5631515,42.4893038 32.8245856,42.9975642 32,43 L16,43 C15.1754144,42.9975642 14.4368485,42.4893038 14.14,41.72 L14,40.93 L14,7 C14,5.8954305 14.8954305,5 16,5 L32,5 Z M24,36 C22.6192881,36 21.5,37.1192881 21.5,38.5 C21.5,39.8807119 22.6192881,41 24,41 C25.3807119,41 26.5,39.8807119 26.5,38.5 C26.5,37.1192881 25.3807119,36 24,36 Z M26.5,7 L21.5,7 C20.6715729,7 20,7.67157288 20,8.5 C20,9.32842712 20.6715729,10 21.5,10 L26.5,10 C27.3284271,10 28,9.32842712 28,8.5 C28,7.67157288 27.3284271,7 26.5,7 Z" id="smartphone" fill="#0071B3"></path>
    </g>
</svg>