<?xml version="1.0" encoding="UTF-8"?>
<svg width="48px" height="48px" viewBox="0 0 48 48" version="1.1" xmlns="http://www.w3.org/2000/svg" xmlns:xlink="http://www.w3.org/1999/xlink">
    <title>Sofa</title>
    <g id="Sofa" stroke="none" stroke-width="1" fill="none" fill-rule="evenodd">
        <path d="M32.4637138,6 C35.7774223,6 38.4637138,8.6862915 38.4637138,12 C38.4637138,12.1710366 38.4564004,12.3419951 38.4417937,12.5124068 L37.6147979,22.1606911 C38.0594561,22.0556077 38.5232341,22 39,22 C42.3137085,22 45,24.6862915 45,28 C45,30.2208471 43.7934041,32.1598786 42,33.1973068 L42,43.5 C42,44.3284271 41.3284271,45 40.5,45 L34.5,45 C33.6715729,45 33,44.3284271 33,43.5 L33,42 L15,42 L15,43.5 C15,44.3284271 14.3284271,45 13.5,45 L7.5,45 C6.67157288,45 6,44.3284271 6,43.5 L6,33.1973068 C4.20659589,32.1598786 3,30.2208471 3,28 C3,24.6862915 5.6862915,22 9,22 C9.47676591,22 9.94054394,22.0556077 10.3852021,22.1606911 L9.5582063,12.5124068 C9.27521181,9.21080449 11.722277,6.30491459 15.0238793,6.02192011 C15.1942911,6.00731338 15.3652496,6 15.5362862,6 L32.4637138,6 Z M9,25 C7.34314575,25 6,26.3431458 6,28 C6,29.0850031 6.57828798,30.0660478 7.50217787,30.6004892 L9,31.4669325 L9,42 L12,42 L12,28 C12,26.3431458 10.6568542,25 9,25 Z M39,25 C37.3431458,25 36,26.3431458 36,28 L36,42 L39,42 L39,31.4669325 L40.4978221,30.6004892 C41.421712,30.0660478 42,29.0850031 42,28 C42,26.3431458 40.6568542,25 39,25 Z M33,33 L15,33 L15,39 L33,39 L33,33 Z M32.4637138,9 L15.5362862,9 C15.4507679,9 15.3652887,9.00365669 15.2800828,9.01096005 C13.6292816,9.1524573 12.405749,10.6054022 12.5472462,12.2562034 L13.5626959,24.1031156 C14.4737856,25.16931 15,26.5412602 15,28 L15,30 L33,30 L33,28 C33,26.5412602 33.5262144,25.16931 34.4373041,24.1031156 L35.4527538,12.2562034 C35.4600571,12.1709975 35.4637138,12.0855183 35.4637138,12 C35.4637138,10.3431458 34.1205681,9 32.4637138,9 Z" id="sofa" fill="#0071B3"></path>
    </g>
</svg>