<?xml version="1.0" encoding="UTF-8"?>
<svg width="48px" height="48px" viewBox="0 0 48 48" version="1.1" xmlns="http://www.w3.org/2000/svg" xmlns:xlink="http://www.w3.org/1999/xlink">
    <title>Sold</title>
    <g id="Sold" stroke="none" stroke-width="1" fill="none" fill-rule="evenodd">
        <path d="M26,36 L35.0089096,36 C36.6582294,36 38,34.6533038 38,32.9920699 L38,9.00793008 C38,7.34312337 36.6608432,6 35.0089096,6 L26,6 L26,4.0048815 C26,2.8938998 25.1045695,2 24,2 C22.8877296,2 22,2.89761602 22,4.0048815 L22,6 L12.9910904,6 C11.3417706,6 10,7.34669617 10,9.00793008 L10,32.9920699 C10,34.6568766 11.3391568,36 12.9910904,36 L22,36 L22,43 L19.4955452,43 C18.6795545,43 18,43.6715729 18,44.5 C18,45.3342028 18.6695784,46 19.4955452,46 L28.5044548,46 C29.3204455,46 30,45.3284271 30,44.5 C30,43.6657972 29.3304216,43 28.5044548,43 L26,43 L26,36 Z M12.9995727,22 L12.9910904,9 L35,9.00793008 L35,12 L12.9995727,22 Z M12.9999928,32.9920699 L12.9999928,30 L35.0001364,20 C35.0001364,20 35.0024381,33 35.0089096,33 C35.0089096,33 12.9999928,32.9977236 12.9999928,32.9920699 Z" id="sold" fill="#0071B3"></path>
    </g>
</svg>