<?xml version="1.0" encoding="UTF-8"?>
<svg width="48px" height="48px" viewBox="0 0 48 48" version="1.1" xmlns="http://www.w3.org/2000/svg" xmlns:xlink="http://www.w3.org/1999/xlink">
    <title>Sort</title>
    <g id="Sort" stroke="none" stroke-width="1" fill="none" fill-rule="evenodd">
        <path d="M16.5,33 C17.3284271,33 18,33.6715729 18,34.5 C18,35.3284271 17.3284271,36 16.5,36 L7.5,36 C6.67157288,36 6,35.3284271 6,34.5 C6,33.6715729 6.67157288,33 7.5,33 L16.5,33 Z M28.5,23 C29.3284271,23 30,23.6715729 30,24.5 C30,25.3284271 29.3284271,26 28.5,26 L7.5,26 C6.67157288,26 6,25.3284271 6,24.5 C6,23.6715729 6.67157288,23 7.5,23 L28.5,23 Z M40.5,13 C41.3284271,13 42,13.6715729 42,14.5 C42,15.3284271 41.3284271,16 40.5,16 L7.5,16 C6.67157288,16 6,15.3284271 6,14.5 C6,13.6715729 6.67157288,13 7.5,13 L40.5,13 Z" id="sort" fill="#0071B3"></path>
    </g>
</svg>