<?xml version="1.0" encoding="UTF-8"?>
<svg width="48px" height="48px" viewBox="0 0 48 48" version="1.1" xmlns="http://www.w3.org/2000/svg" xmlns:xlink="http://www.w3.org/1999/xlink">
    <title>Star</title>
    <g id="Star" stroke="none" stroke-width="1" fill="none" fill-rule="evenodd">
        <path d="M31.9986,25.2685 L29.4466,27.1225 L30.4206,30.1225 L32.8126,37.4835 L26.5516,32.9345 L23.9996,31.0805 L21.4476,32.9345 L15.1866,37.4835 L17.5776,30.1225 L18.5526,27.1225 L16.0006,25.2685 L10.1156,20.9935 L17.3896,20.9935 L20.5436,20.9935 L21.5186,17.9935 L23.9996,10.3585 L26.4796,17.9935 L27.4546,20.9935 L30.6086,20.9935 L37.8826,20.9935 L31.9986,25.2685 Z M43.9976,19.4635 C43.9966,19.4145 43.9876,19.3675 43.9826,19.3195 C43.9766,19.2685 43.9736,19.2185 43.9626,19.1685 C43.9546,19.1315 43.9396,19.0965 43.9296,19.0605 C43.9116,19.0025 43.8946,18.9435 43.8706,18.8875 C43.8576,18.8585 43.8406,18.8335 43.8256,18.8055 C43.7946,18.7455 43.7636,18.6855 43.7236,18.6295 C43.7196,18.6235 43.7166,18.6175 43.7126,18.6115 C43.6956,18.5875 43.6746,18.5705 43.6556,18.5475 C43.6156,18.4985 43.5756,18.4505 43.5306,18.4085 C43.4996,18.3785 43.4656,18.3535 43.4326,18.3265 C43.3906,18.2925 43.3486,18.2585 43.3026,18.2295 C43.2656,18.2065 43.2256,18.1865 43.1866,18.1665 C43.1396,18.1425 43.0926,18.1175 43.0436,18.0985 C43.0016,18.0815 42.9566,18.0705 42.9136,18.0585 C42.8646,18.0435 42.8156,18.0285 42.7656,18.0195 C42.7136,18.0105 42.6606,18.0075 42.6076,18.0035 C42.5716,18.0015 42.5366,17.9935 42.4996,17.9935 L29.6346,17.9935 L25.4526,5.1225 L25.4226,5.0305 C25.4186,5.0185 25.4086,5.0105 25.4046,4.9975 C25.3416,4.8235 25.2556,4.6575 25.1336,4.5165 C25.1286,4.5115 25.1236,4.5065 25.1196,4.5015 C25.0606,4.4355 24.9966,4.3735 24.9276,4.3195 C24.9166,4.3105 24.9046,4.3035 24.8936,4.2955 C24.8296,4.2475 24.7616,4.2035 24.6906,4.1665 C24.6676,4.1545 24.6416,4.1445 24.6166,4.1335 C24.5666,4.1115 24.5196,4.0845 24.4666,4.0675 C24.4536,4.0635 24.4406,4.0625 24.4276,4.0595 C24.3876,4.0475 24.3486,4.0415 24.3086,4.0335 C24.2536,4.0215 24.1996,4.0085 24.1436,4.0025 C24.0956,3.9975 24.0476,4.0005 23.9996,4.0005 C23.9516,4.0005 23.9036,3.9975 23.8556,4.0025 C23.7996,4.0085 23.7446,4.0215 23.6896,4.0335 C23.6506,4.0415 23.6106,4.0475 23.5716,4.0595 C23.5586,4.0625 23.5456,4.0635 23.5326,4.0675 C23.4786,4.0845 23.4316,4.1115 23.3816,4.1345 C23.3566,4.1445 23.3316,4.1545 23.3086,4.1665 C23.2366,4.2035 23.1696,4.2475 23.1046,4.2955 C23.0936,4.3035 23.0816,4.3105 23.0716,4.3195 C23.0026,4.3735 22.9376,4.4355 22.8796,4.5015 C22.8746,4.5065 22.8706,4.5115 22.8656,4.5165 C22.7436,4.6575 22.6566,4.8235 22.5946,4.9975 C22.5906,5.0105 22.5806,5.0185 22.5766,5.0305 L22.5456,5.1225 L18.3646,17.9935 L5.4996,17.9935 C5.4636,17.9935 5.4306,18.0015 5.3946,18.0035 C5.3396,18.0075 5.2856,18.0105 5.2326,18.0195 C5.1856,18.0285 5.1396,18.0425 5.0936,18.0565 C5.0456,18.0695 4.9986,18.0815 4.9526,18.0995 C4.9086,18.1175 4.8666,18.1395 4.8236,18.1615 C4.7796,18.1835 4.7346,18.2055 4.6926,18.2325 C4.6536,18.2575 4.6176,18.2875 4.5806,18.3165 C4.5406,18.3475 4.4996,18.3775 4.4636,18.4125 C4.4266,18.4475 4.3946,18.4885 4.3596,18.5285 C4.3356,18.5575 4.3086,18.5815 4.2856,18.6115 C4.2806,18.6195 4.2776,18.6275 4.2726,18.6345 C4.2416,18.6795 4.2176,18.7265 4.1916,18.7735 C4.1696,18.8135 4.1446,18.8515 4.1256,18.8935 C4.1086,18.9345 4.0986,18.9755 4.0846,19.0165 C4.0666,19.0685 4.0466,19.1205 4.0356,19.1755 C4.0276,19.2095 4.0266,19.2445 4.0216,19.2785 C4.0126,19.3425 4.0026,19.4055 4.0016,19.4715 C4.0016,19.4785 3.9996,19.4855 3.9996,19.4935 C3.9996,19.5235 4.0076,19.5525 4.0086,19.5815 C4.0126,19.6435 4.0166,19.7055 4.0276,19.7645 C4.0356,19.8065 4.0486,19.8475 4.0596,19.8895 C4.0736,19.9415 4.0876,19.9935 4.1076,20.0435 C4.1236,20.0835 4.1446,20.1225 4.1646,20.1625 C4.1876,20.2095 4.2116,20.2575 4.2406,20.3025 C4.2636,20.3395 4.2916,20.3725 4.3196,20.4085 C4.3516,20.4495 4.3836,20.4925 4.4196,20.5305 C4.4546,20.5655 4.4936,20.5975 4.5316,20.6295 C4.5616,20.6555 4.5856,20.6835 4.6176,20.7065 L15.0256,28.2685 L10.9256,40.8885 L10.9136,40.9255 C10.8986,40.9685 10.8946,41.0115 10.8856,41.0545 C10.7826,41.4695 10.8456,41.9215 11.1156,42.2945 C11.6026,42.9645 12.5406,43.1135 13.2106,42.6265 L23.9996,34.7885 L34.7876,42.6265 C35.4576,43.1135 36.3956,42.9645 36.8826,42.2945 C37.1536,41.9215 37.2166,41.4685 37.1136,41.0535 C37.1036,41.0105 37.0996,40.9675 37.0856,40.9255 L37.0736,40.8875 L32.9736,28.2685 L43.3806,20.7065 C43.4066,20.6875 43.4266,20.6645 43.4506,20.6445 C43.4966,20.6065 43.5436,20.5685 43.5836,20.5255 C43.6136,20.4945 43.6396,20.4585 43.6666,20.4245 C43.7006,20.3825 43.7346,20.3405 43.7636,20.2955 C43.7866,20.2595 43.8056,20.2205 43.8256,20.1815 C43.8506,20.1335 43.8756,20.0855 43.8946,20.0365 C43.9106,19.9965 43.9206,19.9545 43.9336,19.9135 C43.9486,19.8615 43.9636,19.8095 43.9736,19.7565 C43.9816,19.7095 43.9836,19.6625 43.9876,19.6145 C43.9916,19.5745 43.9996,19.5345 43.9996,19.4935 C43.9996,19.4825 43.9976,19.4735 43.9976,19.4635 L43.9976,19.4635 Z" id="star" fill="#0071B3"></path>
    </g>
</svg>