<?xml version="1.0" encoding="UTF-8"?>
<svg width="48px" height="48px" viewBox="0 0 48 48" version="1.1" xmlns="http://www.w3.org/2000/svg" xmlns:xlink="http://www.w3.org/1999/xlink">
    <title>Star Filled</title>
    <g id="Star-Filled" stroke="none" stroke-width="1" fill="none" fill-rule="evenodd">
        <path d="M43.9971,19.4638 C43.9961,19.4148 43.9881,19.3678 43.9821,19.3198 C43.9761,19.2688 43.9741,19.2188 43.9621,19.1688 C43.9541,19.1308 43.9401,19.0968 43.9291,19.0608 C43.9121,19.0028 43.8951,18.9438 43.8701,18.8878 C43.8581,18.8588 43.8401,18.8338 43.8261,18.8058 C43.7941,18.7458 43.7631,18.6858 43.7231,18.6298 C43.7191,18.6238 43.7171,18.6168 43.7131,18.6118 C43.6961,18.5878 43.6741,18.5698 43.6561,18.5478 C43.6161,18.4988 43.5761,18.4508 43.5311,18.4078 C43.5001,18.3788 43.4661,18.3538 43.4331,18.3268 C43.3901,18.2928 43.3481,18.2588 43.3031,18.2298 C43.2651,18.2058 43.2251,18.1868 43.1861,18.1668 C43.1391,18.1418 43.0921,18.1178 43.0441,18.0988 C43.0011,18.0818 42.9571,18.0708 42.9131,18.0578 C42.8641,18.0438 42.8151,18.0288 42.7651,18.0198 C42.7141,18.0108 42.6611,18.0078 42.6071,18.0038 C42.5711,18.0018 42.5371,17.9928 42.5001,17.9928 L29.6341,17.9928 L25.4531,5.1228 L25.4221,5.0308 C25.4181,5.0178 25.4091,5.0098 25.4041,4.9978 C25.3421,4.8228 25.2551,4.6578 25.1331,4.5158 C25.1291,4.5108 25.1231,4.5068 25.1191,4.5018 C25.0601,4.4348 24.9971,4.3738 24.9271,4.3188 C24.9161,4.3108 24.9041,4.3038 24.8931,4.2958 C24.8291,4.2468 24.7621,4.2038 24.6911,4.1668 C24.6671,4.1538 24.6421,4.1448 24.6171,4.1338 C24.5671,4.1108 24.5191,4.0848 24.4661,4.0678 C24.4531,4.0638 24.4401,4.0628 24.4271,4.0588 C24.3881,4.0468 24.3481,4.0418 24.3091,4.0328 C24.2541,4.0218 24.2001,4.0078 24.1431,4.0028 C24.0951,3.9978 24.0471,4.0008 23.9991,4.0008 C23.9511,4.0008 23.9041,3.9978 23.8551,4.0028 C23.7991,4.0078 23.7451,4.0218 23.6901,4.0328 C23.6501,4.0418 23.6111,4.0468 23.5711,4.0588 C23.5591,4.0628 23.5451,4.0638 23.5331,4.0678 C23.4791,4.0848 23.4321,4.1108 23.3811,4.1338 C23.3571,4.1448 23.3311,4.1538 23.3081,4.1668 C23.2371,4.2038 23.1691,4.2478 23.1051,4.2958 C23.0941,4.3038 23.0821,4.3108 23.0711,4.3188 C23.0021,4.3738 22.9381,4.4348 22.8791,4.5018 C22.8751,4.5068 22.8701,4.5108 22.8661,4.5158 C22.7431,4.6578 22.6571,4.8228 22.5941,4.9978 C22.5901,5.0098 22.5801,5.0188 22.5761,5.0308 L22.5461,5.1228 L18.3641,17.9928 L5.5001,17.9928 C5.4641,17.9928 5.4301,18.0018 5.3941,18.0038 C5.3401,18.0078 5.2851,18.0108 5.2321,18.0198 C5.1851,18.0288 5.1391,18.0428 5.0931,18.0558 C5.0451,18.0688 4.9981,18.0818 4.9531,18.0998 C4.9081,18.1168 4.8661,18.1398 4.8241,18.1608 C4.7791,18.1838 4.7341,18.2058 4.6921,18.2328 C4.6531,18.2568 4.6171,18.2878 4.5801,18.3168 C4.5401,18.3468 4.5001,18.3778 4.4641,18.4118 C4.4271,18.4478 4.3941,18.4888 4.3601,18.5278 C4.3361,18.5568 4.3081,18.5808 4.2861,18.6118 C4.2811,18.6188 4.2781,18.6278 4.2721,18.6348 C4.2411,18.6798 4.2171,18.7268 4.1911,18.7738 C4.1691,18.8138 4.1441,18.8518 4.1261,18.8938 C4.1081,18.9338 4.0981,18.9758 4.0841,19.0168 C4.0671,19.0688 4.0471,19.1208 4.0351,19.1758 C4.0281,19.2098 4.0261,19.2438 4.0211,19.2788 C4.0121,19.3418 4.0031,19.4058 4.0021,19.4718 C4.0021,19.4788 4.0001,19.4858 4.0001,19.4928 C4.0001,19.5238 4.0071,19.5518 4.0091,19.5818 C4.0131,19.6438 4.0171,19.7048 4.0271,19.7638 C4.0351,19.8068 4.0481,19.8478 4.0591,19.8888 C4.0741,19.9418 4.0881,19.9938 4.1071,20.0438 C4.1231,20.0838 4.1441,20.1228 4.1641,20.1618 C4.1881,20.2098 4.2111,20.2578 4.2401,20.3018 C4.2641,20.3388 4.2921,20.3728 4.3191,20.4078 C4.3511,20.4498 4.3831,20.4918 4.4201,20.5298 C4.4541,20.5658 4.4931,20.5978 4.5321,20.6298 C4.5611,20.6548 4.5861,20.6838 4.6181,20.7068 L15.0251,28.2688 L10.9251,40.8878 L10.9131,40.9258 C10.8991,40.9678 10.8951,41.0118 10.8851,41.0548 C10.7821,41.4688 10.8451,41.9218 11.1161,42.2948 C11.6021,42.9648 12.5401,43.1128 13.2111,42.6268 L23.9991,34.7878 L34.7881,42.6268 C35.4581,43.1128 36.3961,42.9648 36.8831,42.2948 C37.1541,41.9218 37.2171,41.4678 37.1131,41.0528 C37.1031,41.0108 37.0991,40.9678 37.0851,40.9258 L37.0731,40.8878 L32.9731,28.2688 L43.3811,20.7068 C43.4071,20.6878 43.4261,20.6648 43.4511,20.6448 C43.4971,20.6068 43.5431,20.5678 43.5841,20.5258 C43.6141,20.4938 43.6401,20.4588 43.6671,20.4248 C43.7011,20.3828 43.7351,20.3408 43.7631,20.2958 C43.7871,20.2598 43.8051,20.2198 43.8251,20.1818 C43.8501,20.1338 43.8751,20.0858 43.8951,20.0358 C43.9101,19.9968 43.9211,19.9548 43.9331,19.9138 C43.9481,19.8608 43.9641,19.8098 43.9741,19.7558 C43.9811,19.7098 43.9841,19.6618 43.9881,19.6148 C43.9911,19.5738 44.0001,19.5348 44.0001,19.4928 C44.0001,19.4828 43.9971,19.4738 43.9971,19.4638" id="star-filled" fill="#0071B3"></path>
    </g>
</svg>