<?xml version="1.0" encoding="UTF-8"?>
<svg width="48px" height="48px" viewBox="0 0 48 48" version="1.1" xmlns="http://www.w3.org/2000/svg" xmlns:xlink="http://www.w3.org/1999/xlink">
    <title>Stats Bad</title>
    <g id="Stats-Bad" stroke="none" stroke-width="1" fill="none" fill-rule="evenodd">
        <path d="M7.5,7 C8.32842712,7 9,7.67157288 9,8.5 L9,8.5 L9,38 L40.5,38 C41.3284271,38 42,38.6715729 42,39.5 C42,40.3284271 41.3284271,41 40.5,41 L40.5,41 L7.5,41 C6.67157288,41 6,40.3284271 6,39.5 L6,39.5 L6,8.5 C6,7.67157288 6.67157288,7 7.5,7 Z M20,9 C20.7155922,8.95186066 21.3651429,9.41702274 21.55,10.11 L21.55,10.11 L25.61,25.44 L29.06,20.7 C29.3294345,20.3153827 29.7654122,20.0814573 30.2348644,20.0696224 C30.7043167,20.0577875 31.1515276,20.2694475 31.44,20.64 L31.44,20.64 L38.67,28.85 C39.2222847,29.4713203 39.1663203,30.4227152 38.545,30.975 C37.9236796,31.5272847 36.9722848,31.4713203 36.42,30.85 L36.42,30.85 L30.42,24 L26.06,29.66 L25.98,29.75 L25.8889599,29.8441799 L25.8889599,29.8441799 L25.79,29.93 L25.58,30.06 L25.53,30.06 L25.31,30.14 L24.49,30.14 L24.32,30.08 L24.23,30.08 L24.04,29.97 L23.85,29.8 L23.7653081,29.6985748 L23.7653081,29.6985748 L23.69,29.59 L23.6245864,29.4727068 L23.6245864,29.4727068 L23.57,29.35 L23.57,29.23 L19.39,13.64 L14.15,19.89 L14.15,19.93 C13.6170452,20.5651275 12.6701275,20.6479548 12.035,20.115 C11.3998725,19.5820452 11.3170452,18.6351275 11.85,18 L11.85,18 L18.92,9.49 C19.1217188,9.24838122 19.3947714,9.07684819 19.7,9 L19.7,9 Z" id="stats-bad" fill="#0071B3"></path>
    </g>
</svg>