<?xml version="1.0" encoding="UTF-8"?>
<svg width="48px" height="48px" viewBox="0 0 48 48" version="1.1" xmlns="http://www.w3.org/2000/svg" xmlns:xlink="http://www.w3.org/1999/xlink">
    <title>Stats Average</title>
    <g id="Stats-Average" stroke="none" stroke-width="1" fill="none" fill-rule="evenodd">
        <path d="M7.5,7 C8.32842712,7 9,7.67157288 9,8.5 L9,8.5 L9,38 L40.5,38 C41.3284271,38 42,38.6715729 42,39.5 C42,40.3284271 41.3284271,41 40.5,41 L40.5,41 L7.5,41 C6.67157288,41 6,40.3284271 6,39.5 L6,39.5 L6,8.5 C6,7.67157288 6.67157288,7 7.5,7 Z M19.0343854,15.6688323 L19.1799113,15.6726148 C19.8141873,15.7200162 20.3484398,16.1648162 20.51,16.78 L20.51,16.78 L24.62,26.01 L38.44,29.71 C39.2408128,29.9253911 39.715391,30.7491871 39.4999999,31.55 C39.2846089,32.3508128 38.4608129,32.825391 37.66,32.61 L37.66,32.61 L23.17,28.73 L22.95,28.73 L22.82,28.67 L22.65,28.57 L22.5379477,28.4747883 C22.3952994,28.3408216 22.2802664,28.1795395 22.2,28 L22.2,28 L19.09,21 L14.39,31.61 C14.2282983,31.9783813 13.9253954,32.2663665 13.549324,32.4092737 C13.1732525,32.5521808 12.755538,32.5380302 12.39,32.37 L12.39,32.37 L12.243976,32.3048995 C11.9132608,32.1357876 11.6551404,31.8487582 11.5230208,31.4975541 C11.3720269,31.096178 11.4000461,30.6493684 11.6,30.27 L11.6,30.27 L17.7,16.57 C17.9512041,15.9856633 18.5456354,15.6252134 19.1799113,15.6726148 Z" id="stats-average" fill="#0071B3"></path>
    </g>
</svg>