<?xml version="1.0" encoding="UTF-8"?>
<svg width="48px" height="48px" viewBox="0 0 48 48" version="1.1" xmlns="http://www.w3.org/2000/svg" xmlns:xlink="http://www.w3.org/1999/xlink">
    <title>Stats Good</title>
    <g id="Stats-Good" stroke="none" stroke-width="1" fill="none" fill-rule="evenodd">
        <path d="M7.5002,7.0005 C8.3282,7.0005 9.0002,7.6715 9.0002,8.5005 L9.0002,8.5005 L9.0002,38.0005 L40.5002,38.0005 C41.3282,38.0005 42.0002,38.6715 42.0002,39.5005 C42.0002,40.3295 41.3282,41.0005 40.5002,41.0005 L40.5002,41.0005 L7.5002,41.0005 C6.6712,41.0005 6.0002,40.3295 6.0002,39.5005 L6.0002,39.5005 L6.0002,8.5005 C6.0002,7.6715 6.6712,7.0005 7.5002,7.0005 Z M30.8217,9.533 C31.3567,9.421 31.9137,9.608 32.2707,10.023 L32.2707,10.023 L39.1387,18.023 C39.6777,18.651 39.6057,19.599 38.9777,20.138 C38.3507,20.677 37.4027,20.607 36.8617,19.977 L36.8617,19.977 L31.7767,14.054 L27.4367,28.434 C27.2637,29.006 26.7677,29.421 26.1737,29.49 C25.5777,29.559 25.0017,29.269 24.7017,28.751 L24.7017,28.751 L21.6867,23.542 L14.1177,32 C13.8217,32.332 13.4117,32.5 12.9997,32.5 C12.6437,32.5 12.2867,32.374 11.9997,32.118 C11.3827,31.565 11.3297,30.617 11.8827,30 L11.8827,30 L20.8307,20 C21.1507,19.642 21.6177,19.457 22.1027,19.508 C22.5807,19.557 23.0057,19.833 23.2467,20.249 L23.2467,20.249 L25.5647,24.253 L29.6957,10.567 C29.8537,10.042 30.2857,9.646 30.8217,9.533 Z" id="stats-good" fill="#0071B3"></path>
    </g>
</svg>