<?xml version="1.0" encoding="UTF-8"?>
<svg width="48px" height="48px" viewBox="0 0 48 48" version="1.1" xmlns="http://www.w3.org/2000/svg" xmlns:xlink="http://www.w3.org/1999/xlink">
    <title>Steps</title>
    <g id="Steps" stroke="none" stroke-width="1" fill="none" fill-rule="evenodd">
        <path d="M10,32 C12.7614237,32 15,34.2385763 15,37 C15,39.7614237 12.7614237,42 10,42 C7.23857625,42 5,39.7614237 5,37 C5,34.2385763 7.23857625,32 10,32 Z M10,35 C8.8954305,35 8,35.8954305 8,37 C8,38.1045695 8.8954305,39 10,39 C11.1045695,39 12,38.1045695 12,37 C12,35.8954305 11.1045695,35 10,35 Z M41.67,35.5 C42.4508439,35.5482565 43.0455649,36.2189944 43,37 L43,37 L43.0014867,37.1365756 C42.9749537,37.8577621 42.4049119,38.4545821 41.67,38.5 L41.67,38.5 L20.33,38.5 C19.5491561,38.4517435 18.9544351,37.7810056 19,37 L19,37 L18.9985133,36.8634244 C19.0250463,36.1422379 19.5950881,35.5454179 20.33,35.5 L20.33,35.5 Z M10,19 C12.7614237,19 15,21.2385763 15,24 C15,26.7614237 12.7614237,29 10,29 C7.23857625,29 5,26.7614237 5,24 C5,21.2385763 7.23857625,19 10,19 Z M10,22 C8.8954305,22 8,22.8954305 8,24 C8,25.1045695 8.8954305,26 10,26 C11.1045695,26 12,25.1045695 12,24 C12,22.8954305 11.1045695,22 10,22 Z M41.67,22.5 C42.4508439,22.5482565 43.0455649,23.2189944 43,24 L43,24 L43.0014867,24.1365756 C42.9749537,24.8577621 42.4049119,25.4545821 41.67,25.5 L41.67,25.5 L20.33,25.5 C19.5491561,25.4517435 18.9544351,24.7810056 19,24 L19,24 L18.9985133,23.8634244 C19.0250463,23.1422379 19.5950881,22.5454179 20.33,22.5 L20.33,22.5 Z M10,6 C12.7614237,6 15,8.23857625 15,11 C15,13.7614237 12.7614237,16 10,16 C7.23857625,16 5,13.7614237 5,11 C5,8.23857625 7.23857625,6 10,6 Z M10,9 C8.8954305,9 8,9.8954305 8,11 C8,12.1045695 8.8954305,13 10,13 C11.1045695,13 12,12.1045695 12,11 C12,9.8954305 11.1045695,9 10,9 Z M41.67,9.5 C42.4508439,9.5482565 43.0455649,10.2189944 43,11 L43,11 L43.0014867,11.1365756 C42.9749537,11.8577621 42.4049119,12.4545821 41.67,12.5 L41.67,12.5 L20.33,12.5 C19.5491561,12.4517435 18.9544351,11.7810056 19,11 L19,11 L18.9985133,10.8634244 C19.0250463,10.1422379 19.5950881,9.54541788 20.33,9.5 L20.33,9.5 Z" fill="#0071B3"></path>
    </g>
</svg>