<?xml version="1.0" encoding="UTF-8"?>
<svg width="48px" height="48px" viewBox="0 0 48 48" version="1.1" xmlns="http://www.w3.org/2000/svg" xmlns:xlink="http://www.w3.org/1999/xlink">
    <title>Success Alt</title>
    <g id="Success-Alt" stroke="none" stroke-width="1" fill="none" fill-rule="evenodd">
        <path d="M24,4 C35.0320187,4.03294801 43.967052,12.9679813 44,24 C44,35.045695 35.045695,44 24,44 C12.954305,44 4,35.045695 4,24 C4,12.954305 12.954305,4 24,4 Z M32.85,18.25 C32.4531684,18.25 32.0736769,18.4126392 31.8,18.7 L20.8,29.7 L16.2,25 C15.620101,24.420101 14.679899,24.420101 14.1,25 C13.520101,25.579899 13.520101,26.520101 14.1,27.1 L19.8,32.8 C20.3935935,33.298728 21.2415696,33.3319765 21.8690808,32.8997456 L22,32.8 L34,20.8 C34.5239812,20.1825822 34.4802789,19.264834 33.9,18.7 C33.6263231,18.4126392 33.2468316,18.25 32.85,18.25 Z" id="Color" fill="#0071B3"></path>
    </g>
</svg>