<?xml version="1.0" encoding="UTF-8"?>
<svg width="48px" height="48px" viewBox="0 0 48 48" version="1.1" xmlns="http://www.w3.org/2000/svg" xmlns:xlink="http://www.w3.org/1999/xlink">
    <title>Success</title>
    <g id="Success" stroke="none" stroke-width="1" fill="none" fill-rule="evenodd">
        <path d="M24,4 C29.3043298,4 34.3914081,6.10713681 38.1421356,9.85786438 C41.8928632,13.6085919 44,18.6956702 44,24 C44,35.045695 35.045695,44 24,44 C12.954305,44 4,35.045695 4,24 C4,12.954305 12.954305,4 24,4 Z M24,7 C14.6111593,7 7,14.6111593 7,24 C7,33.3888407 14.6111593,41 24,41 C28.5086803,41 32.8326968,39.2089337 36.0208153,36.0208153 C39.2089337,32.8326968 41,28.5086803 41,24 C41,14.6111593 33.3888407,7 24,7 Z M31.79,18.66 C32.3756351,18.0750932 33.3243649,18.0750932 33.91,18.66 C34.4800523,19.2526575 34.4666713,20.1937888 33.88,20.77 L33.88,20.77 L21.88,32.77 L21.7661157,32.8728156 C21.177192,33.352622 20.3090329,33.3183501 19.76,32.77 L19.76,32.77 L14.11,27.12 C13.7086936,26.7460588 13.5435016,26.1828889 13.6792289,25.6514222 C13.8149562,25.1199554 14.2299554,24.7049562 14.7614222,24.5692289 C15.2928889,24.4335016 15.8560588,24.5986936 16.23,25 L16.23,25 L20.79,29.66 Z" id="Color" fill="#0071B3"></path>
    </g>
</svg>