<?xml version="1.0" encoding="UTF-8"?>
<svg width="48px" height="48px" viewBox="0 0 48 48" version="1.1" xmlns="http://www.w3.org/2000/svg" xmlns:xlink="http://www.w3.org/1999/xlink">
    <title>Sun</title>
    <g id="Sun" stroke="none" stroke-width="1" fill="none" fill-rule="evenodd">
        <path d="M24,15 C19.0294373,15 15,19.0294373 15,24 C15,28.9705627 19.0294373,33 24,33 C28.9705627,33 33,28.9705627 33,24 C33,19.0294373 28.9705627,15 24,15 Z M24,36 C24.8284271,36 25.5,36.6715729 25.5,37.5 L25.5,37.5 L25.5,42.5 C25.5,43.3284271 24.8284271,44 24,44 C23.1715729,44 22.5,43.3284271 22.5,42.5 L22.5,42.5 L22.5,37.5 C22.5,36.6715729 23.1715729,36 24,36 Z M32.5267564,32.5167564 C33.0979806,31.9455322 34.0189805,31.9292823 34.61,32.48 L34.61,32.48 L38.14,36 C38.5222742,36.3822742 38.6715692,36.9394509 38.5316472,37.4616472 C38.3917251,37.9838434 37.9838434,38.3917251 37.4616472,38.5316472 C36.9394509,38.6715692 36.3822742,38.5222742 36,38.14 L36,38.14 L32.49,34.6 C31.9392823,34.0089805 31.9555322,33.0879806 32.5267564,32.5167564 Z M13.42,32.48 C13.7939412,32.0786936 14.3571111,31.9135016 14.8885778,32.0492289 C15.4200446,32.1849562 15.8350438,32.5999554 15.9707711,33.1314222 C16.1064984,33.6628889 15.9413064,34.2260588 15.54,34.6 L15.54,34.6 L12,38.14 C11.6177258,38.5222742 11.0605491,38.6715692 10.5383528,38.5316472 C10.0161566,38.3917251 9.60827488,37.9838434 9.46835282,37.4616472 C9.32843076,36.9394509 9.47772582,36.3822742 9.86,36 L9.86,36 L13.39,32.49 Z M24,18 C27.3137085,18 30,20.6862915 30,24 C30,25.5912989 29.367859,27.1174224 28.2426407,28.2426407 C27.1174224,29.367859 25.5912989,30 24,30 C20.6862915,30 18,27.3137085 18,24 C18,20.6862915 20.6862915,18 24,18 Z M42.5,22.5 C43.3284271,22.5 44,23.1715729 44,24 C44,24.8284271 43.3284271,25.5 42.5,25.5 L42.5,25.5 L37.5,25.5 C36.6715729,25.5 36,24.8284271 36,24 C36,23.1715729 36.6715729,22.5 37.5,22.5 L37.5,22.5 Z M10.5,22.5 C11.3284271,22.5 12,23.1715729 12,24 C12,24.8284271 11.3284271,25.5 10.5,25.5 L10.5,25.5 L5.5,25.5 C4.67157288,25.5 4,24.8284271 4,24 C4,23.1715729 4.67157288,22.5 5.5,22.5 L5.5,22.5 Z M36,9.86 C36.3822742,9.47772582 36.9394509,9.32843076 37.4616472,9.46835282 C37.9838434,9.60827488 38.3917251,10.0161566 38.5316472,10.5383528 C38.6715692,11.0605491 38.5222742,11.6177258 38.14,12 L38.14,12 L34.61,15.51 L34.58,15.52 C34.2060588,15.9213064 33.6428889,16.0864984 33.1114222,15.9507711 C32.5799554,15.8150438 32.1649562,15.4000446 32.0292289,14.8685778 C31.8935016,14.3371111 32.0586936,13.7739412 32.46,13.4 L32.46,13.4 Z M10.5383528,9.4683528 C11.0605491,9.32843074 11.6177258,9.47772581 12,9.86 L12,9.86 L15.51,13.4 C16.0607177,13.9910195 16.0444678,14.9120194 15.4732436,15.4832436 C14.9020194,16.0544678 13.9810195,16.0707177 13.39,15.52 L13.39,15.52 L9.86,12 C9.47772581,11.6177258 9.32843074,11.0605491 9.4683528,10.5383528 C9.60827486,10.0161566 10.0161566,9.60827486 10.5383528,9.4683528 Z M24,4 C24.8284271,4 25.5,4.67157288 25.5,5.5 L25.5,5.5 L25.5,10.5 C25.5,11.3284271 24.8284271,12 24,12 C23.1715729,12 22.5,11.3284271 22.5,10.5 L22.5,10.5 L22.5,5.5 C22.5,4.67157288 23.1715729,4 24,4 Z" id="sun" fill="#0071B3"></path>
    </g>
</svg>