<?xml version="1.0" encoding="UTF-8"?>
<svg width="48px" height="48px" viewBox="0 0 48 48" version="1.1" xmlns="http://www.w3.org/2000/svg" xmlns:xlink="http://www.w3.org/1999/xlink">
    <title>Facilities / Supermarket</title>
    <g id="Facilities-/-Supermarket" stroke="none" stroke-width="1" fill="none" fill-rule="evenodd">
        <path d="M44.5,17.9999973 L35.62,17.9999973 L25.06,7.44 C24.7783482,7.15953861 24.3974724,7.00143923 24,6.99999731 C23.6020891,6.99924389 23.2204068,7.15767806 22.94,7.44 L12.38,17.9999973 L3.5,17.9999973 C2.67157288,17.9999973 2,18.6715729 2,19.4999973 C2,20.3284271 2.67157288,20.9999973 3.5,20.9999973 L4.71,20.9999973 L8,39.76 C8.07509754,40.1452837 8.30217492,40.4840975 8.63,40.7 C8.6999743,40.7458723 8.77354803,40.7860034 8.85,40.82 L8.92,40.82 L9.12,40.89 L39,40.89 L39.14,40.81 L39.25,40.75 L39.38,40.63 L39.47,40.56 L39.59,40.42 L39.65,40.34 C39.6825644,40.2898252 39.7093988,40.2361564 39.73,40.18 C39.7525895,40.1499725 39.7695317,40.1160882 39.78,40.08 C39.7900099,40.0271363 39.7900099,39.9728637 39.78,39.92 C39.7842981,39.8801155 39.7842981,39.8398845 39.78,39.8 L43.29,20.9999973 L44.5,20.9999973 C45.3284271,20.9999973 46,20.3284271 46,19.4999973 C46,18.6715729 45.3284271,17.9999973 44.5,17.9999973 Z M24,10.62 L31.38,18 L16.62,18 L24,10.62 Z M37.24,38 L10.75,38 L7.75,21 L40.24,21 L37.24,38 Z M14,28 L34,28 C34.8284271,28 35.5,27.3284271 35.5,26.5 C35.5,25.6715729 34.8284271,25 34,25 L14,25 C13.1715729,25 12.5,25.6715729 12.5,26.5 C12.5,27.3284271 13.1715729,28 14,28 L14,28 Z M32.5,31 L15.5,31 C14.6715729,31 14,31.6715729 14,32.5 C14,33.3284271 14.6715729,34 15.5,34 L32.5,34 C33.3284271,34 34,33.3284271 34,32.5 C34,31.6715729 33.3284271,31 32.5,31 L32.5,31 Z" id="supermarket" fill="#0071B3"></path>
    </g>
</svg>