<?xml version="1.0" encoding="UTF-8"?>
<svg width="48px" height="48px" viewBox="0 0 48 48" version="1.1" xmlns="http://www.w3.org/2000/svg" xmlns:xlink="http://www.w3.org/1999/xlink">
    <title>Surface</title>
    <g id="Surface" stroke="none" stroke-width="1" fill="none" fill-rule="evenodd">
        <path d="M38.5288014,32.2788014 L38.5288014,15.7788014 C40.8035416,15.0783727 42.2692254,12.8715372 42.0326321,10.5031903 C41.7960388,8.13484348 39.9227593,6.261564 37.5544125,6.02497071 C35.1860657,5.78837742 32.9792302,7.25406127 32.2788014,9.52880141 L15.7788014,9.52880141 C15.0783727,7.25406127 12.8715372,5.78837742 10.5031903,6.02497071 C8.13484348,6.261564 6.261564,8.13484348 6.02497071,10.5031903 C5.78837742,12.8715372 7.25406127,15.0783727 9.52880141,15.7788014 L9.52880141,32.2788014 C7.25406127,32.9792302 5.78837742,35.1860657 6.02497071,37.5544125 C6.261564,39.9227593 8.13484348,41.7960388 10.5031903,42.0326321 C12.8715372,42.2692254 15.0783727,40.8035416 15.7788014,38.5288014 L32.2788014,38.5288014 C32.9792302,40.8035416 35.1860657,42.2692254 37.5544125,42.0326321 C39.9227593,41.7960388 41.7960388,39.9227593 42.0326321,37.5544125 C42.2692254,35.1860657 40.8035416,32.9792302 38.5288014,32.2788014 L38.5288014,32.2788014 Z M32.2788014,35.5288014 L15.7788014,35.5288014 C15.2870894,33.9822368 14.075366,32.7705134 12.5288014,32.2788014 L12.5288014,15.7788014 C14.075366,15.2870894 15.2870894,14.075366 15.7788014,12.5288014 L32.2788014,12.5288014 C32.7705134,14.075366 33.9822368,15.2870894 35.5288014,15.7788014 L35.5288014,32.2788014 C33.9822368,32.7705134 32.7705134,33.9822368 32.2788014,35.5288014 Z M37.0288014,9.02880141 C38.1333709,9.02880141 39.0288014,9.92423191 39.0288014,11.0288014 C39.0288014,12.1333709 38.1333709,13.0288014 37.0288014,13.0288014 C35.9242319,13.0288014 35.0288014,12.1333709 35.0288014,11.0288014 C35.0288014,9.92423191 35.9242319,9.02880141 37.0288014,9.02880141 Z M11.0288014,9.02880141 C12.1333709,9.02880141 13.0288014,9.92423191 13.0288014,11.0288014 C13.0288014,12.1333709 12.1333709,13.0288014 11.0288014,13.0288014 C9.92423191,13.0288014 9.02880141,12.1333709 9.02880141,11.0288014 C9.02880141,9.92423191 9.92423191,9.02880141 11.0288014,9.02880141 Z M11.0288014,39.0288014 C9.92423191,39.0288014 9.02880141,38.1333709 9.02880141,37.0288014 C9.02880141,35.9242319 9.92423191,35.0288014 11.0288014,35.0288014 C12.1333709,35.0288014 13.0288014,35.9242319 13.0288014,37.0288014 C13.0288014,38.1333709 12.1333709,39.0288014 11.0288014,39.0288014 Z M37.0288014,39.0288014 C35.9242319,39.0288014 35.0288014,38.1333709 35.0288014,37.0288014 C35.0288014,35.9242319 35.9242319,35.0288014 37.0288014,35.0288014 C38.1333709,35.0288014 39.0288014,35.9242319 39.0288014,37.0288014 C39.0288014,38.1333709 38.1333709,39.0288014 37.0288014,39.0288014 Z" id="surface" fill="#0071B3"></path>
    </g>
</svg>