<?xml version="1.0" encoding="UTF-8"?>
<svg width="48px" height="48px" viewBox="0 0 48 48" version="1.1" xmlns="http://www.w3.org/2000/svg" xmlns:xlink="http://www.w3.org/1999/xlink">
    <title>Target</title>
    <g id="Target" stroke="none" stroke-width="1" fill="none" fill-rule="evenodd">
        <path d="M24.0002,4 C35.0452,4 44.0002,12.954 44.0002,24 C44.0002,35.046 35.0452,44 24.0002,44 C12.9542,44 4.0002,35.046 4.0002,24 C4.0002,12.954 12.9542,4 24.0002,4 Z M24.0002,7 C14.6262,7 7.0002,14.626 7.0002,24 C7.0002,33.374 14.6262,41 24.0002,41 C33.3742,41 41.0002,33.374 41.0002,24 C41.0002,14.626 33.3742,7 24.0002,7 Z M24.0002,12 C30.6272,12 36.0002,17.373 36.0002,24 C36.0002,30.627 30.6272,36 24.0002,36 C17.3732,36 12.0002,30.627 12.0002,24 C12.0002,17.373 17.3732,12 24.0002,12 Z M24.0002,15 C19.0372,15 15.0002,19.038 15.0002,24 C15.0002,28.962 19.0372,33 24.0002,33 C28.9622,33 33.0002,28.962 33.0002,24 C33.0002,19.038 28.9622,15 24.0002,15 Z M24.0002,22 C25.1042,22 26.0002,22.896 26.0002,24 C26.0002,25.104 25.1042,26 24.0002,26 C22.8952,26 22.0002,25.104 22.0002,24 C22.0002,22.896 22.8952,22 24.0002,22 Z" id="target" fill="#0071B3"></path>
    </g>
</svg>