<?xml version="1.0" encoding="UTF-8"?>
<svg width="48px" height="48px" viewBox="0 0 48 48" version="1.1" xmlns="http://www.w3.org/2000/svg" xmlns:xlink="http://www.w3.org/1999/xlink">
    <title>Thumbs Down</title>
    <g id="Thumbs-Down" stroke="none" stroke-width="1" fill="none" fill-rule="evenodd">
        <path d="M43.32,22.4747198 C42.42,18.5347198 40.14,10.4747198 40.07,10.2547198 C39.351589,7.64280648 36.9155715,5.88022725 34.21,6.01471977 L27.16,6.01471977 C25.4171509,5.92668691 23.6769872,6.23437794 22.07,6.91471977 L21.6,7.13471977 C20.056495,8.18301152 18.2536771,8.78510423 16.39,8.87471977 L16,8.87471977 L16,7.63471977 C16,6.80629265 15.3284271,6.13471977 14.5,6.13471977 L5.5,6.13471977 C4.67157288,6.13471977 4,6.80629265 4,7.63471977 L4,28.6347198 C4,29.4631469 4.67157288,30.1347198 5.5,30.1347198 L14.5,30.1347198 C15.3284271,30.1347198 16,29.4631469 16,28.6347198 L16,27.5747198 C17.2635191,28.6463222 18.6000811,29.6286953 20,30.5147198 C20.56,30.8547198 22.52,32.6147198 24.25,40.8147198 C24.3590525,41.3400229 24.7403584,41.7670855 25.25,41.9347198 C25.7248159,42.0698274 26.216342,42.1371598 26.71,42.1350546 C27.7549642,42.1470078 28.7758383,41.8207491 29.62,41.2047198 C31.22,40.0447198 32,37.9347198 32,34.9447198 C31.9730639,33.0340498 31.8261077,31.1269597 31.56,29.2347198 L38.5,29.2347198 L38.76,29.2347198 C40.3301269,28.9324326 41.7273135,28.0462375 42.67,26.7547198 C43.4847906,25.4851527 43.7211301,23.9289477 43.32,22.4747198 Z M7,9.13471977 L13,9.13471977 L13,27.1347198 L7,27.1347198 L7,9.13471977 Z M40.2,25.0647198 C39.7369521,25.651938 39.088185,26.0644693 38.36,26.2347198 L29.84,26.2347198 C29.3962217,26.2339193 28.9748674,26.4296658 28.6892513,26.7693174 C28.4036351,27.1089691 28.2830776,27.5576583 28.36,27.9947198 C28.7462851,30.3093758 28.9668456,32.6486543 29.02,34.9947198 C29.02,36.9047198 28.61,38.2747198 27.87,38.8347198 C27.5978823,39.0327686 27.2756898,39.1505593 26.94,39.1747198 C25.54,33.0247198 23.78,29.3647198 21.56,28.0047198 C19.6194596,26.7271074 17.7896909,25.2887152 16.09,23.7047198 L16,23.6047198 L16,11.9147198 L16.38,11.9147198 C18.7743962,11.8342227 21.0999809,11.0936347 23.1,9.77471977 L23.54,9.52471977 C24.6843207,9.1193161 25.8979391,8.94594203 27.11,9.01471977 L34.21,9.01471977 C35.5674482,8.84584053 36.843793,9.69673707 37.21,11.0147198 C37.21,11.0947198 39.56,19.2947198 40.45,23.1647198 C40.6328804,23.8053828 40.5425759,24.4931702 40.2,25.0647198 Z" id="thumbs-down" fill="#0071B3"></path>
    </g>
</svg>