<?xml version="1.0" encoding="UTF-8"?>
<svg width="48px" height="48px" viewBox="0 0 48 48" version="1.1" xmlns="http://www.w3.org/2000/svg" xmlns:xlink="http://www.w3.org/1999/xlink">
    <title>Thumbs Up</title>
    <g id="Thumbs-Up" stroke="none" stroke-width="1" fill="none" fill-rule="evenodd">
        <path d="M42.69,21.3984511 C41.7473135,20.1069334 40.3501269,19.2207383 38.78,18.9184511 L38.52,18.9184511 L31.58,18.9184511 C31.8402529,17.0191728 31.980531,15.1053785 32,13.1884511 C32,10.1884511 31.2,8.08845108 29.62,6.92845108 C28.3472423,6.04030488 26.7423242,5.77220644 25.25,6.19845108 C24.7403584,6.36608532 24.3590525,6.793148 24.25,7.31845108 C22.52,15.5284511 20.56,17.3184511 20,17.6184511 C18.6000628,18.5044488 17.263499,19.4868232 16,20.5584511 L16,19.4984511 C16,18.670024 15.3284271,17.9984511 14.5,17.9984511 L5.5,17.9984511 C4.67157288,17.9984511 4,18.670024 4,19.4984511 L4,40.4984511 C4,41.3268782 4.67157288,41.9984511 5.5,41.9984511 L14.5,41.9984511 C15.3284271,41.9984511 16,41.3268782 16,40.4984511 L16,39.2184511 L16.38,39.2184511 C18.2509372,39.3186248 20.057638,39.9347029 21.6,40.9984511 L22.06,41.2684511 C23.5333195,41.9138444 25.1323919,42.2213583 26.74,42.1684511 L34.21,42.1684511 C36.871136,42.2814446 39.2638096,40.5582238 40,37.9984511 C40.1,37.6584511 42.37,29.6384511 43.27,25.6984511 C43.6978136,24.247922 43.4869183,22.6837946 42.69,21.3984511 Z M7,20.9984511 L13,20.9984511 L13,38.9984511 L7,38.9984511 L7,20.9984511 Z M40.4,24.9984511 C39.51,28.8684511 37.19,37.0684511 37.14,37.2284511 C36.7488675,38.4908266 35.5123806,39.2941224 34.2,39.1384511 L27.07,39.1384511 C25.8711762,39.2037608 24.6713148,39.0304097 23.54,38.6284511 L23.1,38.3784511 C21.0971085,37.0577824 18.7678223,36.3171178 16.37,36.2384511 L16,36.2384511 L16,24.5284511 L16.09,24.4684511 C17.7896602,22.8844199 19.619432,21.4460252 21.56,20.1684511 C23.78,18.8084511 25.56,15.1684511 26.94,8.99845108 C27.2756898,9.02261151 27.5978823,9.14040228 27.87,9.33845108 C28.61,9.89845108 29.02,11.2684511 29.02,13.1784511 C28.9668456,15.5245166 28.7462851,17.8637951 28.36,20.1784511 C28.2830776,20.6155126 28.4036351,21.0642018 28.6892513,21.4038534 C28.9748674,21.7435051 29.3962217,21.9392515 29.84,21.9384511 L38.36,21.9384511 C39.0822549,22.1103084 39.7263658,22.5185973 40.19,23.0984511 C40.5200829,23.6753797 40.5961232,24.3633629 40.4,24.9984511 L40.4,24.9984511 Z" id="thumbs-up" fill="#0071B3"></path>
    </g>
</svg>