<?xml version="1.0" encoding="UTF-8"?>
<svg width="48px" height="48px" viewBox="0 0 48 48" version="1.1" xmlns="http://www.w3.org/2000/svg" xmlns:xlink="http://www.w3.org/1999/xlink">
    <title>Transport / Train</title>
    <g id="Transport-/-Train" stroke="none" stroke-width="1" fill="none" fill-rule="evenodd">
        <path d="M34.08,42 L36.41,47 L33.1,47 L30.77,42 L34.08,42 Z M17.23,42 L14.9,47 L11.59,47 L13.92,42 L17.23,42 Z M23.9999947,0.999857925 C27.1129015,0.997757099 30.223799,1.15797499 33.32,1.48 L33.32,1.48 L33.44,1.48 L33.9,1.53 C36.8318077,1.97480347 38.9989542,4.49464247 38.9999947,7.46 L38.9999947,7.46 L38.9999947,36 C39.0003495,38.7304811 36.8101316,40.9563123 34.08,41 L34.08,41 L13.92,41 C11.1898684,40.9563123 8.99965048,38.7304811 8.99999474,36 L8.99999474,36 L8.99999474,7.46 C8.99609891,4.49085138 11.1644414,1.96537012 14.1,1.52 L14.1,1.52 L14.56,1.47 L14.68,1.47 C17.776377,1.15133302 20.8872731,0.994453069 23.9999947,0.999857925 Z M12.31,6.15 C12.1087639,6.55754496 12.0027621,7.00548793 12,7.46 L12,7.46 L12,36 C12,37.1045695 12.8954305,38 14,38 L14,38 L34,38 C35.1045695,38 36,37.1045695 36,36 L36,36 L36,7.46 C35.9943984,7.01978223 35.8919756,6.58619243 35.7,6.19 C35.55,7.41 35.42,8.76 35.32,10.19 C35.24,11.1966667 35.1766667,12.2466667 35.13,13.34 C35.0185714,14.8571429 35.0026531,17.1677551 35.000379,19.0564431 L35,20.44 L34.9747136,20.7833978 C34.8875156,21.6966938 34.6425939,22.5888737 34.25,23.42 C33.7560057,24.4573339 33.0469785,25.3777057 32.17,26.12 C30.7420262,27.3168321 28.9431064,27.9812661 27.08,28 L27.08,28 L20.92,28 C19.7005055,27.9879102 18.4999168,27.6971693 17.41,27.15 C16.2565482,26.5797337 15.2607372,25.7350113 14.51,24.69 C13.6148549,23.4559448 13.0909581,21.9918093 13,20.47 L13,20.47 L13,20 L12.9999454,19.5237233 C12.9992899,17.5631953 12.9907692,14.98 12.88,13.3 C12.8266667,12.2133333 12.7633333,11.1633333 12.69,10.15 C12.58,8.77 12.46,7.42 12.31,6.15 Z M17,31 C18.1045695,31 19,31.8954305 19,33 C19,34.1045695 18.1045695,35 17,35 C15.8954305,35 15,34.1045695 15,33 C15,31.8954305 15.8954305,31 17,31 Z M31,31 C32.1045695,31 33,31.8954305 33,33 C33,34.1045695 32.1045695,35 31,35 C29.8954305,35 29,34.1045695 29,33 C29,31.8954305 29.8954305,31 31,31 Z M26,4 L21.3,4 L20,4.09 C18.22,4.16 16.62,4.29 15.13,4.43 C15.35,6.18 15.54,8.04 15.68,9.98 C15.75,10.91 15.86,11.83 15.86,12.83 L15.86,12.83 L15.86,12.98 C16,14.98 16,17.98 16,19.98 L16,19.98 L16,20.23 C16.1237688,22.7850602 18.1560778,24.8346287 20.71,24.98 L20.71,24.98 L27.28,24.98 C29.826966,24.8409503 31.8609503,22.806966 32,20.26 L32,20.26 L32.0004005,18.9824852 C32.0026036,17.0246154 32.0169231,14.63 32.11,12.98 L32.11,12.98 L32.11,12.83 C32.16,11.86 32.22,10.91 32.29,9.98 C32.43,8.04 32.61,6.18 32.84,4.43 C31.34,4.27 29.75,4.15 28,4.07 L28,4.07 L26,4 Z M24,6 C25.1045695,6 26,6.8954305 26,8 C26,9.1045695 25.1045695,10 24,10 L24,10 L23.8507377,9.99451426 C22.8158778,9.91816512 22,9.0543618 22,8 C22,6.8954305 22.8954305,6 24,6 Z" id="train" fill="#0071B3"></path>
    </g>
</svg>