<?xml version="1.0" encoding="UTF-8"?>
<svg width="48px" height="48px" viewBox="0 0 48 48" version="1.1" xmlns="http://www.w3.org/2000/svg" xmlns:xlink="http://www.w3.org/1999/xlink">
    <title>Transport / Tram</title>
    <g id="Transport-/-Tram" stroke="none" stroke-width="1" fill="none" fill-rule="evenodd">
        <path d="M33.9,41.61 L36.41,47 L33.1,47 L30.77,42 L32,42 C32.6529654,41.9976316 33.2988998,41.8650451 33.9,41.61 L33.9,41.61 Z M14.1,41.61 C14.7011002,41.8650451 15.3470346,41.9976316 16,42 L16,42 L17.22,42 L14.89,47 L11.58,47 Z M30.5,1 C31.3284271,1 32,1.67157288 32,2.5 C32,3.32842712 31.3284271,4 30.5,4 L30.5,4 L25.5,4 L25.5,6 L32,6 C34.7614237,6 37,8.23857625 37,11 L37,11 L37,36 C37,38.7614237 34.7614237,41 32,41 L32,41 L16,41 C14.6739176,41 13.402148,40.4732158 12.4644661,39.5355339 C11.5267842,38.597852 11,37.3260824 11,36 L11,36 L11,11 C11,8.23857625 13.2385763,6 16,6 L16,6 L22.5,6 L22.5,4 L17.5,4 C16.6715729,4 16,3.32842712 16,2.5 C16,1.67157288 16.6715729,1 17.5,1 L17.5,1 Z M32,9 L32,25 C32,27.76 28.42,30 24,30 C19.58,30 16,27.76 16,25 L16,25 L16,9 L15.8507377,9.00548574 C14.8158778,9.08183488 14,9.9456382 14,11 L14,11 L14,36 C14,37.1045695 14.8954305,38 16,38 L16,38 L32,38 C33.1045695,38 34,37.1045695 34,36 L34,36 L34,11 C34,9.8954305 33.1045695,9 32,9 L32,9 Z M19,32 C20.1045695,32 21,32.8954305 21,34 C21,35.1045695 20.1045695,36 19,36 C17.8954305,36 17,35.1045695 17,34 C17,32.8954305 17.8954305,32 19,32 Z M29,32 C30.1045695,32 31,32.8954305 31,34 C31,35.1045695 30.1045695,36 29,36 C27.8954305,36 27,35.1045695 27,34 C27,32.8954305 27.8954305,32 29,32 Z M29,9 L19,9 L19,24.88 L18.9961545,24.94 L18.9961545,24.94 L19,25 C19,25.5 20.77,27 24,27 C27.23,27 29,25.5 29,25 C29.0051274,24.9601643 29.0051274,24.9198357 29,24.88 L29,24.88 L29,9 Z" id="tram" fill="#0071B3"></path>
    </g>
</svg>