<?xml version="1.0" encoding="UTF-8"?>
<svg width="48px" height="48px" viewBox="0 0 48 48" version="1.1" xmlns="http://www.w3.org/2000/svg" xmlns:xlink="http://www.w3.org/1999/xlink">
    <title>Trash</title>
    <g id="Trash" stroke="none" stroke-width="1" fill="none" fill-rule="evenodd">
        <path d="M35.5,14 C34.67,14 34,14.67 34,15.5 L34,29.832 L34,32.808 L34,38 C34,39.654 32.654,41 31,41 L25.808,41 L24,41 L22.19,41 L17,41 C15.346,41 14,39.654 14,38 L14,32.808 L14,15.5 C14,14.67 13.328,14 12.5,14 C11.67,14 11,14.67 11,15.5 L11,38 L11,38.5 C11,38.672 11.034,38.834 11.088,38.988 C11.56,41.83 14.022,44 17,44 L31,44 C33.976,44 36.44,41.83 36.912,38.988 C36.964,38.834 37,38.672 37,38.5 L37,38 L37,15.5 C37,14.67 36.328,14 35.5,14 M19.5,7 L28.5,7 C29.328,7 30,6.33 30,5.5 C30,4.67 29.328,4 28.5,4 L19.5,4 C18.67,4 18,4.67 18,5.5 C18,6.33 18.67,7 19.5,7 M37.5,8 L10.5,8 C9.67,8 9,8.672 9,9.5 C9,10.328 9.67,11 10.5,11 L37.5,11 C38.328,11 39,10.328 39,9.5 C39,8.672 38.328,8 37.5,8 M29.5,38 C28.67,38 28,37.328 28,36.5 L28,15.5 C28,14.67 28.67,14 29.5,14 C30.328,14 31,14.67 31,15.5 L31,36.5 C31,37.328 30.328,38 29.5,38 M18.5,38 C17.67,38 17,37.328 17,36.5 L17,15.5 C17,14.67 17.67,14 18.5,14 C19.328,14 20,14.67 20,15.5 L20,36.5 C20,37.328 19.328,38 18.5,38" id="Color" fill="#0071B3"></path>
    </g>
</svg>