<?xml version="1.0" encoding="UTF-8"?>
<svg width="48px" height="48px" viewBox="0 0 48 48" version="1.1" xmlns="http://www.w3.org/2000/svg" xmlns:xlink="http://www.w3.org/1999/xlink">
    <title>TV</title>
    <g id="TV" stroke="none" stroke-width="1" fill="none" fill-rule="evenodd">
        <path d="M19.941525,34.1180087 L19.8712019,34.23 L17.1012019,37 L30.8712019,37 L27.8612019,34 L32.1212019,34 L35.5612019,37.46 C35.7025961,37.599843 35.8147712,37.7664061 35.8912019,37.95 C35.9623559,38.1247166 35.9996838,38.3113562 36.0012019,38.5 C35.9923389,38.704894 35.9412733,38.9057522 35.8512019,39.09 C35.7777417,39.2727593 35.6690058,39.4392611 35.5312019,39.58 C35.390463,39.7178039 35.2239612,39.8265398 35.0412019,39.9 C34.8689528,39.966504 34.6858431,40.0004132 34.5012019,40 L34.5012019,40 L13.5012019,40 C13.0927599,40.0003269 12.7018466,39.8340821 12.4187518,39.5396636 C12.135657,39.245245 11.9848641,38.8481152 12.0012019,38.44 C12.0077837,38.2862524 12.0381437,38.1344523 12.0912019,37.99 C12.1137577,37.928256 12.140486,37.8681173 12.1712019,37.81 C12.2211934,37.7137154 12.2815513,37.6231786 12.3512019,37.54 C12.3787467,37.4950174 12.408794,37.4516158 12.4412019,37.41 L12.4412019,37.41 L15.8512019,34 L20.0012019,34 C19.9650588,34.080514 19.9215398,34.1575092 19.8712019,34.23 Z M10,8 L39,8 C40.6568542,8 42,9.34314575 42,11 L42,31 C42,32.6568542 40.6568542,34 39,34 L10,34 C8.34314575,34 7,32.6568542 7,31 L7,11 C7,9.34314575 8.34314575,8 10,8 Z M10.0012036,31 L39.0012036,31 L39.0012036,11 L10.0012036,11 L10.0012036,31 Z" id="tv" fill="#0071B3"></path>
    </g>
</svg>