<?xml version="1.0" encoding="UTF-8"?>
<svg width="48px" height="48px" viewBox="0 0 48 48" version="1.1" xmlns="http://www.w3.org/2000/svg" xmlns:xlink="http://www.w3.org/1999/xlink">
    <title>Social Media / Twitter</title>
    <g id="Social-Media-/-Twitter" stroke="none" stroke-width="1" fill="none" fill-rule="evenodd">
        <path d="M44,11.86014 C42.5031781,12.5227913 40.9155814,12.9576107 39.29,13.15014 C41.0025213,12.1274919 42.285372,10.5177096 42.9,8.62013997 C41.2900899,9.57902898 39.52801,10.2554512 37.69,10.62014 C35.151407,7.88959655 31.0916488,7.21242792 27.8042382,8.97119259 C24.5168276,10.7299573 22.8272448,14.4830233 23.69,18.11014 C17.0902364,17.7743545 10.9434847,14.6519064 6.78,9.52013997 C4.57673261,13.280374 5.69115083,18.1065947 9.32,20.52014 C8.01801971,20.4880728 6.74257085,20.1452102 5.6,19.52014 C5.55036078,23.4648677 8.31343014,26.8872105 12.18,27.67014 C10.9701925,27.9991266 9.70116074,28.0470146 8.47,27.81014 C9.54360415,31.155614 12.6270458,33.4470896 16.14,33.51014 C12.6924127,36.1808527 8.32772207,37.3780866 4,36.84014 C7.75208341,39.2524394 12.1193602,40.533461 16.58,40.5301464 C31.82,40.5301464 40.42,27.66014 39.91,16.12014 C41.5159997,14.9548704 42.9010629,13.5122372 44,11.86014 Z" id="twitter" fill="#0071B3"></path>
    </g>
</svg>