<?xml version="1.0" encoding="UTF-8"?>
<svg width="48px" height="48px" viewBox="0 0 48 48" version="1.1" xmlns="http://www.w3.org/2000/svg" xmlns:xlink="http://www.w3.org/1999/xlink">
    <title>Unordered</title>
    <g id="Unordered" stroke="none" stroke-width="1" fill="none" fill-rule="evenodd">
        <path d="M9,32 C10.3260824,32 11.597852,32.5267842 12.5355339,33.4644661 C13.4732158,34.402148 14,35.6739176 14,37 C14,39.7614237 11.7614237,42 9,42 C6.23857625,42 4,39.7614237 4,37 C4,34.2385763 6.23857625,32 9,32 Z M9,35 C7.8954305,35 7,35.8954305 7,37 C7,38.1045695 7.8954305,39 9,39 C10.1045695,39 11,38.1045695 11,37 C11,35.8954305 10.1045695,35 9,35 Z M42.5,35.5 C43.3284271,35.5 44,36.1715729 44,37 C44,37.8284271 43.3284271,38.5 42.5,38.5 L19.5,38.5 C18.6715729,38.5 18,37.8284271 18,37 C18,36.1715729 18.6715729,35.5 19.5,35.5 L42.5,35.5 Z M9,19 C10.3260824,19 11.597852,19.5267842 12.5355339,20.4644661 C13.4732158,21.402148 14,22.6739176 14,24 C14,26.7614237 11.7614237,29 9,29 C6.23857625,29 4,26.7614237 4,24 C4,21.2385763 6.23857625,19 9,19 Z M9,22 C7.8954305,22 7,22.8954305 7,24 C7,25.1045695 7.8954305,26 9,26 C10.1045695,26 11,25.1045695 11,24 C11,22.8954305 10.1045695,22 9,22 Z M42.5,22.5 C43.3284271,22.5 44,23.1715729 44,24 C44,24.8284271 43.3284271,25.5 42.5,25.5 L19.5,25.5 C18.6715729,25.5 18,24.8284271 18,24 C18,23.1715729 18.6715729,22.5 19.5,22.5 L42.5,22.5 Z M9,6 C10.3260824,6 11.597852,6.5267842 12.5355339,7.46446609 C13.4732158,8.40214799 14,9.67391755 14,11 C14,13.7614237 11.7614237,16 9,16 C6.23857625,16 4,13.7614237 4,11 C4,8.23857625 6.23857625,6 9,6 Z M9,9 C7.8954305,9 7,9.8954305 7,11 C7,12.1045695 7.8954305,13 9,13 C10.1045695,13 11,12.1045695 11,11 C11,9.8954305 10.1045695,9 9,9 Z M42.5,9.5 C43.3284271,9.5 44,10.1715729 44,11 C44,11.8284271 43.3284271,12.5 42.5,12.5 L19.5,12.5 C18.6715729,12.5 18,11.8284271 18,11 C18,10.1715729 18.6715729,9.5 19.5,9.5 L42.5,9.5 Z" id="Color" fill="#0071B3"></path>
    </g>
</svg>