<?xml version="1.0" encoding="UTF-8"?>
<svg width="48px" height="48px" viewBox="0 0 48 48" version="1.1" xmlns="http://www.w3.org/2000/svg" xmlns:xlink="http://www.w3.org/1999/xlink">
    <title>Arrow Diagonal / Up Right</title>
    <g id="Arrow-Diagonal-/-Up-Right" stroke="none" stroke-width="1" fill="none" fill-rule="evenodd">
        <path d="M37.5576,10.439 C37.5576,10.439 37.5566,10.438 37.5566,10.438 C37.5556,10.437 37.5536,10.436 37.5526,10.435 C37.4136,10.298 37.2496,10.189 37.0676,10.114 C37.0586,10.11 37.0506,10.109 37.0416,10.106 C36.8726,10.04 36.6916,10 36.4996,10 L21.4996,10 C20.6746,10 19.9996,10.675 19.9996,11.5 C19.9996,12.325 20.6746,13 21.4996,13 L32.8726,13 L10.4376,35.435 C9.8536,36.019 9.8536,36.973 10.4376,37.557 C11.0206,38.14 11.9756,38.14 12.5586,37.557 L34.9996,15.115 L34.9996,26.5 C34.9996,27.325 35.6746,28 36.4996,28 C37.3256,28 37.9996,27.325 37.9996,26.5 L37.9996,11.5 C37.9996,11.086 37.8306,10.711 37.5576,10.439" id="Up-Right" fill="#0071B3"></path>
    </g>
</svg>