<?xml version="1.0" encoding="UTF-8"?>
<svg width="48px" height="48px" viewBox="0 0 48 48" version="1.1" xmlns="http://www.w3.org/2000/svg" xmlns:xlink="http://www.w3.org/1999/xlink">
    <title>Arrow Simple/Up</title>
    <g id="Arrow-Simple/Up" stroke="none" stroke-width="1" fill="none" fill-rule="evenodd">
        <path d="M35.76,28.0428 L25.189,17.4718 C25.179,17.4608 25.176,17.4468 25.165,17.4368 C24.872,17.1438 24.486,16.9988 24.099,16.9997949 C23.712,16.9988 23.325,17.1438 23.032,17.4368 C23.022,17.4468 23.019,17.4608 23.009,17.4718 L12.438,28.0428 C11.854,28.6258 11.854,29.5808 12.438,30.1648 C13.021,30.7478 13.975,30.7478 14.559,30.1648 L24.099,20.6248 L33.639,30.1648 C34.222,30.7478 35.177,30.7478 35.76,30.1648 C36.343,29.5808 36.343,28.6258 35.76,28.0428" id="Fill-1" fill="#0071B3"></path>
    </g>
</svg>