<?xml version="1.0" encoding="UTF-8"?>
<svg width="48px" height="48px" viewBox="0 0 48 48" version="1.1" xmlns="http://www.w3.org/2000/svg" xmlns:xlink="http://www.w3.org/1999/xlink">
    <title>Upload</title>
    <g id="Upload" stroke="none" stroke-width="1" fill="none" fill-rule="evenodd">
        <path d="M40.5,39 C41.3284271,39 42,39.6715729 42,40.5 C42,41.3284271 41.3284271,42 40.5,42 L7.5,42 C6.67157288,42 6,41.3284271 6,40.5 C6,39.6715729 6.67157288,39 7.5,39 L40.5,39 Z M24,6 L24.1317205,6.01411994 C24.2624704,6.03447777 24.3898724,6.07343808 24.51,6.13 L24.51,6.13 L24.59,6.13 C24.7416032,6.19496224 24.8804346,6.28638782 25,6.4 L25,6.4 L25.09,6.47 L35.66,17 C36.2481833,17.6075132 36.2325132,18.5768167 35.625,19.165 C35.0174868,19.7531833 34.0481833,19.7375132 33.46,19.13 L33.46,19.13 L25.46,11.13 L25.46,32.5 C25.46,33.3284271 24.7884271,34 23.96,34 C23.1315729,34 22.46,33.3284271 22.46,32.5 L22.46,32.5 L22.46,11.12 L14.46,19.12 C14.1800661,19.4033721 13.7983249,19.562861 13.4,19.562861 C13.0016751,19.562861 12.6199339,19.4033721 12.34,19.12 C11.7605425,18.5321202 11.7605425,17.5878798 12.34,17 L12.34,17 L22.94,6.4 L23,6.4 C23.1200433,6.27465636 23.2624987,6.17290249 23.42,6.1 L23.42,6.1 L23.5,6.1 C23.6590746,6.03612065 23.8285929,6.00221698 24,6 L24,6 Z" id="upload" fill="#0071B3"></path>
    </g>
</svg>