<?xml version="1.0" encoding="UTF-8"?>
<svg width="48px" height="48px" viewBox="0 0 48 48" version="1.1" xmlns="http://www.w3.org/2000/svg" xmlns:xlink="http://www.w3.org/1999/xlink">
    <title>Profile / User</title>
    <g id="Profile-/-User" stroke="none" stroke-width="1" fill="none" fill-rule="evenodd">
        <path d="M27,24 C31.63,24 35.44,27.1 35.94,31.1 C35.9801238,31.2295294 36.0003543,31.3643988 36,31.5 L36,31.5 L36,39.5 C36,40.3284271 35.3284271,41 34.5,41 C33.6715729,41 33,40.3284271 33,39.5 L33,39.5 L33,32 C33,29.55 30.88,27.52 28.09,27.09 C27.7298942,27.0290012 27.3652339,26.9988916 27,27 L27,27 L21,27 C20.6347661,26.9988916 20.2701058,27.0290012 19.91,27.09 C17.12,27.52 15,29.55 15,32 L15,32 L15,39.5 C15,40.3284271 14.3284271,41 13.5,41 C12.6715729,41 12,40.3284271 12,39.5 L12,39.5 L12,31.5 C12.0045616,31.3648039 12.0246945,31.2305845 12.06,31.1 C12.56,27.11 16.37,24 21,24 L21,24 Z M24,6 C28.418278,6 32,9.581722 32,14 C32,18.418278 28.418278,22 24,22 C19.581722,22 16,18.418278 16,14 C16,9.581722 19.581722,6 24,6 Z M24,9 C21.2385763,9 19,11.2385763 19,14 C19,16.7614237 21.2385763,19 24,19 C26.7614237,19 29,16.7614237 29,14 C29,11.2385763 26.7614237,9 24,9 Z" id="User" fill="#0071B3"></path>
    </g>
</svg>