<?xml version="1.0" encoding="UTF-8"?>
<svg width="48px" height="48px" viewBox="0 0 48 48" version="1.1" xmlns="http://www.w3.org/2000/svg" xmlns:xlink="http://www.w3.org/1999/xlink">
    <title>Video</title>
    <g id="Video" stroke="none" stroke-width="1" fill="none" fill-rule="evenodd">
        <path d="M39.1433822,23.19 C39.0142329,22.9915018 38.8393363,22.8268932 38.6333822,22.71 L38.5233822,22.62 L13.3033822,6.24 L13.1433822,6.16 L13.0533822,6.16 L12.8733822,6.1 L12.7633822,6.1 L12.5833822,6 L12.4733822,6 L12.2733822,6 L12.1733822,6 C11.7640887,6.06798782 11.4016783,6.30355454 11.1733822,6.65 C11.1350195,6.71403107 11.1015894,6.78089112 11.0733822,6.85 L11.0733822,6.85 C11.0447683,6.91812774 11.0213677,6.98832946 11.0033822,7.06 L11.0033822,7.14 C10.9988726,7.2065904 10.9988726,7.2734096 11.0033822,7.34 C11.0033822,7.34 11.0033822,7.4 11.0033822,7.43 L11.0033822,40.43 C11.0033822,40.43 11.0033822,40.49 11.0033822,40.52 C10.9989029,40.5865914 10.9989029,40.6534086 11.0033822,40.72 L11.0033822,40.8 C11.0213677,40.8716705 11.0447683,40.9418723 11.0733822,41.01 L11.0733822,41.01 C11.1043746,41.0828287 11.1411593,41.153054 11.1833822,41.22 C11.4116783,41.5664455 11.7740887,41.8020122 12.1833822,41.87 L12.2733822,41.87 L12.4833822,41.87 L12.5833822,41.87 L12.7833822,41.87 L12.8833822,41.87 L13.0633822,41.81 L13.1433822,41.81 L13.3033822,41.73 L38.7133822,25.23 C39.3830794,24.777014 39.5732605,23.8747592 39.1433822,23.19 Z M13.9833822,10.26 L35.1433822,24 L13.9833822,37.74 L13.9833822,10.26 Z" id="video" fill="#0071B3"></path>
    </g>
</svg>