<?xml version="1.0" encoding="UTF-8"?>
<svg width="48px" height="48px" viewBox="0 0 48 48" version="1.1" xmlns="http://www.w3.org/2000/svg" xmlns:xlink="http://www.w3.org/1999/xlink">
    <title>Virtual Tour</title>
    <g id="Virtual-Tour" stroke="none" stroke-width="1" fill="none" fill-rule="evenodd">
        <path d="M43,36.9063 C40.24,35.4713 36.828,34.3723 33,33.6873 L33,14.3123 C36.828,13.6273 40.24,12.5283 43,11.0943 L43,36.9063 Z M18,14.7553 C19.925,14.9743 21.927,15.1003 24,15.1003 C26.073,15.1003 28.075,14.9743 30,14.7553 L30,33.2453 C28.075,33.0263 26.073,32.9003 24,32.9003 C21.927,32.9003 19.925,33.0263 18,33.2453 L18,14.7553 Z M5,11.0943 C7.76,12.5283 11.172,13.6273 15,14.3123 L15,33.6873 C11.172,34.3723 7.76,35.4713 5,36.9063 L5,11.0943 Z M43.683,7.2443 C43.667,7.2543 43.653,7.2643 43.638,7.2753 C39.396,10.1543 32.1,12.1003 24,12.1003 C15.9,12.1003 8.604,10.1543 4.362,7.2753 C4.347,7.2643 4.333,7.2543 4.317,7.2443 C4.082,7.0913 3.802,7.0003 3.5,7.0003 C2.671,7.0003 2,7.6713 2,8.5003 L2,9.2223 L2,38.7773 L2,39.5003 C2,40.3283 2.671,41.0003 3.5,41.0003 C3.802,41.0003 4.082,40.9093 4.317,40.7553 C4.333,40.7453 4.347,40.7353 4.362,40.7243 C8.604,37.8453 15.9,35.9003 24,35.9003 C32.1,35.9003 39.396,37.8453 43.638,40.7243 C43.653,40.7353 43.668,40.7453 43.683,40.7553 C43.918,40.9093 44.198,41.0003 44.5,41.0003 C45.329,41.0003 46,40.3283 46,39.5003 L46,38.7773 L46,9.2223 L46,8.5003 C46,7.6713 45.329,7.0003 44.5,7.0003 C44.198,7.0003 43.918,7.0913 43.683,7.2443 Z" fill="#0071B3"></path>
    </g>
</svg>