<?xml version="1.0" encoding="UTF-8"?>
<svg width="48px" height="48px" viewBox="0 0 48 48" version="1.1" xmlns="http://www.w3.org/2000/svg" xmlns:xlink="http://www.w3.org/1999/xlink">
    <title>Volume High</title>
    <g id="Volume-High" stroke="none" stroke-width="1" fill="none" fill-rule="evenodd">
        <path d="M9,26 L12.5,26 C12.945,26 13.367,26.198 13.652,26.54 L21,35.357 L21,12.643 L13.652,21.46 C13.367,21.802 12.945,22 12.5,22 L9,22 L9,26 Z M23.011,7.089 C23.604,7.305 24,7.869 24,8.5 L24,39.5 C24,40.131 23.604,40.695 23.011,40.911 C22.844,40.971 22.671,41 22.5,41 C22.063,41 21.638,40.809 21.348,40.46 L11.797,29 L7.5,29 C6.671,29 6,28.329 6,27.5 L6,20.5 C6,19.671 6.671,19 7.5,19 L11.797,19 L21.348,7.54 C21.751,7.055 22.415,6.875 23.011,7.089 Z M27.9673,9.9467 C35.7053,9.9467 42.0003,16.2417 42.0003,23.9797 C42.0003,31.7177 35.7053,38.0127 27.9673,38.0127 C27.1383,38.0127 26.4673,37.3417 26.4673,36.5127 C26.4673,35.6837 27.1383,35.0127 27.9673,35.0127 C34.0503,35.0127 39.0003,30.0637 39.0003,23.9797 C39.0003,17.8967 34.0503,12.9467 27.9673,12.9467 C27.1383,12.9467 26.4673,12.2757 26.4673,11.4467 C26.4673,10.6177 27.1383,9.9467 27.9673,9.9467 Z M27.9673,15.8975 C32.4353,15.8975 36.0703,19.5325 36.0703,23.9995 C36.0703,28.4675 32.4353,32.1025 27.9673,32.1025 C27.1383,32.1025 26.4673,31.4315 26.4673,30.6025 C26.4673,29.7735 27.1383,29.1025 27.9673,29.1025 C30.7803,29.1025 33.0703,26.8135 33.0703,23.9995 C33.0703,21.1865 30.7803,18.8975 27.9673,18.8975 C27.1383,18.8975 26.4673,18.2265 26.4673,17.3975 C26.4673,16.5685 27.1383,15.8975 27.9673,15.8975 Z" id="volume-high" fill="#0071B3"></path>
    </g>
</svg>