<?xml version="1.0" encoding="UTF-8"?>
<svg width="48px" height="48px" viewBox="0 0 48 48" version="1.1" xmlns="http://www.w3.org/2000/svg" xmlns:xlink="http://www.w3.org/1999/xlink">
    <title>VR</title>
    <g id="VR" stroke="none" stroke-width="1" fill="none" fill-rule="evenodd">
        <path d="M41,10 L7,10 C3.6862915,10 1,12.6862915 1,16 L1,32 C1,35.3137085 3.6862915,38 7,38 L20.23,38 L20.87,35 L21.07,34.06 L22,29.65 L22,29.55 C22.2229996,28.6602212 23.0227023,28.0362098 23.94,28.0362098 C24.8572977,28.0362098 25.6570004,28.6602212 25.88,29.55 L25.88,29.69 L26.81,34.09 L27.01,35.03 L27.65,38.03 L41,38.03 C44.3137085,38.03 47,35.3437085 47,32.03 L47,16 C47,12.6862915 44.3137085,10 41,10 Z M44,32 C44,33.6568542 42.6568542,35 41,35 L30.14,35 L28.88,29.06 L28.88,28.91 C28.83794,28.7509093 28.7878763,28.594043 28.73,28.44 C28.0286987,26.4335217 26.1355067,25.0897273 24.01,25.0897273 C21.8844933,25.0897273 19.9913013,26.4335217 19.29,28.44 C19.2267412,28.6135169 19.173323,28.7904648 19.13,28.97 L19.13,29.09 L17.8,35 L7,35 C5.34314575,35 4,33.6568542 4,32 L4,16 C4,14.3431458 5.34314575,13 7,13 L41,13 C42.6568542,13 44,14.3431458 44,16 L44,32 Z M13,17 C9.6862915,17 7,19.6862915 7,23 C7,26.3137085 9.6862915,29 13,29 C16.3137085,29 19,26.3137085 19,23 C19,19.6862915 16.3137085,17 13,17 Z M13,26 C11.3431458,26 10,24.6568542 10,23 C10,21.3431458 11.3431458,20 13,20 C14.6568542,20 16,21.3431458 16,23 C16,24.6568542 14.6568542,26 13,26 Z M35,17 C31.6862915,17 29,19.6862915 29,23 C29,26.3137085 31.6862915,29 35,29 C38.3137085,29 41,26.3137085 41,23 C41,19.6862915 38.3137085,17 35,17 Z M35,26 C33.3431458,26 32,24.6568542 32,23 C32,21.3431458 33.3431458,20 35,20 C36.6568542,20 38,21.3431458 38,23 C38,24.6568542 36.6568542,26 35,26 Z" id="vr" fill="#0071B3"></path>
    </g>
</svg>