<?xml version="1.0" encoding="UTF-8"?>
<svg width="48px" height="48px" viewBox="0 0 48 48" version="1.1" xmlns="http://www.w3.org/2000/svg" xmlns:xlink="http://www.w3.org/1999/xlink">
    <title>Transport / Walk</title>
    <g id="Transport-/-Walk" stroke="none" stroke-width="1" fill="none" fill-rule="evenodd">
        <path d="M26.47,15 C29.7837085,15 32.47,12.3137085 32.47,9 C32.47,5.6862915 29.7837085,3 26.47,3 C23.1562915,3 20.47,5.6862915 20.47,9 C20.47,12.3137085 23.1562915,15 26.47,15 Z M18.3966942,33.0987278 C18.7231856,32.8698086 19.1273886,32.780308 19.52,32.85 C19.9130871,32.920512 20.2618276,33.1448659 20.4889527,33.4733527 C20.7160778,33.8018395 20.8028344,34.2073366 20.73,34.6 L20.73,34.6 L20.15,37.91 C20.0742849,38.1929919 19.9704339,38.4676945 19.84,38.73 L19.84,38.73 L15.73,44.39 C15.4156063,44.8240777 14.8935168,45.057455 14.3603976,45.0022209 C13.8272785,44.9469868 13.3641231,44.6115327 13.1453976,44.1222209 C12.9266722,43.6329091 12.9856063,43.0640777 13.3,42.63 L13.3,42.63 L17.22,37.23 L17.78,34.07 C17.8482956,33.6771433 18.0702028,33.3276471 18.3966942,33.0987278 Z M23.59,16.28 C23.948849,15.9669926 24.4356886,15.8443536 24.9,15.95 L24.9,15.95 L25.0420166,15.9902277 C25.505547,16.1466877 25.8663462,16.5228648 26,17 L26,17 L28.62,22.87 L34.28,26.41 L34.28,26.46 C34.9377742,26.9166216 35.1209177,27.8093806 34.6960509,28.4880988 C34.271184,29.1668169 33.3881304,29.3921533 32.69,29 L32.69,29 L26.73,25.24 C26.4331883,25.0153885 26.1848761,24.7330609 26,24.41 L26,24.41 L25,22.13 L23.58,28.32 L32.21,42.09 C32.421532,42.4279684 32.4898065,42.8362474 32.3997421,43.2246503 C32.3096777,43.6130532 32.0686856,43.9496183 31.73,44.16 L31.73,44.16 L31.65,44.21 C31.3120316,44.421532 30.9037526,44.4898065 30.5153497,44.3997421 C30.1269468,44.3096777 29.7903817,44.0686856 29.58,43.73 L29.58,43.73 L20.72,29.54 C20.5115848,29.1370469 20.4413159,28.676785 20.52,28.23 L20.52,28.23 L22.28,20.61 L18.17,23.18 L16.62,27.45 C16.4711905,27.9919298 16.0319368,28.4052153 15.4819547,28.5207655 C14.9319726,28.6363156 14.3635385,28.4347432 14.0092209,27.9985194 C13.6549033,27.5622956 13.5741499,26.9646104 13.8,26.45 L13.8,26.45 L15.51,21.75 C15.6467706,21.416303 15.8756875,21.1284227 16.17,20.92 L16.17,20.92 Z M26.47,6 C28.1268542,6 29.47,7.34314575 29.47,9 C29.47,10.6568542 28.1268542,12 26.47,12 C24.8131458,12 23.47,10.6568542 23.47,9 C23.47,7.34314575 24.8131458,6 26.47,6 Z" id="walk" fill="#0071B3"></path>
    </g>
</svg>