<?xml version="1.0" encoding="UTF-8"?>
<svg width="48px" height="48px" viewBox="0 0 48 48" version="1.1" xmlns="http://www.w3.org/2000/svg" xmlns:xlink="http://www.w3.org/1999/xlink">
    <title>Warning</title>
    <g id="Warning" stroke="none" stroke-width="1" fill="none" fill-rule="evenodd">
        <path d="M24.5489604,5 L24.6989604,5.07 L24.7689604,5.07 L24.9089604,5.17 L24.9689604,5.22 L25.0689604,5.33 L25.1589604,5.5 L25.2089604,5.57 L45.7189604,41.12 L45.7189604,41.2 L45.7789604,41.34 C45.7816995,41.3899683 45.7816995,41.4400317 45.7789604,41.49 L45.7789604,41.49 L45.7789604,41.62 C45.7826125,41.6799444 45.7826125,41.7400556 45.7789604,41.8 L45.7789604,41.8 L45.7789604,41.87 L45.7789604,41.87 L45.781681,41.96 L45.781681,41.96 L45.7789604,42.05 L45.7789604,42.05 L45.7789604,42.17 C45.7816995,42.2232954 45.7816995,42.2767046 45.7789604,42.33 L45.7789604,42.33 L45.7789604,42.45 L45.6989604,42.59 L45.5889604,42.76 L45.4889604,42.89 L45.3989604,42.98 L45.2789604,43.08 L45.1589604,43.17 L45.0789604,43.17 L44.9389604,43.23 L2.90896043,43.23 L2.71896043,43.12 L2.63896043,43.12 L2.50896043,43.03 L2.39896043,42.94 L2.29896043,42.83 L2.20896043,42.72 L2.12896043,42.59 L2.05896043,42.47 C2.03997468,42.4241944 2.02328725,42.3774696 2.00896043,42.33 L2.00896043,42.33 L2.00896043,42.06 C2.00607544,42.0067057 2.00607544,41.9532943 2.00896043,41.9 L2.00896043,41.9 L2.00896043,41.76 C1.99701319,41.6603568 1.99701319,41.5596432 2.00896043,41.46 L2.00896043,41.46 L2.00896043,41.33 L2.10896043,41.15 L2.10896043,41.08 L22.7389604,5.56 L22.7889604,5.49 L22.8789604,5.37 L22.9789604,5.26 L23.0789604,5.17 L23.2189604,5.07 L23.2889604,5.07 L23.4389604,5 L24.5489604,5 Z M23.9089604,9.33 L6.00896043,40.33 L41.8089604,40.33 L23.9089604,9.33 Z M23.9089604,34.33 C24.7373876,34.33 25.4089604,35.0015729 25.4089604,35.83 C25.4089604,36.6584271 24.7373876,37.33 23.9089604,37.33 C23.0805333,37.33 22.4089604,36.6584271 22.4089604,35.83 C22.4089604,35.0015729 23.0805333,34.33 23.9089604,34.33 Z M23.9089604,17.33 C24.7373876,17.33 25.4089604,18.0015729 25.4089604,18.83 L25.4089604,30.83 C25.4089604,31.6584271 24.7373876,32.33 23.9089604,32.33 C23.0805333,32.33 22.4089604,31.6584271 22.4089604,30.83 L22.4089604,18.83 C22.4089604,18.0015729 23.0805333,17.33 23.9089604,17.33 Z" id="Color" fill="#0071B3"></path>
    </g>
</svg>