<?xml version="1.0" encoding="UTF-8"?>
<svg width="48px" height="48px" viewBox="0 0 48 48" version="1.1" xmlns="http://www.w3.org/2000/svg" xmlns:xlink="http://www.w3.org/1999/xlink">
    <title>Water</title>
    <g id="Water" stroke="none" stroke-width="1" fill="none" fill-rule="evenodd">
        <path d="M25.1742688,5.56673475 C33.7247563,16.3246017 38,24.1704087 38,29.1041558 C38,36.8361423 31.7319865,43.1041558 24,43.1041558 C16.2680135,43.1041558 10,36.8361423 10,29.1041558 C10,24.1704087 14.2752437,16.3246017 22.8257312,5.56673475 C22.8966336,5.47752838 22.9774701,5.39669186 23.0666765,5.32578951 C23.7152072,4.81032916 24.6588084,4.91820402 25.1742688,5.56673475 Z M24,8.92769422 C16.6451117,18.3980195 13,25.2761658 13,29.1041558 C13,35.179288 17.9248678,40.1041558 24,40.1041558 C30.0751322,40.1041558 35,35.179288 35,29.1041558 C35,25.2761658 31.3548883,18.3980194 24,8.92769422 Z M16.75,26.8541558 C17.5784271,26.8541558 18.25,27.5257286 18.25,28.3541558 C18.25,31.5297931 20.8243627,34.1041558 24,34.1041558 C24.8284271,34.1041558 25.5,34.7757286 25.5,35.6041558 C25.5,36.4325829 24.8284271,37.1041558 24,37.1041558 C19.1675084,37.1041558 15.25,33.1866473 15.25,28.3541558 C15.25,27.5257286 15.9215729,26.8541558 16.75,26.8541558 Z" id="water" fill="#0071B3"></path>
    </g>
</svg>