<?xml version="1.0" encoding="UTF-8"?>
<svg width="48px" height="48px" viewBox="0 0 48 48" version="1.1" xmlns="http://www.w3.org/2000/svg" xmlns:xlink="http://www.w3.org/1999/xlink">
    <title>Website</title>
    <g id="Website" stroke="none" stroke-width="1" fill="none" fill-rule="evenodd">
        <path d="M40.5,9 C41.3284271,9 42,9.67157288 42,10.5 L42,37.5 C42,38.3284271 41.3284271,39 40.5,39 L7.5,39 C6.67157288,39 6,38.3284271 6,37.5 L6,10.5 C6,9.67157288 6.67157288,9 7.5,9 L40.5,9 Z M39,24 L9,24 L9,36 L39,36 L39,24 Z M39,12 L9,12 L9,21 L39,21 L39,12 Z M13.5,15 C14.3284271,15 15,15.6715729 15,16.5 C15,17.3284271 14.3284271,18 13.5,18 C12.6715729,18 12,17.3284271 12,16.5 C12,15.6715729 12.6715729,15 13.5,15 Z M34.5,15 C35.3284271,15 36,15.6715729 36,16.5 C36,17.3284271 35.3284271,18 34.5,18 L19.5,18 C18.6715729,18 18,17.3284271 18,16.5 C18,15.6715729 18.6715729,15 19.5,15 L34.5,15 Z" id="website" fill="#0071B3"></path>
    </g>
</svg>