<?xml version="1.0" encoding="UTF-8"?>
<svg width="48px" height="48px" viewBox="0 0 48 48" version="1.1" xmlns="http://www.w3.org/2000/svg" xmlns:xlink="http://www.w3.org/1999/xlink">
    <title>Social Media / Whatsapp</title>
    <g id="Social-Media-/-Whatsapp" stroke="none" stroke-width="1" fill="none" fill-rule="evenodd">
        <path d="M24.0837,4.0005 C29.4117,4.0025 34.4117,6.0765 38.1717,9.8405 C41.9327,13.6055 44.0017,18.6085 44.0007,23.9305 C43.9957,34.9125 35.0607,43.8465 24.0837,43.8465 L24.0837,43.8465 C20.7427,43.8455 17.4667,43.0095 14.5577,41.4225 L14.5577,41.4225 L4.0007,44.1925 L6.8257,33.8715 C5.0827,30.8515 4.1657,27.4255 4.1667,23.9155 C4.1707,12.9345 13.1057,4.0005 24.0837,4.0005 Z M24.0897,7.3635 C14.9587,7.3635 7.5337,14.7895 7.52969914,23.9165 C7.5287,27.0445 8.4037,30.0905 10.0607,32.7255 L10.0607,32.7255 L10.4547,33.3525 L8.7817,39.4605 L15.0467,37.8165 L15.6517,38.1755 C18.1927,39.6845 21.1067,40.4825 24.0767,40.4835 L24.0767,40.4835 C33.2077,40.4835 40.6337,33.0575 40.6377004,23.9295 C40.6387,19.5065 38.9187,15.3475 35.7927,12.2185 C32.6677,9.0895 28.5117,7.3655 24.0897,7.3635 Z M17.0324,14.7176 C17.3644,14.7176 17.6964,14.7206 17.9864,14.7346 C18.2914,14.7506 18.7014,14.6196 19.1054,15.5896 C19.5204,16.5856 20.5154,19.0356 20.6404,19.2846 C20.7644,19.5336 20.8474,19.8236 20.6814,20.1566 C20.5154,20.4886 20.4324,20.6956 20.1834,20.9866 C19.9354,21.2766 19.6614,21.6356 19.4374,21.8586 C19.1884,22.1066 18.9294,22.3756 19.2194,22.8746 C19.5094,23.3726 20.5084,25.0016 21.9884,26.3216 C23.8884,28.0166 25.4924,28.5416 25.9894,28.7916 C26.4874,29.0406 26.7774,28.9986 27.0674,28.6666 C27.3584,28.3346 28.3114,27.2136 28.6434,26.7156 C28.9754,26.2176 29.3064,26.3006 29.7634,26.4666 C30.2194,26.6326 32.6664,27.8366 33.1634,28.0856 C33.6614,28.3346 33.9924,28.4586 34.1174,28.6666 C34.2424,28.8746 34.2424,29.8706 33.8274,31.0336 C33.4124,32.1956 31.4244,33.2566 30.4684,33.3996 C29.6104,33.5276 28.5264,33.5816 27.3334,33.2026 C26.6114,32.9726 25.6844,32.6666 24.4964,32.1536 C19.5044,29.9986 16.2444,24.9726 15.9954,24.6396 C15.7464,24.3076 13.9634,21.9416 13.9634,19.4916 C13.9634,17.0426 15.2494,15.8386 15.7054,15.3406 C16.1614,14.8426 16.7004,14.7176 17.0324,14.7176 Z" id="whatsapp" fill="#0071B3"></path>
    </g>
</svg>